<svg id="building" xmlns="http://www.w3.org/2000/svg" viewBox="0 0 64 64">
  <defs>
    <style>
      .cls-1 {
        fill: #1C8584;
      }
    </style>
  </defs>
  <title>HGBI Icons</title>
  <path class="cls-1"  d="M58.1,56.82V3H52.95V0H11.05V3H5.9V56.82H0V64H64V56.82H58.1ZM45,41.53V33.07h8.46v8.46H45Zm8.46,4.15v8.46H45V45.67h8.46ZM45,28.92V20.47h8.46v8.46H45ZM33.5,41.53V33.07H42v8.46H33.5ZM42,45.67v8.46H33.5V45.67H42ZM33.5,28.92V20.47H42v8.46H33.5Zm0-12.6V7.86H42v8.46H33.5ZM22,28.92V20.47H30.5v8.46H22Zm8.46,4.15v8.46H22V33.07H30.5ZM22,16.32V7.86H30.5v8.46H22Zm0,29.36H30.5v8.46H22V45.67ZM53.41,16.32H45V7.86h8.46v8.46ZM10.59,7.86H19v8.46H10.59V7.86Zm0,12.6H19v8.46H10.59V20.47Zm0,12.6H19v8.46H10.59V33.07Zm0,12.6H19v8.46H10.59V45.67Z"/>
</svg>
