<svg xmlns="http://www.w3.org/2000/svg" xmlns:xlink="http://www.w3.org/1999/xlink" viewBox="0 0 130 130">
  <defs>
    <style>
      .cls-1 {
        fill: url(#linear-gradient);
      }

      .cls-2 {
        fill: url(#linear-gradient-2);
      }

      .cls-3 {
        fill: url(#linear-gradient-3);
      }

      .cls-4 {
        fill: url(#linear-gradient-4);
      }

      .cls-5 {
        fill: url(#linear-gradient-5);
      }
    </style>
    <linearGradient id="linear-gradient" x1="-124.33" y1="161" x2="192.38" y2="-2.89" gradientUnits="userSpaceOnUse">
      <stop offset="0" stop-color="#f2f2f2"/>
      <stop offset="0.4" stop-color="#ececec"/>
      <stop offset="0.92" stop-color="#dcdcdc"/>
      <stop offset="1" stop-color="#d9d9d9"/>
    </linearGradient>
    <linearGradient id="linear-gradient-2" x1="-86.98" y1="137.27" x2="234.45" y2="-29.06" gradientUnits="userSpaceOnUse">
      <stop offset="0" stop-color="#f0f0f0"/>
      <stop offset="0.42" stop-color="#eaeaea"/>
      <stop offset="0.97" stop-color="#dadada"/>
      <stop offset="1" stop-color="#d9d9d9"/>
    </linearGradient>
    <linearGradient id="linear-gradient-3" x1="74.78" y1="104.07" x2="83.52" y2="96.28" gradientUnits="userSpaceOnUse">
      <stop offset="0" stop-color="#f2f2f2"/>
      <stop offset="0.4" stop-color="#ececec"/>
      <stop offset="0.92" stop-color="#dcdcdc"/>
      <stop offset="1" stop-color="#d9d9d9"/>
    </linearGradient>
    <linearGradient id="linear-gradient-4" x1="30.97" y1="104.09" x2="39.02" y2="96.14" gradientUnits="userSpaceOnUse">
      <stop offset="0" stop-color="#f2f2f2"/>
      <stop offset="0.4" stop-color="#ececec"/>
      <stop offset="0.92" stop-color="#dcdcdc"/>
      <stop offset="1" stop-color="#d9d9d9"/>
    </linearGradient>
    <linearGradient id="linear-gradient-5" x1="56.23" y1="84.05" x2="93.49" y2="46.8" gradientUnits="userSpaceOnUse">
      <stop offset="0.1" stop-color="#4ab96d"/>
      <stop offset="0.1" stop-color="#4cb86d"/>
      <stop offset="0.2" stop-color="#6fa364"/>
      <stop offset="0.3" stop-color="#88935d"/>
      <stop offset="0.39" stop-color="#988a59"/>
      <stop offset="0.45" stop-color="#9d8758"/>
      <stop offset="0.48" stop-color="#a18156"/>
      <stop offset="0.58" stop-color="#b2684f"/>
      <stop offset="0.69" stop-color="#be5649"/>
      <stop offset="0.81" stop-color="#c64b46"/>
      <stop offset="0.94" stop-color="#c84845"/>
    </linearGradient>
  </defs>
  <g id="FINAL_-_Mark:_Circle" data-name="FINAL - Mark: Circle">
    <g>
      <path class="cls-1" d="M99.6,38.22H52.45l-.25,1.34a2.78,2.78,0,0,0,2.74,3.28H97.38l-6,32.47a2.76,2.76,0,0,0,2.72,3.27h1.38l6.89-37.08A2.77,2.77,0,0,0,99.6,38.22Z"/>
      <path class="cls-2" d="M107.89,86a2.78,2.78,0,0,0-2.78-2.78H39.44l10.5-56.85a2.78,2.78,0,0,0-2.73-3.28H26.11v1.85a2.77,2.77,0,0,0,2.77,2.78H45L34.48,84.56a2.78,2.78,0,0,0,2.73,3.28H89L87.29,97.1a2.78,2.78,0,0,0,2.22,3.24l1.82.33,2.39-12.83h14.17Z"/>
      <circle class="cls-3" cx="77.93" cy="101.26" r="5.66"/>
      <circle class="cls-4" cx="33.84" cy="101.26" r="5.66"/>
      <path class="cls-5" d="M76.51,56.53l-7.35,8A4.64,4.64,0,0,1,62,64l-1-1.4a4.62,4.62,0,0,0-7.37-.22l-7.34,9.12-1.3,7H86l2.82-15.17-5.3-6.63A4.63,4.63,0,0,0,76.51,56.53Z"/>
    </g>
  </g>
</svg>
