<svg xmlns="http://www.w3.org/2000/svg" viewBox="0 0 1214.6 2436">
  <defs>
    <style>
      .cls-1 {
        fill: #303030;
      }
    </style>
  </defs>
  <g id="Layer_2" data-name="Layer 2">
    <g id="Layer_10" data-name="Layer 10">
      <g>
        <path class="cls-1" d="M7,330.09H27.84a0,0,0,0,1,0,0v90.48a0,0,0,0,1,0,0H7a7,7,0,0,1-7-7V337.05A7,7,0,0,1,7,330.09Z"/>
        <path class="cls-1" d="M7,504.2H27.84a0,0,0,0,1,0,0V678.25a0,0,0,0,1,0,0H7a7,7,0,0,1-7-7V511.16A7,7,0,0,1,7,504.2Z"/>
        <path class="cls-1" d="M1186.76,559.91h20.88a7,7,0,0,1,7,7V831.47a7,7,0,0,1-7,7h-20.88a0,0,0,0,1,0,0V559.91A0,0,0,0,1,1186.76,559.91Z"/>
        <path class="cls-1" d="M7,723.52H27.84a0,0,0,0,1,0,0V897.57a0,0,0,0,1,0,0H7a7,7,0,0,1-7-7V730.48A7,7,0,0,1,7,723.52Z"/>
        <path class="cls-1" d="M1023.19,0H191.41a181,181,0,0,0-181,181V2255a181,181,0,0,0,181,181h831.78a181,181,0,0,0,181-181V181A181,181,0,0,0,1023.19,0ZM1152,2255a128.9,128.9,0,0,1-128.76,128.76H191.41A128.9,128.9,0,0,1,62.65,2255V181A128.9,128.9,0,0,1,191.41,52.2h831.78A128.9,128.9,0,0,1,1152,181Z"/>
        <path d="M1023.19,38.28H191.41c-78.68,0-142.68,64-142.68,142.68V2255c0,78.67,64,142.68,142.68,142.68h831.78c78.67,0,142.68-64,142.68-142.68V181C1165.87,102.29,1101.86,38.28,1023.19,38.28ZM1138,2255a115,115,0,0,1-114.84,114.84H191.41A115,115,0,0,1,76.57,2255V181A115,115,0,0,1,191.41,66.12H298.47a20.8,20.8,0,0,1,20.86,20.11l.49,13.19A52,52,0,0,0,372,149.69H842.61a52,52,0,0,0,52.16-50.27l.49-13.19a20.82,20.82,0,0,1,20.87-20.11h107.06A115,115,0,0,1,1138,181Z"/>
        <circle class="cls-1" cx="739.62" cy="100.94" r="20.88"/>
        <path class="cls-1" d="M669.94,111.38H544.66a10.44,10.44,0,0,1-10.44-10.44h0A10.43,10.43,0,0,1,544.66,90.5H669.94a10.44,10.44,0,0,1,10.44,10.44h0A10.45,10.45,0,0,1,669.94,111.38Z"/>
      </g>
    </g>
  </g>
</svg>
