<svg xmlns="http://www.w3.org/2000/svg" viewBox="0 0 31.93 27.93"><path d="M16.54 27.93a11.16 11.16 0 01-10.07-6.41.5.5 0 11.91-.42 10.12 10.12 0 0019.15-2.63.49.49 0 01.57-.41.5.5 0 01.41.57 11.07 11.07 0 01-10.97 9.3z" fill="#fdfdfd"/><path d="M7.16 25.36a.5.5 0 01-.35-.15 10.58 10.58 0 01-2.68-6.16 5.55 5.55 0 00-.65 2.76.5.5 0 01-1 .18 9.88 9.88 0 010-6.56 8.64 8.64 0 00-1.31 2.7.48.48 0 01-.51.35.5.5 0 01-.46-.4 14.61 14.61 0 015-13.4C9.06 1.41 14.06.54 19.38 2.19a5.44 5.44 0 00-1-1.34.5.5 0 01-.1-.55.49.49 0 01.48-.3 8.78 8.78 0 017.51 4.5 4.58 4.58 0 00-.2-1.68.5.5 0 01.76-.56 4.49 4.49 0 011.7 4.22 2.79 2.79 0 00.71-1.28.5.5 0 01.48-.37.5.5 0 01.48.36 5.4 5.4 0 01-.46 3.91 3.61 3.61 0 001.15-1 .5.5 0 01.9.26A5.48 5.48 0 0130 12.62a2.49 2.49 0 001.24-.19.5.5 0 01.63.71 4.17 4.17 0 01-2.8 2.37.86.86 0 000 .49s0 .06.13.09a.5.5 0 01.19.86 4.34 4.34 0 00-1.44 2.38.5.5 0 01-1 .08c-.25-1-.7-1.22-.7-1.23a.48.48 0 01-.3-.29.49.49 0 010-.42c0-.06.29-.67-.84-1.37a.5.5 0 01.13-.91c.14 0 .27-.33.33-.67a3 3 0 01-2.08-1.13.5.5 0 01.41-.79 1.78 1.78 0 00.92-.23 3.68 3.68 0 01-2-.87.5.5 0 01.34-.84 1.23 1.23 0 00.74-.39 5.59 5.59 0 00-4.39.16.5.5 0 01-.7-.53 2.58 2.58 0 01.67-1.14 11.61 11.61 0 00-8.43 3.41c-3.17 3.07-4.39 7.55-3.45 12.6a.5.5 0 01-.49.59zm-2.62-8.1a.5.5 0 01.5.51A11.81 11.81 0 006.41 23a14 14 0 014-11.59c2.87-2.78 7.11-4.24 10.3-3.54a.5.5 0 01.22.86l-.28.27a6.41 6.41 0 014.32.6.5.5 0 01.2.7 3.46 3.46 0 01-.81.89 6.41 6.41 0 001.5.25.5.5 0 01.46.67 2.29 2.29 0 01-1.21 1.23 2.94 2.94 0 001 .18.48.48 0 01.37.14.5.5 0 01.15.37 3.19 3.19 0 01-.44 1.59A2 2 0 0127 17.5a2.21 2.21 0 01.35.38 6 6 0 01.92-1.26 1.13 1.13 0 01-.12-.2 2.15 2.15 0 01.09-1.59.49.49 0 01.5-.29 2.21 2.21 0 001.57-.91 3.33 3.33 0 01-1.58-.39.5.5 0 010-.84 5.42 5.42 0 002-2.71 5.35 5.35 0 01-2.05.87.5.5 0 01-.46-.82 6 6 0 001.19-2.67 2.51 2.51 0 01-1.37.8.49.49 0 01-.44-.16.5.5 0 01-.12-.45 5.6 5.6 0 00-.13-2.89 3.46 3.46 0 01-.5 1.78.5.5 0 01-.96-.15 7.69 7.69 0 00-6-4.89 4.63 4.63 0 01.79 1.81.5.5 0 01-.67.54c-5.34-2-10.37-1.25-14.16 2A13.91 13.91 0 001 15.94c1.18-2.25 2.55-2.59 2.62-2.61a.5.5 0 01.54.74A10.45 10.45 0 003 19.2a4.47 4.47 0 011.29-1.85.5.5 0 01.25-.09z" fill="#ff664e"/></svg>