<svg xmlns="http://www.w3.org/2000/svg" viewBox="0 0 130 130"><defs><linearGradient id="a" x1="-124.33" y1="161" x2="192.38" y2="-2.89" gradientUnits="userSpaceOnUse"><stop offset="0" stop-color="#f2f2f2"/><stop offset=".4" stop-color="#ececec"/><stop offset=".92" stop-color="#dcdcdc"/><stop offset="1" stop-color="#d9d9d9"/></linearGradient><linearGradient id="b" x1="-86.98" y1="137.27" x2="234.45" y2="-29.06" gradientUnits="userSpaceOnUse"><stop offset="0" stop-color="#f0f0f0"/><stop offset=".42" stop-color="#eaeaea"/><stop offset=".97" stop-color="#dadada"/><stop offset="1" stop-color="#d9d9d9"/></linearGradient><linearGradient id="c" x1="74.78" y1="104.07" x2="83.52" y2="96.28" gradientUnits="userSpaceOnUse"><stop offset="0" stop-color="#f2f2f2"/><stop offset=".4" stop-color="#ececec"/><stop offset=".92" stop-color="#dcdcdc"/><stop offset="1" stop-color="#d9d9d9"/></linearGradient><linearGradient id="d" x1="30.97" y1="104.09" x2="39.02" y2="96.14" gradientUnits="userSpaceOnUse"><stop offset="0" stop-color="#f2f2f2"/><stop offset=".4" stop-color="#ececec"/><stop offset=".92" stop-color="#dcdcdc"/><stop offset="1" stop-color="#d9d9d9"/></linearGradient><linearGradient id="e" x1="56.23" y1="84.05" x2="93.49" y2="46.8" gradientUnits="userSpaceOnUse"><stop offset=".1" stop-color="#4ab96d"/><stop offset=".1" stop-color="#4cb86d"/><stop offset=".2" stop-color="#6fa364"/><stop offset=".3" stop-color="#88935d"/><stop offset=".39" stop-color="#988a59"/><stop offset=".45" stop-color="#9d8758"/><stop offset=".48" stop-color="#a18156"/><stop offset=".58" stop-color="#b2684f"/><stop offset=".69" stop-color="#be5649"/><stop offset=".81" stop-color="#c64b46"/><stop offset=".94" stop-color="#c84845"/></linearGradient></defs><g data-name="FINAL - Mark: Circle"><path d="M99.6 38.22H52.45l-.25 1.34a2.78 2.78 0 002.74 3.28h42.44l-6 32.47a2.76 2.76 0 002.72 3.27h1.38l6.89-37.08a2.77 2.77 0 00-2.77-3.28z" fill="url(#a)"/><path d="M107.89 86a2.78 2.78 0 00-2.78-2.78H39.44l10.5-56.85a2.78 2.78 0 00-2.73-3.28h-21.1v1.85a2.77 2.77 0 002.77 2.78H45L34.48 84.56a2.78 2.78 0 002.73 3.28H89l-1.71 9.26a2.78 2.78 0 002.22 3.24l1.82.33 2.39-12.83h14.17z" fill="url(#b)"/><circle cx="77.93" cy="101.26" r="5.66" fill="url(#c)"/><circle cx="33.84" cy="101.26" r="5.66" fill="url(#d)"/><path d="M76.51 56.53l-7.35 8A4.64 4.64 0 0162 64l-1-1.4a4.62 4.62 0 00-7.37-.22l-7.34 9.12-1.3 7H86l2.82-15.17-5.3-6.63a4.63 4.63 0 00-7.01-.17z" fill="url(#e)"/></g></svg>