<svg xmlns="http://www.w3.org/2000/svg" viewBox="0 0 1214.6 2436"><defs><style>.cls-1{fill:#303030}</style></defs><g id="Layer_2" data-name="Layer 2"><g id="Layer_10" data-name="Layer 10"><path class="cls-1" d="M7 330.09h20.84v90.48H7a7 7 0 01-7-7v-76.52a7 7 0 017-6.96zM7 504.2h20.84v174.05H7a7 7 0 01-7-7V511.16a7 7 0 017-6.96zm1179.76 55.71h20.88a7 7 0 017 7v264.56a7 7 0 01-7 7h-20.88V559.91zM7 723.52h20.84v174.05H7a7 7 0 01-7-7V730.48a7 7 0 017-6.96z"/><path class="cls-1" d="M1023.19 0H191.41a181 181 0 00-181 181v2074a181 181 0 00181 181h831.78a181 181 0 00181-181V181a181 181 0 00-181-181zM1152 2255a128.9 128.9 0 01-128.76 128.76H191.41A128.9 128.9 0 0162.65 2255V181A128.9 128.9 0 01191.41 52.2h831.78A128.9 128.9 0 011152 181z"/><path d="M1023.19 38.28H191.41c-78.68 0-142.68 64-142.68 142.68V2255c0 78.67 64 142.68 142.68 142.68h831.78c78.67 0 142.68-64 142.68-142.68V181c0-78.71-64.01-142.72-142.68-142.72zM1138 2255a115 115 0 01-114.84 114.84H191.41A115 115 0 0176.57 2255V181A115 115 0 01191.41 66.12h107.06a20.8 20.8 0 0120.86 20.11l.49 13.19A52 52 0 00372 149.69h470.61a52 52 0 0052.16-50.27l.49-13.19a20.82 20.82 0 0120.87-20.11h107.06A115 115 0 011138 181z"/><circle class="cls-1" cx="739.62" cy="100.94" r="20.88"/><path class="cls-1" d="M669.94 111.38H544.66a10.44 10.44 0 01-10.44-10.44 10.43 10.43 0 0110.44-10.44h125.28a10.44 10.44 0 0110.44 10.44 10.45 10.45 0 01-10.44 10.44z"/></g></g></svg>