<svg xmlns="http://www.w3.org/2000/svg" viewBox="0 0 252 144">
  <defs>
    <style>
      .cls-1 {
        fill: #fff;
      }

      .cls-2 {
        fill: #444445;
      }

      .cls-3 {
        fill: #1a8383;
      }
    </style>
  </defs>
  <title>bizcard_Front</title>
  <g id="Layer_2" data-name="Layer 2">
    <g id="Business_Cards" data-name="Business Cards">
      <rect class="cls-1" width="252" height="144"/>
      <g>
        <polygon class="cls-1" points="59.26 43.8 85.06 71.64 85.06 71.64 18.66 0 59.26 43.8"/>
        <polygon class="cls-1" points="18.66 0 18.66 0 0 0 0 144 100.09 144 59.26 71.64 18.66 0"/>
        <polygon class="cls-1" points="100.11 87.84 100.14 87.88 100.11 87.84 100.11 87.84"/>
        <polygon class="cls-2" points="85.06 71.64 85.06 71.64 100.11 87.84 100.11 87.84 100.14 87.88 152.44 144 252 144 252 0 18.66 0 18.66 0 85.06 71.64"/>
        <polygon class="cls-3" points="100.14 87.88 100.11 87.84 100.11 87.84 85.47 72.08 85.06 71.64 85.06 71.64 59.26 43.8 18.66 0 59.26 71.64 100.09 144 152.26 144 100.14 87.88"/>
        <polygon class="cls-3" points="152.26 144 152.44 144 100.14 87.88 152.26 144"/>
        <polygon class="cls-3" points="85.06 71.64 85.06 71.64 85.47 72.08 100.11 87.84 100.11 87.84 85.06 71.64"/>
        <g>
          <g>
            <path class="cls-2" d="M49.34,136.91V122.46H50v14.45Z"/>
            <path class="cls-2" d="M62.71,136.91l-7.23-13.62c.06.85.1,2,.1,4.51v9.11H54.9V122.46h.9L63,136.09c0-.83-.08-2.27-.08-4.2v-9.43h.69v14.45Z"/>
            <path class="cls-2" d="M76.4,123.7l-.39.52a4.24,4.24,0,0,0-2.93-1.07c-2.65,0-4.83,1.92-4.83,6.57,0,4.41,2.12,6.55,4.74,6.55a4.35,4.35,0,0,0,3.16-1.2l.41.52A5.09,5.09,0,0,1,73,137c-3.12,0-5.46-2.51-5.46-7.23S70,122.46,73,122.46A4.7,4.7,0,0,1,76.4,123.7Z"/>
          </g>
          <g>
            <g>
              <path class="cls-3" d="M11.15,130.87l-.2.23a2.26,2.26,0,0,0-1.5-.51c-1.1,0-2.29.85-2.29,3s.94,3.11,2.33,3.11a2.81,2.81,0,0,0,1.47-.38v-2.57H9.59l0-.31h1.74v3.06a3.56,3.56,0,0,1-1.81.5c-1.58,0-2.68-1.15-2.68-3.42s1.35-3.35,2.64-3.35A2.54,2.54,0,0,1,11.15,130.87Z"/>
              <path class="cls-3" d="M16.22,133.89V137h-.34v-6.57h1.49c1.54,0,2.22.62,2.22,1.73a1.65,1.65,0,0,1-1.49,1.71L19.94,137h-.42l-1.76-3.06Zm3-1.77c0-.92-.51-1.44-1.9-1.44H16.22v2.9h1.22C18.58,133.58,19.25,133.13,19.25,132.12Z"/>
              <path class="cls-3" d="M28.94,133.68c0,2.14-1,3.37-2.61,3.37s-2.61-1.19-2.61-3.36,1.07-3.41,2.61-3.41S28.94,131.45,28.94,133.68Zm-4.87,0c0,2,.93,3.05,2.26,3.05s2.26-1,2.26-3.06-.91-3.08-2.26-3.08S24.06,131.63,24.06,133.69Z"/>
              <path class="cls-3" d="M35.54,137a1.88,1.88,0,0,1-2.06-2.11v-4.56h.34v4.53c0,1.09.5,1.83,1.72,1.83s1.7-.76,1.7-1.83v-4.53h.35v4.56A1.89,1.89,0,0,1,35.54,137Z"/>
              <path class="cls-3" d="M46.32,132.3c0,1.45-1,2-2.4,2h-1V137h-.34v-6.57H44C45.46,130.38,46.32,131,46.32,132.3Zm-.36,0c0-1.2-.71-1.63-2-1.63H42.9V134h1C45.13,134,46,133.59,46,132.31Z"/>
            </g>
            <path class="cls-3" d="M10.81,127.24c0,1.16-.81,1.79-2.2,1.79H6.84v-6.57h1.4c1.42,0,2.24.53,2.24,1.63a1.33,1.33,0,0,1-1.18,1.45A1.53,1.53,0,0,1,10.81,127.24Zm-3.63-1.82H8.74a1.27,1.27,0,0,0,1.4-1.32c0-.92-.66-1.33-1.86-1.33H7.18Zm3.28,1.82a1.47,1.47,0,0,0-1.68-1.53H7.18v3H8.63C9.77,128.72,10.47,128.24,10.47,127.24Z"/>
            <path class="cls-3" d="M14.52,129A1.87,1.87,0,0,1,12.46,127v-4.49h.34v4.46a1.58,1.58,0,0,0,1.72,1.8,1.58,1.58,0,0,0,1.7-1.8v-4.46h.35V127A1.88,1.88,0,0,1,14.52,129Z"/>
            <path class="cls-3" d="M22,123.14l-.21.22a2.15,2.15,0,0,0-1.56-.6c-.92,0-1.49.49-1.49,1.2s.42,1.06,1.6,1.4,1.87.79,1.87,1.85A1.85,1.85,0,0,1,20.12,129a2.9,2.9,0,0,1-2-.78l.22-.22a2.48,2.48,0,0,0,1.78.7,1.53,1.53,0,0,0,1.73-1.5c0-.89-.44-1.22-1.66-1.59s-1.82-.82-1.82-1.68a1.62,1.62,0,0,1,1.83-1.5A2.45,2.45,0,0,1,22,123.14Z"/>
            <path class="cls-3" d="M24,129v-6.57h.34V129Z"/>
            <path class="cls-3" d="M30.32,129l-3.42-6.19c0,.39,0,.9,0,2.05V129h-.33v-6.57H27l3.41,6.19c0-.38,0-1,0-1.91v-4.29h.33V129Z"/>
            <path class="cls-3" d="M33.4,122.77v2.66h2.42v.3H33.4v3h2.9V129H33.06v-6.57h3.18l0,.31Z"/>
            <path class="cls-3" d="M41.05,123.14l-.21.22a2.15,2.15,0,0,0-1.56-.6c-.92,0-1.49.49-1.49,1.2s.42,1.06,1.6,1.4,1.87.79,1.87,1.85A1.85,1.85,0,0,1,39.19,129a2.9,2.9,0,0,1-2-.78l.22-.22a2.48,2.48,0,0,0,1.78.7,1.53,1.53,0,0,0,1.73-1.5c0-.89-.44-1.22-1.66-1.59s-1.82-.82-1.82-1.68a1.62,1.62,0,0,1,1.83-1.5A2.45,2.45,0,0,1,41.05,123.14Z"/>
            <path class="cls-3" d="M46.14,123.14l-.21.22a2.15,2.15,0,0,0-1.56-.6c-.92,0-1.49.49-1.49,1.2s.42,1.06,1.6,1.4,1.87.79,1.87,1.85A1.85,1.85,0,0,1,44.28,129a2.9,2.9,0,0,1-2-.78l.22-.22a2.48,2.48,0,0,0,1.78.7,1.53,1.53,0,0,0,1.73-1.5c0-.89-.44-1.22-1.66-1.59s-1.82-.82-1.82-1.68a1.62,1.62,0,0,1,1.83-1.5A2.45,2.45,0,0,1,46.14,123.14Z"/>
          </g>
          <g>
            <path class="cls-2" d="M9.07,113.18v8.56H6.85V103.68H9.07v7.61h7.72v-7.61H19v18.06H16.78v-8.56Z"/>
            <path class="cls-2" d="M25.87,117.12l-1.39,4.62H22.2L28,103.68H30.8l5.73,18.06H34.15l-1.37-4.62Zm3.46-11.55-2.92,9.69h5.81Z"/>
            <path class="cls-2" d="M43.39,121.74H41.12v-7l-5.7-11.11h2.48l4.44,9.11,4.41-9.11h2.35l-5.7,11.08Z"/>
            <path class="cls-2" d="M54.46,105.52v6.09h6.06v1.84H54.46v6.46h7.43v1.84H52.24V103.68h9.47l-.26,1.84Z"/>
            <path class="cls-2" d="M76,105.68l-1.27,1.39a5.86,5.86,0,0,0-4.05-1.57c-1.9,0-3.33.89-3.33,2.58,0,1.54.75,2.28,4,3.24,2.94.86,5.25,2,5.25,5.24,0,3-2.34,5.14-6.26,5.14a8.44,8.44,0,0,1-6-2.23l1.33-1.42a6.47,6.47,0,0,0,4.65,1.82c2.18,0,4-1.09,4-3.24,0-1.8-.88-2.58-4-3.49-3.51-1-5.25-2.33-5.25-5s2.29-4.48,5.54-4.48A7.46,7.46,0,0,1,76,105.68Z"/>
          </g>
        </g>
        <g>
          <path class="cls-1" d="M161.54,17.72l-.33-.9a2.1,2.1,0,0,0,1.56-2.4V6H164v8.43C164,16.46,163.12,17.2,161.54,17.72Z"/>
          <path class="cls-1" d="M173.41,11.82c0,2.65-1.44,4.17-3.58,4.17s-3.58-1.48-3.58-4.15,1.45-4.15,3.58-4.15S173.41,9.15,173.41,11.82Zm-5.92,0c0,2.26,1,3.19,2.33,3.19s2.32-.92,2.32-3.2-.88-3.19-2.32-3.19S167.49,9.59,167.49,11.84Z"/>
          <path class="cls-1" d="M175.9,13.84l-.63,2H174l2.73-8h1.48l2.72,8h-1.27l-.62-2Zm1.59-5.06L176.2,12.9h2.59Z"/>
          <path class="cls-1" d="M186.89,15.83,183.49,9c.06.77.16,1.66.16,3.16v3.67h-1.09v-8h1.55l3.46,6.85a21.6,21.6,0,0,1-.17-2.66V7.83h1.09v8Z"/>
          <path class="cls-1" d="M195.75,15.83,192.36,9c.06.77.16,1.66.16,3.16v3.67h-1.09v-8H193l3.46,6.85a21.6,21.6,0,0,1-.17-2.66V7.83h1.1v8Z"/>
          <path class="cls-1" d="M201.47,8.75v2.52h2.86v.92h-2.86v2.72H205v.92h-4.69v-8h4.62l-.14.92Z"/>
          <path class="cls-1" d="M212.21,11.2v4.64H211V6h1.22v4.12h4.25V6h1.24v9.78h-1.24V11.2Z"/>
          <path class="cls-1" d="M221.13,13.84l-.63,2h-1.22l2.73-8h1.48l2.72,8h-1.27l-.62-2Zm1.59-5.06-1.29,4.12H224Z"/>
          <path class="cls-1" d="M229.5,15.83h-1.21V12.76l-2.72-4.93h1.31l2.06,3.94,2-3.94h1.27l-2.73,4.92Z"/>
          <path class="cls-1" d="M235,8.75v2.52h2.86v.92H235v2.72h3.5v.92H233.8v-8h4.62l-.14.92Z"/>
          <path class="cls-1" d="M245.33,8.64l-.65.71a2.84,2.84,0,0,0-1.93-.71c-.87,0-1.54.37-1.54,1.11s.37,1,1.86,1.39,2.5,1,2.5,2.46-1.14,2.39-3,2.39a4.16,4.16,0,0,1-2.93-1.07l.67-.74a3.18,3.18,0,0,0,2.23.84c1,0,1.79-.47,1.79-1.37s-.4-1.12-1.83-1.54C240.78,11.64,240,11,240,9.8s1.14-2.12,2.72-2.12A3.63,3.63,0,0,1,245.33,8.64Z"/>
        </g>
        <g>
          <path class="cls-3" d="M192.84,20.46c0,1.61-1.1,2.21-2.66,2.21h-1.13v2.94h-.37V18.34h1.56C191.89,18.34,192.84,19,192.84,20.46Zm-.39,0c0-1.33-.79-1.8-2.21-1.8h-1.18v3.66h1.16C191.52,22.33,192.44,21.89,192.44,20.47Z"/>
          <path class="cls-3" d="M196.12,22.22v3.39h-.37V18.34h1.65c1.71,0,2.46.68,2.46,1.92a1.83,1.83,0,0,1-1.65,1.9l2,3.46h-.47l-2-3.39Zm3.35-2c0-1-.56-1.59-2.1-1.59h-1.25v3.21h1.35C198.73,21.88,199.47,21.38,199.47,20.26Z"/>
          <path class="cls-3" d="M203.36,18.68v2.94H206V22h-2.68v3.32h3.21v.34H203V18.34h3.52l-.05.34Z"/>
          <path class="cls-3" d="M212.88,19l-.23.26a2.34,2.34,0,0,0-1.73-.68c-1,0-1.65.55-1.65,1.37s.47,1.21,1.77,1.6,2.07.91,2.07,2.11a2.08,2.08,0,0,1-2.28,2.07,3.16,3.16,0,0,1-2.23-.89l.25-.26a2.7,2.7,0,0,0,2,.8,1.72,1.72,0,0,0,1.92-1.71c0-1-.49-1.4-1.83-1.81s-2-.94-2-1.92a1.81,1.81,0,0,1,2-1.72A2.67,2.67,0,0,1,212.88,19Z"/>
          <path class="cls-3" d="M216.12,25.61V18.34h.37v7.27Z"/>
          <path class="cls-3" d="M224.7,21.9c0,3.06-1.73,3.71-3.17,3.71H220.1V18.34h1.39C223.07,18.34,224.7,18.93,224.7,21.9Zm-4.22,3.37h1.07c1.34,0,2.76-.61,2.76-3.37s-1.47-3.22-2.84-3.22h-1Z"/>
          <path class="cls-3" d="M228.19,18.68v2.94h2.68V22h-2.68v3.32h3.21v.34h-3.58V18.34h3.52l-.05.34Z"/>
          <path class="cls-3" d="M238.27,25.61l-3.79-6.86c0,.43.05,1,.05,2.27v4.59h-.36V18.34h.47l3.78,6.86c0-.42,0-1.14,0-2.11V18.34h.36v7.27Z"/>
          <path class="cls-3" d="M243.81,18.69v6.92h-.37V18.69h-2.21v-.35h4.85l-.06.35Z"/>
        </g>
        <g>
          <path class="cls-1" d="M165.24,131h.44v2.64h3.21V131h.45v6h-.45v-3h-3.21v3h-.44Z"/>
          <path class="cls-1" d="M174.1,135l-.69,2.09h-.46c.64-1.91,1.32-3.89,2-6h.55l2.12,6h-.5l-.7-2.09Zm2.22-.42c-.6-1.76-1-2.68-1.07-3.11h0c-.17.73-.51,1.66-1,3.11Z"/>
          <path class="cls-1" d="M181.77,137.06v-2.45a.3.3,0,0,0,0-.15l-2-3.45h.51c.56,1,1.54,2.67,1.78,3.08.51-.88,1.23-2.12,1.78-3.08h.49l-2,3.49s0,.07,0,.12v2.43Z"/>
          <path class="cls-1" d="M190.83,134.08h-2.77v2.57h3l-.07.41h-3.42v-6H191v.41h-2.91v2.24h2.77Z"/>
          <path class="cls-1" d="M195,135.41a1.44,1.44,0,0,0,1.54,1.32,1.24,1.24,0,0,0,1.37-1.25c0-.74-.3-1.06-1.48-1.45s-1.66-.75-1.66-1.61.61-1.49,1.72-1.49a1.63,1.63,0,0,1,1.79,1.56h-.45a1.22,1.22,0,0,0-1.35-1.15c-.82,0-1.22.4-1.22,1s.32.92,1.36,1.24c1.45.45,1.79,1,1.79,1.81a1.66,1.66,0,0,1-1.86,1.68,1.79,1.79,0,0,1-2-1.72Z"/>
          <path class="cls-1" d="M202.13,131h2c.94,0,1.67.47,1.67,1.46a1.25,1.25,0,0,1-.94,1.29A1.5,1.5,0,0,1,206,135.3a1.73,1.73,0,0,1-2,1.76h-1.86Zm1.8,2.57c1,0,1.37-.44,1.37-1.09s-.37-1.09-1.31-1.09h-1.42v2.18Zm-1.36,3.09H204c.89,0,1.54-.43,1.54-1.36S205,134,203.89,134h-1.32Z"/>
          <path class="cls-1" d="M214.06,137.06h-.37a7.13,7.13,0,0,1-.05-1,1.76,1.76,0,0,1-1.84,1.06c-1.58,0-2.3-1.38-2.3-3.08s.86-3.14,2.49-3.14a1.93,1.93,0,0,1,2.09,1.71h-.44a1.56,1.56,0,0,0-1.66-1.29c-1.37,0-2,1.17-2,2.72,0,1.38.57,2.67,1.87,2.67,1.53,0,1.79-1.06,1.79-2.4v0h-1.76v-.42h2.2Z"/>
          <path class="cls-1" d="M217.93,137.08v-1.54h.61v1.54Z"/>
          <path class="cls-1" d="M227.77,135.39a2,2,0,0,1-2.13,1.76c-1.68,0-2.34-1.32-2.34-3.18,0-1.52.7-3,2.38-3a1.93,1.93,0,0,1,2.06,1.79h-.47a1.53,1.53,0,0,0-1.61-1.38c-1.31,0-1.89,1.24-1.89,2.63s.44,2.76,1.89,2.76a1.58,1.58,0,0,0,1.65-1.35Z"/>
          <path class="cls-1" d="M236.11,134c0,1.73-.78,3.15-2.47,3.15s-2.41-1.26-2.41-3.14c0-1.64.83-3.08,2.47-3.08S236.11,132.18,236.11,134Zm-4.42,0c0,1.55.64,2.75,2,2.75s2-1.22,2-2.74-.64-2.66-2-2.66S231.7,132.54,231.7,134Z"/>
          <path class="cls-1" d="M245,134.28c0-1.17,0-2.27,0-2.89h0c-.3,1-1.41,3.92-2.1,5.67h-.46c-.52-1.46-1.68-4.57-2-5.68h0c0,.7.06,2.07.06,3.11v2.57H240v-6h.68c.75,2,1.73,4.72,2,5.5h0c.11-.45,1.26-3.46,2-5.5h.68v6H245Z"/>
        </g>
        <g>
          <path class="cls-1" d="M118.11,50.34v3.73c0,.72-.07,1.32-.81,1.32h-.19V55h.19c.43,0,.46-.36.46-.86V50.34Zm-.35-.94v-.69h.36v.69Z"/>
          <path class="cls-1" d="M123.37,52.06c0,1-.43,1.9-1.51,1.9s-1.46-.9-1.46-1.88.52-1.8,1.5-1.8S123.37,51,123.37,52.06Zm-2.6,0c0,.86.38,1.56,1.12,1.56S123,53,123,52.06s-.38-1.46-1.12-1.46S120.76,51.22,120.76,52.08Z"/>
          <path class="cls-1" d="M127.93,53.19a4.47,4.47,0,0,0,.06.7h-.34a3.54,3.54,0,0,1,0-.63,1.08,1.08,0,0,1-1.13.69,1,1,0,0,1-1.1-1.07c0-.47.28-1.11,1.58-1.11h.63v-.4c0-.37-.1-.8-.83-.8a.77.77,0,0,0-.9.73h-.35a1.1,1.1,0,0,1,1.27-1c.68,0,1.15.31,1.15,1.07Zm-.34-1.1h-.65c-1,0-1.19.41-1.19.79a.71.71,0,0,0,.76.75c.79,0,1.09-.54,1.09-1.47Z"/>
          <path class="cls-1" d="M130.47,51.46c0-.75,0-1,0-1.12h.35c0,.07,0,.48,0,.62a1.09,1.09,0,0,1,1.08-.69c.6,0,1.14.3,1.14,1.36V53.9h-.36V51.66c0-.59-.23-1.05-.82-1.05-.78,0-1.05.62-1.05,1.44V53.9h-.35Z"/>
          <path class="cls-1" d="M135.59,51.46c0-.75,0-1,0-1.12h.35c0,.07,0,.48,0,.62a1.09,1.09,0,0,1,1.08-.69c.6,0,1.14.3,1.14,1.36V53.9h-.36V51.66c0-.59-.23-1.05-.82-1.05-.78,0-1.05.62-1.05,1.44V53.9h-.35Z"/>
          <path class="cls-1" d="M140.8,52.16c0,.9.38,1.49,1.08,1.49a1,1,0,0,0,1-.7h.35a1.28,1.28,0,0,1-1.33,1c-1.1,0-1.42-.95-1.42-1.87s.42-1.83,1.44-1.83,1.36.88,1.36,1.64v.26Zm2.09-.31c0-.74-.32-1.27-1-1.27s-1,.78-1.05,1.27Z"/>
          <path class="cls-1" d="M145.88,48.71V50.9a1.14,1.14,0,0,1,1.1-.63c.44,0,1.12.21,1.12,1.27V53.9h-.35V51.61c0-.65-.28-1-.85-1s-1,.43-1,1.23V53.9h-.35V48.71Z"/>
          <path class="cls-1" d="M152.86,53.19a4.47,4.47,0,0,0,.06.7h-.34a3.54,3.54,0,0,1,0-.63,1.08,1.08,0,0,1-1.13.69,1,1,0,0,1-1.09-1.07c0-.47.28-1.11,1.58-1.11h.63v-.4c0-.37-.1-.8-.83-.8a.77.77,0,0,0-.9.73h-.35a1.09,1.09,0,0,1,1.27-1c.68,0,1.15.31,1.15,1.07Zm-.34-1.1h-.65c-1,0-1.19.41-1.19.79a.71.71,0,0,0,.76.75c.79,0,1.09-.54,1.09-1.47Z"/>
          <path class="cls-1" d="M155.23,50.34c.64,1.86,1,2.75,1.07,3.19h0c.11-.36.43-1.34,1-3.19h.38l-1.27,3.72c-.36,1-.55,1.33-1.2,1.33l-.27,0V55l.29,0c.51,0,.63-.44.85-1.09l-1.29-3.63Z"/>
          <path class="cls-1" d="M159.91,52.16c0,.9.38,1.49,1.08,1.49a1,1,0,0,0,1-.7h.35A1.28,1.28,0,0,1,161,54c-1.1,0-1.42-.95-1.42-1.87s.42-1.83,1.44-1.83,1.36.88,1.36,1.64v.26Zm2.09-.31c0-.74-.32-1.27-1-1.27s-1,.78-1.05,1.27Z"/>
          <path class="cls-1" d="M164.65,52.92a.87.87,0,0,0,.92.74c.6,0,.8-.36.8-.7s-.24-.6-.89-.77c-.81-.21-1-.53-1-1a1,1,0,0,1,1.09-.93,1,1,0,0,1,1.14,1h-.35a.75.75,0,0,0-.81-.68c-.5,0-.71.25-.71.6s.13.49.78.67c.87.23,1.15.52,1.15,1.08a1.05,1.05,0,0,1-1.18,1,1.14,1.14,0,0,1-1.27-1Z"/>
          <path class="cls-1" d="M172.62,55.08a3,3,0,0,1-1.25.22,2.59,2.59,0,0,1-2.57-2.88c0-1.75,1-3.23,2.8-3.23a2.41,2.41,0,0,1,2.51,2.58c0,1.27-.53,2.1-1.34,2.1a.58.58,0,0,1-.66-.59,1,1,0,0,1-1,.59c-.53,0-.94-.39-.94-1.22,0-1.21.63-2,1.39-2a.74.74,0,0,1,.79.58l.08-.5h.35l-.36,2.24c-.07.46.11.63.38.63.49,0,.94-.58.94-1.79a2.09,2.09,0,0,0-2.18-2.25c-1.6,0-2.41,1.34-2.41,2.89A2.29,2.29,0,0,0,171.41,55a3.11,3.11,0,0,0,1.21-.22Zm-2.07-2.45c0,.68.3.92.63.92.49,0,.94-.36,1.06-1.46.06-.56-.06-1.14-.65-1.14S170.55,51.77,170.55,52.63Z"/>
          <path class="cls-1" d="M176.78,48.71V50.9a1.14,1.14,0,0,1,1.1-.63c.44,0,1.12.21,1.12,1.27V53.9h-.35V51.61c0-.65-.28-1-.85-1s-1,.43-1,1.23V53.9h-.35V48.71Z"/>
          <path class="cls-1" d="M183.76,53.19a4.47,4.47,0,0,0,.06.7h-.34a3.54,3.54,0,0,1,0-.63,1.08,1.08,0,0,1-1.13.69,1,1,0,0,1-1.09-1.07c0-.47.28-1.11,1.58-1.11h.63v-.4c0-.37-.1-.8-.83-.8a.77.77,0,0,0-.9.73h-.35a1.09,1.09,0,0,1,1.27-1c.68,0,1.15.31,1.15,1.07Zm-.34-1.1h-.65c-1,0-1.19.41-1.19.79a.71.71,0,0,0,.76.75c.79,0,1.09-.54,1.09-1.47Z"/>
          <path class="cls-1" d="M186.13,50.34c.64,1.86,1,2.75,1.07,3.19h0c.11-.36.43-1.34,1-3.19h.38l-1.27,3.72c-.36,1-.55,1.33-1.2,1.33l-.27,0V55l.29,0c.51,0,.63-.44.85-1.09l-1.29-3.63Z"/>
          <path class="cls-1" d="M190.81,52.16c0,.9.38,1.49,1.08,1.49a1,1,0,0,0,1-.7h.35a1.28,1.28,0,0,1-1.33,1c-1.1,0-1.42-.95-1.42-1.87s.42-1.83,1.44-1.83,1.36.88,1.36,1.64v.26Zm2.09-.31c0-.74-.32-1.27-1-1.27s-1,.78-1.05,1.27Z"/>
          <path class="cls-1" d="M195.55,52.92a.87.87,0,0,0,.92.74c.6,0,.8-.36.8-.7s-.24-.6-.89-.77c-.81-.21-1-.53-1-1a1,1,0,0,1,1.09-.93,1,1,0,0,1,1.14,1h-.35a.75.75,0,0,0-.81-.68c-.5,0-.71.25-.71.6s.13.49.78.67c.87.23,1.15.52,1.15,1.08a1.05,1.05,0,0,1-1.18,1,1.14,1.14,0,0,1-1.27-1Z"/>
          <path class="cls-1" d="M199.86,48.71h.35V50.9a1.16,1.16,0,0,1,1.12-.63c.83,0,1.37.65,1.37,1.74S202.26,54,201.23,54a1,1,0,0,1-1-.58,4.52,4.52,0,0,1,0,.52h-.34c0-.17,0-.47,0-1Zm1.42,1.89c-.8,0-1.09.51-1.09,1.46s.21,1.56,1.07,1.56,1.06-.69,1.06-1.6S202,50.61,201.28,50.61Z"/>
          <path class="cls-1" d="M207.53,53.68c0,1.12-.44,1.71-1.42,1.71s-1.27-.51-1.32-1h.35a.88.88,0,0,0,1,.7c.88,0,1.08-.6,1.08-1.46v-.34a1,1,0,0,1-1.11.67c-.82,0-1.35-.72-1.35-1.82s.61-1.85,1.44-1.85a.94.94,0,0,1,1,.58c0-.2,0-.41,0-.5h.35c0,.16,0,.53,0,1Zm-1.39-.09c.77,0,1.05-.5,1.05-1.5s-.27-1.49-1-1.49-1.08.62-1.08,1.51S205.51,53.6,206.15,53.6Z"/>
          <path class="cls-1" d="M209.84,53.9V53h.35v.88Z"/>
          <path class="cls-1" d="M215,52.83A1.32,1.32,0,0,1,213.69,54c-.95,0-1.44-.65-1.44-1.86,0-1,.44-1.83,1.46-1.83A1.25,1.25,0,0,1,215,51.45h-.36a.94.94,0,0,0-1-.86c-.75,0-1.09.64-1.09,1.52s.38,1.54,1.09,1.54a1,1,0,0,0,1-.82Z"/>
          <path class="cls-1" d="M220,52.06c0,1-.43,1.9-1.51,1.9s-1.46-.9-1.46-1.88.52-1.8,1.5-1.8S220,51,220,52.06Zm-2.6,0c0,.86.38,1.56,1.12,1.56s1.1-.68,1.1-1.58-.38-1.46-1.12-1.46S217.41,51.22,217.41,52.08Z"/>
          <path class="cls-1" d="M222.28,51.45c0-.59,0-1,0-1.11h.35c0,.08,0,.44,0,.55a1,1,0,0,1,1-.63.87.87,0,0,1,.92.65,1.1,1.1,0,0,1,1-.65c.5,0,1,.25,1,1.19V53.9h-.35V51.53c0-.5-.15-.92-.74-.92s-.9.56-.9,1.16V53.9h-.34v-2.4c0-.51-.2-.89-.72-.89s-.94.47-.94,1.23V53.9h-.35Z"/>
        </g>
        <g>
          <path class="cls-1" d="M176,62.87h-2c0,.41-.17,1.44-.23,1.77a1.2,1.2,0,0,1,1-.46c.85,0,1.37.58,1.37,1.55s-.43,1.66-1.46,1.66a1.31,1.31,0,0,1-1.42-1.21h.37a1,1,0,0,0,1.06.89c.77,0,1.08-.57,1.08-1.33s-.33-1.22-1-1.22a1,1,0,0,0-1,.63l-.36-.07c.09-.55.23-1.65.32-2.55h2.32Z"/>
          <path class="cls-1" d="M179,67.32V63a3.23,3.23,0,0,1-1,.44V63.1a2.84,2.84,0,0,0,1-.59h.27v4.81Z"/>
          <path class="cls-1" d="M184.54,62.53v.31a13.31,13.31,0,0,0-1.93,4.49h-.38a13.78,13.78,0,0,1,1.91-4.46h-2.44v-.33Z"/>
          <path class="cls-1" d="M187.81,65.33v.35h-1.66v-.35Z"/>
          <path class="cls-1" d="M192.61,62.87h-2c0,.41-.17,1.44-.23,1.77a1.2,1.2,0,0,1,1-.46c.85,0,1.37.58,1.37,1.55s-.43,1.66-1.46,1.66a1.31,1.31,0,0,1-1.42-1.21h.37a1,1,0,0,0,1.06.89c.77,0,1.08-.57,1.08-1.33s-.33-1.22-1-1.22a1,1,0,0,0-1,.63l-.36-.07c.09-.55.23-1.65.32-2.55h2.32Z"/>
          <path class="cls-1" d="M195,66a1.28,1.28,0,0,1,.84-1.24,1.1,1.1,0,0,1-.65-1.05,1.19,1.19,0,0,1,1.31-1.22,1.15,1.15,0,0,1,1.24,1.21,1,1,0,0,1-.65,1.05,1.25,1.25,0,0,1,.82,1.24A1.45,1.45,0,0,1,195,66Zm2.52,0a1.08,1.08,0,0,0-2.15,0,1,1,0,0,0,1.08,1.09A1,1,0,0,0,197.51,66Zm-2-2.31a.83.83,0,0,0,.93.9.82.82,0,0,0,.91-.88.87.87,0,0,0-.92-.92A.83.83,0,0,0,195.53,63.69Z"/>
          <path class="cls-1" d="M202.91,64.83c0,1.24-.24,2.57-1.43,2.57S200,66,200,64.81s.35-2.34,1.45-2.34S202.91,63.63,202.91,64.83Zm-2.51,0c0,1.18.24,2.25,1.09,2.25s1.06-1.06,1.06-2.23c0-1-.23-2-1.06-2S200.4,63.9,200.4,64.81Z"/>
          <path class="cls-1" d="M206.71,65.33v.35h-1.66v-.35Z"/>
          <path class="cls-1" d="M211.74,64.83c0,1.24-.24,2.57-1.43,2.57s-1.45-1.42-1.45-2.58.35-2.34,1.45-2.34S211.74,63.63,211.74,64.83Zm-2.51,0c0,1.18.24,2.25,1.09,2.25s1.06-1.06,1.06-2.23c0-1-.23-2-1.06-2S209.23,63.9,209.23,64.81Z"/>
          <path class="cls-1" d="M213.89,66a1.28,1.28,0,0,1,.84-1.24,1.1,1.1,0,0,1-.65-1.05,1.19,1.19,0,0,1,1.31-1.22,1.15,1.15,0,0,1,1.24,1.21,1,1,0,0,1-.65,1.05,1.25,1.25,0,0,1,.82,1.24,1.45,1.45,0,0,1-2.89,0Zm2.52,0a1.08,1.08,0,0,0-2.15,0,1,1,0,0,0,1.08,1.09A1,1,0,0,0,216.42,66Zm-2-2.31a.83.83,0,0,0,.93.9.82.82,0,0,0,.91-.88.87.87,0,0,0-.92-.92A.83.83,0,0,0,214.44,63.69Z"/>
          <path class="cls-1" d="M221.81,64.83c0,1.24-.24,2.57-1.43,2.57s-1.45-1.42-1.45-2.58.35-2.34,1.45-2.34S221.81,63.63,221.81,64.83Zm-2.51,0c0,1.18.24,2.25,1.09,2.25s1.06-1.06,1.06-2.23c0-1-.23-2-1.06-2S219.3,63.9,219.3,64.81Z"/>
          <path class="cls-1" d="M224,66a1.28,1.28,0,0,1,.84-1.24,1.1,1.1,0,0,1-.65-1.05,1.19,1.19,0,0,1,1.31-1.22,1.15,1.15,0,0,1,1.24,1.21,1,1,0,0,1-.65,1.05,1.25,1.25,0,0,1,.82,1.24A1.45,1.45,0,0,1,224,66Zm2.52,0a1.08,1.08,0,0,0-2.15,0,1,1,0,0,0,1.08,1.09A1,1,0,0,0,226.49,66Zm-2-2.31a.83.83,0,0,0,.93.9.82.82,0,0,0,.91-.88.87.87,0,0,0-.92-.92A.83.83,0,0,0,224.51,63.69Z"/>
        </g>
        <g>
          <path class="cls-1" d="M177.51,76.29h-2c0,.41-.17,1.44-.23,1.77a1.2,1.2,0,0,1,1-.46c.85,0,1.37.58,1.37,1.55s-.43,1.66-1.46,1.66a1.31,1.31,0,0,1-1.42-1.21h.37a1,1,0,0,0,1.06.89c.77,0,1.08-.57,1.08-1.33s-.33-1.22-1-1.22a1,1,0,0,0-1,.63l-.36-.07c.09-.55.23-1.65.32-2.55h2.32Z"/>
          <path class="cls-1" d="M180.55,80.75V76.41a3.23,3.23,0,0,1-1,.44v-.32a2.85,2.85,0,0,0,1-.59h.27v4.81Z"/>
          <path class="cls-1" d="M186,76v.31a13.31,13.31,0,0,0-1.93,4.49h-.38a13.78,13.78,0,0,1,1.91-4.46h-2.44V76Z"/>
          <path class="cls-1" d="M189.31,78.76v.35h-1.66v-.35Z"/>
          <path class="cls-1" d="M193.83,76.86a.79.79,0,0,0-.83-.63c-1,0-1.19,1.39-1.19,2.11a1.3,1.3,0,0,1,1.19-.7,1.34,1.34,0,0,1,1.34,1.51c0,.92-.48,1.67-1.41,1.67-1.17,0-1.49-1-1.49-2.29s.33-2.63,1.56-2.63a1.09,1.09,0,0,1,1.18,1Zm.14,2.29c0-.62-.3-1.17-1-1.17a1.06,1.06,0,0,0-1.12,1.1c0,.64.26,1.42,1.08,1.42C193.61,80.49,194,80,194,79.15Z"/>
          <path class="cls-1" d="M198.61,80.75V79.38h-2.18V79L198.51,76H199v3.1h.58l0,.32H199v1.37Zm0-3.25c0-.3,0-.93,0-1.21-.31.51-1.32,2-1.82,2.77h1.8Z"/>
          <path class="cls-1" d="M202.28,80.75V76.41a3.23,3.23,0,0,1-1,.44v-.32a2.85,2.85,0,0,0,1-.59h.27v4.81Z"/>
          <path class="cls-1" d="M206.71,78.76v.35h-1.66v-.35Z"/>
          <path class="cls-1" d="M211,80.75V79.38h-2.18V79L210.92,76h.47v3.1H212l0,.32h-.54v1.37Zm0-3.25c0-.3,0-.93,0-1.21-.31.51-1.32,2-1.82,2.77H211Z"/>
          <path class="cls-1" d="M216.25,80.75V79.38h-2.18V79L216.15,76h.47v3.1h.58l0,.32h-.54v1.37Zm0-3.25c0-.3,0-.93,0-1.21-.31.51-1.32,2-1.82,2.77h1.8Z"/>
          <path class="cls-1" d="M222.09,78.25c0,1.25-.24,2.57-1.43,2.57s-1.45-1.42-1.45-2.58.35-2.34,1.45-2.34S222.09,77.06,222.09,78.25Zm-2.51,0c0,1.18.24,2.25,1.09,2.25s1.06-1.06,1.06-2.23c0-1-.23-2-1.06-2S219.57,77.32,219.57,78.24Z"/>
          <path class="cls-1" d="M224.13,80.75v0a3,3,0,0,1,1.29-2c.76-.65,1.07-.87,1.07-1.52a.88.88,0,0,0-.92-1c-.67,0-.95.41-1,1.05h-.34a1.33,1.33,0,0,1,1.39-1.39,1.19,1.19,0,0,1,1.28,1.28c0,.75-.4,1.08-1.21,1.78a3.38,3.38,0,0,0-1.1,1.45H227l-.06.33Z"/>
        </g>
        <g>
          <path class="cls-1" d="M178.46,90.62v3.73c0,.72-.07,1.32-.81,1.32h-.18v-.33h.19c.43,0,.46-.36.46-.86V90.62Zm-.35-.94V89h.36v.69Z"/>
          <path class="cls-1" d="M183.72,92.33c0,1-.43,1.9-1.51,1.9s-1.46-.9-1.46-1.88.52-1.8,1.5-1.8S183.72,91.27,183.72,92.33Zm-2.6,0c0,.86.38,1.56,1.12,1.56s1.1-.68,1.1-1.58-.38-1.46-1.12-1.46S181.12,91.5,181.12,92.36Z"/>
          <path class="cls-1" d="M188.29,93.47a4.48,4.48,0,0,0,.06.7H188a3.54,3.54,0,0,1,0-.63,1.08,1.08,0,0,1-1.13.69,1,1,0,0,1-1.09-1.07c0-.47.28-1.11,1.58-1.11h.63v-.4c0-.37-.1-.8-.83-.8a.77.77,0,0,0-.9.73h-.35a1.09,1.09,0,0,1,1.27-1c.68,0,1.15.31,1.15,1.07Zm-.34-1.1h-.65c-1,0-1.19.41-1.19.79a.71.71,0,0,0,.76.75c.79,0,1.09-.54,1.09-1.47Z"/>
          <path class="cls-1" d="M190.83,91.74c0-.75,0-1,0-1.12h.35c0,.07,0,.48,0,.62a1.09,1.09,0,0,1,1.08-.69c.6,0,1.14.3,1.14,1.36v2.27H193V91.94c0-.59-.23-1.05-.82-1.05-.78,0-1.05.62-1.05,1.44v1.85h-.35Z"/>
          <path class="cls-1" d="M195.94,91.74c0-.75,0-1,0-1.12h.35c0,.07,0,.48,0,.62a1.09,1.09,0,0,1,1.08-.69c.6,0,1.14.3,1.14,1.36v2.27h-.36V91.94c0-.59-.23-1.05-.82-1.05-.78,0-1.05.62-1.05,1.44v1.85h-.35Z"/>
          <path class="cls-1" d="M201.15,92.44c0,.9.38,1.49,1.08,1.49a1,1,0,0,0,1-.7h.35a1.28,1.28,0,0,1-1.33,1c-1.1,0-1.42-.95-1.42-1.87s.42-1.83,1.44-1.83,1.36.88,1.36,1.63v.26Zm2.09-.31c0-.74-.32-1.27-1-1.27s-1,.78-1.05,1.27Z"/>
          <path class="cls-1" d="M205.78,94.18V93.3h.35v.88Z"/>
          <path class="cls-1" d="M208.44,90.54a1.29,1.29,0,0,1,1.34-1.22A1.13,1.13,0,0,1,211,90.51a1.06,1.06,0,0,1-.65,1h0a1.2,1.2,0,0,1,.85,1.21,1.37,1.37,0,0,1-1.49,1.48A1.31,1.31,0,0,1,208.32,93h.35a1.06,1.06,0,0,0,1.1.92,1,1,0,0,0,1.09-1.14c0-.82-.54-1.06-1.19-1.06h-.29v-.3h.3c.65,0,1-.3,1-.91a.82.82,0,0,0-.9-.87,1,1,0,0,0-1,.9Z"/>
          <path class="cls-1" d="M215.63,94.18V92.8h-2.18v-.36l2.07-3.07H216v3.1h.58l0,.32H216v1.37Zm0-3.25c0-.3,0-.93,0-1.21-.31.51-1.32,2-1.82,2.77h1.8Z"/>
          <path class="cls-1" d="M220.86,94.18V92.8h-2.18v-.36l2.07-3.07h.47v3.1h.58l0,.32h-.54v1.37Zm0-3.25c0-.3,0-.93,0-1.21-.31.51-1.32,2-1.82,2.77h1.8Z"/>
          <path class="cls-1" d="M224,90.54a1.29,1.29,0,0,1,1.34-1.22,1.13,1.13,0,0,1,1.25,1.19,1.06,1.06,0,0,1-.65,1h0a1.2,1.2,0,0,1,.85,1.21,1.37,1.37,0,0,1-1.49,1.48A1.31,1.31,0,0,1,223.91,93h.35a1.06,1.06,0,0,0,1.1.92,1,1,0,0,0,1.09-1.14c0-.82-.54-1.06-1.19-1.06H225v-.3h.3c.65,0,1-.3,1-.91a.82.82,0,0,0-.9-.87,1,1,0,0,0-1,.9Z"/>
        </g>
        <g>
          <polygon class="cls-3" points="244.4 49.8 239.9 52.48 239.65 52.63 238.18 52.63 237.92 52.48 233.42 49.8 233.41 55.14 244.41 55.14 244.4 49.8"/>
          <polygon class="cls-3" points="244.41 48.62 233.41 48.62 233.41 48.62 238.91 51.89 244.41 48.62"/>
        </g>
        <g>
          <path class="cls-3" d="M236,81.32h-.71a6.94,6.94,0,0,1,0-5.17H236l.34-2.46h-1.63a15.5,15.5,0,0,0,0,10.1h1.63Z"/>
          <path class="cls-3" d="M240.68,73.7H237V83.77h7V76.93Zm-3.23,1.23h3.23v.61h-3.23Zm0,1.4h3.23v.61h-3.23Zm6,6.19h-6v-.61h6Zm0-1.4h-6v-.61h6Zm0-1.4h-6v-.61h6Zm0-1.4h-6v-.61h6Z"/>
        </g>
        <path class="cls-3" d="M241.22,67.46l-.69.51a8.3,8.3,0,0,1-3.69-5l.69-.51-1.43-2.62-1,.75-.57.42a18.54,18.54,0,0,0,7.2,9.76l.57-.42,1-.75Z"/>
        <path class="cls-3" d="M243.68,93.25a4.83,4.83,0,0,0-5.54-5.79,2.8,2.8,0,0,0-3.9,3.78A4.83,4.83,0,0,0,239.85,97a2.8,2.8,0,0,0,3.83-3.71Zm-2.24,1.27a2.21,2.21,0,0,1-1,.74,3.92,3.92,0,0,1-1.51.27,3.68,3.68,0,0,1-1.73-.36,2.27,2.27,0,0,1-.79-.71,1.54,1.54,0,0,1-.31-.87.61.61,0,0,1,.2-.46.71.71,0,0,1,.5-.19.64.64,0,0,1,.42.15,1.09,1.09,0,0,1,.28.41,2.46,2.46,0,0,0,.28.49,1.07,1.07,0,0,0,.4.31,1.66,1.66,0,0,0,.7.13,1.7,1.7,0,0,0,1-.25.71.71,0,0,0,.36-.6.59.59,0,0,0-.19-.46,1.31,1.31,0,0,0-.51-.28c-.22-.07-.52-.14-.89-.22a7.08,7.08,0,0,1-1.26-.38,2.08,2.08,0,0,1-.83-.61,1.51,1.51,0,0,1-.31-1,1.57,1.57,0,0,1,.33-1,2,2,0,0,1,.94-.65,4.09,4.09,0,0,1,1.42-.22,3.84,3.84,0,0,1,1.13.15,2.5,2.5,0,0,1,.8.4,1.73,1.73,0,0,1,.47.53,1.16,1.16,0,0,1,.15.55.69.69,0,0,1-.69.67.61.61,0,0,1-.42-.13,1.55,1.55,0,0,1-.29-.38,1.6,1.6,0,0,0-.43-.54,1.36,1.36,0,0,0-.81-.19,1.51,1.51,0,0,0-.84.21.55.55,0,0,0-.3.46.43.43,0,0,0,.1.28.87.87,0,0,0,.29.22,2.13,2.13,0,0,0,.39.15l.67.16c.39.08.75.18,1.07.28A3.44,3.44,0,0,1,241,92a1.65,1.65,0,0,1,.54.57,1.72,1.72,0,0,1,.2.85A1.83,1.83,0,0,1,241.44,94.52Z"/>
      </g>
    </g>
  </g>
</svg>
