<svg xmlns="http://www.w3.org/2000/svg" viewBox="0 0 252 144">
  <defs>
    <style>
      .cls-1 {
        fill: #fff;
      }

      .cls-2 {
        fill: #444445;
      }

      .cls-3 {
        fill: #1a8383;
      }
    </style>
  </defs>
  <title>bizcard_Back</title>
  <g id="Layer_2" data-name="Layer 2">
    <g id="Business_Cards" data-name="Business Cards">
      <rect class="cls-1" width="252" height="144"/>
      <g>
        <polygon class="cls-1" points="252 0 66.29 0 0 71.9 0 144 185.71 144 252 72.1 252 0"/>
        <g>
          <path class="cls-2" d="M131.73,72l-.7,0a9.88,9.88,0,0,1,9.86,9.86v1.23A9.88,9.88,0,0,1,131,93H119.95V51.12H131c.25,0,.49,0,.74,0l2.56-4.53A29.17,29.17,0,1,0,149.11,72ZM108.1,92.93h-4.93V51.05h4.93Zm8.39,0h-4.93V51.05h4.93Z"/>
          <path class="cls-3" d="M131,72.06H119.95l11.82-20.91A9.89,9.89,0,0,1,140.89,61V62.2A9.88,9.88,0,0,1,131,72.06Z"/>
        </g>
        <polygon class="cls-1" points="211.22 144 252 72.1 211.22 144 211.22 144"/>
        <polygon class="cls-1" points="40.78 0 0 71.9 40.78 0 40.78 0"/>
        <polygon class="cls-3" points="252 72.1 185.71 144 211.22 144 252 72.1"/>
        <polygon class="cls-2" points="252 144 252 72.1 211.22 144 252 144"/>
        <polygon class="cls-3" points="40.78 0 0 71.9 66.29 0 40.78 0"/>
        <polygon class="cls-2" points="0 0 0 71.9 40.78 0 0 0"/>
      </g>
    </g>
  </g>
</svg>
