<svg xmlns="http://www.w3.org/2000/svg" viewBox="0 0 1240 600">
  <defs>
    <style>
      .cls-1 {
        fill: #444445;
      }

      .cls-2 {
        fill: #1a8383;
      }

      .cls-3 {
        fill: #464646;
      }

      .cls-4 {
        fill: #1d8483;
      }
    </style>
  </defs>
  <title>Header</title>
  <g id="Header">
    <g>
      <g id="mark">
        <path class="cls-1" d="M361.74,300.2c-1.16.08-2.32.14-3.5.14a49.69,49.69,0,0,1,49.54,49.54v6.18a49.69,49.69,0,0,1-49.54,49.54H302.52V195.08h55.72c1.25,0,2.49.06,3.72.15l12.89-22.79A146.63,146.63,0,1,0,449.14,300ZM242.94,405.26H218.15V194.74h24.79Zm42.19,0H260.34V194.74h24.79Z"/>
        <path class="cls-2" d="M358.24,300.34H302.52L362,195.22a49.71,49.71,0,0,1,45.82,49.4v6.18A49.69,49.69,0,0,1,358.24,300.34Z"/>
      </g>
      <g>
        <g>
          <rect class="cls-3" x="868.12" y="315.74" width="9.21" height="120.71"/>
          <path class="cls-3" d="M969.84,394c0,11.75.18,20.63.37,26.6L914.74,315.74h-10V436.44h9V360.79c0-14.34-.17-23-.4-28.95l55,103.7.48.91h10V315.74h-9Z"/>
          <path class="cls-3" d="M1078.3,417.37,1077,418.5c-7.19,6-13.22,9.3-24.51,9.3-17.79,0-36.79-13.52-36.79-51.48,0-17.43,3.75-30.81,11.14-39.76,6.41-7.77,15.51-11.88,26.32-11.88,10.14,0,15.61,2.81,22.75,8.34l1.37,1.07,5.15-6.86-1.23-1c-6.37-5.42-14.22-10.44-28.38-10.44-13.33,0-24.75,5.28-33,15.26-8.83,10.66-13.49,26.34-13.49,45.33,0,18.64,4.51,34.13,13,44.79,8.18,10.23,19.58,15.63,33,15.63,11.87,0,21.47-3.65,30.23-11.48l1.2-1.07Z"/>
        </g>
        <g>
          <path class="cls-4" d="M540.67,409.74h11V429a21.74,21.74,0,0,1-10.93,2.63c-11.54,0-17.89-8.6-17.89-24.22,0-17.42,9.47-23.6,17.58-23.6A17.38,17.38,0,0,1,552,387.71l.76.59,3-3.42-.86-.67a21.5,21.5,0,0,0-14.47-5.06C529.6,379.15,518,388,518,407.38c0,18,8.51,28.78,22.76,28.78a30.15,30.15,0,0,0,15.22-4.21l.5-.3V405.18H540.1Z"/>
          <path class="cls-4" d="M623.9,395.11c0-10-6.42-15.1-19.09-15.1H591.67v55.37h4.79V410.52h10.81l14.31,24.86h5.83l-15.07-25.69C620,407.54,623.9,402.64,623.9,395.11Zm-27.44-10.62h8.12c10.07,0,14.37,3.18,14.37,10.62S614.51,406,605.37,406h-8.9Z"/>
          <path class="cls-4" d="M677.44,379.15c-13.7,0-22.21,11-22.21,28.7,0,17.46,8.51,28.31,22.21,28.31,13.91,0,22.21-10.61,22.21-28.39S691.35,379.15,677.44,379.15Zm0,52.45c-10.86,0-17.34-8.88-17.34-23.75,0-15.29,6.32-24.07,17.34-24.07s17.34,8.74,17.34,24S688.62,431.6,677.44,431.6Z"/>
          <path class="cls-4" d="M765.06,417.78c0,9.17-4.31,13.83-12.81,13.83s-13-4.65-13-13.83V380h-4.79v38c0,11.53,6.47,18.15,17.76,18.15s17.68-6.61,17.68-18.15V380h-4.87Z"/>
          <path class="cls-4" d="M820.65,380H808.21v55.37H813V413.8h7.26c13.41,0,20.49-6,20.49-17.21C840.75,385.59,834,380,820.65,380Zm-.16,29.24H813V384.49h7.65c10.62,0,15.15,3.64,15.15,12.18S830.94,409.25,820.49,409.25Z"/>
          <path class="cls-4" d="M552.54,355.54c0-7.18-3.31-12.18-9.06-14,4.16-2.05,6.4-6,6.4-11.53,0-9.18-6.83-14.24-19.24-14.24H518.28V371.1h15.41C545.67,371.1,552.54,365.43,552.54,355.54ZM545,330.05c0,6-3.95,9.68-10.31,9.68H523.07V320.29H531C540.42,320.29,545,323.49,545,330.05Zm-11.25,36.5h-10.7V344.14h12c10.94,0,12.57,7.14,12.57,11.4C547.67,364.64,540.11,366.55,533.77,366.55Z"/>
          <path class="cls-4" d="M599.29,353.2V315.72h-4.87V353c0,9-4.31,13.61-12.81,13.61s-13-4.58-13-13.61V315.72h-4.79V353.2c0,11.38,6.47,17.9,17.76,17.9S599.29,364.58,599.29,353.2Z"/>
          <path class="cls-4" d="M628.88,339.36c-9.49-2.79-12.24-5.12-12.24-10.39s4.35-8.68,11.09-8.68c4.9,0,8.15,1.25,12,4.6l.74.65,3.13-3.31-.81-.7a20.85,20.85,0,0,0-15.14-5.79c-9.2,0-15.88,5.57-15.88,13.24,0,8.32,5.69,11.67,15.51,14.64,10,3,12.71,5.56,12.71,11.91,0,6.75-5.12,11.11-13,11.11-5.46,0-9.45-1.57-13.78-5.43l-.73-.65-3.25,3.3.83.72c5.23,4.53,10.47,6.55,17,6.55,10.45,0,17.76-6.47,17.76-15.74C644.78,348.16,642.18,343.24,628.88,339.36Z"/>
          <rect class="cls-4" x="657.27" y="315.74" width="4.79" height="55.37"/>
          <path class="cls-4" d="M709.64,351.55c0,4.77.07,8.5.15,11.18l-25.87-47h-2.86l-.3-.54,0,.54h-2V371.1h4.71V336.46c0-5.81-.06-9.57-.16-12.24l25.88,46.88H712l.18.33,0-.33h2.14V315.74h-4.71Z"/>
          <polygon class="cls-4" points="759.38 366.55 735.85 366.55 735.85 344.29 755.47 344.29 755.47 339.81 735.85 339.81 735.85 320.29 758.37 320.29 759.08 315.74 731.05 315.74 731.05 371.1 759.38 371.1 759.38 366.55"/>
          <path class="cls-4" d="M783.73,339.36c-9.49-2.79-12.24-5.12-12.24-10.39s4.35-8.68,11.09-8.68c4.9,0,8.15,1.25,12,4.6l.74.65,3.13-3.31-.81-.7a20.85,20.85,0,0,0-15.14-5.79c-9.2,0-15.88,5.57-15.88,13.24,0,8.32,5.69,11.67,15.51,14.64,10,3,12.71,5.56,12.71,11.91,0,6.75-5.12,11.11-13,11.11-5.46,0-9.45-1.57-13.78-5.43l-.73-.65-3.25,3.3.83.72c5.23,4.53,10.47,6.55,17,6.55,10.45,0,17.76-6.47,17.76-15.74C799.63,348.16,797,343.24,783.73,339.36Z"/>
          <path class="cls-4" d="M840.9,355.36c0-7.2-2.6-12.12-15.9-16-9.49-2.79-12.24-5.12-12.24-10.39s4.35-8.68,11.09-8.68c4.9,0,8.15,1.25,12,4.6l.74.65,3.13-3.31-.81-.7a20.85,20.85,0,0,0-15.14-5.79c-9.2,0-15.88,5.57-15.88,13.24,0,8.32,5.69,11.67,15.51,14.64,10,3,12.71,5.56,12.71,11.91,0,6.75-5.12,11.11-13,11.11-5.46,0-9.45-1.57-13.78-5.43l-.73-.65-3.25,3.3.83.72c5.23,4.53,10.47,6.55,17,6.55C833.6,371.1,840.9,364.63,840.9,355.36Z"/>
        </g>
        <g>
          <path class="cls-1" d="M536.3,240.4v69.47h-18V163.25h18v61.8h62.63v-61.8h18.22V309.87H598.92V240.4Z"/>
          <path class="cls-1" d="M672.65,272.37l-11.31,37.51H642.91l46.71-146.62h23l46.5,146.62H739.89l-11.1-37.51Zm28.07-93.77-23.67,78.64h47.13Z"/>
          <path class="cls-1" d="M814.88,309.87H796.44V253.4l-46.29-90.15h20.11l36,73.95,35.82-73.95h19.06l-46.29,89.93Z"/>
          <path class="cls-1" d="M904.73,178.17v49.44H954v14.92H904.73V295h60.32v14.92H886.72V163.25h76.87l-2.09,14.92Z"/>
          <path class="cls-1" d="M1079.46,179.48l-10.34,11.3c-10.55-9-20.67-12.74-32.91-12.74-15.4,0-27,7.19-27,21,0,12.53,6.12,18.49,32.27,26.3,23.83,7,42.61,16,42.61,42.53,0,24.65-19,41.71-50.84,41.71-20.67,0-36.7-6.78-48.73-18.08l10.76-11.51c9.91,9.25,21.73,14.79,37.76,14.79,17.72,0,32.06-8.83,32.06-26.3,0-14.59-7.17-21-32.06-28.35-28.48-8.42-42.61-18.9-42.61-40.47,0-21.16,18.56-36.36,44.93-36.36C1055.2,163.25,1067.64,169,1079.46,179.48Z"/>
        </g>
      </g>
    </g>
  </g>
</svg>
