<svg id="fax" xmlns="http://www.w3.org/2000/svg" viewBox="0 0 64 64">
  <defs>
    <style>
      .cls-1 {
        fill: #1C8584;
      }
    </style>
  </defs>
  <title>HGBI Icons</title>
  <path class="cls-1" d="M13.62,48.45H9.09a44.1,44.1,0,0,1,0-32.89h4.52L15.77-.11H5.38c-7.17,19.57-7.17,44.65,0,64.22H15.77Z"/>
  <path class="cls-1" d="M43.26,0H19.56V64H64V20.56ZM22.74,7.81H43.26v3.88H22.74V7.81Zm0,8.88H43.26v3.88H22.74V16.68ZM60.82,56.06H22.74V52.18H60.82v3.88Zm0-8.87H22.74V43.31H60.82v3.88Zm0-8.87H22.74V34.43H60.82v3.88Zm0-8.87H22.74V25.56H60.82v3.88Z"/>
</svg>
