<svg xmlns="http://www.w3.org/2000/svg" viewBox="0 0 1240 600">
  <defs>
    <style>
      .cls-1 {
        fill: #444445;
      }

      .cls-2 {
        fill: #1a8383;
      }

      .cls-3 {
        fill: none;
        stroke: #1a8383;
        stroke-miterlimit: 10;
        stroke-width: 0.5px;
      }
    </style>
  </defs>
  <title>Typography</title>
  <g id="Typography">
    <g>
      <g>
        <g>
          <path class="cls-1" d="M341.6,164.81v27.66h-2.81V137.63h2.81v24.6h28.55v-24.6H373v54.84h-2.81V164.81Z"/>
          <path class="cls-1" d="M396.6,176.63l-5.31,15.84h-2.81l18.82-54.84h3.46l18.82,54.84h-3l-5.31-15.84ZM409,139.88l-11.5,34.17H420.4Z"/>
          <path class="cls-1" d="M451.67,192.47h-2.89V170.76l-17.37-33.13h3.22l15.68,30.72,15.36-30.72h3.14l-17.13,33Z"/>
          <path class="cls-1" d="M486.73,140.2V162.4h20.18v2.49H486.73v25h24.2v2.57h-27V137.63h26.53l-.4,2.57Z"/>
          <path class="cls-1" d="M554.43,142.62l-1.77,1.93c-4-3.62-7.64-5.15-13-5.15-7.64,0-12.47,4.18-12.47,10.29,0,6.35,3.54,9.09,13.35,12.06,10.7,3.22,15.6,6.83,15.6,15.92,0,9.33-7.08,15.6-17.21,15.6-7.24,0-12.3-2.65-16.8-6.67l1.85-1.93c3.94,3.62,8.2,6,14.88,6,8.6,0,14.47-5,14.47-12.87,0-7.64-3.7-10.53-13.83-13.67-11.1-3.46-15.2-7.08-15.2-14.47s6-12.95,15.28-12.95C546.39,136.75,550.41,139,554.43,142.62Z"/>
          <path class="cls-1" d="M635.16,177.51c0,9.65-6.75,15-18.33,15H602V137.63h11.66c11.82,0,18.74,4.42,18.74,13.59,0,7.24-3.86,11.1-9.89,12.14C629.37,163.76,635.16,167.95,635.16,177.51Zm-30.32-15.2h13c7,0,11.66-4.18,11.66-11,0-7.72-5.55-11.1-15.52-11.1h-9.17Zm27.42,15.2c0-8.76-5.87-12.79-14-12.79H604.84V189.9h12.06C626.47,189.9,632.26,185.88,632.26,177.51Z"/>
          <path class="cls-1" d="M653.89,190.7a2.45,2.45,0,0,1-2.57,2.57,2.57,2.57,0,1,1,0-5.15A2.45,2.45,0,0,1,653.89,190.7Z"/>
          <path class="cls-1" d="M703.34,141.73l-1.69,1.93a18.86,18.86,0,0,0-12.55-4.26c-9.17,0-19.14,7.08-19.14,25.33,0,17.61,7.88,26,19.46,26a23.47,23.47,0,0,0,12.3-3.14V166.1H690.32l-.32-2.57h14.55v25.57a29.75,29.75,0,0,1-15.12,4.18c-13.19,0-22.35-9.57-22.35-28.55,0-19.14,11.26-28,22-28A21.18,21.18,0,0,1,703.34,141.73Z"/>
          <path class="cls-1" d="M724.08,190.7a2.45,2.45,0,0,1-2.57,2.57,2.57,2.57,0,1,1,0-5.15A2.45,2.45,0,0,1,724.08,190.7Z"/>
          <path class="cls-1" d="M772.48,164.81v27.66h-2.81V137.63h2.81v24.6H801v-24.6h2.81v54.84H801V164.81Z"/>
          <path class="cls-1" d="M829.81,140.2V162.4H850v2.49H829.81v25H854v2.57H827V137.63h26.53l-.4,2.57Z"/>
          <path class="cls-1" d="M871.38,176.63l-5.31,15.84h-2.81l18.82-54.84h3.46l18.82,54.84h-3l-5.31-15.84Zm12.38-36.75-11.5,34.17h22.92Z"/>
          <path class="cls-1" d="M954.52,164.49c0,23.08-13,28-23.88,28H919.86V137.63h10.45C942.22,137.63,954.52,142.05,954.52,164.49ZM922.68,189.9h8c10.13,0,20.83-4.58,20.83-25.41,0-21.23-11.1-24.28-21.39-24.28h-7.48Z"/>
          <path class="cls-1" d="M976.79,140.2V162.4H997v2.49H976.79v25H1001v2.57H974V137.63h26.53l-.4,2.57Z"/>
          <path class="cls-1" d="M1020.69,166.9v25.57h-2.81V137.63h12.46c12.87,0,18.57,5.15,18.57,14.47,0,8.52-5,12.62-12.46,14.31l15.28,26.05h-3.54l-14.71-25.57Zm25.25-14.8c0-7.72-4.26-12-15.84-12h-9.41v24.2h10.21C1040.39,164.33,1045.94,160.55,1045.94,152.11Z"/>
        </g>
        <g>
          <path class="cls-2" d="M210.25,156.53h-4.88v-1.36H216.7v1.36h-4.88v14.88h-1.57Z"/>
          <path class="cls-2" d="M218.57,156.7V154.3H220v2.39Zm0,2.91H220v11.8h-1.48Z"/>
          <path class="cls-2" d="M222,159.61h2v-3.52h1.48v3.52H228v1.27h-2.49v7.88c0,1.06.28,1.5,1.29,1.5a6.1,6.1,0,0,0,1-.07v1.17a4.21,4.21,0,0,1-1.41.21c-1.5,0-2.37-.56-2.37-2.44v-8.26h-2Z"/>
          <path class="cls-2" d="M230,171.41V154.3h1.48v17.1Z"/>
          <path class="cls-2" d="M235.78,165.75c0,2.7,1.15,4.58,3.36,4.58a3,3,0,0,0,3-2.16h1.46a4.35,4.35,0,0,1-4.53,3.47c-3.66,0-4.79-3-4.79-6.19,0-2.89,1.41-6.08,4.88-6.08s4.65,2.91,4.65,5.51v.87Zm6.5-1.2c0-2.25-1-3.92-3.19-3.92-2.56,0-3.14,2.39-3.26,3.92Z"/>
        </g>
        <line class="cls-3" x1="278.96" y1="134.56" x2="278.96" y2="195.28"/>
      </g>
      <line class="cls-3" x1="278.96" y1="225.01" x2="278.96" y2="255.02"/>
      <g>
        <g>
          <path class="cls-1" d="M341.49,340.64l-3.44-13.86h1.81c1.41,5.73,2.33,9.72,2.63,11.89h0c.32-1.87,2.09-8.52,2.93-11.89h1.65c.78,3.11,2.57,10,2.85,11.81h0c.42-2.51,2.19-8.94,2.87-11.81h1.71l-3.72,13.86H349c-.78-3.21-2.41-9.52-2.77-11.49h0c-.4,2.15-2,8.34-2.83,11.49Z"/>
          <path class="cls-1" d="M356.61,335.86c0,2,.86,3.58,2.65,3.58a2.34,2.34,0,0,0,2.35-1.67h1.63a3.89,3.89,0,0,1-4.06,3.07c-3.18,0-4.26-2.51-4.26-5.32,0-2.51,1.23-5.26,4.36-5.26s4.12,2.49,4.12,4.84v.76Zm5.14-1.21c0-1.75-.74-3.05-2.51-3.05-2,0-2.49,1.83-2.59,3.05Z"/>
          <path class="cls-1" d="M370.53,326h1.67v5.84a3.27,3.27,0,0,1,3.05-1.61c2.47,0,3.92,2,3.92,5s-1.31,5.58-4.22,5.58a2.81,2.81,0,0,1-2.77-1.47,9,9,0,0,1-.06,1.29H370.5c0-.56,0-1.63,0-2.89Zm4.32,5.68c-2,0-2.75,1.31-2.75,3.72s.58,4,2.69,4c1.83,0,2.67-1.69,2.67-4.08C377.47,333.14,376.6,331.7,374.85,331.7Z"/>
          <path class="cls-1" d="M381.41,333.91c0-1.63,0-3,0-3.45H383c0,.48,0,1.12,0,2.07a3.42,3.42,0,0,1,3.29-2.25V332c-2.29.08-3.25,1.43-3.25,3.64v5h-1.67Z"/>
          <path class="cls-1" d="M388.06,328.16V326h1.67v2.15Zm0,2.29h1.67v10.18h-1.67Z"/>
          <path class="cls-1" d="M392.67,333.65c0-2.13,0-2.75,0-3.19h1.63a12.36,12.36,0,0,1,.06,1.59,3.12,3.12,0,0,1,3-1.79c1.89,0,3.23,1.06,3.23,3.82v6.57h-1.67v-6.31c0-1.49-.5-2.61-2-2.61-1.81,0-2.53,1.35-2.53,3.48v5.44h-1.67Z"/>
          <path class="cls-1" d="M411.37,339.85c0,3.19-1.29,5-4.38,5s-3.88-1.61-4-3.05h1.65a2.2,2.2,0,0,0,2.45,1.69c2.17,0,2.67-1.43,2.67-3.66V339a2.87,2.87,0,0,1-3,1.67c-2.39,0-3.94-2-3.94-5.16s1.83-5.24,4.18-5.24c1.61,0,2.43.66,2.71,1.45a9.23,9.23,0,0,1,.08-1.24h1.63c0,.48,0,1.57,0,3Zm-4.22-.64c1.95,0,2.63-1.23,2.63-3.78s-.56-3.74-2.53-3.74c-1.69,0-2.71,1.41-2.71,3.78S405.55,339.21,407.16,339.21Z"/>
          <path class="cls-1" d="M417.79,330.45h1.63v-3h1.67v3h2v1.37h-2v6.37c0,.86.22,1.23,1.09,1.23a4.43,4.43,0,0,0,.78-.08v1.27a4.44,4.44,0,0,1-1.33.16c-1.49,0-2.21-.56-2.21-2.25v-6.69h-1.63Z"/>
          <path class="cls-1" d="M433.18,335.38c0,3-1.29,5.44-4.56,5.44s-4.42-2.59-4.42-5.39,1.47-5.18,4.56-5.18C431.64,330.25,433.18,332.44,433.18,335.38Zm-7.25,0c0,2.33,1,4,2.79,4s2.73-1.65,2.73-4c0-2.23-.92-3.76-2.77-3.76S425.93,333.19,425.93,335.41Z"/>
          <path class="cls-1" d="M443.38,339.85c0,3.19-1.29,5-4.38,5s-3.88-1.61-4-3.05h1.65a2.2,2.2,0,0,0,2.45,1.69c2.17,0,2.67-1.43,2.67-3.66V339a2.87,2.87,0,0,1-3,1.67c-2.39,0-3.94-2-3.94-5.16s1.83-5.24,4.18-5.24c1.61,0,2.43.66,2.71,1.45a9.23,9.23,0,0,1,.08-1.24h1.63c0,.48,0,1.57,0,3Zm-4.22-.64c1.95,0,2.63-1.23,2.63-3.78s-.56-3.74-2.53-3.74c-1.69,0-2.71,1.41-2.71,3.78S437.55,339.21,439.16,339.21Z"/>
          <path class="cls-1" d="M447.3,335.86c0,2,.86,3.58,2.65,3.58a2.34,2.34,0,0,0,2.35-1.67h1.63a3.89,3.89,0,0,1-4.06,3.07c-3.18,0-4.26-2.51-4.26-5.32,0-2.51,1.23-5.26,4.36-5.26s4.12,2.49,4.12,4.84v.76Zm5.14-1.21c0-1.75-.74-3.05-2.51-3.05-2,0-2.49,1.83-2.59,3.05Z"/>
          <path class="cls-1" d="M455.1,330.45h1.63v-3h1.67v3h2v1.37h-2v6.37c0,.86.22,1.23,1.09,1.23a4.43,4.43,0,0,0,.78-.08v1.27a4.44,4.44,0,0,1-1.33.16c-1.49,0-2.21-.56-2.21-2.25v-6.69H455.1Z"/>
          <path class="cls-1" d="M463.78,326v5.91a3.16,3.16,0,0,1,3-1.67c1.49,0,3.19.76,3.19,3.66v6.73h-1.65v-6.45c0-1.55-.6-2.47-2.09-2.47-1.65,0-2.49,1.09-2.49,3.11v5.81h-1.67V326Z"/>
          <path class="cls-1" d="M474,335.86c0,2,.86,3.58,2.65,3.58a2.34,2.34,0,0,0,2.35-1.67h1.63a3.89,3.89,0,0,1-4.06,3.07c-3.18,0-4.26-2.51-4.26-5.32,0-2.51,1.23-5.26,4.36-5.26s4.12,2.49,4.12,4.84v.76Zm5.14-1.21c0-1.75-.74-3.05-2.51-3.05-2,0-2.49,1.83-2.59,3.05Z"/>
          <path class="cls-1" d="M483,333.91c0-1.63,0-3,0-3.45h1.63c0,.48,0,1.12,0,2.07a3.42,3.42,0,0,1,3.29-2.25V332c-2.29.08-3.25,1.43-3.25,3.64v5H483Z"/>
          <path class="cls-1" d="M501.71,338.37a18.79,18.79,0,0,0,.14,2.27h-1.51a9.28,9.28,0,0,1-.14-1.57,3,3,0,0,1-3.09,1.75,2.92,2.92,0,0,1-3.23-3.09c0-1.53,1-3.23,4.62-3.23h1.57v-1c0-1-.28-2-2-2a1.86,1.86,0,0,0-2.15,1.81h-1.63c.14-1.71,1.12-3.09,3.84-3.09,2.13,0,3.6.86,3.6,3.17Zm-1.61-2.67h-1.61c-2.47,0-2.93,1-2.93,1.93a1.72,1.72,0,0,0,1.89,1.83c2,0,2.65-1.37,2.65-3.54Z"/>
          <path class="cls-1" d="M510.11,330.45c1.37,4.32,2.27,7.17,2.59,8.6h0c.2-1.21,2-6.35,2.69-8.6h1.65l-3.52,10.18h-1.83l-3.39-10.18Z"/>
          <path class="cls-1" d="M525.67,338.37a18.79,18.79,0,0,0,.14,2.27H524.3a9.28,9.28,0,0,1-.14-1.57,3,3,0,0,1-3.09,1.75,2.92,2.92,0,0,1-3.23-3.09c0-1.53,1-3.23,4.62-3.23H524v-1c0-1-.28-2-2-2a1.86,1.86,0,0,0-2.15,1.81h-1.63c.14-1.71,1.12-3.09,3.84-3.09,2.13,0,3.6.86,3.6,3.17Zm-1.61-2.67h-1.61c-2.47,0-2.93,1-2.93,1.93a1.72,1.72,0,0,0,1.89,1.83c2,0,2.65-1.37,2.65-3.54Z"/>
          <path class="cls-1" d="M528.61,333.91c0-1.63,0-3,0-3.45h1.63c0,.48,0,1.12,0,2.07a3.42,3.42,0,0,1,3.29-2.25V332c-2.29.08-3.25,1.43-3.25,3.64v5h-1.67Z"/>
          <path class="cls-1" d="M535.26,328.16V326h1.67v2.15Zm0,2.29h1.67v10.18h-1.67Z"/>
          <path class="cls-1" d="M540.87,335.86c0,2,.86,3.58,2.65,3.58a2.34,2.34,0,0,0,2.35-1.67h1.63a3.89,3.89,0,0,1-4.06,3.07c-3.18,0-4.26-2.51-4.26-5.32,0-2.51,1.23-5.26,4.36-5.26s4.12,2.49,4.12,4.84v.76Zm5.14-1.21c0-1.75-.74-3.05-2.51-3.05-2,0-2.49,1.83-2.59,3.05Z"/>
          <path class="cls-1" d="M548.67,330.45h1.63v-3H552v3h2v1.37h-2v6.37c0,.86.22,1.23,1.09,1.23a4.43,4.43,0,0,0,.78-.08v1.27a4.44,4.44,0,0,1-1.33.16c-1.49,0-2.21-.56-2.21-2.25v-6.69h-1.63Z"/>
          <path class="cls-1" d="M557,330.45c1.59,4.94,2.41,7.41,2.67,8.64h0c.3-1.13,1.21-4.24,2.59-8.64H564l-3.58,10.65c-1,3.09-1.87,3.74-3.68,3.74a4.52,4.52,0,0,1-.88-.08v-1.43a6.23,6.23,0,0,0,.88.06c1.23,0,1.61-1,2.09-2.43l-3.64-10.51Z"/>
          <path class="cls-1" d="M578.91,335.38c0,3-1.29,5.44-4.56,5.44s-4.42-2.59-4.42-5.39,1.47-5.18,4.56-5.18C577.37,330.25,578.91,332.44,578.91,335.38Zm-7.25,0c0,2.33,1,4,2.79,4s2.73-1.65,2.73-4c0-2.23-.92-3.76-2.77-3.76S571.66,333.19,571.66,335.41Z"/>
          <path class="cls-1" d="M581.51,340.64v-8.82h-1.57v-1.37h1.57v-1.27c0-1.81.62-3.34,2.75-3.34a3.52,3.52,0,0,1,1,.12v1.43a3,3,0,0,0-.82-.1c-.9,0-1.25.6-1.25,1.81v1.35h1.91v1.37h-1.91v8.82Z"/>
          <path class="cls-1" d="M589.85,330.45h1.63v-3h1.67v3h2v1.37h-2v6.37c0,.86.22,1.23,1.09,1.23a4.43,4.43,0,0,0,.78-.08v1.27a4.44,4.44,0,0,1-1.33.16c-1.49,0-2.21-.56-2.21-2.25v-6.69h-1.63Z"/>
          <path class="cls-1" d="M604.12,338.37a19.13,19.13,0,0,0,.14,2.27h-1.51a9.28,9.28,0,0,1-.14-1.57,3,3,0,0,1-3.09,1.75,2.92,2.92,0,0,1-3.23-3.09c0-1.53,1-3.23,4.62-3.23h1.57v-1c0-1-.28-2-2-2a1.86,1.86,0,0,0-2.15,1.81h-1.63c.14-1.71,1.12-3.09,3.84-3.09,2.13,0,3.6.86,3.6,3.17Zm-1.61-2.67h-1.61c-2.47,0-2.93,1-2.93,1.93a1.72,1.72,0,0,0,1.89,1.83c2,0,2.65-1.37,2.65-3.54Z"/>
          <path class="cls-1" d="M607.06,340.64V326h1.67v14.62Z"/>
          <path class="cls-1" d="M612.67,335.86c0,2,.86,3.58,2.65,3.58a2.34,2.34,0,0,0,2.35-1.67h1.63a3.89,3.89,0,0,1-4.06,3.07c-3.18,0-4.26-2.51-4.26-5.32,0-2.51,1.23-5.26,4.36-5.26s4.12,2.49,4.12,4.84v.76Zm5.14-1.21c0-1.75-.74-3.05-2.51-3.05-2,0-2.49,1.83-2.59,3.05Z"/>
          <path class="cls-1" d="M621.67,333.65c0-2.13,0-2.75,0-3.19h1.63a12.36,12.36,0,0,1,.06,1.59,3.12,3.12,0,0,1,3-1.79c1.89,0,3.23,1.06,3.23,3.82v6.57H627.9v-6.31c0-1.49-.5-2.61-2-2.61-1.81,0-2.53,1.35-2.53,3.48v5.44h-1.67Z"/>
          <path class="cls-1" d="M631.06,330.45h1.63v-3h1.67v3h2v1.37h-2v6.37c0,.86.22,1.23,1.09,1.23a4.43,4.43,0,0,0,.78-.08v1.27a4.44,4.44,0,0,1-1.33.16c-1.49,0-2.21-.56-2.21-2.25v-6.69h-1.63Z"/>
          <path class="cls-1" d="M639,337.69a2.1,2.1,0,0,0,2.29,1.83c1.41,0,1.95-.74,1.95-1.61s-.64-1.41-2.37-1.87c-2.49-.68-3.13-1.59-3.13-3s.92-2.83,3.42-2.83,3.42,1.37,3.56,2.93h-1.65a1.79,1.79,0,0,0-2-1.63c-1.15,0-1.67.54-1.67,1.39s.38,1.18,2.09,1.63c2.59.7,3.42,1.57,3.42,3.19,0,1.89-1.49,3.05-3.68,3.05s-3.7-1-3.88-3.13Z"/>
          <path class="cls-1" d="M659.22,338.37a19.13,19.13,0,0,0,.14,2.27h-1.51a9.28,9.28,0,0,1-.14-1.57,3,3,0,0,1-3.09,1.75,2.92,2.92,0,0,1-3.23-3.09c0-1.53,1-3.23,4.62-3.23h1.57v-1c0-1-.28-2-2-2a1.86,1.86,0,0,0-2.15,1.81h-1.63c.14-1.71,1.12-3.09,3.84-3.09,2.13,0,3.6.86,3.6,3.17Zm-1.61-2.67H656c-2.47,0-2.93,1-2.93,1.93a1.72,1.72,0,0,0,1.89,1.83c2,0,2.65-1.37,2.65-3.54Z"/>
          <path class="cls-1" d="M662.16,333.65c0-2.13,0-2.75,0-3.19h1.63a12.36,12.36,0,0,1,.06,1.59,3.12,3.12,0,0,1,3-1.79c1.89,0,3.23,1.06,3.23,3.82v6.57h-1.67v-6.31c0-1.49-.5-2.61-2-2.61-1.81,0-2.53,1.35-2.53,3.48v5.44h-1.67Z"/>
          <path class="cls-1" d="M680.91,326v12c0,1,0,2,0,2.65h-1.63c0-.26-.06-.9-.06-1.51-.54,1.19-1.37,1.69-3,1.69-2.63,0-4-2.23-4-5.26s1.53-5.3,4.3-5.3c1.65,0,2.41.66,2.69,1.23V326Zm-4.24,13.38c2.19,0,2.65-1.67,2.65-4.06,0-2.81-.82-3.64-2.55-3.64s-2.77,1.37-2.77,3.8S675.06,339.39,676.67,339.39Z"/>
          <path class="cls-1" d="M689.84,335.86c0,2,.86,3.58,2.65,3.58a2.34,2.34,0,0,0,2.35-1.67h1.63a3.89,3.89,0,0,1-4.06,3.07c-3.18,0-4.26-2.51-4.26-5.32,0-2.51,1.23-5.26,4.36-5.26s4.12,2.49,4.12,4.84v.76Zm5.14-1.21c0-1.75-.74-3.05-2.51-3.05-2,0-2.49,1.83-2.59,3.05Z"/>
          <path class="cls-1" d="M699.36,330.45c1.33,2.23,2,3.27,2.29,3.86h0c.4-.68,1.24-2,2.39-3.86h1.81l-3.26,4.88,3.27,5.3H704c-1.16-2-2-3.36-2.39-4h0c-.3.56-1.18,2.09-2.37,4h-1.83l3.23-5.06-3.13-5.12Z"/>
          <path class="cls-1" d="M707.44,344.68V333.45c0-1.39,0-2.37,0-3h1.65c0,.34,0,1.06,0,1.65a3.27,3.27,0,0,1,3.17-1.85c2.23,0,3.82,1.75,3.82,5.12s-1.83,5.42-4.22,5.42a2.9,2.9,0,0,1-2.77-1.39v5.26Zm4.3-13c-2.09,0-2.71,1.43-2.71,3.88,0,2.25.42,3.8,2.61,3.8,1.71,0,2.71-1.41,2.71-3.94S713.37,331.7,711.74,331.7Z"/>
          <path class="cls-1" d="M719.32,335.86c0,2,.86,3.58,2.65,3.58a2.34,2.34,0,0,0,2.35-1.67H726a3.89,3.89,0,0,1-4.06,3.07c-3.18,0-4.26-2.51-4.26-5.32,0-2.51,1.23-5.26,4.36-5.26s4.12,2.49,4.12,4.84v.76Zm5.14-1.21c0-1.75-.74-3.05-2.51-3.05-2,0-2.49,1.83-2.59,3.05Z"/>
          <path class="cls-1" d="M728.33,333.91c0-1.63,0-3,0-3.45h1.63c0,.48,0,1.12,0,2.07a3.42,3.42,0,0,1,3.29-2.25V332c-2.29.08-3.25,1.43-3.25,3.64v5h-1.67Z"/>
          <path class="cls-1" d="M734.3,330.45h1.63v-3h1.67v3h2v1.37h-2v6.37c0,.86.22,1.23,1.09,1.23a4.43,4.43,0,0,0,.78-.08v1.27a4.44,4.44,0,0,1-1.33.16c-1.49,0-2.21-.56-2.21-2.25v-6.69H734.3Z"/>
          <path class="cls-1" d="M741.41,328.16V326h1.67v2.15Zm0,2.29h1.67v10.18h-1.67Z"/>
          <path class="cls-1" d="M746.76,337.69a2.1,2.1,0,0,0,2.29,1.83c1.41,0,1.95-.74,1.95-1.61s-.64-1.41-2.37-1.87c-2.49-.68-3.13-1.59-3.13-3s.92-2.83,3.42-2.83,3.42,1.37,3.56,2.93h-1.65a1.79,1.79,0,0,0-2-1.63c-1.15,0-1.67.54-1.67,1.39s.38,1.18,2.09,1.63c2.59.7,3.42,1.57,3.42,3.19,0,1.89-1.49,3.05-3.68,3.05s-3.7-1-3.88-3.13Z"/>
          <path class="cls-1" d="M755.95,335.86c0,2,.86,3.58,2.65,3.58a2.34,2.34,0,0,0,2.35-1.67h1.63a3.89,3.89,0,0,1-4.06,3.07c-3.18,0-4.26-2.51-4.26-5.32,0-2.51,1.23-5.26,4.36-5.26s4.12,2.49,4.12,4.84v.76Zm5.14-1.21c0-1.75-.74-3.05-2.51-3.05-2,0-2.49,1.83-2.59,3.05Z"/>
          <path class="cls-1" d="M768.45,330.45h1.63v-3h1.67v3h2v1.37h-2v6.37c0,.86.22,1.23,1.09,1.23a4.43,4.43,0,0,0,.78-.08v1.27a4.44,4.44,0,0,1-1.33.16c-1.49,0-2.21-.56-2.21-2.25v-6.69h-1.63Z"/>
          <path class="cls-1" d="M783.84,335.38c0,3-1.29,5.44-4.56,5.44s-4.42-2.59-4.42-5.39,1.47-5.18,4.56-5.18C782.3,330.25,783.84,332.44,783.84,335.38Zm-7.25,0c0,2.33,1,4,2.79,4s2.73-1.65,2.73-4c0-2.23-.92-3.76-2.77-3.76S776.59,333.19,776.59,335.41Z"/>
          <path class="cls-1" d="M798.74,337.38a3.91,3.91,0,0,1-4.1,3.45c-2.85,0-4.3-1.91-4.3-5.3,0-3,1.49-5.28,4.4-5.28a3.72,3.72,0,0,1,4,3.56h-1.67a2.29,2.29,0,0,0-2.33-2.19c-1.87,0-2.67,1.63-2.67,3.88,0,2.61.94,4,2.65,4,1.41,0,2-.88,2.37-2.09Z"/>
          <path class="cls-1" d="M800.81,333.91c0-1.63,0-3,0-3.45h1.63c0,.48,0,1.12,0,2.07a3.42,3.42,0,0,1,3.29-2.25V332c-2.29.08-3.25,1.43-3.25,3.64v5h-1.67Z"/>
          <path class="cls-1" d="M808.35,335.86c0,2,.86,3.58,2.65,3.58a2.34,2.34,0,0,0,2.35-1.67H815a3.89,3.89,0,0,1-4.06,3.07c-3.18,0-4.26-2.51-4.26-5.32,0-2.51,1.23-5.26,4.36-5.26s4.12,2.49,4.12,4.84v.76Zm5.14-1.21c0-1.75-.74-3.05-2.51-3.05-2,0-2.49,1.83-2.59,3.05Z"/>
          <path class="cls-1" d="M824.51,338.37a19.13,19.13,0,0,0,.14,2.27h-1.51a9.28,9.28,0,0,1-.14-1.57,3,3,0,0,1-3.09,1.75,2.92,2.92,0,0,1-3.23-3.09c0-1.53,1-3.23,4.62-3.23h1.57v-1c0-1-.28-2-2-2a1.86,1.86,0,0,0-2.15,1.81h-1.63c.14-1.71,1.12-3.09,3.84-3.09,2.13,0,3.6.86,3.6,3.17Zm-1.61-2.67h-1.61c-2.47,0-2.93,1-2.93,1.93a1.72,1.72,0,0,0,1.89,1.83c2,0,2.65-1.37,2.65-3.54Z"/>
          <path class="cls-1" d="M825.92,330.45h1.63v-3h1.67v3h2v1.37h-2v6.37c0,.86.22,1.23,1.09,1.23a4.43,4.43,0,0,0,.78-.08v1.27a4.44,4.44,0,0,1-1.33.16c-1.49,0-2.21-.56-2.21-2.25v-6.69h-1.63Z"/>
          <path class="cls-1" d="M834,335.86c0,2,.86,3.58,2.65,3.58a2.34,2.34,0,0,0,2.35-1.67h1.63a3.89,3.89,0,0,1-4.06,3.07c-3.18,0-4.26-2.51-4.26-5.32,0-2.51,1.23-5.26,4.36-5.26s4.12,2.49,4.12,4.84v.76Zm5.14-1.21c0-1.75-.74-3.05-2.51-3.05-2,0-2.49,1.83-2.59,3.05Z"/>
          <path class="cls-1" d="M855.14,338.37a18.79,18.79,0,0,0,.14,2.27h-1.51a9.28,9.28,0,0,1-.14-1.57,3,3,0,0,1-3.09,1.75,2.92,2.92,0,0,1-3.23-3.09c0-1.53,1-3.23,4.62-3.23h1.57v-1c0-1-.28-2-2-2a1.86,1.86,0,0,0-2.15,1.81h-1.63c.14-1.71,1.12-3.09,3.84-3.09,2.13,0,3.6.86,3.6,3.17Zm-1.61-2.67h-1.61c-2.47,0-2.93,1-2.93,1.93a1.72,1.72,0,0,0,1.89,1.83c2,0,2.65-1.37,2.65-3.54Z"/>
          <path class="cls-1" d="M863.55,330.45c1.37,4.32,2.27,7.17,2.59,8.6h0c.2-1.21,2-6.35,2.69-8.6h1.65L867,340.64h-1.83l-3.39-10.18Z"/>
          <path class="cls-1" d="M879.1,338.37a18.79,18.79,0,0,0,.14,2.27h-1.51a9.28,9.28,0,0,1-.14-1.57,3,3,0,0,1-3.09,1.75,2.92,2.92,0,0,1-3.23-3.09c0-1.53,1-3.23,4.62-3.23h1.57v-1c0-1-.28-2-2-2a1.86,1.86,0,0,0-2.15,1.81h-1.63c.14-1.71,1.12-3.09,3.84-3.09,2.13,0,3.6.86,3.6,3.17Zm-1.61-2.67h-1.61c-2.47,0-2.93,1-2.93,1.93a1.72,1.72,0,0,0,1.89,1.83c2,0,2.65-1.37,2.65-3.54Z"/>
          <path class="cls-1" d="M882,333.91c0-1.63,0-3,0-3.45h1.63c0,.48,0,1.12,0,2.07a3.42,3.42,0,0,1,3.29-2.25V332c-2.29.08-3.25,1.43-3.25,3.64v5H882Z"/>
          <path class="cls-1" d="M888.7,328.16V326h1.67v2.15Zm0,2.29h1.67v10.18H888.7Z"/>
          <path class="cls-1" d="M894.3,335.86c0,2,.86,3.58,2.65,3.58a2.34,2.34,0,0,0,2.35-1.67h1.63a3.89,3.89,0,0,1-4.06,3.07c-3.18,0-4.26-2.51-4.26-5.32,0-2.51,1.23-5.26,4.36-5.26s4.12,2.49,4.12,4.84v.76Zm5.14-1.21c0-1.75-.74-3.05-2.51-3.05-2,0-2.49,1.83-2.59,3.05Z"/>
          <path class="cls-1" d="M902.1,330.45h1.63v-3h1.67v3h2v1.37h-2v6.37c0,.86.22,1.23,1.09,1.23a4.43,4.43,0,0,0,.78-.08v1.27a4.44,4.44,0,0,1-1.33.16c-1.49,0-2.21-.56-2.21-2.25v-6.69H902.1Z"/>
          <path class="cls-1" d="M910.44,330.45c1.59,4.94,2.41,7.41,2.67,8.64h0c.3-1.13,1.21-4.24,2.59-8.64h1.73l-3.58,10.65c-1,3.09-1.87,3.74-3.68,3.74a4.52,4.52,0,0,1-.88-.08v-1.43a6.23,6.23,0,0,0,.88.06c1.23,0,1.61-1,2.09-2.43l-3.64-10.51Z"/>
          <path class="cls-1" d="M932.35,335.38c0,3-1.29,5.44-4.56,5.44s-4.42-2.59-4.42-5.39,1.47-5.18,4.56-5.18C930.8,330.25,932.35,332.44,932.35,335.38Zm-7.25,0c0,2.33,1,4,2.79,4s2.73-1.65,2.73-4c0-2.23-.92-3.76-2.77-3.76S925.1,333.19,925.1,335.41Z"/>
          <path class="cls-1" d="M934.95,340.64v-8.82h-1.57v-1.37h1.57v-1.27c0-1.81.62-3.34,2.75-3.34a3.52,3.52,0,0,1,1,.12v1.43a3,3,0,0,0-.82-.1c-.9,0-1.25.6-1.25,1.81v1.35h1.91v1.37h-1.91v8.82Z"/>
          <path class="cls-1" d="M339,350.13h1.67V356a3.27,3.27,0,0,1,3.05-1.61c2.47,0,3.92,2,3.92,5s-1.31,5.58-4.22,5.58a2.81,2.81,0,0,1-2.77-1.47,9,9,0,0,1-.06,1.29H339c0-.56,0-1.63,0-2.89Zm4.32,5.69c-2,0-2.75,1.31-2.75,3.72s.58,4,2.69,4c1.83,0,2.67-1.69,2.67-4.08C346,357.27,345.1,355.82,343.36,355.82Z"/>
          <path class="cls-1" d="M357.63,361.89c0,1.26,0,2.39,0,2.87h-1.61a10.3,10.3,0,0,1-.08-1.63,3,3,0,0,1-3,1.81c-1.59,0-3.11-.76-3.11-3.52v-6.85h1.65v6.53c0,1.33.42,2.39,2,2.39s2.45-1,2.45-3.23v-5.69h1.69Z"/>
          <path class="cls-1" d="M361.31,361.81a2.1,2.1,0,0,0,2.29,1.83c1.41,0,1.95-.74,1.95-1.61s-.64-1.41-2.37-1.87c-2.49-.68-3.13-1.59-3.13-3s.92-2.83,3.42-2.83,3.42,1.37,3.56,2.93h-1.65a1.79,1.79,0,0,0-2-1.63c-1.15,0-1.67.54-1.67,1.39s.38,1.19,2.09,1.63c2.59.7,3.42,1.57,3.42,3.19,0,1.89-1.49,3.05-3.68,3.05s-3.7-1-3.88-3.13Z"/>
          <path class="cls-1" d="M369.35,352.28v-2.15H371v2.15Zm0,2.29H371v10.19h-1.67Z"/>
          <path class="cls-1" d="M374,357.77c0-2.13,0-2.75,0-3.19h1.63a12.38,12.38,0,0,1,.06,1.59,3.12,3.12,0,0,1,3-1.79c1.89,0,3.23,1.06,3.23,3.82v6.57h-1.67v-6.31c0-1.49-.5-2.61-2-2.61-1.81,0-2.53,1.35-2.53,3.48v5.44H374Z"/>
          <path class="cls-1" d="M385.79,360c0,2,.86,3.58,2.65,3.58a2.34,2.34,0,0,0,2.35-1.67h1.63a3.89,3.89,0,0,1-4.06,3.07c-3.18,0-4.26-2.51-4.26-5.32,0-2.51,1.23-5.26,4.36-5.26s4.12,2.49,4.12,4.84V360Zm5.14-1.21c0-1.75-.74-3.05-2.51-3.05-2,0-2.49,1.83-2.59,3.05Z"/>
          <path class="cls-1" d="M395.6,361.81a2.1,2.1,0,0,0,2.29,1.83c1.41,0,1.95-.74,1.95-1.61s-.64-1.41-2.37-1.87c-2.49-.68-3.13-1.59-3.13-3s.92-2.83,3.42-2.83,3.42,1.37,3.56,2.93h-1.65a1.79,1.79,0,0,0-2-1.63c-1.15,0-1.67.54-1.67,1.39s.38,1.19,2.09,1.63c2.59.7,3.42,1.57,3.42,3.19,0,1.89-1.49,3.05-3.68,3.05s-3.7-1-3.88-3.13Z"/>
          <path class="cls-1" d="M404.57,361.81a2.1,2.1,0,0,0,2.29,1.83c1.41,0,1.95-.74,1.95-1.61s-.64-1.41-2.37-1.87c-2.49-.68-3.13-1.59-3.13-3s.92-2.83,3.42-2.83,3.42,1.37,3.56,2.93h-1.65a1.79,1.79,0,0,0-2-1.63c-1.15,0-1.67.54-1.67,1.39s.38,1.19,2.09,1.63c2.59.7,3.42,1.57,3.42,3.19,0,1.89-1.49,3.05-3.68,3.05s-3.7-1-3.88-3.13Z"/>
          <path class="cls-1" d="M425.89,359.5c0,3-1.29,5.44-4.56,5.44s-4.42-2.59-4.42-5.38,1.47-5.18,4.56-5.18C424.34,354.37,425.89,356.56,425.89,359.5Zm-7.25,0c0,2.33,1,4,2.79,4s2.73-1.65,2.73-4c0-2.23-.92-3.76-2.77-3.76S418.64,357.31,418.64,359.54Z"/>
          <path class="cls-1" d="M428.13,368.8V357.57c0-1.39,0-2.37,0-3h1.65c0,.34,0,1.06,0,1.65a3.28,3.28,0,0,1,3.17-1.85c2.23,0,3.82,1.75,3.82,5.12s-1.83,5.42-4.22,5.42a2.9,2.9,0,0,1-2.77-1.39v5.26Zm4.3-13c-2.09,0-2.71,1.43-2.71,3.88,0,2.25.42,3.8,2.61,3.8,1.71,0,2.71-1.41,2.71-3.94S434.05,355.82,432.43,355.82Z"/>
          <path class="cls-1" d="M439,368.8V357.57c0-1.39,0-2.37,0-3h1.65c0,.34,0,1.06,0,1.65a3.28,3.28,0,0,1,3.17-1.85c2.23,0,3.82,1.75,3.82,5.12s-1.83,5.42-4.22,5.42a2.9,2.9,0,0,1-2.77-1.39v5.26Zm4.3-13c-2.09,0-2.71,1.43-2.71,3.88,0,2.25.42,3.8,2.61,3.8,1.71,0,2.71-1.41,2.71-3.94S444.93,355.82,443.3,355.82Z"/>
          <path class="cls-1" d="M458.15,359.5c0,3-1.29,5.44-4.56,5.44s-4.42-2.59-4.42-5.38,1.47-5.18,4.56-5.18C456.61,354.37,458.15,356.56,458.15,359.5Zm-7.25,0c0,2.33,1,4,2.79,4s2.73-1.65,2.73-4c0-2.23-.92-3.76-2.77-3.76S450.9,357.31,450.9,359.54Z"/>
          <path class="cls-1" d="M460.39,358c0-1.63,0-3,0-3.46H462c0,.48,0,1.13,0,2.07a3.42,3.42,0,0,1,3.29-2.25v1.73c-2.29.08-3.25,1.43-3.25,3.64v5h-1.67Z"/>
          <path class="cls-1" d="M466.36,354.57H468v-3h1.67v3h2v1.37h-2v6.37c0,.87.22,1.23,1.09,1.23a4.42,4.42,0,0,0,.78-.08v1.27a4.44,4.44,0,0,1-1.33.16c-1.49,0-2.21-.56-2.21-2.25v-6.69h-1.63Z"/>
          <path class="cls-1" d="M481,361.89c0,1.26,0,2.39,0,2.87h-1.61a10.3,10.3,0,0,1-.08-1.63,3,3,0,0,1-3,1.81c-1.59,0-3.11-.76-3.11-3.52v-6.85h1.65v6.53c0,1.33.42,2.39,2,2.39s2.45-1,2.45-3.23v-5.69H481Z"/>
          <path class="cls-1" d="M483.93,357.77c0-2.13,0-2.75,0-3.19h1.63a12.38,12.38,0,0,1,.06,1.59,3.12,3.12,0,0,1,3-1.79c1.89,0,3.23,1.06,3.23,3.82v6.57h-1.67v-6.31c0-1.49-.5-2.61-2-2.61-1.81,0-2.53,1.35-2.53,3.48v5.44h-1.67Z"/>
          <path class="cls-1" d="M494.76,352.28v-2.15h1.67v2.15Zm0,2.29h1.67v10.19h-1.67Z"/>
          <path class="cls-1" d="M498.06,354.57h1.63v-3h1.67v3h2v1.37h-2v6.37c0,.87.22,1.23,1.09,1.23a4.42,4.42,0,0,0,.78-.08v1.27a4.44,4.44,0,0,1-1.33.16c-1.49,0-2.21-.56-2.21-2.25v-6.69h-1.63Z"/>
          <path class="cls-1" d="M505.18,352.28v-2.15h1.67v2.15Zm0,2.29h1.67v10.19h-1.67Z"/>
          <path class="cls-1" d="M510.78,360c0,2,.86,3.58,2.65,3.58a2.34,2.34,0,0,0,2.35-1.67h1.63a3.89,3.89,0,0,1-4.06,3.07c-3.18,0-4.26-2.51-4.26-5.32,0-2.51,1.23-5.26,4.36-5.26s4.12,2.49,4.12,4.84V360Zm5.14-1.21c0-1.75-.74-3.05-2.51-3.05-2,0-2.49,1.83-2.59,3.05Z"/>
          <path class="cls-1" d="M520.59,361.81a2.1,2.1,0,0,0,2.29,1.83c1.41,0,1.95-.74,1.95-1.61s-.64-1.41-2.37-1.87c-2.49-.68-3.13-1.59-3.13-3s.92-2.83,3.42-2.83,3.42,1.37,3.56,2.93h-1.65a1.79,1.79,0,0,0-2-1.63c-1.15,0-1.67.54-1.67,1.39s.38,1.19,2.09,1.63c2.59.7,3.42,1.57,3.42,3.19,0,1.89-1.49,3.05-3.68,3.05s-3.7-1-3.88-3.13Z"/>
          <path class="cls-1" d="M528.47,364.78V362h1.65v2.77Z"/>
          <path class="cls-1" d="M539.83,364.76l-3.44-13.86h1.81c1.41,5.73,2.33,9.72,2.63,11.89h0c.32-1.87,2.09-8.52,2.93-11.89h1.65c.78,3.11,2.57,10,2.85,11.81h0c.42-2.51,2.19-8.94,2.87-11.81h1.71l-3.72,13.86H547.3c-.78-3.21-2.41-9.52-2.77-11.49h0c-.4,2.15-2,8.34-2.83,11.49Z"/>
          <path class="cls-1" d="M554.94,360c0,2,.86,3.58,2.65,3.58a2.34,2.34,0,0,0,2.35-1.67h1.63a3.89,3.89,0,0,1-4.06,3.07c-3.18,0-4.26-2.51-4.26-5.32,0-2.51,1.23-5.26,4.36-5.26s4.12,2.49,4.12,4.84V360Zm5.14-1.21c0-1.75-.74-3.05-2.51-3.05-2,0-2.49,1.83-2.59,3.05Z"/>
          <path class="cls-1" d="M569.9,360c0,2,.86,3.58,2.65,3.58a2.34,2.34,0,0,0,2.35-1.67h1.63a3.89,3.89,0,0,1-4.06,3.07c-3.18,0-4.26-2.51-4.26-5.32,0-2.51,1.23-5.26,4.36-5.26s4.12,2.49,4.12,4.84V360Zm5.14-1.21c0-1.75-.74-3.05-2.51-3.05-2,0-2.49,1.83-2.59,3.05Z"/>
          <path class="cls-1" d="M578.9,357.77c0-2.13,0-2.75,0-3.19h1.63a12.38,12.38,0,0,1,.06,1.59,3.12,3.12,0,0,1,3-1.79c1.89,0,3.23,1.06,3.23,3.82v6.57h-1.67v-6.31c0-1.49-.5-2.61-2-2.61-1.81,0-2.53,1.35-2.53,3.48v5.44H578.9Z"/>
          <path class="cls-1" d="M591.4,354.57V365c0,2.27-.26,3.94-2.65,3.94a4.73,4.73,0,0,1-.64,0v-1.45c.18,0,.42,0,.52,0,1.06,0,1.11-.86,1.11-2.07V354.57Zm-1.67-2.29v-2.15h1.67v2.15Z"/>
          <path class="cls-1" d="M602.62,359.5c0,3-1.29,5.44-4.56,5.44s-4.42-2.59-4.42-5.38,1.47-5.18,4.56-5.18C601.07,354.37,602.62,356.56,602.62,359.5Zm-7.25,0c0,2.33,1,4,2.79,4s2.73-1.65,2.73-4c0-2.23-.92-3.76-2.77-3.76S595.36,357.31,595.36,359.54Z"/>
          <path class="cls-1" d="M605.52,354.57c1.59,4.94,2.41,7.41,2.67,8.64h0c.3-1.13,1.21-4.24,2.59-8.64h1.73L609,365.22c-1,3.09-1.87,3.74-3.68,3.74a4.52,4.52,0,0,1-.88-.08v-1.43a6.23,6.23,0,0,0,.88.06c1.23,0,1.61-1,2.09-2.43l-3.64-10.51Z"/>
          <path class="cls-1" d="M619.15,357.75c0-1.81,0-2.71,0-3.18h1.63c0,.28.06,1.08.06,1.45a3.07,3.07,0,0,1,2.85-1.65,2.49,2.49,0,0,1,2.61,1.75,3.21,3.21,0,0,1,3-1.75c1.55,0,3.05.8,3.05,3.48v6.91h-1.65v-6.63c0-1.24-.4-2.31-1.85-2.31s-2.25,1.33-2.25,3v6h-1.65V358c0-1.27-.5-2.21-1.83-2.21s-2.31,1.08-2.31,3.11v5.81h-1.65Z"/>
          <path class="cls-1" d="M642.24,362.49a18.81,18.81,0,0,0,.14,2.27h-1.51a9.29,9.29,0,0,1-.14-1.57,3,3,0,0,1-3.09,1.75,2.92,2.92,0,0,1-3.23-3.09c0-1.53,1-3.23,4.62-3.23h1.57v-1c0-1-.28-2-2-2a1.86,1.86,0,0,0-2.15,1.81h-1.63c.14-1.71,1.12-3.09,3.84-3.09,2.13,0,3.6.86,3.6,3.18Zm-1.61-2.67H639c-2.47,0-2.93,1-2.93,1.93a1.72,1.72,0,0,0,1.89,1.83c2,0,2.65-1.37,2.65-3.54Z"/>
          <path class="cls-1" d="M645.18,358c0-1.63,0-3,0-3.46h1.63c0,.48,0,1.13,0,2.07a3.42,3.42,0,0,1,3.29-2.25v1.73c-2.29.08-3.25,1.43-3.25,3.64v5h-1.67Z"/>
          <path class="cls-1" d="M653.62,359.34c.92-1,3-3.32,4.2-4.76h1.95c-1.13,1.29-2.37,2.57-3.56,3.88,1.23,1.95,2.69,4.34,4,6.31h-1.95c-.82-1.35-2.23-3.7-3.13-5.18-.28.3-1.18,1.21-1.47,1.49v3.7H652V350.13h1.67Z"/>
          <path class="cls-1" d="M662.36,360c0,2,.86,3.58,2.65,3.58a2.34,2.34,0,0,0,2.35-1.67H669a3.89,3.89,0,0,1-4.06,3.07c-3.18,0-4.26-2.51-4.26-5.32,0-2.51,1.23-5.26,4.36-5.26s4.12,2.49,4.12,4.84V360Zm5.14-1.21c0-1.75-.74-3.05-2.51-3.05-2,0-2.49,1.83-2.59,3.05Z"/>
          <path class="cls-1" d="M670.16,354.57h1.63v-3h1.67v3h2v1.37h-2v6.37c0,.87.22,1.23,1.09,1.23a4.42,4.42,0,0,0,.78-.08v1.27a4.44,4.44,0,0,1-1.33.16c-1.49,0-2.21-.56-2.21-2.25v-6.69h-1.63Z"/>
          <path class="cls-1" d="M677.28,352.28v-2.15h1.67v2.15Zm0,2.29h1.67v10.19h-1.67Z"/>
          <path class="cls-1" d="M681.88,357.77c0-2.13,0-2.75,0-3.19h1.63a12.38,12.38,0,0,1,.06,1.59,3.12,3.12,0,0,1,3-1.79c1.89,0,3.23,1.06,3.23,3.82v6.57h-1.67v-6.31c0-1.49-.5-2.61-2-2.61-1.81,0-2.53,1.35-2.53,3.48v5.44h-1.67Z"/>
          <path class="cls-1" d="M700.59,364c0,3.19-1.29,5-4.38,5s-3.88-1.61-4-3.05h1.65a2.19,2.19,0,0,0,2.45,1.69c2.17,0,2.67-1.43,2.67-3.66v-.82a2.88,2.88,0,0,1-3,1.67c-2.39,0-3.94-2-3.94-5.16s1.83-5.24,4.18-5.24c1.61,0,2.43.66,2.71,1.45a9.24,9.24,0,0,1,.08-1.25h1.63c0,.48,0,1.57,0,3Zm-4.22-.64c1.95,0,2.63-1.23,2.63-3.78s-.56-3.74-2.53-3.74c-1.69,0-2.71,1.41-2.71,3.78S694.76,363.33,696.37,363.33Z"/>
          <path class="cls-1" d="M715.61,362.49a19.15,19.15,0,0,0,.14,2.27h-1.51a9.29,9.29,0,0,1-.14-1.57,3,3,0,0,1-3.09,1.75,2.92,2.92,0,0,1-3.23-3.09c0-1.53,1-3.23,4.62-3.23H714v-1c0-1-.28-2-2-2a1.86,1.86,0,0,0-2.15,1.81h-1.63c.14-1.71,1.12-3.09,3.84-3.09,2.13,0,3.6.86,3.6,3.18ZM714,359.82h-1.61c-2.47,0-2.93,1-2.93,1.93a1.72,1.72,0,0,0,1.89,1.83c2,0,2.65-1.37,2.65-3.54Z"/>
          <path class="cls-1" d="M718.55,357.77c0-2.13,0-2.75,0-3.19h1.63a12.38,12.38,0,0,1,.06,1.59,3.12,3.12,0,0,1,3-1.79c1.89,0,3.23,1.06,3.23,3.82v6.57h-1.67v-6.31c0-1.49-.5-2.61-2-2.61-1.81,0-2.53,1.35-2.53,3.48v5.44h-1.67Z"/>
          <path class="cls-1" d="M737.29,350.13v12c0,1,0,2,0,2.65h-1.63c0-.26-.06-.9-.06-1.51-.54,1.18-1.37,1.69-3,1.69-2.63,0-4-2.23-4-5.26s1.53-5.31,4.3-5.31c1.65,0,2.41.66,2.69,1.23v-5.47Zm-4.24,13.38c2.19,0,2.65-1.67,2.65-4.06,0-2.81-.82-3.64-2.55-3.64s-2.77,1.37-2.77,3.8S731.45,363.51,733.06,363.51Z"/>
          <path class="cls-1" d="M745.22,357.75c0-1.81,0-2.71,0-3.18h1.63c0,.28.06,1.08.06,1.45a3.07,3.07,0,0,1,2.85-1.65,2.49,2.49,0,0,1,2.61,1.75,3.21,3.21,0,0,1,3-1.75c1.55,0,3.05.8,3.05,3.48v6.91h-1.65v-6.63c0-1.24-.4-2.31-1.85-2.31s-2.25,1.33-2.25,3v6H751V358c0-1.27-.5-2.21-1.83-2.21s-2.31,1.08-2.31,3.11v5.81h-1.65Z"/>
          <path class="cls-1" d="M768.31,362.49a18.81,18.81,0,0,0,.14,2.27h-1.51a9.29,9.29,0,0,1-.14-1.57,3,3,0,0,1-3.09,1.75,2.92,2.92,0,0,1-3.23-3.09c0-1.53,1-3.23,4.62-3.23h1.57v-1c0-1-.28-2-2-2a1.86,1.86,0,0,0-2.15,1.81h-1.63c.14-1.71,1.12-3.09,3.84-3.09,2.13,0,3.6.86,3.6,3.18Zm-1.61-2.67H765.1c-2.47,0-2.93,1-2.93,1.93a1.72,1.72,0,0,0,1.89,1.83c2,0,2.65-1.37,2.65-3.54Z"/>
          <path class="cls-1" d="M771.25,357.77c0-2.13,0-2.75,0-3.19h1.63a12.38,12.38,0,0,1,.06,1.59,3.12,3.12,0,0,1,3-1.79c1.89,0,3.23,1.06,3.23,3.82v6.57h-1.67v-6.31c0-1.49-.5-2.61-2-2.61-1.81,0-2.53,1.35-2.53,3.48v5.44h-1.67Z"/>
          <path class="cls-1" d="M789.06,362.49a18.81,18.81,0,0,0,.14,2.27h-1.51a9.29,9.29,0,0,1-.14-1.57,3,3,0,0,1-3.09,1.75,2.92,2.92,0,0,1-3.23-3.09c0-1.53,1-3.23,4.62-3.23h1.57v-1c0-1-.28-2-2-2a1.86,1.86,0,0,0-2.15,1.81h-1.63c.14-1.71,1.12-3.09,3.84-3.09,2.13,0,3.6.86,3.6,3.18Zm-1.61-2.67h-1.61c-2.47,0-2.93,1-2.93,1.93a1.72,1.72,0,0,0,1.89,1.83c2,0,2.65-1.37,2.65-3.54Z"/>
          <path class="cls-1" d="M799.87,364c0,3.19-1.29,5-4.38,5s-3.88-1.61-4-3.05h1.65a2.19,2.19,0,0,0,2.45,1.69c2.17,0,2.67-1.43,2.67-3.66v-.82a2.88,2.88,0,0,1-3,1.67c-2.39,0-3.94-2-3.94-5.16s1.83-5.24,4.18-5.24c1.61,0,2.43.66,2.71,1.45a9.24,9.24,0,0,1,.08-1.25h1.63c0,.48,0,1.57,0,3Zm-4.22-.64c1.95,0,2.63-1.23,2.63-3.78s-.56-3.74-2.53-3.74c-1.69,0-2.71,1.41-2.71,3.78S794,363.33,795.65,363.33Z"/>
          <path class="cls-1" d="M802.79,352.28v-2.15h1.67v2.15Zm0,2.29h1.67v10.19h-1.67Z"/>
          <path class="cls-1" d="M807.39,357.77c0-2.13,0-2.75,0-3.19H809a12.38,12.38,0,0,1,.06,1.59,3.12,3.12,0,0,1,3-1.79c1.89,0,3.23,1.06,3.23,3.82v6.57h-1.67v-6.31c0-1.49-.5-2.61-2-2.61-1.81,0-2.53,1.35-2.53,3.48v5.44h-1.67Z"/>
          <path class="cls-1" d="M826.1,364c0,3.19-1.29,5-4.38,5s-3.88-1.61-4-3.05h1.65a2.19,2.19,0,0,0,2.45,1.69c2.17,0,2.67-1.43,2.67-3.66v-.82a2.88,2.88,0,0,1-3,1.67c-2.39,0-3.94-2-3.94-5.16s1.83-5.24,4.18-5.24c1.61,0,2.43.66,2.71,1.45a9.24,9.24,0,0,1,.08-1.25h1.63c0,.48,0,1.57,0,3Zm-4.22-.64c1.95,0,2.63-1.23,2.63-3.78s-.56-3.74-2.53-3.74c-1.69,0-2.71,1.41-2.71,3.78S820.28,363.33,821.88,363.33Z"/>
          <path class="cls-1" d="M835,360c0,2,.86,3.58,2.65,3.58a2.34,2.34,0,0,0,2.35-1.67h1.63a3.89,3.89,0,0,1-4.06,3.07c-3.18,0-4.26-2.51-4.26-5.32,0-2.51,1.23-5.26,4.36-5.26s4.12,2.49,4.12,4.84V360Zm5.14-1.21c0-1.75-.74-3.05-2.51-3.05-2,0-2.49,1.83-2.59,3.05Z"/>
          <path class="cls-1" d="M844.6,354.57c1.37,4.32,2.27,7.17,2.59,8.6h0c.2-1.21,2-6.35,2.69-8.6h1.65L848,364.76h-1.83l-3.39-10.19Z"/>
          <path class="cls-1" d="M854.23,360c0,2,.86,3.58,2.65,3.58a2.34,2.34,0,0,0,2.35-1.67h1.63A3.89,3.89,0,0,1,856.8,365c-3.18,0-4.26-2.51-4.26-5.32,0-2.51,1.23-5.26,4.36-5.26s4.12,2.49,4.12,4.84V360Zm5.14-1.21c0-1.75-.74-3.05-2.51-3.05-2,0-2.49,1.83-2.59,3.05Z"/>
          <path class="cls-1" d="M863.23,358c0-1.63,0-3,0-3.46h1.63c0,.48,0,1.13,0,2.07a3.42,3.42,0,0,1,3.29-2.25v1.73c-2.29.08-3.25,1.43-3.25,3.64v5h-1.67Z"/>
          <path class="cls-1" d="M871.17,354.57c1.59,4.94,2.41,7.41,2.67,8.64h0c.3-1.13,1.21-4.24,2.59-8.64h1.73l-3.58,10.65c-1,3.09-1.87,3.74-3.68,3.74a4.52,4.52,0,0,1-.88-.08v-1.43a6.23,6.23,0,0,0,.88.06c1.23,0,1.61-1,2.09-2.43l-3.64-10.51Z"/>
          <path class="cls-1" d="M879.13,354.57h1.63v-3h1.67v3h2v1.37h-2v6.37c0,.87.22,1.23,1.09,1.23a4.42,4.42,0,0,0,.78-.08v1.27a4.44,4.44,0,0,1-1.33.16c-1.49,0-2.21-.56-2.21-2.25v-6.69h-1.63Z"/>
          <path class="cls-1" d="M887.81,350.13V356a3.16,3.16,0,0,1,3-1.67c1.49,0,3.19.76,3.19,3.66v6.73h-1.65v-6.45c0-1.55-.6-2.47-2.09-2.47-1.65,0-2.49,1.08-2.49,3.11v5.81h-1.67V350.13Z"/>
          <path class="cls-1" d="M897,352.28v-2.15h1.67v2.15Zm0,2.29h1.67v10.19H897Z"/>
          <path class="cls-1" d="M901.58,357.77c0-2.13,0-2.75,0-3.19h1.63a12.38,12.38,0,0,1,.06,1.59,3.12,3.12,0,0,1,3-1.79c1.89,0,3.23,1.06,3.23,3.82v6.57h-1.67v-6.31c0-1.49-.5-2.61-2-2.61-1.81,0-2.53,1.35-2.53,3.48v5.44h-1.67Z"/>
          <path class="cls-1" d="M920.29,364c0,3.19-1.29,5-4.38,5s-3.88-1.61-4-3.05h1.65a2.19,2.19,0,0,0,2.45,1.69c2.17,0,2.67-1.43,2.67-3.66v-.82a2.88,2.88,0,0,1-3,1.67c-2.39,0-3.94-2-3.94-5.16s1.83-5.24,4.18-5.24c1.61,0,2.43.66,2.71,1.45a9.24,9.24,0,0,1,.08-1.25h1.63c0,.48,0,1.57,0,3Zm-4.22-.64c1.95,0,2.63-1.23,2.63-3.78s-.56-3.74-2.53-3.74c-1.69,0-2.71,1.41-2.71,3.78S914.47,363.33,916.08,363.33Z"/>
          <path class="cls-1" d="M339.24,388.88v-8.82h-1.57V378.7h1.57v-1.27c0-1.81.62-3.33,2.75-3.33a3.52,3.52,0,0,1,1,.12v1.43a3,3,0,0,0-.82-.1c-.9,0-1.25.6-1.25,1.81v1.35h1.91v1.37h-1.91v8.82Z"/>
          <path class="cls-1" d="M344.28,382.15c0-1.63,0-3,0-3.46h1.63c0,.48,0,1.13,0,2.07a3.42,3.42,0,0,1,3.29-2.25v1.73c-2.29.08-3.25,1.43-3.25,3.64v5h-1.67Z"/>
          <path class="cls-1" d="M359.09,383.62c0,3-1.29,5.44-4.56,5.44s-4.42-2.59-4.42-5.38,1.47-5.18,4.56-5.18C357.55,378.49,359.09,380.68,359.09,383.62Zm-7.25,0c0,2.33,1,4,2.79,4s2.73-1.65,2.73-4c0-2.23-.92-3.76-2.77-3.76S351.84,381.43,351.84,383.66Z"/>
          <path class="cls-1" d="M361.33,381.87c0-1.81,0-2.71,0-3.18h1.63c0,.28.06,1.08.06,1.45a3.07,3.07,0,0,1,2.85-1.65,2.49,2.49,0,0,1,2.61,1.75,3.21,3.21,0,0,1,3-1.75c1.55,0,3.05.8,3.05,3.48v6.91h-1.65v-6.63c0-1.24-.4-2.31-1.85-2.31s-2.25,1.33-2.25,3v6h-1.65v-6.71c0-1.27-.5-2.21-1.83-2.21S363,381,363,383.07v5.81h-1.65Z"/>
          <path class="cls-1" d="M382.4,381.87c0-1.81,0-2.71,0-3.18H384c0,.28.06,1.08.06,1.45a3.07,3.07,0,0,1,2.85-1.65,2.49,2.49,0,0,1,2.61,1.75,3.21,3.21,0,0,1,3-1.75c1.55,0,3.05.8,3.05,3.48v6.91h-1.65v-6.63c0-1.24-.4-2.31-1.85-2.31s-2.25,1.33-2.25,3v6h-1.65v-6.71c0-1.27-.5-2.21-1.83-2.21S384,381,384,383.07v5.81H382.4Z"/>
          <path class="cls-1" d="M399.52,384.1c0,2,.86,3.58,2.65,3.58a2.34,2.34,0,0,0,2.35-1.67h1.63a3.89,3.89,0,0,1-4.06,3.07c-3.18,0-4.26-2.51-4.26-5.32,0-2.51,1.23-5.26,4.36-5.26s4.12,2.49,4.12,4.84v.76Zm5.14-1.21c0-1.75-.74-3.05-2.51-3.05-2,0-2.49,1.83-2.59,3.05Z"/>
          <path class="cls-1" d="M408.53,381.87c0-1.81,0-2.71,0-3.18h1.63c0,.28.06,1.08.06,1.45a3.07,3.07,0,0,1,2.85-1.65,2.49,2.49,0,0,1,2.61,1.75,3.21,3.21,0,0,1,3-1.75c1.55,0,3.05.8,3.05,3.48v6.91h-1.65v-6.63c0-1.24-.4-2.31-1.85-2.31s-2.25,1.33-2.25,3v6h-1.65v-6.71c0-1.27-.5-2.21-1.83-2.21s-2.31,1.08-2.31,3.11v5.81h-1.65Z"/>
          <path class="cls-1" d="M424.63,374.26h1.67v5.85a3.27,3.27,0,0,1,3.05-1.61c2.47,0,3.92,2,3.92,5s-1.31,5.58-4.22,5.58a2.81,2.81,0,0,1-2.77-1.47,9,9,0,0,1-.06,1.29h-1.63c0-.56,0-1.63,0-2.89Zm4.32,5.69c-2,0-2.75,1.31-2.75,3.72s.58,4,2.69,4c1.83,0,2.67-1.69,2.67-4.08C431.56,381.39,430.69,379.94,428.95,379.94Z"/>
          <path class="cls-1" d="M436.51,384.1c0,2,.86,3.58,2.65,3.58a2.34,2.34,0,0,0,2.35-1.67h1.63a3.89,3.89,0,0,1-4.06,3.07c-3.18,0-4.26-2.51-4.26-5.32,0-2.51,1.23-5.26,4.36-5.26s4.12,2.49,4.12,4.84v.76Zm5.14-1.21c0-1.75-.74-3.05-2.51-3.05-2,0-2.49,1.83-2.59,3.05Z"/>
          <path class="cls-1" d="M445.51,382.15c0-1.63,0-3,0-3.46h1.63c0,.48,0,1.13,0,2.07a3.42,3.42,0,0,1,3.29-2.25v1.73c-2.29.08-3.25,1.43-3.25,3.64v5h-1.67Z"/>
          <path class="cls-1" d="M453,385.93a2.1,2.1,0,0,0,2.29,1.83c1.41,0,1.95-.74,1.95-1.61s-.64-1.41-2.37-1.87c-2.49-.68-3.13-1.59-3.13-3s.92-2.83,3.42-2.83,3.42,1.37,3.56,2.93h-1.65a1.79,1.79,0,0,0-2-1.63c-1.15,0-1.67.54-1.67,1.39s.38,1.19,2.09,1.63c2.59.7,3.42,1.57,3.42,3.19,0,1.89-1.49,3.05-3.68,3.05s-3.7-1-3.88-3.13Z"/>
          <path class="cls-1" d="M462.66,374.26v5.91a3.16,3.16,0,0,1,3-1.67c1.49,0,3.19.76,3.19,3.66v6.73h-1.65v-6.45c0-1.55-.6-2.47-2.09-2.47-1.65,0-2.49,1.08-2.49,3.11v5.81H461V374.26Z"/>
          <path class="cls-1" d="M471.82,376.41v-2.15h1.67v2.15Zm0,2.29h1.67v10.19h-1.67Z"/>
          <path class="cls-1" d="M476.43,392.92V381.69c0-1.39,0-2.37,0-3H478c0,.34,0,1.06,0,1.65a3.28,3.28,0,0,1,3.17-1.85c2.23,0,3.82,1.75,3.82,5.12s-1.83,5.42-4.22,5.42a2.9,2.9,0,0,1-2.77-1.39v5.26Zm4.3-13c-2.09,0-2.71,1.43-2.71,3.88,0,2.25.42,3.8,2.61,3.8,1.71,0,2.71-1.41,2.71-3.94S482.35,379.94,480.73,379.94Z"/>
          <path class="cls-1" d="M493,385.93a2.1,2.1,0,0,0,2.29,1.83c1.41,0,1.95-.74,1.95-1.61s-.64-1.41-2.37-1.87c-2.49-.68-3.13-1.59-3.13-3s.92-2.83,3.42-2.83,3.42,1.37,3.56,2.93H497a1.79,1.79,0,0,0-2-1.63c-1.15,0-1.67.54-1.67,1.39s.38,1.19,2.09,1.63c2.59.7,3.42,1.57,3.42,3.19,0,1.89-1.49,3.05-3.68,3.05s-3.7-1-3.88-3.13Z"/>
          <path class="cls-1" d="M502.18,384.1c0,2,.86,3.58,2.65,3.58a2.34,2.34,0,0,0,2.35-1.67h1.63a3.89,3.89,0,0,1-4.06,3.07c-3.18,0-4.26-2.51-4.26-5.32,0-2.51,1.23-5.26,4.36-5.26S509,381,509,383.34v.76Zm5.14-1.21c0-1.75-.74-3.05-2.51-3.05-2,0-2.49,1.83-2.59,3.05Z"/>
          <path class="cls-1" d="M511.18,382.15c0-1.63,0-3,0-3.46h1.63c0,.48,0,1.13,0,2.07a3.42,3.42,0,0,1,3.29-2.25v1.73c-2.29.08-3.25,1.43-3.25,3.64v5h-1.67Z"/>
          <path class="cls-1" d="M519,378.7c1.37,4.32,2.27,7.17,2.59,8.6h0c.2-1.21,2-6.35,2.69-8.6H526l-3.52,10.19h-1.83l-3.39-10.19Z"/>
          <path class="cls-1" d="M527.64,376.41v-2.15h1.67v2.15Zm0,2.29h1.67v10.19h-1.67Z"/>
          <path class="cls-1" d="M540,385.63a3.92,3.92,0,0,1-4.1,3.46c-2.85,0-4.3-1.91-4.3-5.31,0-3,1.49-5.28,4.4-5.28a3.72,3.72,0,0,1,4,3.56h-1.67a2.29,2.29,0,0,0-2.33-2.19c-1.87,0-2.67,1.63-2.67,3.88,0,2.61.94,4,2.65,4,1.41,0,2-.88,2.37-2.09Z"/>
          <path class="cls-1" d="M543.18,384.1c0,2,.86,3.58,2.65,3.58a2.34,2.34,0,0,0,2.35-1.67h1.63a3.89,3.89,0,0,1-4.06,3.07c-3.18,0-4.26-2.51-4.26-5.32,0-2.51,1.23-5.26,4.36-5.26S550,381,550,383.34v.76Zm5.14-1.21c0-1.75-.74-3.05-2.51-3.05-2,0-2.49,1.83-2.59,3.05Z"/>
          <path class="cls-1" d="M553,385.93a2.1,2.1,0,0,0,2.29,1.83c1.41,0,1.95-.74,1.95-1.61s-.64-1.41-2.37-1.87c-2.49-.68-3.13-1.59-3.13-3s.92-2.83,3.42-2.83,3.42,1.37,3.56,2.93H557a1.79,1.79,0,0,0-2-1.63c-1.15,0-1.67.54-1.67,1.39s.38,1.19,2.09,1.63c2.59.7,3.42,1.57,3.42,3.19,0,1.89-1.49,3.05-3.68,3.05s-3.7-1-3.88-3.13Z"/>
          <path class="cls-1" d="M564.59,378.7h1.63v-3h1.67v3h2v1.37h-2v6.37c0,.87.22,1.23,1.09,1.23a4.42,4.42,0,0,0,.78-.08v1.27a4.44,4.44,0,0,1-1.33.16c-1.49,0-2.21-.56-2.21-2.25v-6.69h-1.63Z"/>
          <path class="cls-1" d="M580,383.62c0,3-1.29,5.44-4.56,5.44s-4.42-2.59-4.42-5.38,1.47-5.18,4.56-5.18C578.43,378.49,580,380.68,580,383.62Zm-7.25,0c0,2.33,1,4,2.79,4s2.73-1.65,2.73-4c0-2.23-.92-3.76-2.77-3.76S572.73,381.43,572.73,383.66Z"/>
          <path class="cls-1" d="M587.16,392.92V381.69c0-1.39,0-2.37,0-3h1.65c0,.34,0,1.06,0,1.65a3.28,3.28,0,0,1,3.17-1.85c2.23,0,3.82,1.75,3.82,5.12S594,389,591.58,389a2.9,2.9,0,0,1-2.77-1.39v5.26Zm4.3-13c-2.09,0-2.71,1.43-2.71,3.88,0,2.25.42,3.8,2.61,3.8,1.71,0,2.71-1.41,2.71-3.94S593.09,379.94,591.46,379.94Z"/>
          <path class="cls-1" d="M599.71,374.26v5.91a3.16,3.16,0,0,1,3-1.67c1.49,0,3.19.76,3.19,3.66v6.73h-1.65v-6.45c0-1.55-.6-2.47-2.09-2.47-1.65,0-2.49,1.08-2.49,3.11v5.81H598V374.26Z"/>
          <path class="cls-1" d="M609.19,378.7c1.59,4.94,2.41,7.41,2.67,8.64h0c.3-1.13,1.21-4.24,2.59-8.64h1.73l-3.58,10.65c-1,3.09-1.87,3.74-3.68,3.74a4.52,4.52,0,0,1-.88-.08v-1.43a6.23,6.23,0,0,0,.88.06c1.23,0,1.61-1,2.09-2.43L607.4,378.7Z"/>
          <path class="cls-1" d="M618.7,385.93a2.1,2.1,0,0,0,2.29,1.83c1.41,0,1.95-.74,1.95-1.61s-.64-1.41-2.37-1.87c-2.49-.68-3.13-1.59-3.13-3s.92-2.83,3.42-2.83,3.42,1.37,3.56,2.93h-1.65a1.79,1.79,0,0,0-2-1.63c-1.15,0-1.67.54-1.67,1.39s.38,1.19,2.09,1.63c2.59.7,3.42,1.57,3.42,3.19,0,1.89-1.49,3.05-3.68,3.05s-3.7-1-3.88-3.13Z"/>
          <path class="cls-1" d="M626.74,376.41v-2.15h1.67v2.15Zm0,2.29h1.67v10.19h-1.67Z"/>
          <path class="cls-1" d="M639.06,385.63a3.92,3.92,0,0,1-4.1,3.46c-2.85,0-4.3-1.91-4.3-5.31,0-3,1.49-5.28,4.4-5.28a3.72,3.72,0,0,1,4,3.56h-1.67a2.29,2.29,0,0,0-2.33-2.19c-1.87,0-2.67,1.63-2.67,3.88,0,2.61.94,4,2.65,4,1.41,0,2-.88,2.37-2.09Z"/>
          <path class="cls-1" d="M648.41,386.61a19.15,19.15,0,0,0,.14,2.27H647a9.29,9.29,0,0,1-.14-1.57,3,3,0,0,1-3.09,1.75,2.92,2.92,0,0,1-3.23-3.09c0-1.53,1-3.23,4.62-3.23h1.57v-1c0-1-.28-2-2-2a1.86,1.86,0,0,0-2.15,1.81H641c.14-1.71,1.12-3.09,3.84-3.09,2.13,0,3.6.86,3.6,3.18Zm-1.61-2.67h-1.61c-2.47,0-2.93,1-2.93,1.93a1.72,1.72,0,0,0,1.89,1.83c2,0,2.65-1.37,2.65-3.54Z"/>
          <path class="cls-1" d="M651.35,388.88V374.26H653v14.63Z"/>
          <path class="cls-1" d="M660.89,392.92V381.69c0-1.39,0-2.37,0-3h1.65c0,.34,0,1.06,0,1.65a3.28,3.28,0,0,1,3.17-1.85c2.23,0,3.82,1.75,3.82,5.12S667.7,389,665.31,389a2.9,2.9,0,0,1-2.77-1.39v5.26Zm4.3-13c-2.09,0-2.71,1.43-2.71,3.88,0,2.25.42,3.8,2.61,3.8,1.71,0,2.71-1.41,2.71-3.94S666.82,379.94,665.19,379.94Z"/>
          <path class="cls-1" d="M671.77,382.15c0-1.63,0-3,0-3.46h1.63c0,.48,0,1.13,0,2.07a3.42,3.42,0,0,1,3.29-2.25v1.73c-2.29.08-3.25,1.43-3.25,3.64v5h-1.67Z"/>
          <path class="cls-1" d="M686.58,383.62c0,3-1.29,5.44-4.56,5.44s-4.42-2.59-4.42-5.38,1.47-5.18,4.56-5.18C685,378.49,686.58,380.68,686.58,383.62Zm-7.25,0c0,2.33,1,4,2.79,4s2.73-1.65,2.73-4c0-2.23-.92-3.76-2.77-3.76S679.33,381.43,679.33,383.66Z"/>
          <path class="cls-1" d="M696.73,374.26v12c0,1,0,2,0,2.65h-1.63c0-.26-.06-.9-.06-1.51-.54,1.18-1.37,1.69-3,1.69-2.63,0-4-2.23-4-5.26s1.53-5.31,4.3-5.31c1.65,0,2.41.66,2.69,1.23v-5.47Zm-4.24,13.38c2.19,0,2.65-1.67,2.65-4.06,0-2.81-.82-3.64-2.55-3.64s-2.77,1.37-2.77,3.8S690.88,387.64,692.49,387.64Z"/>
          <path class="cls-1" d="M707.32,386c0,1.26,0,2.39,0,2.87h-1.61a10.3,10.3,0,0,1-.08-1.63,3,3,0,0,1-3,1.81c-1.59,0-3.11-.76-3.11-3.52V378.7h1.65v6.53c0,1.33.42,2.39,2,2.39s2.45-1,2.45-3.23V378.7h1.69Z"/>
          <path class="cls-1" d="M718,385.63a3.92,3.92,0,0,1-4.1,3.46c-2.85,0-4.3-1.91-4.3-5.31,0-3,1.49-5.28,4.4-5.28a3.72,3.72,0,0,1,4,3.56h-1.67a2.29,2.29,0,0,0-2.33-2.19c-1.87,0-2.67,1.63-2.67,3.88,0,2.61.94,4,2.65,4,1.41,0,2-.88,2.37-2.09Z"/>
          <path class="cls-1" d="M719,378.7h1.63v-3h1.67v3h2v1.37h-2v6.37c0,.87.22,1.23,1.09,1.23a4.42,4.42,0,0,0,.78-.08v1.27a4.44,4.44,0,0,1-1.33.16c-1.49,0-2.21-.56-2.21-2.25v-6.69H719Z"/>
          <path class="cls-1" d="M727,385.93a2.1,2.1,0,0,0,2.29,1.83c1.41,0,1.95-.74,1.95-1.61s-.64-1.41-2.37-1.87c-2.49-.68-3.13-1.59-3.13-3s.92-2.83,3.42-2.83,3.42,1.37,3.56,2.93h-1.65a1.79,1.79,0,0,0-2-1.63c-1.15,0-1.67.54-1.67,1.39s.38,1.19,2.09,1.63c2.59.7,3.42,1.57,3.42,3.19,0,1.89-1.49,3.05-3.68,3.05s-3.7-1-3.88-3.13Z"/>
          <path class="cls-1" d="M733.92,391.25a13.66,13.66,0,0,0,1.27-5.16h1.63a11,11,0,0,1-1.51,5.16Z"/>
          <path class="cls-1" d="M751.63,386c0,1.26,0,2.39,0,2.87h-1.61a10.3,10.3,0,0,1-.08-1.63,3,3,0,0,1-3,1.81c-1.59,0-3.11-.76-3.11-3.52V378.7h1.65v6.53c0,1.33.42,2.39,2,2.39s2.45-1,2.45-3.23V378.7h1.69Z"/>
          <path class="cls-1" d="M753.32,378.7h1.63v-3h1.67v3h2v1.37h-2v6.37c0,.87.22,1.23,1.09,1.23a4.42,4.42,0,0,0,.78-.08v1.27a4.44,4.44,0,0,1-1.33.16c-1.49,0-2.21-.56-2.21-2.25v-6.69h-1.63Z"/>
          <path class="cls-1" d="M760.44,376.41v-2.15h1.67v2.15Zm0,2.29h1.67v10.19h-1.67Z"/>
          <path class="cls-1" d="M765,388.88V374.26h1.67v14.63Z"/>
          <path class="cls-1" d="M769.64,376.41v-2.15h1.67v2.15Zm0,2.29h1.67v10.19h-1.67Z"/>
          <path class="cls-1" d="M773.32,387.54c1.71-2.21,3.72-5,5.5-7.43h-5.18V378.7h7.09v1.39c-1.77,2.39-3.66,5-5.47,7.41H781l-.26,1.39h-7.37Z"/>
          <path class="cls-1" d="M782.69,376.41v-2.15h1.67v2.15Zm0,2.29h1.67v10.19h-1.67Z"/>
          <path class="cls-1" d="M787.29,381.89c0-2.13,0-2.75,0-3.19h1.63a12.38,12.38,0,0,1,.06,1.59,3.12,3.12,0,0,1,3-1.79c1.89,0,3.23,1.06,3.23,3.82v6.57h-1.67v-6.31c0-1.49-.5-2.61-2-2.61-1.81,0-2.53,1.35-2.53,3.48v5.44h-1.67Z"/>
          <path class="cls-1" d="M806,388.1c0,3.19-1.29,5-4.38,5s-3.88-1.61-4-3.05h1.65a2.19,2.19,0,0,0,2.45,1.69c2.17,0,2.67-1.43,2.67-3.66v-.82a2.88,2.88,0,0,1-3,1.67c-2.39,0-3.94-2-3.94-5.16s1.83-5.24,4.18-5.24c1.61,0,2.43.66,2.71,1.45a9.24,9.24,0,0,1,.08-1.25H806c0,.48,0,1.57,0,3Zm-4.22-.64c1.95,0,2.63-1.23,2.63-3.78s-.56-3.74-2.53-3.74c-1.69,0-2.71,1.41-2.71,3.78S800.17,387.46,801.78,387.46Z"/>
          <path class="cls-1" d="M812.42,378.7H814v-3h1.67v3h2v1.37h-2v6.37c0,.87.22,1.23,1.09,1.23a4.42,4.42,0,0,0,.78-.08v1.27a4.44,4.44,0,0,1-1.33.16c-1.49,0-2.21-.56-2.21-2.25v-6.69h-1.63Z"/>
          <path class="cls-1" d="M821.1,374.26v5.91a3.16,3.16,0,0,1,3-1.67c1.49,0,3.19.76,3.19,3.66v6.73h-1.65v-6.45c0-1.55-.6-2.47-2.09-2.47-1.65,0-2.49,1.08-2.49,3.11v5.81h-1.67V374.26Z"/>
          <path class="cls-1" d="M831.27,384.1c0,2,.86,3.58,2.65,3.58a2.34,2.34,0,0,0,2.35-1.67h1.63a3.89,3.89,0,0,1-4.06,3.07c-3.18,0-4.26-2.51-4.26-5.32,0-2.51,1.23-5.26,4.36-5.26s4.12,2.49,4.12,4.84v.76Zm5.14-1.21c0-1.75-.74-3.05-2.51-3.05-2,0-2.49,1.83-2.59,3.05Z"/>
          <path class="cls-1" d="M845.22,392.92V381.69c0-1.39,0-2.37,0-3h1.65c0,.34,0,1.06,0,1.65a3.28,3.28,0,0,1,3.17-1.85c2.23,0,3.82,1.75,3.82,5.12S852,389,849.64,389a2.9,2.9,0,0,1-2.77-1.39v5.26Zm4.3-13c-2.09,0-2.71,1.43-2.71,3.88,0,2.25.42,3.8,2.61,3.8,1.71,0,2.71-1.41,2.71-3.94S851.15,379.94,849.52,379.94Z"/>
          <path class="cls-1" d="M864.37,383.62c0,3-1.29,5.44-4.56,5.44s-4.42-2.59-4.42-5.38,1.47-5.18,4.56-5.18C862.83,378.49,864.37,380.68,864.37,383.62Zm-7.25,0c0,2.33,1,4,2.79,4s2.73-1.65,2.73-4c0-2.23-.92-3.76-2.77-3.76S857.12,381.43,857.12,383.66Z"/>
          <path class="cls-1" d="M867.25,378.7c1.17,4.48,1.87,7.13,2.11,8.48h0c.24-1.23.8-3.19,2.25-8.48h1.63c1.37,5,2,7.27,2.13,8.4h0c.22-1.13.8-3.21,2.23-8.4h1.69l-3.09,10.19h-1.75c-.9-3.36-1.81-6.55-2.11-8.1h0c-.26,1.51-1.19,4.64-2.19,8.1h-1.81l-2.91-10.19Z"/>
          <path class="cls-1" d="M882,384.1c0,2,.86,3.58,2.65,3.58A2.34,2.34,0,0,0,887,386h1.63a3.89,3.89,0,0,1-4.06,3.07c-3.18,0-4.26-2.51-4.26-5.32,0-2.51,1.23-5.26,4.36-5.26s4.12,2.49,4.12,4.84v.76Zm5.14-1.21c0-1.75-.74-3.05-2.51-3.05-2,0-2.49,1.83-2.59,3.05Z"/>
          <path class="cls-1" d="M891,382.15c0-1.63,0-3,0-3.46h1.63c0,.48,0,1.13,0,2.07a3.42,3.42,0,0,1,3.29-2.25v1.73c-2.29.08-3.25,1.43-3.25,3.64v5H891Z"/>
          <path class="cls-1" d="M910.89,383.62c0,3-1.29,5.44-4.56,5.44s-4.42-2.59-4.42-5.38,1.47-5.18,4.56-5.18C909.34,378.49,910.89,380.68,910.89,383.62Zm-7.25,0c0,2.33,1,4,2.79,4s2.73-1.65,2.73-4c0-2.23-.92-3.76-2.77-3.76S903.63,381.43,903.63,383.66Z"/>
          <path class="cls-1" d="M913.48,388.88v-8.82h-1.57V378.7h1.57v-1.27c0-1.81.62-3.33,2.75-3.33a3.52,3.52,0,0,1,1,.12v1.43a3,3,0,0,0-.82-.1c-.9,0-1.25.6-1.25,1.81v1.35H917v1.37h-1.91v8.82Z"/>
          <path class="cls-1" d="M337.61,402.82h1.63v-3h1.67v3h2v1.37h-2v6.37c0,.86.22,1.23,1.09,1.23a4.43,4.43,0,0,0,.78-.08V413a4.44,4.44,0,0,1-1.33.16c-1.49,0-2.21-.56-2.21-2.25v-6.69h-1.63Z"/>
          <path class="cls-1" d="M346.29,398.38v5.91a3.16,3.16,0,0,1,3-1.67c1.49,0,3.19.76,3.19,3.66V413h-1.65v-6.45c0-1.55-.6-2.47-2.09-2.47-1.65,0-2.49,1.09-2.49,3.11V413h-1.67V398.38Z"/>
          <path class="cls-1" d="M356.46,408.22c0,2,.86,3.58,2.65,3.58a2.34,2.34,0,0,0,2.35-1.67h1.63A3.89,3.89,0,0,1,359,413.2c-3.18,0-4.26-2.51-4.26-5.32,0-2.51,1.23-5.26,4.36-5.26s4.12,2.49,4.12,4.84v.76Zm5.14-1.21c0-1.75-.74-3.05-2.51-3.05-2,0-2.49,1.83-2.59,3.05Z"/>
          <path class="cls-1" d="M370.42,400.53v-2.15h1.67v2.15Zm0,2.29h1.67V413h-1.67Z"/>
          <path class="cls-1" d="M375,406c0-2.13,0-2.75,0-3.19h1.63a12.36,12.36,0,0,1,.06,1.59,3.12,3.12,0,0,1,3-1.79c1.89,0,3.23,1.06,3.23,3.82V413h-1.67v-6.31c0-1.49-.5-2.61-2-2.61-1.81,0-2.53,1.35-2.53,3.48V413H375Z"/>
          <path class="cls-1" d="M384.4,402.82H386v-3h1.67v3h2v1.37h-2v6.37c0,.86.22,1.23,1.09,1.23a4.43,4.43,0,0,0,.78-.08V413a4.44,4.44,0,0,1-1.33.16c-1.49,0-2.21-.56-2.21-2.25v-6.69H384.4Z"/>
          <path class="cls-1" d="M392.53,408.22c0,2,.86,3.58,2.65,3.58a2.34,2.34,0,0,0,2.35-1.67h1.63a3.89,3.89,0,0,1-4.06,3.07c-3.18,0-4.26-2.51-4.26-5.32,0-2.51,1.23-5.26,4.36-5.26s4.12,2.49,4.12,4.84v.76Zm5.14-1.21c0-1.75-.74-3.05-2.51-3.05-2,0-2.49,1.83-2.59,3.05Z"/>
          <path class="cls-1" d="M401.53,406.27c0-1.63,0-3,0-3.45h1.63c0,.48,0,1.12,0,2.07a3.42,3.42,0,0,1,3.29-2.25v1.73c-2.29.08-3.25,1.43-3.25,3.64v5h-1.67Z"/>
          <path class="cls-1" d="M408.08,406c0-2.13,0-2.75,0-3.19h1.63a12.36,12.36,0,0,1,.06,1.59,3.12,3.12,0,0,1,3-1.79c1.89,0,3.23,1.06,3.23,3.82V413h-1.67v-6.31c0-1.49-.5-2.61-2-2.61-1.81,0-2.53,1.35-2.53,3.48V413h-1.67Z"/>
          <path class="cls-1" d="M419.92,408.22c0,2,.86,3.58,2.65,3.58a2.34,2.34,0,0,0,2.35-1.67h1.63a3.89,3.89,0,0,1-4.06,3.07c-3.18,0-4.26-2.51-4.26-5.32,0-2.51,1.23-5.26,4.36-5.26s4.12,2.49,4.12,4.84v.76Zm5.14-1.21c0-1.75-.74-3.05-2.51-3.05-2,0-2.49,1.83-2.59,3.05Z"/>
          <path class="cls-1" d="M427.72,402.82h1.63v-3H431v3h2v1.37h-2v6.37c0,.86.22,1.23,1.09,1.23a4.43,4.43,0,0,0,.78-.08V413a4.44,4.44,0,0,1-1.33.16c-1.49,0-2.21-.56-2.21-2.25v-6.69h-1.63Z"/>
          <path class="cls-1" d="M438.33,402.82H440v-3h1.67v3h2v1.37h-2v6.37c0,.86.22,1.23,1.09,1.23a4.43,4.43,0,0,0,.78-.08V413a4.44,4.44,0,0,1-1.33.16c-1.49,0-2.21-.56-2.21-2.25v-6.69h-1.63Z"/>
          <path class="cls-1" d="M453.73,407.74c0,3-1.29,5.44-4.56,5.44s-4.42-2.59-4.42-5.39,1.47-5.18,4.56-5.18C452.18,402.62,453.73,404.81,453.73,407.74Zm-7.25,0c0,2.33,1,4,2.79,4s2.73-1.65,2.73-4c0-2.23-.92-3.76-2.77-3.76S446.47,405.55,446.47,407.78Z"/>
          <path class="cls-1" d="M468.62,409.75a3.91,3.91,0,0,1-4.1,3.45c-2.85,0-4.3-1.91-4.3-5.3,0-3,1.49-5.28,4.4-5.28a3.72,3.72,0,0,1,4,3.56h-1.67A2.29,2.29,0,0,0,464.6,404c-1.87,0-2.67,1.63-2.67,3.88,0,2.61.94,4,2.65,4,1.41,0,2-.88,2.37-2.09Z"/>
          <path class="cls-1" d="M478,410.73a18.79,18.79,0,0,0,.14,2.27H476.6a9.28,9.28,0,0,1-.14-1.57,3,3,0,0,1-3.09,1.75,2.92,2.92,0,0,1-3.23-3.09c0-1.53,1-3.23,4.62-3.23h1.57v-1c0-1-.28-2-2-2a1.86,1.86,0,0,0-2.15,1.81h-1.63c.14-1.71,1.12-3.09,3.84-3.09,2.13,0,3.6.86,3.6,3.17Zm-1.61-2.67h-1.61c-2.47,0-2.93,1-2.93,1.93a1.72,1.72,0,0,0,1.89,1.83c2,0,2.65-1.37,2.65-3.54Z"/>
          <path class="cls-1" d="M480.91,417V405.81c0-1.39,0-2.37,0-3h1.65c0,.34,0,1.06,0,1.65a3.27,3.27,0,0,1,3.17-1.85c2.23,0,3.82,1.75,3.82,5.12s-1.83,5.42-4.22,5.42a2.9,2.9,0,0,1-2.77-1.39V417Zm4.3-13c-2.09,0-2.71,1.43-2.71,3.88,0,2.25.42,3.8,2.61,3.8,1.71,0,2.71-1.41,2.71-3.94S486.83,404.06,485.21,404.06Z"/>
          <path class="cls-1" d="M491.78,400.53v-2.15h1.67v2.15Zm0,2.29h1.67V413h-1.67Z"/>
          <path class="cls-1" d="M495.08,402.82h1.63v-3h1.67v3h2v1.37h-2v6.37c0,.86.22,1.23,1.09,1.23a4.43,4.43,0,0,0,.78-.08V413a4.44,4.44,0,0,1-1.33.16c-1.49,0-2.21-.56-2.21-2.25v-6.69h-1.63Z"/>
          <path class="cls-1" d="M509.35,410.73a18.79,18.79,0,0,0,.14,2.27H508a9.28,9.28,0,0,1-.14-1.57,3,3,0,0,1-3.09,1.75,2.92,2.92,0,0,1-3.23-3.09c0-1.53,1-3.23,4.62-3.23h1.57v-1c0-1-.28-2-2-2a1.86,1.86,0,0,0-2.15,1.81h-1.63c.14-1.71,1.12-3.09,3.84-3.09,2.13,0,3.6.86,3.6,3.17Zm-1.61-2.67h-1.61c-2.47,0-2.93,1-2.93,1.93a1.72,1.72,0,0,0,1.89,1.83c2,0,2.65-1.37,2.65-3.54Z"/>
          <path class="cls-1" d="M512.29,413V398.38H514V413Z"/>
          <path class="cls-1" d="M516.89,400.53v-2.15h1.67v2.15Zm0,2.29h1.67V413h-1.67Z"/>
          <path class="cls-1" d="M520.57,411.66c1.71-2.21,3.72-5,5.5-7.43h-5.18v-1.41H528v1.39c-1.77,2.39-3.66,5-5.47,7.41h5.69l-.26,1.39h-7.37Z"/>
          <path class="cls-1" d="M530.94,408.22c0,2,.86,3.58,2.65,3.58a2.34,2.34,0,0,0,2.35-1.67h1.63a3.89,3.89,0,0,1-4.06,3.07c-3.18,0-4.26-2.51-4.26-5.32,0-2.51,1.23-5.26,4.36-5.26s4.12,2.49,4.12,4.84v.76Zm5.14-1.21c0-1.75-.74-3.05-2.51-3.05-2,0-2.49,1.83-2.59,3.05Z"/>
          <path class="cls-1" d="M553.17,407.74c0,3-1.29,5.44-4.56,5.44s-4.42-2.59-4.42-5.39,1.47-5.18,4.56-5.18C551.62,402.62,553.17,404.81,553.17,407.74Zm-7.25,0c0,2.33,1,4,2.79,4s2.73-1.65,2.73-4c0-2.23-.92-3.76-2.77-3.76S545.91,405.55,545.91,407.78Z"/>
          <path class="cls-1" d="M555.4,406c0-2.13,0-2.75,0-3.19H557a12.36,12.36,0,0,1,.06,1.59,3.12,3.12,0,0,1,3-1.79c1.89,0,3.23,1.06,3.23,3.82V413h-1.67v-6.31c0-1.49-.5-2.61-2-2.61-1.81,0-2.53,1.35-2.53,3.48V413H555.4Z"/>
          <path class="cls-1" d="M572.19,408.22c0,2,.86,3.58,2.65,3.58a2.34,2.34,0,0,0,2.35-1.67h1.63a3.89,3.89,0,0,1-4.06,3.07c-3.18,0-4.26-2.51-4.26-5.32,0-2.51,1.23-5.26,4.36-5.26s4.12,2.49,4.12,4.84v.76Zm5.14-1.21c0-1.75-.74-3.05-2.51-3.05-2,0-2.49,1.83-2.59,3.05Z"/>
          <path class="cls-1" d="M581.19,406c0-1.81,0-2.71,0-3.17h1.63c0,.28.06,1.08.06,1.45a3.07,3.07,0,0,1,2.85-1.65,2.49,2.49,0,0,1,2.61,1.75,3.21,3.21,0,0,1,3-1.75c1.55,0,3.05.8,3.05,3.48V413h-1.65v-6.63c0-1.24-.4-2.31-1.85-2.31s-2.25,1.33-2.25,3v6H587v-6.71c0-1.26-.5-2.21-1.83-2.21s-2.31,1.09-2.31,3.11V413h-1.65Z"/>
          <path class="cls-1" d="M598.32,408.22c0,2,.86,3.58,2.65,3.58a2.34,2.34,0,0,0,2.35-1.67h1.63a3.89,3.89,0,0,1-4.06,3.07c-3.18,0-4.26-2.51-4.26-5.32,0-2.51,1.23-5.26,4.36-5.26s4.12,2.49,4.12,4.84v.76Zm5.14-1.21c0-1.75-.74-3.05-2.51-3.05-2,0-2.49,1.83-2.59,3.05Z"/>
          <path class="cls-1" d="M607.32,406.27c0-1.63,0-3,0-3.45h1.63c0,.48,0,1.12,0,2.07a3.42,3.42,0,0,1,3.29-2.25v1.73c-2.29.08-3.25,1.43-3.25,3.64v5h-1.67Z"/>
          <path class="cls-1" d="M621.71,412.22c0,3.19-1.29,5-4.38,5s-3.88-1.61-4-3.05H615a2.2,2.2,0,0,0,2.45,1.69c2.17,0,2.67-1.43,2.67-3.66v-.82a2.87,2.87,0,0,1-3,1.67c-2.39,0-3.94-2-3.94-5.16s1.83-5.24,4.18-5.24c1.61,0,2.43.66,2.71,1.45a9.23,9.23,0,0,1,.08-1.24h1.63c0,.48,0,1.57,0,3Zm-4.22-.64c1.95,0,2.63-1.23,2.63-3.78s-.56-3.74-2.53-3.74c-1.69,0-2.71,1.41-2.71,3.78S615.88,411.58,617.49,411.58Z"/>
          <path class="cls-1" d="M624.63,400.53v-2.15h1.67v2.15Zm0,2.29h1.67V413h-1.67Z"/>
          <path class="cls-1" d="M629.23,406c0-2.13,0-2.75,0-3.19h1.63a12.36,12.36,0,0,1,.06,1.59,3.12,3.12,0,0,1,3-1.79c1.89,0,3.23,1.06,3.23,3.82V413h-1.67v-6.31c0-1.49-.5-2.61-2-2.61-1.81,0-2.53,1.35-2.53,3.48V413h-1.67Z"/>
          <path class="cls-1" d="M647.94,412.22c0,3.19-1.29,5-4.38,5s-3.88-1.61-4-3.05h1.65a2.2,2.2,0,0,0,2.45,1.69c2.17,0,2.67-1.43,2.67-3.66v-.82a2.87,2.87,0,0,1-3,1.67c-2.39,0-3.94-2-3.94-5.16s1.83-5.24,4.18-5.24c1.61,0,2.43.66,2.71,1.45a9.23,9.23,0,0,1,.08-1.24H648c0,.48,0,1.57,0,3Zm-4.22-.64c1.95,0,2.63-1.23,2.63-3.78s-.56-3.74-2.53-3.74c-1.69,0-2.71,1.41-2.71,3.78S642.11,411.58,643.72,411.58Z"/>
          <path class="cls-1" d="M664.08,407.74c0,3-1.29,5.44-4.56,5.44s-4.42-2.59-4.42-5.39,1.47-5.18,4.56-5.18C662.54,402.62,664.08,404.81,664.08,407.74Zm-7.25,0c0,2.33,1,4,2.79,4s2.73-1.65,2.73-4c0-2.23-.92-3.76-2.77-3.76S656.83,405.55,656.83,407.78Z"/>
          <path class="cls-1" d="M666.32,417V405.81c0-1.39,0-2.37,0-3h1.65c0,.34,0,1.06,0,1.65a3.27,3.27,0,0,1,3.17-1.85c2.23,0,3.82,1.75,3.82,5.12s-1.83,5.42-4.22,5.42a2.9,2.9,0,0,1-2.77-1.39V417Zm4.3-13c-2.09,0-2.71,1.43-2.71,3.88,0,2.25.42,3.8,2.61,3.8,1.71,0,2.71-1.41,2.71-3.94S672.25,404.06,670.62,404.06Z"/>
          <path class="cls-1" d="M677.19,417V405.81c0-1.39,0-2.37,0-3h1.65c0,.34,0,1.06,0,1.65a3.27,3.27,0,0,1,3.17-1.85c2.23,0,3.82,1.75,3.82,5.12s-1.83,5.42-4.22,5.42a2.9,2.9,0,0,1-2.77-1.39V417Zm4.3-13c-2.09,0-2.71,1.43-2.71,3.88,0,2.25.42,3.8,2.61,3.8,1.71,0,2.71-1.41,2.71-3.94S683.12,404.06,681.49,404.06Z"/>
          <path class="cls-1" d="M696.35,407.74c0,3-1.29,5.44-4.56,5.44s-4.42-2.59-4.42-5.39,1.47-5.18,4.56-5.18C694.8,402.62,696.35,404.81,696.35,407.74Zm-7.25,0c0,2.33,1,4,2.79,4s2.73-1.65,2.73-4c0-2.23-.92-3.76-2.77-3.76S689.09,405.55,689.09,407.78Z"/>
          <path class="cls-1" d="M698.58,406.27c0-1.63,0-3,0-3.45h1.63c0,.48,0,1.12,0,2.07a3.42,3.42,0,0,1,3.29-2.25v1.73c-2.29.08-3.25,1.43-3.25,3.64v5h-1.67Z"/>
          <path class="cls-1" d="M704.55,402.82h1.63v-3h1.67v3h2v1.37h-2v6.37c0,.86.22,1.23,1.09,1.23a4.43,4.43,0,0,0,.78-.08V413a4.44,4.44,0,0,1-1.33.16c-1.49,0-2.21-.56-2.21-2.25v-6.69h-1.63Z"/>
          <path class="cls-1" d="M719.18,410.13c0,1.27,0,2.39,0,2.87h-1.61a10.28,10.28,0,0,1-.08-1.63,3,3,0,0,1-3,1.81c-1.59,0-3.11-.76-3.11-3.52v-6.85h1.65v6.53c0,1.33.42,2.39,2,2.39s2.45-1,2.45-3.24v-5.68h1.69Z"/>
          <path class="cls-1" d="M722.12,406c0-2.13,0-2.75,0-3.19h1.63a12.36,12.36,0,0,1,.06,1.59,3.12,3.12,0,0,1,3-1.79c1.89,0,3.23,1.06,3.23,3.82V413h-1.67v-6.31c0-1.49-.5-2.61-2-2.61-1.81,0-2.53,1.35-2.53,3.48V413h-1.67Z"/>
          <path class="cls-1" d="M733,400.53v-2.15h1.67v2.15Zm0,2.29h1.67V413H733Z"/>
          <path class="cls-1" d="M736.25,402.82h1.63v-3h1.67v3h2v1.37h-2v6.37c0,.86.22,1.23,1.09,1.23a4.43,4.43,0,0,0,.78-.08V413a4.44,4.44,0,0,1-1.33.16c-1.49,0-2.21-.56-2.21-2.25v-6.69h-1.63Z"/>
          <path class="cls-1" d="M743.37,400.53v-2.15H745v2.15Zm0,2.29H745V413h-1.67Z"/>
          <path class="cls-1" d="M749,408.22c0,2,.86,3.58,2.65,3.58a2.34,2.34,0,0,0,2.35-1.67h1.63a3.89,3.89,0,0,1-4.06,3.07c-3.18,0-4.26-2.51-4.26-5.32,0-2.51,1.23-5.26,4.36-5.26s4.12,2.49,4.12,4.84v.76Zm5.14-1.21c0-1.75-.74-3.05-2.51-3.05-2,0-2.49,1.83-2.59,3.05Z"/>
          <path class="cls-1" d="M758.78,410a2.1,2.1,0,0,0,2.29,1.83c1.41,0,1.95-.74,1.95-1.61s-.64-1.41-2.37-1.87c-2.49-.68-3.13-1.59-3.13-3s.92-2.83,3.42-2.83,3.42,1.37,3.56,2.93h-1.65a1.79,1.79,0,0,0-2-1.63c-1.15,0-1.67.54-1.67,1.39s.38,1.18,2.09,1.63c2.59.7,3.42,1.57,3.42,3.19,0,1.89-1.49,3.05-3.68,3.05s-3.7-1-3.88-3.13Z"/>
          <path class="cls-1" d="M766.66,413v-2.77h1.65V413Z"/>
          <path class="cls-1" d="M777.52,399.14V413h-1.73V399.14Z"/>
          <path class="cls-1" d="M780.41,406c0-2.13,0-2.75,0-3.19H782a12.36,12.36,0,0,1,.06,1.59,3.12,3.12,0,0,1,3-1.79c1.89,0,3.23,1.06,3.23,3.82V413h-1.67v-6.31c0-1.49-.5-2.61-2-2.61-1.81,0-2.53,1.35-2.53,3.48V413h-1.67Z"/>
          <path class="cls-1" d="M803.34,410.73a18.79,18.79,0,0,0,.14,2.27H802a9.28,9.28,0,0,1-.14-1.57,3,3,0,0,1-3.09,1.75,2.92,2.92,0,0,1-3.23-3.09c0-1.53,1-3.23,4.62-3.23h1.57v-1c0-1-.28-2-2-2a1.86,1.86,0,0,0-2.15,1.81h-1.63c.14-1.71,1.12-3.09,3.84-3.09,2.13,0,3.6.86,3.6,3.17Zm-1.61-2.67h-1.61c-2.47,0-2.93,1-2.93,1.93a1.72,1.72,0,0,0,1.89,1.83c2,0,2.65-1.37,2.65-3.54Z"/>
          <path class="cls-1" d="M814.2,398.38v12c0,1,0,2,0,2.65h-1.63c0-.26-.06-.9-.06-1.51-.54,1.19-1.37,1.69-3,1.69-2.63,0-4-2.23-4-5.26s1.53-5.3,4.3-5.3c1.65,0,2.41.66,2.69,1.23v-5.46ZM810,411.76c2.19,0,2.65-1.67,2.65-4.06,0-2.81-.82-3.64-2.55-3.64s-2.77,1.37-2.77,3.8S808.35,411.76,810,411.76Z"/>
          <path class="cls-1" d="M825.09,398.38v12c0,1,0,2,0,2.65h-1.63c0-.26-.06-.9-.06-1.51-.54,1.19-1.37,1.69-3,1.69-2.63,0-4-2.23-4-5.26s1.53-5.3,4.3-5.3c1.65,0,2.41.66,2.69,1.23v-5.46Zm-4.24,13.38c2.19,0,2.65-1.67,2.65-4.06,0-2.81-.82-3.64-2.55-3.64s-2.77,1.37-2.77,3.8S819.25,411.76,820.85,411.76Z"/>
          <path class="cls-1" d="M828.07,400.53v-2.15h1.67v2.15Zm0,2.29h1.67V413h-1.67Z"/>
          <path class="cls-1" d="M831.37,402.82H833v-3h1.67v3h2v1.37h-2v6.37c0,.86.22,1.23,1.09,1.23a4.43,4.43,0,0,0,.78-.08V413a4.44,4.44,0,0,1-1.33.16c-1.49,0-2.21-.56-2.21-2.25v-6.69h-1.63Z"/>
          <path class="cls-1" d="M838.49,400.53v-2.15h1.67v2.15Zm0,2.29h1.67V413h-1.67Z"/>
          <path class="cls-1" d="M851.36,407.74c0,3-1.29,5.44-4.56,5.44s-4.42-2.59-4.42-5.39,1.47-5.18,4.56-5.18C849.82,402.62,851.36,404.81,851.36,407.74Zm-7.25,0c0,2.33,1,4,2.79,4s2.73-1.65,2.73-4c0-2.23-.92-3.76-2.77-3.76S844.11,405.55,844.11,407.78Z"/>
          <path class="cls-1" d="M853.6,406c0-2.13,0-2.75,0-3.19h1.63a12.36,12.36,0,0,1,.06,1.59,3.12,3.12,0,0,1,3-1.79c1.89,0,3.23,1.06,3.23,3.82V413h-1.67v-6.31c0-1.49-.5-2.61-2-2.61-1.81,0-2.53,1.35-2.53,3.48V413H853.6Z"/>
          <path class="cls-1" d="M862.91,415.37a13.64,13.64,0,0,0,1.27-5.16h1.63a11,11,0,0,1-1.51,5.16Z"/>
          <path class="cls-1" d="M873.6,402.82c1.17,4.48,1.87,7.13,2.11,8.48h0c.24-1.23.8-3.19,2.25-8.48h1.63c1.37,5,2,7.27,2.13,8.4h0c.22-1.13.8-3.21,2.23-8.4h1.69L882.6,413h-1.75c-.9-3.36-1.81-6.55-2.11-8.1h0c-.26,1.51-1.18,4.64-2.19,8.1h-1.81l-2.91-10.18Z"/>
          <path class="cls-1" d="M888.36,408.22c0,2,.86,3.58,2.65,3.58a2.34,2.34,0,0,0,2.35-1.67H895a3.89,3.89,0,0,1-4.06,3.07c-3.18,0-4.26-2.51-4.26-5.32,0-2.51,1.23-5.26,4.36-5.26s4.12,2.49,4.12,4.84v.76ZM893.5,407c0-1.75-.74-3.05-2.51-3.05-2,0-2.49,1.83-2.59,3.05Z"/>
          <path class="cls-1" d="M339.24,437.12V428.3h-1.57v-1.37h1.57v-1.27c0-1.81.62-3.33,2.75-3.33a3.52,3.52,0,0,1,1,.12v1.43a3,3,0,0,0-.82-.1c-.9,0-1.25.6-1.25,1.81v1.35h1.91v1.37h-1.91v8.82Z"/>
          <path class="cls-1" d="M352.48,431.86c0,3-1.29,5.44-4.56,5.44s-4.42-2.59-4.42-5.38,1.47-5.18,4.56-5.18C350.93,426.74,352.48,428.93,352.48,431.86Zm-7.25,0c0,2.33,1,4,2.79,4s2.73-1.65,2.73-4c0-2.23-.92-3.76-2.77-3.76S345.23,429.67,345.23,431.9Z"/>
          <path class="cls-1" d="M362.43,433.87a3.92,3.92,0,0,1-4.1,3.46c-2.85,0-4.3-1.91-4.3-5.31,0-3,1.49-5.28,4.4-5.28a3.72,3.72,0,0,1,4,3.56h-1.67a2.29,2.29,0,0,0-2.33-2.19c-1.87,0-2.67,1.63-2.67,3.88,0,2.61.94,4,2.65,4,1.41,0,2-.88,2.37-2.09Z"/>
          <path class="cls-1" d="M372.22,434.25c0,1.26,0,2.39,0,2.87h-1.61a10.3,10.3,0,0,1-.08-1.63,3,3,0,0,1-3,1.81c-1.59,0-3.11-.76-3.11-3.52v-6.85h1.65v6.53c0,1.33.42,2.39,2,2.39s2.45-1,2.45-3.23v-5.69h1.69Z"/>
          <path class="cls-1" d="M375.9,434.17a2.1,2.1,0,0,0,2.29,1.83c1.41,0,1.95-.74,1.95-1.61s-.64-1.41-2.37-1.87c-2.49-.68-3.13-1.59-3.13-3s.92-2.83,3.42-2.83,3.42,1.37,3.56,2.93H380a1.79,1.79,0,0,0-2-1.63c-1.15,0-1.67.54-1.67,1.39s.38,1.19,2.09,1.63c2.59.7,3.42,1.57,3.42,3.19,0,1.89-1.49,3.05-3.68,3.05s-3.7-1-3.88-3.13Z"/>
          <path class="cls-1" d="M397.23,431.86c0,3-1.29,5.44-4.56,5.44s-4.42-2.59-4.42-5.38,1.47-5.18,4.56-5.18C395.68,426.74,397.23,428.93,397.23,431.86Zm-7.25,0c0,2.33,1,4,2.79,4s2.73-1.65,2.73-4c0-2.23-.92-3.76-2.77-3.76S390,429.67,390,431.9Z"/>
          <path class="cls-1" d="M399.46,430.13c0-2.13,0-2.75,0-3.19h1.63a12.38,12.38,0,0,1,.06,1.59,3.12,3.12,0,0,1,3-1.79c1.89,0,3.23,1.06,3.23,3.82v6.57h-1.67v-6.31c0-1.49-.5-2.61-2-2.61-1.81,0-2.53,1.35-2.53,3.48v5.44h-1.67Z"/>
          <path class="cls-1" d="M423.52,431.86c0,3-1.29,5.44-4.56,5.44s-4.42-2.59-4.42-5.38,1.47-5.18,4.56-5.18C422,426.74,423.52,428.93,423.52,431.86Zm-7.25,0c0,2.33,1,4,2.79,4s2.73-1.65,2.73-4c0-2.23-.92-3.76-2.77-3.76S416.27,429.67,416.27,431.9Z"/>
          <path class="cls-1" d="M425.76,441.16V429.93c0-1.39,0-2.37,0-3h1.65c0,.34,0,1.06,0,1.65a3.28,3.28,0,0,1,3.17-1.85c2.23,0,3.82,1.75,3.82,5.12s-1.83,5.42-4.22,5.42a2.9,2.9,0,0,1-2.77-1.39v5.26Zm4.3-13c-2.09,0-2.71,1.43-2.71,3.88,0,2.25.42,3.8,2.61,3.8,1.71,0,2.71-1.41,2.71-3.94S431.68,428.18,430.06,428.18Z"/>
          <path class="cls-1" d="M437.64,432.34c0,2,.86,3.58,2.65,3.58a2.34,2.34,0,0,0,2.35-1.67h1.63a3.89,3.89,0,0,1-4.06,3.07c-3.18,0-4.26-2.51-4.26-5.32,0-2.51,1.23-5.26,4.36-5.26s4.12,2.49,4.12,4.84v.76Zm5.14-1.21c0-1.75-.74-3.05-2.51-3.05-2,0-2.49,1.83-2.59,3.05Z"/>
          <path class="cls-1" d="M446.64,430.39c0-1.63,0-3,0-3.46h1.63c0,.48,0,1.13,0,2.07a3.42,3.42,0,0,1,3.29-2.25v1.73c-2.29.08-3.25,1.43-3.25,3.64v5h-1.67Z"/>
          <path class="cls-1" d="M460.18,434.85a19.15,19.15,0,0,0,.14,2.27h-1.51a9.29,9.29,0,0,1-.14-1.57,3,3,0,0,1-3.09,1.75,2.92,2.92,0,0,1-3.23-3.09c0-1.53,1-3.23,4.62-3.23h1.57v-1c0-1-.28-2-2-2a1.86,1.86,0,0,0-2.15,1.81h-1.63c.14-1.71,1.12-3.09,3.84-3.09,2.13,0,3.6.86,3.6,3.18Zm-1.61-2.67H457c-2.47,0-2.93,1-2.93,1.93a1.72,1.72,0,0,0,1.89,1.83c2,0,2.65-1.37,2.65-3.54Z"/>
          <path class="cls-1" d="M461.6,426.94h1.63v-3h1.67v3h2v1.37h-2v6.37c0,.87.22,1.23,1.09,1.23a4.42,4.42,0,0,0,.78-.08v1.27a4.44,4.44,0,0,1-1.33.16c-1.49,0-2.21-.56-2.21-2.25V428.3H461.6Z"/>
          <path class="cls-1" d="M468.71,424.65V422.5h1.67v2.15Zm0,2.29h1.67v10.19h-1.67Z"/>
          <path class="cls-1" d="M473.32,430.13c0-2.13,0-2.75,0-3.19h1.63a12.38,12.38,0,0,1,.06,1.59,3.12,3.12,0,0,1,3-1.79c1.89,0,3.23,1.06,3.23,3.82v6.57h-1.67v-6.31c0-1.49-.5-2.61-2-2.61-1.81,0-2.53,1.35-2.53,3.48v5.44h-1.67Z"/>
          <path class="cls-1" d="M492,436.34c0,3.19-1.29,5-4.38,5s-3.88-1.61-4-3.05h1.65a2.19,2.19,0,0,0,2.45,1.69c2.17,0,2.67-1.43,2.67-3.66v-.82a2.88,2.88,0,0,1-3,1.67c-2.39,0-3.94-2-3.94-5.16s1.83-5.24,4.18-5.24c1.61,0,2.43.66,2.71,1.45a9.24,9.24,0,0,1,.08-1.25h1.63c0,.48,0,1.57,0,3Zm-4.22-.64c1.95,0,2.63-1.23,2.63-3.78s-.56-3.74-2.53-3.74c-1.69,0-2.71,1.41-2.71,3.78S486.2,435.7,487.81,435.7Z"/>
          <path class="cls-1" d="M508.17,431.86c0,3-1.29,5.44-4.56,5.44s-4.42-2.59-4.42-5.38,1.47-5.18,4.56-5.18C506.62,426.74,508.17,428.93,508.17,431.86Zm-7.25,0c0,2.33,1,4,2.79,4s2.73-1.65,2.73-4c0-2.23-.92-3.76-2.77-3.76S500.91,429.67,500.91,431.9Z"/>
          <path class="cls-1" d="M518.12,434.25c0,1.26,0,2.39,0,2.87h-1.61a10.3,10.3,0,0,1-.08-1.63,3,3,0,0,1-3,1.81c-1.59,0-3.11-.76-3.11-3.52v-6.85H512v6.53c0,1.33.42,2.39,2,2.39s2.45-1,2.45-3.23v-5.69h1.69Z"/>
          <path class="cls-1" d="M521.06,430.39c0-1.63,0-3,0-3.46h1.63c0,.48,0,1.13,0,2.07a3.42,3.42,0,0,1,3.29-2.25v1.73c-2.29.08-3.25,1.43-3.25,3.64v5h-1.67Z"/>
          <path class="cls-1" d="M532.63,422.5h1.67v5.85a3.27,3.27,0,0,1,3.05-1.61c2.47,0,3.92,2,3.92,5s-1.31,5.58-4.22,5.58a2.81,2.81,0,0,1-2.77-1.47,9,9,0,0,1-.06,1.29H532.6c0-.56,0-1.63,0-2.89Zm4.32,5.69c-2,0-2.75,1.31-2.75,3.72s.58,4,2.69,4c1.83,0,2.67-1.69,2.67-4.08C539.57,429.63,538.7,428.18,537,428.18Z"/>
          <path class="cls-1" d="M551.22,434.25c0,1.26,0,2.39,0,2.87h-1.61a10.3,10.3,0,0,1-.08-1.63,3,3,0,0,1-3,1.81c-1.59,0-3.11-.76-3.11-3.52v-6.85h1.65v6.53c0,1.33.42,2.39,2,2.39s2.45-1,2.45-3.23v-5.69h1.69Z"/>
          <path class="cls-1" d="M554.91,434.17A2.1,2.1,0,0,0,557.2,436c1.41,0,1.95-.74,1.95-1.61s-.64-1.41-2.37-1.87c-2.49-.68-3.13-1.59-3.13-3s.92-2.83,3.42-2.83,3.42,1.37,3.56,2.93H559a1.79,1.79,0,0,0-2-1.63c-1.15,0-1.67.54-1.67,1.39s.38,1.19,2.09,1.63c2.59.7,3.42,1.57,3.42,3.19,0,1.89-1.49,3.05-3.68,3.05s-3.7-1-3.88-3.13Z"/>
          <path class="cls-1" d="M562.95,424.65V422.5h1.67v2.15Zm0,2.29h1.67v10.19h-1.67Z"/>
          <path class="cls-1" d="M567.55,430.13c0-2.13,0-2.75,0-3.19h1.63a12.38,12.38,0,0,1,.06,1.59,3.12,3.12,0,0,1,3-1.79c1.89,0,3.23,1.06,3.23,3.82v6.57h-1.67v-6.31c0-1.49-.5-2.61-2-2.61-1.81,0-2.53,1.35-2.53,3.48v5.44h-1.67Z"/>
          <path class="cls-1" d="M579.39,432.34c0,2,.86,3.58,2.65,3.58a2.34,2.34,0,0,0,2.35-1.67H586a3.89,3.89,0,0,1-4.06,3.07c-3.18,0-4.26-2.51-4.26-5.32,0-2.51,1.23-5.26,4.36-5.26s4.12,2.49,4.12,4.84v.76Zm5.14-1.21c0-1.75-.74-3.05-2.51-3.05-2,0-2.49,1.83-2.59,3.05Z"/>
          <path class="cls-1" d="M589.2,434.17a2.1,2.1,0,0,0,2.29,1.83c1.41,0,1.95-.74,1.95-1.61s-.64-1.41-2.37-1.87c-2.49-.68-3.13-1.59-3.13-3s.92-2.83,3.42-2.83,3.42,1.37,3.56,2.93h-1.65a1.79,1.79,0,0,0-2-1.63c-1.15,0-1.67.54-1.67,1.39s.38,1.19,2.09,1.63c2.59.7,3.42,1.57,3.42,3.19,0,1.89-1.49,3.05-3.68,3.05s-3.7-1-3.88-3.13Z"/>
          <path class="cls-1" d="M598.16,434.17a2.1,2.1,0,0,0,2.29,1.83c1.41,0,1.95-.74,1.95-1.61s-.64-1.41-2.37-1.87c-2.49-.68-3.13-1.59-3.13-3s.92-2.83,3.42-2.83,3.42,1.37,3.56,2.93h-1.65a1.79,1.79,0,0,0-2-1.63c-1.15,0-1.67.54-1.67,1.39s.38,1.19,2.09,1.63c2.59.7,3.42,1.57,3.42,3.19,0,1.89-1.49,3.05-3.68,3.05s-3.7-1-3.88-3.13Z"/>
          <path class="cls-1" d="M611.21,424.65V422.5h1.67v2.15Zm0,2.29h1.67v10.19h-1.67Z"/>
          <path class="cls-1" d="M615.81,430.13c0-2.13,0-2.75,0-3.19h1.63a12.38,12.38,0,0,1,.06,1.59,3.12,3.12,0,0,1,3-1.79c1.89,0,3.23,1.06,3.23,3.82v6.57H622v-6.31c0-1.49-.5-2.61-2-2.61-1.81,0-2.53,1.35-2.53,3.48v5.44h-1.67Z"/>
          <path class="cls-1" d="M638.75,434.85a19.15,19.15,0,0,0,.14,2.27h-1.51a9.29,9.29,0,0,1-.14-1.57,3,3,0,0,1-3.09,1.75,2.92,2.92,0,0,1-3.23-3.09c0-1.53,1-3.23,4.62-3.23h1.57v-1c0-1-.28-2-2-2a1.86,1.86,0,0,0-2.15,1.81h-1.63c.14-1.71,1.12-3.09,3.84-3.09,2.13,0,3.6.86,3.6,3.18Zm-1.61-2.67h-1.61c-2.47,0-2.93,1-2.93,1.93a1.72,1.72,0,0,0,1.89,1.83c2,0,2.65-1.37,2.65-3.54Z"/>
          <path class="cls-1" d="M647.33,426.94c1.17,4.48,1.87,7.13,2.11,8.48h0c.24-1.23.8-3.19,2.25-8.48h1.63c1.37,5,2,7.27,2.13,8.4h0c.22-1.13.8-3.21,2.23-8.4h1.69l-3.09,10.19h-1.75c-.9-3.36-1.81-6.55-2.11-8.1h0c-.26,1.51-1.18,4.64-2.19,8.1h-1.81l-2.91-10.19Z"/>
          <path class="cls-1" d="M668.07,434.85a18.81,18.81,0,0,0,.14,2.27h-1.51a9.29,9.29,0,0,1-.14-1.57,3,3,0,0,1-3.09,1.75,2.92,2.92,0,0,1-3.23-3.09c0-1.53,1-3.23,4.62-3.23h1.57v-1c0-1-.28-2-2-2a1.86,1.86,0,0,0-2.15,1.81h-1.63c.14-1.71,1.12-3.09,3.84-3.09,2.13,0,3.6.86,3.6,3.18Zm-1.61-2.67h-1.61c-2.47,0-2.93,1-2.93,1.93a1.72,1.72,0,0,0,1.89,1.83c2,0,2.65-1.37,2.65-3.54Z"/>
          <path class="cls-1" d="M671.29,426.94c1.59,4.94,2.41,7.41,2.67,8.64h0c.3-1.13,1.21-4.24,2.59-8.64h1.73l-3.58,10.65c-1,3.09-1.87,3.74-3.68,3.74a4.52,4.52,0,0,1-.88-.08v-1.43a6.23,6.23,0,0,0,.88.06c1.23,0,1.61-1,2.09-2.43l-3.64-10.51Z"/>
          <path class="cls-1" d="M683.48,426.94h1.63v-3h1.67v3h2v1.37h-2v6.37c0,.87.22,1.23,1.09,1.23a4.42,4.42,0,0,0,.78-.08v1.27a4.44,4.44,0,0,1-1.33.16c-1.49,0-2.21-.56-2.21-2.25V428.3h-1.63Z"/>
          <path class="cls-1" d="M692.16,422.5v5.91a3.16,3.16,0,0,1,3-1.67c1.49,0,3.19.76,3.19,3.66v6.73h-1.65v-6.45c0-1.55-.6-2.47-2.09-2.47-1.65,0-2.49,1.08-2.49,3.11v5.81h-1.67V422.5Z"/>
          <path class="cls-1" d="M708.3,434.85a18.81,18.81,0,0,0,.14,2.27h-1.51a9.29,9.29,0,0,1-.14-1.57,3,3,0,0,1-3.09,1.75,2.92,2.92,0,0,1-3.23-3.09c0-1.53,1-3.23,4.62-3.23h1.57v-1c0-1-.28-2-2-2a1.86,1.86,0,0,0-2.15,1.81h-1.63c.14-1.71,1.12-3.09,3.84-3.09,2.13,0,3.6.86,3.6,3.18Zm-1.61-2.67h-1.61c-2.47,0-2.93,1-2.93,1.93a1.72,1.72,0,0,0,1.89,1.83c2,0,2.65-1.37,2.65-3.54Z"/>
          <path class="cls-1" d="M709.71,426.94h1.63v-3H713v3h2v1.37h-2v6.37c0,.87.22,1.23,1.09,1.23a4.42,4.42,0,0,0,.78-.08v1.27a4.44,4.44,0,0,1-1.33.16c-1.49,0-2.21-.56-2.21-2.25V428.3h-1.63Z"/>
          <path class="cls-1" d="M723.44,422.5v5.91a3.16,3.16,0,0,1,3-1.67c1.49,0,3.19.76,3.19,3.66v6.73H728v-6.45c0-1.55-.6-2.47-2.09-2.47-1.65,0-2.49,1.08-2.49,3.11v5.81h-1.67V422.5Z"/>
          <path class="cls-1" d="M739.58,434.85a19.15,19.15,0,0,0,.14,2.27h-1.51a9.29,9.29,0,0,1-.14-1.57A3,3,0,0,1,735,437.3a2.92,2.92,0,0,1-3.23-3.09c0-1.53,1-3.23,4.62-3.23h1.57v-1c0-1-.28-2-2-2a1.86,1.86,0,0,0-2.15,1.81h-1.63c.14-1.71,1.12-3.09,3.84-3.09,2.13,0,3.6.86,3.6,3.18ZM738,432.18h-1.61c-2.47,0-2.93,1-2.93,1.93a1.72,1.72,0,0,0,1.89,1.83c2,0,2.65-1.37,2.65-3.54Z"/>
          <path class="cls-1" d="M743.08,434.17a2.1,2.1,0,0,0,2.29,1.83c1.41,0,1.95-.74,1.95-1.61s-.64-1.41-2.37-1.87c-2.49-.68-3.13-1.59-3.13-3s.92-2.83,3.42-2.83,3.42,1.37,3.56,2.93h-1.65a1.79,1.79,0,0,0-2-1.63c-1.15,0-1.67.54-1.67,1.39s.38,1.19,2.09,1.63c2.59.7,3.42,1.57,3.42,3.19,0,1.89-1.49,3.05-3.68,3.05s-3.7-1-3.88-3.13Z"/>
          <path class="cls-1" d="M763.28,434.85a19.15,19.15,0,0,0,.14,2.27h-1.51a9.29,9.29,0,0,1-.14-1.57,3,3,0,0,1-3.09,1.75,2.92,2.92,0,0,1-3.23-3.09c0-1.53,1-3.23,4.62-3.23h1.57v-1c0-1-.28-2-2-2a1.86,1.86,0,0,0-2.15,1.81h-1.63c.14-1.71,1.12-3.09,3.84-3.09,2.13,0,3.6.86,3.6,3.18Zm-1.61-2.67h-1.61c-2.47,0-2.93,1-2.93,1.93a1.72,1.72,0,0,0,1.89,1.83c2,0,2.65-1.37,2.65-3.54Z"/>
          <path class="cls-1" d="M771.16,441.16V429.93c0-1.39,0-2.37,0-3h1.65c0,.34,0,1.06,0,1.65a3.28,3.28,0,0,1,3.17-1.85c2.23,0,3.82,1.75,3.82,5.12s-1.83,5.42-4.22,5.42a2.9,2.9,0,0,1-2.77-1.39v5.26Zm4.3-13c-2.09,0-2.71,1.43-2.71,3.88,0,2.25.42,3.8,2.61,3.8,1.71,0,2.71-1.41,2.71-3.94S777.09,428.18,775.46,428.18Z"/>
          <path class="cls-1" d="M790.31,431.86c0,3-1.29,5.44-4.56,5.44s-4.42-2.59-4.42-5.38,1.47-5.18,4.56-5.18C788.76,426.74,790.31,428.93,790.31,431.86Zm-7.25,0c0,2.33,1,4,2.79,4s2.73-1.65,2.73-4c0-2.23-.92-3.76-2.77-3.76S783.06,429.67,783.06,431.9Z"/>
          <path class="cls-1" d="M793.35,434.17a2.1,2.1,0,0,0,2.29,1.83c1.41,0,1.95-.74,1.95-1.61s-.64-1.41-2.37-1.87c-2.49-.68-3.13-1.59-3.13-3s.92-2.83,3.42-2.83,3.42,1.37,3.56,2.93h-1.65a1.79,1.79,0,0,0-2-1.63c-1.15,0-1.67.54-1.67,1.39s.38,1.19,2.09,1.63c2.59.7,3.42,1.57,3.42,3.19,0,1.89-1.49,3.05-3.68,3.05s-3.7-1-3.88-3.13Z"/>
          <path class="cls-1" d="M801.39,424.65V422.5h1.67v2.15Zm0,2.29h1.67v10.19h-1.67Z"/>
          <path class="cls-1" d="M804.69,426.94h1.63v-3H808v3h2v1.37h-2v6.37c0,.87.22,1.23,1.09,1.23a4.42,4.42,0,0,0,.78-.08v1.27a4.44,4.44,0,0,1-1.33.16c-1.49,0-2.21-.56-2.21-2.25V428.3h-1.63Z"/>
          <path class="cls-1" d="M811.81,424.65V422.5h1.67v2.15Zm0,2.29h1.67v10.19h-1.67Z"/>
          <path class="cls-1" d="M816.93,426.94c1.37,4.32,2.27,7.17,2.59,8.6h0c.2-1.21,2-6.35,2.69-8.6h1.65l-3.52,10.19h-1.83l-3.39-10.19Z"/>
          <path class="cls-1" d="M826.56,432.34c0,2,.86,3.58,2.65,3.58a2.34,2.34,0,0,0,2.35-1.67h1.63a3.89,3.89,0,0,1-4.06,3.07c-3.18,0-4.26-2.51-4.26-5.32,0-2.51,1.23-5.26,4.36-5.26s4.12,2.49,4.12,4.84v.76Zm5.14-1.21c0-1.75-.74-3.05-2.51-3.05-2,0-2.49,1.83-2.59,3.05Z"/>
          <path class="cls-1" d="M840.51,424.65V422.5h1.67v2.15Zm0,2.29h1.67v10.19h-1.67Z"/>
          <path class="cls-1" d="M845.11,430.11c0-1.81,0-2.71,0-3.18h1.63c0,.28.06,1.08.06,1.45a3.07,3.07,0,0,1,2.85-1.65,2.49,2.49,0,0,1,2.61,1.75,3.21,3.21,0,0,1,3-1.75c1.55,0,3.05.8,3.05,3.48v6.91h-1.65v-6.63c0-1.24-.4-2.31-1.85-2.31s-2.25,1.33-2.25,3v6H850.9v-6.71c0-1.27-.5-2.21-1.83-2.21s-2.31,1.08-2.31,3.11v5.81h-1.65Z"/>
          <path class="cls-1" d="M861.23,441.16V429.93c0-1.39,0-2.37,0-3h1.65c0,.34,0,1.06,0,1.65a3.28,3.28,0,0,1,3.17-1.85c2.23,0,3.82,1.75,3.82,5.12s-1.83,5.42-4.22,5.42a2.9,2.9,0,0,1-2.77-1.39v5.26Zm4.3-13c-2.09,0-2.71,1.43-2.71,3.88,0,2.25.42,3.8,2.61,3.8,1.71,0,2.71-1.41,2.71-3.94S867.16,428.18,865.53,428.18Z"/>
          <path class="cls-1" d="M879.26,434.85a18.81,18.81,0,0,0,.14,2.27h-1.51a9.29,9.29,0,0,1-.14-1.57,3,3,0,0,1-3.09,1.75,2.92,2.92,0,0,1-3.23-3.09c0-1.53,1-3.23,4.62-3.23h1.57v-1c0-1-.28-2-2-2a1.86,1.86,0,0,0-2.15,1.81h-1.63c.14-1.71,1.12-3.09,3.84-3.09,2.13,0,3.6.86,3.6,3.18Zm-1.61-2.67H876c-2.47,0-2.93,1-2.93,1.93a1.72,1.72,0,0,0,1.89,1.83c2,0,2.65-1.37,2.65-3.54Z"/>
          <path class="cls-1" d="M889.91,433.87a3.92,3.92,0,0,1-4.1,3.46c-2.85,0-4.3-1.91-4.3-5.31,0-3,1.49-5.28,4.4-5.28a3.72,3.72,0,0,1,4,3.56h-1.67a2.29,2.29,0,0,0-2.33-2.19c-1.87,0-2.67,1.63-2.67,3.88,0,2.61.94,4,2.65,4,1.41,0,2-.88,2.37-2.09Z"/>
          <path class="cls-1" d="M891,426.94h1.63v-3h1.67v3h2v1.37h-2v6.37c0,.87.22,1.23,1.09,1.23a4.42,4.42,0,0,0,.78-.08v1.27a4.44,4.44,0,0,1-1.33.16c-1.49,0-2.21-.56-2.21-2.25V428.3H891Z"/>
          <path class="cls-1" d="M911.32,431.86c0,3-1.29,5.44-4.56,5.44s-4.42-2.59-4.42-5.38,1.47-5.18,4.56-5.18C909.77,426.74,911.32,428.93,911.32,431.86Zm-7.25,0c0,2.33,1,4,2.79,4s2.73-1.65,2.73-4c0-2.23-.92-3.76-2.77-3.76S904.07,429.67,904.07,431.9Z"/>
          <path class="cls-1" d="M913.56,430.13c0-2.13,0-2.75,0-3.19h1.63a12.38,12.38,0,0,1,.06,1.59,3.12,3.12,0,0,1,3-1.79c1.89,0,3.23,1.06,3.23,3.82v6.57h-1.67v-6.31c0-1.49-.5-2.61-2-2.61-1.81,0-2.53,1.35-2.53,3.48v5.44h-1.67Z"/>
          <path class="cls-1" d="M339.06,465.28V454.05c0-1.39,0-2.37,0-3h1.65c0,.34,0,1.06,0,1.65a3.27,3.27,0,0,1,3.17-1.85c2.23,0,3.82,1.75,3.82,5.12s-1.83,5.42-4.22,5.42a2.9,2.9,0,0,1-2.77-1.39v5.26Zm4.3-13c-2.09,0-2.71,1.43-2.71,3.88,0,2.25.42,3.8,2.61,3.8C345,460,346,458.57,346,456S345,452.3,343.36,452.3Z"/>
          <path class="cls-1" d="M350.94,456.46c0,2,.86,3.58,2.65,3.58a2.34,2.34,0,0,0,2.35-1.67h1.63a3.89,3.89,0,0,1-4.06,3.07c-3.18,0-4.26-2.51-4.26-5.32,0-2.51,1.23-5.26,4.36-5.26s4.12,2.49,4.12,4.84v.76Zm5.14-1.21c0-1.75-.74-3.05-2.51-3.05-2,0-2.49,1.83-2.59,3.05Z"/>
          <path class="cls-1" d="M368.32,456c0,3-1.29,5.44-4.56,5.44s-4.42-2.59-4.42-5.39,1.47-5.18,4.56-5.18C366.77,450.86,368.32,453,368.32,456Zm-7.25,0c0,2.33,1,4,2.79,4s2.73-1.65,2.73-4c0-2.23-.92-3.76-2.77-3.76S361.07,453.79,361.07,456Z"/>
          <path class="cls-1" d="M370.56,465.28V454.05c0-1.39,0-2.37,0-3h1.65c0,.34,0,1.06,0,1.65a3.27,3.27,0,0,1,3.17-1.85c2.23,0,3.82,1.75,3.82,5.12s-1.83,5.42-4.22,5.42A2.9,2.9,0,0,1,372.2,460v5.26Zm4.3-13c-2.09,0-2.71,1.43-2.71,3.88,0,2.25.42,3.8,2.61,3.8,1.71,0,2.71-1.41,2.71-3.94S376.48,452.3,374.85,452.3Z"/>
          <path class="cls-1" d="M381.43,461.24V446.62h1.67v14.62Z"/>
          <path class="cls-1" d="M387,456.46c0,2,.86,3.58,2.65,3.58a2.34,2.34,0,0,0,2.35-1.67h1.63a3.89,3.89,0,0,1-4.06,3.07c-3.18,0-4.26-2.51-4.26-5.32,0-2.51,1.23-5.26,4.36-5.26s4.12,2.49,4.12,4.84v.76Zm5.14-1.21c0-1.75-.74-3.05-2.51-3.05-2,0-2.49,1.83-2.59,3.05Z"/>
          <path class="cls-1" d="M395,451.6a17.22,17.22,0,0,0,.76-5.06h1.51a14.37,14.37,0,0,1-.94,5.06Z"/>
          <path class="cls-1" d="M399.24,458.29a2.1,2.1,0,0,0,2.29,1.83c1.41,0,1.95-.74,1.95-1.61s-.64-1.41-2.37-1.87c-2.49-.68-3.13-1.59-3.13-3s.92-2.83,3.42-2.83,3.42,1.37,3.56,2.93H403.3a1.79,1.79,0,0,0-2-1.63c-1.15,0-1.67.54-1.67,1.39s.38,1.18,2.09,1.63c2.59.7,3.42,1.57,3.42,3.19,0,1.89-1.49,3.05-3.68,3.05s-3.7-1-3.88-3.13Z"/>
          <path class="cls-1" d="M412.29,461.24V446.62H414v14.62Z"/>
          <path class="cls-1" d="M416.89,448.77v-2.15h1.67v2.15Zm0,2.29h1.67v10.18h-1.67Z"/>
          <path class="cls-1" d="M422,451.06c1.37,4.32,2.27,7.17,2.59,8.6h0c.2-1.21,2-6.35,2.69-8.6H429l-3.52,10.18h-1.83l-3.39-10.18Z"/>
          <path class="cls-1" d="M431.64,456.46c0,2,.86,3.58,2.65,3.58a2.34,2.34,0,0,0,2.35-1.67h1.63a3.89,3.89,0,0,1-4.06,3.07c-3.18,0-4.26-2.51-4.26-5.32,0-2.51,1.23-5.26,4.36-5.26s4.12,2.49,4.12,4.84v.76Zm5.14-1.21c0-1.75-.74-3.05-2.51-3.05-2,0-2.49,1.83-2.59,3.05Z"/>
          <path class="cls-1" d="M441.45,458.29a2.1,2.1,0,0,0,2.29,1.83c1.41,0,1.95-.74,1.95-1.61s-.64-1.41-2.37-1.87c-2.49-.68-3.13-1.59-3.13-3s.92-2.83,3.42-2.83,3.42,1.37,3.56,2.93h-1.65a1.79,1.79,0,0,0-2-1.63c-1.15,0-1.67.54-1.67,1.39s.38,1.18,2.09,1.63c2.59.7,3.42,1.57,3.42,3.19,0,1.89-1.49,3.05-3.68,3.05s-3.7-1-3.88-3.13Z"/>
          <path class="cls-1" d="M448.37,463.62a13.64,13.64,0,0,0,1.27-5.16h1.63a11,11,0,0,1-1.51,5.16Z"/>
          <path class="cls-1" d="M459.06,451.06c1.17,4.48,1.87,7.13,2.11,8.48h0c.24-1.23.8-3.19,2.25-8.48h1.63c1.37,5,2,7.27,2.13,8.4h0c.22-1.13.8-3.21,2.23-8.4h1.69l-3.09,10.18h-1.75c-.9-3.36-1.81-6.55-2.11-8.1h0c-.26,1.51-1.19,4.64-2.19,8.1h-1.81l-2.91-10.18Z"/>
          <path class="cls-1" d="M474.68,446.62v5.91a3.16,3.16,0,0,1,3-1.67c1.49,0,3.19.76,3.19,3.66v6.73h-1.65V454.8c0-1.55-.6-2.47-2.09-2.47-1.65,0-2.49,1.09-2.49,3.11v5.81H473V446.62Z"/>
          <path class="cls-1" d="M484.85,456.46c0,2,.86,3.58,2.65,3.58a2.34,2.34,0,0,0,2.35-1.67h1.63a3.89,3.89,0,0,1-4.06,3.07c-3.18,0-4.26-2.51-4.26-5.32,0-2.51,1.23-5.26,4.36-5.26s4.12,2.49,4.12,4.84v.76Zm5.14-1.21c0-1.75-.74-3.05-2.51-3.05-2,0-2.49,1.83-2.59,3.05Z"/>
          <path class="cls-1" d="M492.65,451.06h1.63v-3h1.67v3h2v1.37h-2v6.37c0,.86.22,1.23,1.09,1.23a4.43,4.43,0,0,0,.78-.08v1.27a4.44,4.44,0,0,1-1.33.16c-1.49,0-2.21-.56-2.21-2.25v-6.69h-1.63Z"/>
          <path class="cls-1" d="M501.33,446.62v5.91a3.16,3.16,0,0,1,3-1.67c1.49,0,3.19.76,3.19,3.66v6.73h-1.65V454.8c0-1.55-.6-2.47-2.09-2.47-1.65,0-2.49,1.09-2.49,3.11v5.81h-1.67V446.62Z"/>
          <path class="cls-1" d="M511.5,456.46c0,2,.86,3.58,2.65,3.58a2.34,2.34,0,0,0,2.35-1.67h1.63a3.89,3.89,0,0,1-4.06,3.07c-3.18,0-4.26-2.51-4.26-5.32,0-2.51,1.23-5.26,4.36-5.26s4.12,2.49,4.12,4.84v.76Zm5.14-1.21c0-1.75-.74-3.05-2.51-3.05-2,0-2.49,1.83-2.59,3.05Z"/>
          <path class="cls-1" d="M520.51,454.51c0-1.63,0-3,0-3.45h1.63c0,.48,0,1.12,0,2.07a3.42,3.42,0,0,1,3.29-2.25v1.73c-2.29.08-3.25,1.43-3.25,3.64v5h-1.67Z"/>
          <path class="cls-1" d="M532.08,446.62h1.67v5.84a3.27,3.27,0,0,1,3.05-1.61c2.47,0,3.92,2,3.92,5s-1.31,5.58-4.22,5.58a2.81,2.81,0,0,1-2.77-1.47,9,9,0,0,1-.06,1.29H532c0-.56,0-1.63,0-2.89Zm4.32,5.68c-2,0-2.75,1.31-2.75,3.72s.58,4,2.69,4c1.83,0,2.67-1.69,2.67-4.08C539,453.75,538.15,452.3,536.4,452.3Z"/>
          <path class="cls-1" d="M543,448.77v-2.15h1.67v2.15Zm0,2.29h1.67v10.18H543Z"/>
          <path class="cls-1" d="M555.44,460.46c0,3.19-1.29,5-4.38,5s-3.88-1.61-4-3.05h1.65a2.2,2.2,0,0,0,2.45,1.69c2.17,0,2.67-1.43,2.67-3.66v-.82a2.87,2.87,0,0,1-3,1.67c-2.39,0-3.94-2-3.94-5.16s1.83-5.24,4.18-5.24c1.61,0,2.43.66,2.71,1.45a9.23,9.23,0,0,1,.08-1.24h1.63c0,.48,0,1.57,0,3Zm-4.22-.64c1.95,0,2.63-1.23,2.63-3.78s-.56-3.74-2.53-3.74c-1.69,0-2.71,1.41-2.71,3.78S549.61,459.82,551.22,459.82Z"/>
          <path class="cls-1" d="M571.58,456c0,3-1.29,5.44-4.56,5.44s-4.42-2.59-4.42-5.39,1.47-5.18,4.56-5.18C570,450.86,571.58,453,571.58,456Zm-7.25,0c0,2.33,1,4,2.79,4s2.73-1.65,2.73-4c0-2.23-.92-3.76-2.77-3.76S564.33,453.79,564.33,456Z"/>
          <path class="cls-1" d="M573.82,454.51c0-1.63,0-3,0-3.45h1.63c0,.48,0,1.12,0,2.07a3.42,3.42,0,0,1,3.29-2.25v1.73c-2.29.08-3.25,1.43-3.25,3.64v5h-1.67Z"/>
          <path class="cls-1" d="M586.16,458.29a2.1,2.1,0,0,0,2.29,1.83c1.41,0,1.95-.74,1.95-1.61s-.64-1.41-2.37-1.87c-2.49-.68-3.13-1.59-3.13-3s.92-2.83,3.42-2.83,3.42,1.37,3.56,2.93h-1.65a1.79,1.79,0,0,0-2-1.63c-1.15,0-1.67.54-1.67,1.39s.38,1.18,2.09,1.63c2.59.7,3.42,1.57,3.42,3.19,0,1.89-1.49,3.05-3.68,3.05s-3.7-1-3.88-3.13Z"/>
          <path class="cls-1" d="M594.2,454.23c0-1.81,0-2.71,0-3.17h1.63c0,.28.06,1.08.06,1.45a3.07,3.07,0,0,1,2.85-1.65,2.49,2.49,0,0,1,2.61,1.75,3.21,3.21,0,0,1,3-1.75c1.55,0,3.05.8,3.05,3.48v6.91h-1.65v-6.63c0-1.24-.4-2.31-1.85-2.31s-2.25,1.33-2.25,3v6H600v-6.71c0-1.26-.5-2.21-1.83-2.21s-2.31,1.09-2.31,3.11v5.81H594.2Z"/>
          <path class="cls-1" d="M617.29,459a18.79,18.79,0,0,0,.14,2.27h-1.51a9.28,9.28,0,0,1-.14-1.57,3,3,0,0,1-3.09,1.75,2.92,2.92,0,0,1-3.23-3.09c0-1.53,1-3.23,4.62-3.23h1.57v-1c0-1-.28-2-2-2a1.86,1.86,0,0,0-2.15,1.81h-1.63c.14-1.71,1.12-3.09,3.84-3.09,2.13,0,3.6.86,3.6,3.17Zm-1.61-2.67h-1.61c-2.47,0-2.93,1-2.93,1.93a1.72,1.72,0,0,0,1.89,1.83c2,0,2.65-1.37,2.65-3.54Z"/>
          <path class="cls-1" d="M620.23,461.24V446.62h1.67v14.62Z"/>
          <path class="cls-1" d="M624.83,461.24V446.62h1.67v14.62Z"/>
          <path class="cls-1" d="M628.33,463.62a13.64,13.64,0,0,0,1.27-5.16h1.63a11,11,0,0,1-1.51,5.16Z"/>
          <path class="cls-1" d="M646.24,446.62v12c0,1,0,2,0,2.65h-1.63c0-.26-.06-.9-.06-1.51-.54,1.19-1.37,1.69-3,1.69-2.63,0-4-2.23-4-5.26s1.53-5.3,4.3-5.3c1.65,0,2.41.66,2.69,1.23v-5.46ZM642,460c2.19,0,2.65-1.67,2.65-4.06,0-2.81-.82-3.64-2.55-3.64s-2.77,1.37-2.77,3.8S640.39,460,642,460Z"/>
          <path class="cls-1" d="M649.22,448.77v-2.15h1.67v2.15Zm0,2.29h1.67v10.18h-1.67Z"/>
          <path class="cls-1" d="M653.82,454.51c0-1.63,0-3,0-3.45h1.63c0,.48,0,1.12,0,2.07a3.42,3.42,0,0,1,3.29-2.25v1.73c-2.29.08-3.25,1.43-3.25,3.64v5h-1.67Z"/>
          <path class="cls-1" d="M661.36,456.46c0,2,.86,3.58,2.65,3.58a2.34,2.34,0,0,0,2.35-1.67H668a3.89,3.89,0,0,1-4.06,3.07c-3.18,0-4.26-2.51-4.26-5.32,0-2.51,1.23-5.26,4.36-5.26s4.12,2.49,4.12,4.84v.76Zm5.14-1.21c0-1.75-.74-3.05-2.51-3.05-2,0-2.49,1.83-2.59,3.05Z"/>
          <path class="cls-1" d="M678.18,458a3.91,3.91,0,0,1-4.1,3.45c-2.85,0-4.3-1.91-4.3-5.3,0-3,1.49-5.28,4.4-5.28a3.72,3.72,0,0,1,4,3.56h-1.67a2.29,2.29,0,0,0-2.33-2.19c-1.87,0-2.67,1.63-2.67,3.88,0,2.61.94,4,2.65,4,1.41,0,2-.88,2.37-2.09Z"/>
          <path class="cls-1" d="M679.25,451.06h1.63v-3h1.67v3h2v1.37h-2v6.37c0,.86.22,1.23,1.09,1.23a4.43,4.43,0,0,0,.78-.08v1.27a4.44,4.44,0,0,1-1.33.16c-1.49,0-2.21-.56-2.21-2.25v-6.69h-1.63Z"/>
          <path class="cls-1" d="M686.26,461.24V446.62h1.67v14.62Z"/>
          <path class="cls-1" d="M691.51,451.06c1.59,4.94,2.41,7.41,2.67,8.64h0c.3-1.13,1.21-4.24,2.59-8.64h1.73l-3.58,10.65c-1,3.09-1.87,3.74-3.68,3.74a4.52,4.52,0,0,1-.88-.08v-1.43a6.23,6.23,0,0,0,.88.06c1.23,0,1.61-1,2.09-2.43l-3.64-10.51Z"/>
          <path class="cls-1" d="M713.41,456c0,3-1.29,5.44-4.56,5.44s-4.42-2.59-4.42-5.39,1.47-5.18,4.56-5.18C711.87,450.86,713.41,453,713.41,456Zm-7.25,0c0,2.33,1,4,2.79,4s2.73-1.65,2.73-4c0-2.23-.92-3.76-2.77-3.76S706.16,453.79,706.16,456Z"/>
          <path class="cls-1" d="M715.65,454.51c0-1.63,0-3,0-3.45h1.63c0,.48,0,1.12,0,2.07a3.42,3.42,0,0,1,3.29-2.25v1.73c-2.29.08-3.25,1.43-3.25,3.64v5h-1.67Z"/>
          <path class="cls-1" d="M727.25,448.77v-2.15h1.67v2.15Zm0,2.29h1.67v10.18h-1.67Z"/>
          <path class="cls-1" d="M731.85,454.25c0-2.13,0-2.75,0-3.19h1.63a12.36,12.36,0,0,1,.06,1.59,3.12,3.12,0,0,1,3-1.79c1.89,0,3.23,1.06,3.23,3.82v6.57h-1.67v-6.31c0-1.49-.5-2.61-2-2.61-1.81,0-2.53,1.35-2.53,3.48v5.44h-1.67Z"/>
          <path class="cls-1" d="M750.6,446.62v12c0,1,0,2,0,2.65H749c0-.26-.06-.9-.06-1.51-.54,1.19-1.37,1.69-3,1.69-2.63,0-4-2.23-4-5.26s1.53-5.3,4.3-5.3c1.65,0,2.41.66,2.69,1.23v-5.46ZM746.36,460c2.19,0,2.65-1.67,2.65-4.06,0-2.81-.82-3.64-2.55-3.64s-2.77,1.37-2.77,3.8S744.76,460,746.36,460Z"/>
          <path class="cls-1" d="M753.58,448.77v-2.15h1.67v2.15Zm0,2.29h1.67v10.18h-1.67Z"/>
          <path class="cls-1" d="M758.18,454.51c0-1.63,0-3,0-3.45h1.63c0,.48,0,1.12,0,2.07a3.42,3.42,0,0,1,3.29-2.25v1.73c-2.29.08-3.25,1.43-3.25,3.64v5h-1.67Z"/>
          <path class="cls-1" d="M765.72,456.46c0,2,.86,3.58,2.65,3.58a2.34,2.34,0,0,0,2.35-1.67h1.63a3.89,3.89,0,0,1-4.06,3.07c-3.18,0-4.26-2.51-4.26-5.32,0-2.51,1.23-5.26,4.36-5.26s4.12,2.49,4.12,4.84v.76Zm5.14-1.21c0-1.75-.74-3.05-2.51-3.05-2,0-2.49,1.83-2.59,3.05Z"/>
          <path class="cls-1" d="M782.54,458a3.91,3.91,0,0,1-4.1,3.45c-2.85,0-4.3-1.91-4.3-5.3,0-3,1.49-5.28,4.4-5.28a3.72,3.72,0,0,1,4,3.56h-1.67a2.29,2.29,0,0,0-2.33-2.19c-1.87,0-2.67,1.63-2.67,3.88,0,2.61.94,4,2.65,4,1.41,0,2-.88,2.37-2.09Z"/>
          <path class="cls-1" d="M783.61,451.06h1.63v-3h1.67v3h2v1.37h-2v6.37c0,.86.22,1.23,1.09,1.23a4.43,4.43,0,0,0,.78-.08v1.27a4.44,4.44,0,0,1-1.33.16c-1.49,0-2.21-.56-2.21-2.25v-6.69h-1.63Z"/>
          <path class="cls-1" d="M790.62,461.24V446.62h1.67v14.62Z"/>
          <path class="cls-1" d="M795.87,451.06c1.59,4.94,2.41,7.41,2.67,8.64h0c.3-1.13,1.21-4.24,2.59-8.64h1.73l-3.58,10.65c-1,3.09-1.87,3.74-3.68,3.74a4.52,4.52,0,0,1-.88-.08v-1.43a6.23,6.23,0,0,0,.88.06c1.23,0,1.61-1,2.09-2.43l-3.64-10.51Z"/>
          <path class="cls-1" d="M803,461.27v-2.77h1.65v2.77Z"/>
        </g>
        <g>
          <path class="cls-2" d="M198.14,383.54h5.44c2.7,0,4.6,1.34,4.6,4a3.35,3.35,0,0,1-2.44,3.43,4,4,0,0,1,3,4.08c0,3.1-2.23,4.76-5.35,4.76h-5.21Zm5,6.81c2.53,0,3.47-1.08,3.47-2.77s-1-2.77-3.31-2.77h-3.66v5.54Zm-3.5,8.16h3.54c2.25,0,3.92-1.08,3.92-3.45,0-2.09-1.36-3.4-4.11-3.4h-3.36Z"/>
          <path class="cls-2" d="M220.83,393.68c0,3.4-1.43,6.29-5.12,6.29-3.5,0-5-3-5-6.24s1.71-6,5.12-6C219,387.74,220.83,390.18,220.83,393.68Zm-8.54,0c0,2.79,1.22,5,3.54,5s3.43-2.09,3.43-5c0-2.65-1.15-4.65-3.5-4.65S212.28,391,212.28,393.73Z"/>
          <path class="cls-2" d="M232.36,382.67v14.1c0,1.06,0,2.25,0,3H231c0-.31-.07-1.08-.07-1.88-.63,1.5-1.62,2.09-3.59,2.09-3.07,0-4.58-2.63-4.58-6.1s1.71-6.15,4.93-6.15c1.95,0,2.91.82,3.24,1.55v-6.62Zm-4.74,16c2.74,0,3.31-2.13,3.31-5.07,0-3.57-1.1-4.51-3.17-4.51s-3.5,1.76-3.5,4.74S225.7,398.65,227.62,398.65Z"/>
          <path class="cls-2" d="M236.18,388c2,6,3,8.89,3.38,10.35h0c.35-1.24,1.41-4.67,3.26-10.35h1.55l-4.15,12.34c-1.2,3.52-2,4.39-4.11,4.39a6.52,6.52,0,0,1-1-.09v-1.34a6.43,6.43,0,0,0,1,.07c1.6,0,2-1.31,2.68-3.26L234.58,388Z"/>
        </g>
        <line class="cls-3" x1="278.96" y1="322.93" x2="278.96" y2="463.36"/>
      </g>
      <g>
        <g>
          <path class="cls-2" d="M357.56,250.22l-1.72,2.2c-2.32-2.08-4.13-2.74-7.87-2.74-5.1,0-8.63-3.68-8.63-10.62s3.56-10.8,8.69-10.8,8.69,3.77,8.69,10.77c0,5.22-1.9,7.84-4.86,9.29A9.3,9.3,0,0,1,357.56,250.22ZM348,247.57c3.62,0,5.91-2.47,5.91-8.54s-2.26-8.6-5.91-8.6-5.91,2.53-5.91,8.63S344.53,247.57,348,247.57Z"/>
          <path class="cls-2" d="M367.38,249.71c-4.16,0-6.27-2.41-6.27-5.79V232.36h2.53v11.37c0,2.56,1.18,3.92,3.74,3.92s3.77-1.36,3.77-3.92V232.36h2.53v11.55C373.69,247.29,371.52,249.71,367.38,249.71Z"/>
          <path class="cls-2" d="M380.65,245.15l-1.33,4.22h-2.59l5.79-17h3.14l5.76,17h-2.68l-1.33-4.22ZM384,234.42l-2.74,8.75h5.49Z"/>
          <path class="cls-2" d="M404.65,247.2l-.3,2.17h-9.59v-17h2.53V247.2Z"/>
          <path class="cls-2" d="M408.36,249.38v-17h2.53v17Z"/>
          <path class="cls-2" d="M422.08,234.48v14.9h-2.53v-14.9h-5.1v-2.11h12.85l-.24,2.11Z"/>
          <path class="cls-2" d="M436.13,249.38h-2.56v-6.51L427.8,232.4h2.77l4.37,8.35,4.28-8.35h2.68l-5.79,10.43Z"/>
          <path class="cls-2" d="M466.85,249.38l-.63-7.57c-.24-2.77-.36-5-.39-7.24l-3.92,12.88H459.5l-4-12.88c0,2.35-.12,4.86-.33,7.33l-.57,7.48h-2.41l1.51-17H457l3.77,12.52,3.68-12.52h3.38l1.48,17Z"/>
          <path class="cls-2" d="M475.87,245.15l-1.33,4.22h-2.59l5.79-17h3.14l5.76,17H484l-1.33-4.22Zm3.38-10.74-2.74,8.75H482Z"/>
          <path class="cls-2" d="M492.51,242.23v7.15H490v-17h4.8c4.52,0,6.82,1.63,6.82,4.86,0,2.38-1.33,3.74-3.83,4.49l4.86,7.63h-3l-4.25-7.15Zm6.42-5c0-2.05-1.27-3-4.19-3h-2.23v6H495C497.52,240.33,498.93,239.48,498.93,237.25Z"/>
          <path class="cls-2" d="M506.53,249.38v-17h2.53v17Zm12.79,0h-3.08l-7.09-9.11L516,232.4h2.84L512,240.12Z"/>
          <path class="cls-2" d="M525,234.35v5.34H531v2H525v5.76h7.42v2h-10v-17h9.8l-.3,2Z"/>
          <path class="cls-2" d="M541.72,234.48v14.9h-2.53v-14.9h-5.1v-2.11h12.85l-.24,2.11Z"/>
          <path class="cls-2" d="M550.34,249.38v-17h2.53v17Z"/>
          <path class="cls-2" d="M568.28,249.38l-7.21-14.48c.12,1.63.33,3.53.33,6.7v7.78h-2.32v-17h3.29l7.33,14.54a45.67,45.67,0,0,1-.36-5.64v-8.9h2.32v17Z"/>
          <path class="cls-2" d="M589.72,234l-1.45,1.51a5.92,5.92,0,0,0-3.92-1.36c-2.62,0-5.19,1.87-5.19,6.72s1.81,6.82,4.92,6.82a7.31,7.31,0,0,0,3.38-.72v-5.07h-3.14l-.27-2h5.88v8.23a11.09,11.09,0,0,1-5.94,1.57c-4.61,0-7.48-3-7.48-8.87,0-5.7,3.68-8.75,7.75-8.75A8.13,8.13,0,0,1,589.72,234Z"/>
          <path class="cls-2" d="M614.41,232.82c0,2.56-1.93,4.13-4.34,5.55l5.52,5.19a24.13,24.13,0,0,0,1.84-5.25l2.38.66a24.91,24.91,0,0,1-2.65,6.06l3.47,3.23-1.84,1.48-3-2.92a8.36,8.36,0,0,1-6.67,2.92c-3.89,0-6.67-2.2-6.67-5.61,0-2.65,1.66-4.37,4.25-6-1.84-1.75-3-3.11-3-5.19,0-2.62,1.93-4.68,5.34-4.68C612.21,228.26,614.41,230.19,614.41,232.82ZM605,244c0,2.29,1.81,3.68,4.34,3.68a6.34,6.34,0,0,0,4.92-2.32l-6.15-5.88C606,240.84,605,242.2,605,244Zm1.18-11.13c0,1.54.84,2.56,2.44,4.07,2.05-1.21,3.29-2.38,3.29-4a2.87,2.87,0,0,0-5.73-.06Z"/>
          <path class="cls-2" d="M647.49,249.38l-.63-7.57c-.24-2.77-.36-5-.39-7.24l-3.92,12.88h-2.41l-4-12.88c0,2.35-.12,4.86-.33,7.33l-.57,7.48h-2.41l1.51-17h3.35l3.77,12.52,3.68-12.52h3.38l1.48,17Z"/>
          <path class="cls-2" d="M656.5,245.15l-1.33,4.22h-2.59l5.79-17h3.14l5.76,17h-2.68l-1.33-4.22Zm3.38-10.74-2.74,8.75h5.49Z"/>
          <path class="cls-2" d="M679.81,249.38,672.6,234.9c.12,1.63.33,3.53.33,6.7v7.78h-2.32v-17h3.29l7.33,14.54a45.67,45.67,0,0,1-.36-5.64v-8.9h2.32v17Z"/>
          <path class="cls-2" d="M690.45,245.15l-1.33,4.22h-2.59l5.79-17h3.14l5.76,17h-2.68l-1.33-4.22Zm3.38-10.74-2.74,8.75h5.49Z"/>
          <path class="cls-2" d="M715.51,234l-1.45,1.51a5.92,5.92,0,0,0-3.92-1.36c-2.62,0-5.19,1.87-5.19,6.72s1.81,6.82,4.92,6.82a7.31,7.31,0,0,0,3.38-.72v-5.07h-3.14l-.27-2h5.88v8.23a11.09,11.09,0,0,1-5.94,1.57c-4.61,0-7.48-3-7.48-8.87,0-5.7,3.68-8.75,7.75-8.75A8.13,8.13,0,0,1,715.51,234Z"/>
          <path class="cls-2" d="M723.26,234.35v5.34h6.06v2h-6.06v5.76h7.42v2h-10v-17h9.8l-.3,2Z"/>
          <path class="cls-2" d="M748.89,249.38l-.63-7.57c-.24-2.77-.36-5-.39-7.24l-3.92,12.88h-2.41l-4-12.88c0,2.35-.12,4.86-.33,7.33l-.57,7.48h-2.41l1.51-17H739l3.77,12.52,3.68-12.52h3.38l1.48,17Z"/>
          <path class="cls-2" d="M759.38,234.35v5.34h6.06v2h-6.06v5.76h7.42v2h-10v-17h9.8l-.3,2Z"/>
          <path class="cls-2" d="M780.67,249.38l-7.21-14.48c.12,1.63.33,3.53.33,6.7v7.78h-2.32v-17h3.29l7.33,14.54a45.67,45.67,0,0,1-.36-5.64v-8.9H784v17Z"/>
          <path class="cls-2" d="M795.23,234.48v14.9H792.7v-14.9h-5.1v-2.11h12.85l-.24,2.11Z"/>
          <path class="cls-2" d="M821.76,234.11l-1.39,1.51a6,6,0,0,0-4.1-1.51c-1.84,0-3.26.78-3.26,2.35,0,1.42.78,2,4,3,3,.87,5.31,2,5.31,5.22,0,3-2.41,5.07-6.39,5.07a8.82,8.82,0,0,1-6.21-2.26l1.42-1.57a6.75,6.75,0,0,0,4.74,1.78c2.14,0,3.8-1,3.8-2.9,0-1.66-.85-2.38-3.89-3.26-3.62-1-5.31-2.35-5.31-4.92s2.41-4.49,5.76-4.49A7.7,7.7,0,0,1,821.76,234.11Z"/>
          <path class="cls-2" d="M829.21,234.35v5.34h6.06v2h-6.06v5.76h7.42v2h-10v-17h9.8l-.3,2Z"/>
          <path class="cls-2" d="M843.83,242.23v7.15H841.3v-17h4.8c4.52,0,6.82,1.63,6.82,4.86,0,2.38-1.33,3.74-3.83,4.49l4.86,7.63h-3l-4.25-7.15Zm6.42-5c0-2.05-1.27-3-4.19-3h-2.23v6h2.47C848.84,240.33,850.26,239.48,850.26,237.25Z"/>
          <path class="cls-2" d="M860.72,249.38l-5.73-17h2.72l4.52,14.57,4.43-14.57h2.56l-5.67,17Z"/>
          <path class="cls-2" d="M872.57,249.38v-17h2.53v17Z"/>
          <path class="cls-2" d="M892.41,233.81l-1.33,1.57a5.41,5.41,0,0,0-3.47-1.27c-2.74,0-5,1.81-5,6.72s2.17,6.79,5,6.79a6.26,6.26,0,0,0,3.8-1.45l1.27,1.57a7.16,7.16,0,0,1-5.16,2c-4.37,0-7.54-3.11-7.54-8.87s3.38-8.75,7.51-8.75A7.23,7.23,0,0,1,892.41,233.81Z"/>
          <path class="cls-2" d="M898.92,234.35v5.34H905v2h-6.06v5.76h7.42v2h-10v-17h9.8l-.3,2Z"/>
          <path class="cls-2" d="M920.84,234.11l-1.39,1.51a6,6,0,0,0-4.1-1.51c-1.84,0-3.26.78-3.26,2.35,0,1.42.78,2,4,3,3,.87,5.31,2,5.31,5.22,0,3-2.41,5.07-6.39,5.07a8.82,8.82,0,0,1-6.21-2.26l1.42-1.57a6.75,6.75,0,0,0,4.74,1.78c2.14,0,3.8-1,3.8-2.9,0-1.66-.85-2.38-3.89-3.26-3.62-1-5.31-2.35-5.31-4.92s2.41-4.49,5.76-4.49A7.7,7.7,0,0,1,920.84,234.11Z"/>
        </g>
        <g>
          <path class="cls-2" d="M188.27,230.27h5.19c3.8,0,7.11,2.46,7.11,7.7s-2.72,8.54-7.44,8.54h-4.86Zm1.55,14.92H193c4,0,5.91-2.67,5.91-7.16,0-4.29-2.51-6.45-5.89-6.45h-3.24Z"/>
          <path class="cls-2" d="M204.31,240.85c0,2.7,1.15,4.58,3.36,4.58a3,3,0,0,0,3-2.16h1.46a4.35,4.35,0,0,1-4.53,3.47c-3.66,0-4.79-3-4.79-6.19,0-2.89,1.41-6.08,4.88-6.08s4.65,2.91,4.65,5.51v.87Zm6.5-1.2c0-2.25-1-3.92-3.19-3.92-2.56,0-3.14,2.39-3.26,3.92Z"/>
          <path class="cls-2" d="M215.47,243.18a2.7,2.7,0,0,0,2.89,2.32c1.83,0,2.51-1,2.51-2.13s-.8-1.85-2.86-2.39c-2.79-.75-3.54-1.78-3.54-3.33s1.1-3.17,3.75-3.17,3.75,1.57,3.92,3.31h-1.45a2.31,2.31,0,0,0-2.53-2.09c-1.53,0-2.18.75-2.18,1.85s.42,1.5,2.53,2.07c2.93.8,3.87,1.76,3.87,3.64,0,2.09-1.62,3.47-4.06,3.47-2.28,0-4.11-1.1-4.34-3.54Z"/>
          <path class="cls-2" d="M233.75,242.87c-.54,2.3-2,3.87-4.6,3.87-3.21,0-4.86-2.18-4.86-6.17,0-3.28,1.57-6.1,5-6.1a4.22,4.22,0,0,1,4.48,4H232.2a2.91,2.91,0,0,0-3-2.72c-2.35,0-3.38,2-3.38,4.81,0,3.12,1.17,4.88,3.36,4.88,1.76,0,2.56-1.06,3-2.58Z"/>
          <path class="cls-2" d="M236.25,238.72c0-1.88,0-3.52,0-4h1.48c0,.56,0,1.31,0,2.51a4.11,4.11,0,0,1,3.92-2.75v1.6c-2.74.14-3.89,2-3.89,4.46v6h-1.48Z"/>
          <path class="cls-2" d="M242.16,246.53v-3.05h1.48v3.05Z"/>
        </g>
      </g>
    </g>
  </g>
</svg>
