<?xml version="1.0" encoding="utf-8"?>
<!-- Generator: Adobe Illustrator 19.0.1, SVG Export Plug-In . SVG Version: 6.00 Build 0)  -->
<svg version="1.1" xmlns="http://www.w3.org/2000/svg" xmlns:xlink="http://www.w3.org/1999/xlink" x="0px" y="0px"
	 viewBox="0 0 3044.1 1000" style="enable-background:new 0 0 3044.1 1000;" xml:space="preserve">
<style type="text/css">
	.st0{display:none;}
	.st1{display:inline;fill:none;stroke:#231F20;stroke-width:10;stroke-miterlimit:10;}
	.st2{display:inline;fill:none;stroke:#231F20;stroke-width:10;stroke-linecap:square;stroke-miterlimit:10;}
	.st3{display:inline;fill:none;stroke:#231F20;stroke-width:10;stroke-linejoin:bevel;stroke-miterlimit:10;}
	.st4{display:inline;fill:#FFFFFF;}
	.st5{display:inline;fill:none;stroke:#231F20;stroke-miterlimit:10;}
	.st6{display:inline;fill:none;stroke:#FF00E1;stroke-miterlimit:10;}
	.st7{fill:#231F20;}
	.st8{display:inline;fill:#310EC4;stroke:#231F20;stroke-width:0.25;stroke-linecap:round;stroke-miterlimit:10;}
	.st9{display:inline;}
	.st10{fill:none;stroke:#231F20;stroke-width:10;stroke-linecap:round;stroke-miterlimit:10;}
	.st11{display:inline;fill:none;stroke:#231F20;stroke-width:10;stroke-linecap:round;stroke-miterlimit:10;}
	.st12{opacity:0.63;fill:#008191;}
	.st13{opacity:0.7;fill:#5A5190;}
	.st14{opacity:0.63;fill:#B3BB6B;}
	.st15{opacity:0.7;fill:#E3334F;}
	.st16{fill:none;stroke:#FFFFFF;stroke-width:10;stroke-linecap:round;stroke-miterlimit:10;}
	.st17{display:inline;fill:none;stroke:#000000;stroke-width:15;stroke-linecap:round;stroke-miterlimit:10;}
	.st18{display:inline;fill:none;stroke:#231F20;stroke-width:15;stroke-linecap:round;stroke-miterlimit:10;}
	.st19{fill:#A43A33;}
	.st20{fill:#D16661;}
	.st21{fill:#7B2C26;}
	.st22{fill:#782B25;}
	.st23{fill:#B44038;}
	.st24{fill:#F1554B;}
	.st25{fill:#F3776F;}
	.st26{fill:#F69993;}
	.st27{fill:#A03A3A;}
	.st28{fill:#B74646;}
	.st29{fill:#D15454;}
	.st30{fill:#EA6868;}
	.st31{fill:#112156;}
	.st32{fill:none;}
	.st33{display:inline;fill:#893533;}
	.st34{font-family:'Times-Roman';}
	.st35{font-size:896.5281px;}
</style>
<g id="Layer_1" class="st0">
	<line class="st1" x1="240" y1="520" x2="240" y2="440"/>
	<path class="st1" d="M240,440c0-44.2,35.8-80,80-80"/>
	<path class="st1" d="M400,440c0-44.2-35.8-80-80-80"/>
	<path class="st1" d="M480,360c-44.2,0-80,35.8-80,80v60"/>
	<path class="st1" d="M480,360c44.2,0,80,35.8,80,80v120"/>
	<line class="st2" x1="240" y1="520" x2="520" y2="520"/>
	<path class="st1" d="M560,560c0-22.1-17.9-40-40-40"/>
	<path class="st1" d="M560,560c0,22.1-17.9,40-40,40h-40"/>
	<line class="st1" x1="300" y1="520" x2="300" y2="640"/>
	<line class="st1" x1="480" y1="520" x2="480" y2="640"/>
	<polyline class="st3" points="340,650 390,520 440,650 	"/>
	<line class="st3" x1="360" y1="600" x2="420" y2="600"/>
	<rect x="240" y="640" class="st4" width="320" height="100"/>
</g>
<g id="Layer_2" class="st0">
	<polygon class="st1" points="400,556.5 500,571.4 500,750 400,697.9 	"/>
	<polygon class="st1" points="647.1,673.4 500,750 500,571.4 647.1,549.5 	"/>
</g>
<g id="Layer_3" class="st0">
	<circle class="st5" cx="500" cy="500" r="227.5"/>
	<line class="st6" x1="-153.3" y1="229.4" x2="1153.3" y2="770.6"/>
	<line class="st6" x1="0" y1="500.2" x2="1000" y2="499.8"/>
</g>
<g id="Layer_4" class="st0">
	<path class="st7" d="M500,737.5c-63.4,0-123.1-24.7-167.9-69.6c-44.9-44.9-69.6-104.5-69.6-167.9c0-31.7,6.2-62.5,18-90.9
		c11.8-28.4,29.2-54.6,51.6-77c22.4-22.4,48.6-39.8,77-51.6c28.4-11.8,59.2-18,90.9-18c31.7,0,62.5,6.2,90.9,18
		c28.4,11.8,54.6,29.2,77,51.6c22.4,22.4,39.8,48.6,51.6,77c11.8,28.4,18,59.2,18,90.9c0,63.4-24.7,123.1-69.6,167.9
		C623.1,712.8,563.4,737.5,500,737.5z M500,282.5c-29,0-57.2,5.7-83.3,16.4c-26.1,10.8-50,26.7-70.5,47.3
		c-20.5,20.5-36.5,44.5-47.3,70.5c-10.8,26.1-16.4,54.2-16.4,83.3c0,58.1,22.6,112.7,63.7,153.8c41.1,41.1,95.7,63.7,153.8,63.7
		c58.1,0,112.7-22.6,153.8-63.7c41.1-41.1,63.7-95.7,63.7-153.8c0-29-5.7-57.2-16.4-83.3c-10.8-26.1-26.7-50-47.3-70.5
		c-20.5-20.5-44.5-36.5-70.5-47.3C557.2,288.2,529.1,282.5,500,282.5z"/>
	<circle class="st5" cx="500" cy="500" r="227.5"/>
	<path class="st5" d="M295,500c0,113.2,91.8,205,205,205c27.8,0,54.3-5.5,78.5-15.6C652.8,658.6,705,585.4,705,500
		c0-113.2-91.8-205-205-205S295,386.8,295,500z"/>
</g>
<g id="Layer_5" class="st0">
	<line class="st6" x1="0" y1="1000" x2="1000" y2="0"/>
	<line class="st6" x1="0" y1="0" x2="1000" y2="1000"/>
	<line class="st6" x1="229.4" y1="1153.3" x2="770.6" y2="-153.3"/>
	<line class="st6" x1="-153.3" y1="770.6" x2="1153.3" y2="229.4"/>
	<line class="st6" x1="229.4" y1="-153.3" x2="770.6" y2="1153.3"/>
	<line class="st6" x1="500" y1="0" x2="500" y2="1000"/>
	<circle class="st5" cx="587.1" cy="482.7" r="227.5"/>
	<circle class="st5" cx="660.9" cy="433.4" r="227.5"/>
	<circle class="st5" cx="710.2" cy="359.6" r="227.5"/>
	<circle class="st5" cx="727.5" cy="272.5" r="227.5"/>
	<circle class="st5" cx="710.2" cy="185.4" r="227.5"/>
	<circle class="st5" cx="660.9" cy="111.6" r="227.5"/>
	<circle class="st5" cx="587.1" cy="62.3" r="227.5"/>
	<circle class="st5" cx="500" cy="45" r="227.5"/>
	<circle class="st5" cx="412.9" cy="62.3" r="227.5"/>
	<circle class="st5" cx="339.1" cy="111.6" r="227.5"/>
	<circle class="st5" cx="289.8" cy="185.4" r="227.5"/>
	<circle class="st5" cx="272.5" cy="272.5" r="227.5"/>
	<circle class="st5" cx="289.8" cy="359.6" r="227.5"/>
	<circle class="st5" cx="339.1" cy="433.4" r="227.5"/>
	<circle class="st5" cx="412.9" cy="482.7" r="227.5"/>
</g>
<g id="Layer_6" class="st0">
</g>
<g id="Layer_7" class="st0">
	<circle class="st8" cx="365" cy="595" r="225"/>
	<g class="st9">
		<g>
			<line class="st10" x1="262.2" y1="677.8" x2="262.2" y2="544"/>
			<line class="st10" x1="289" y1="677.8" x2="289" y2="490.4"/>
			<line class="st10" x1="315.8" y1="677.8" x2="315.8" y2="463.7"/>
			<line class="st10" x1="342.5" y1="651" x2="342.5" y2="490.4"/>
			<line class="st10" x1="355.9" y1="677.8" x2="396.1" y2="610.9"/>
		</g>
		<g>
			<line class="st10" x1="141.8" y1="356.6" x2="275.6" y2="356.6"/>
			<line class="st10" x1="141.8" y1="383.4" x2="329.2" y2="383.4"/>
			<line class="st10" x1="141.8" y1="410.1" x2="355.9" y2="410.1"/>
			<line class="st10" x1="168.6" y1="436.9" x2="329.2" y2="436.9"/>
			<line class="st10" x1="141.8" y1="450.3" x2="208.7" y2="490.4"/>
		</g>
	</g>
	<g class="st9">
		<g>
			<line class="st10" x1="760" y1="920" x2="760" y2="800"/>
			<path class="st10" d="M760,800c0-44.2,35.8-80,80-80"/>
			<path class="st10" d="M920,800c0-44.2-35.8-80-80-80"/>
			<path class="st10" d="M980,740c-33.2,0-60,26.8-60,60v20"/>
			<path class="st10" d="M980,740c33.2,0,60,26.8,60,60v120"/>
		</g>
		<g>
			<line class="st10" x1="1050" y1="760" x2="1170" y2="760"/>
			<line class="st10" x1="1110" y1="920" x2="1110" y2="760"/>
		</g>
		<g>
			<path class="st10" d="M1230,760c-33.2,0-60,26.8-60,60v100"/>
			<path class="st10" d="M1230,760c33.2,0,60,26.8,60,60v100"/>
			<line class="st10" x1="1170" y1="850" x2="1290" y2="850"/>
		</g>
		<g>
			<polyline class="st10" points="1320,920 1320,760 1360,760 			"/>
			<path class="st10" d="M1420,820c0-33.2-26.8-60-60-60"/>
			<path class="st10" d="M1420,820c0,33.2-26.8,60-60,60"/>
		</g>
	</g>
	<circle class="st11" cx="268.9" cy="517.2" r="225"/>
	<g class="st9">
		<circle class="st12" cx="983.1" cy="347.4" r="205.4"/>
		<circle class="st13" cx="950.9" cy="367.1" r="205.4"/>
	</g>
	<g class="st9">
		<circle class="st14" cx="976.8" cy="373.3" r="205.4"/>
		<circle class="st15" cx="957.2" cy="341.2" r="205.4"/>
	</g>
	<g class="st9">
		<g>
			<line class="st16" x1="972.7" y1="525.3" x2="972.7" y2="391.5"/>
			<line class="st16" x1="999.4" y1="525.3" x2="999.4" y2="337.9"/>
			<line class="st16" x1="1026.2" y1="525.3" x2="1026.2" y2="311.2"/>
			<line class="st16" x1="1053" y1="498.5" x2="1053" y2="337.9"/>
			<line class="st16" x1="1066.3" y1="525.3" x2="1106.5" y2="458.4"/>
		</g>
		<g>
			<line class="st16" x1="852.2" y1="204.1" x2="986" y2="204.1"/>
			<line class="st16" x1="852.2" y1="230.9" x2="1039.6" y2="230.9"/>
			<line class="st16" x1="852.2" y1="257.6" x2="1066.3" y2="257.6"/>
			<line class="st16" x1="879" y1="284.4" x2="1039.6" y2="284.4"/>
			<line class="st16" x1="852.2" y1="297.8" x2="919.1" y2="337.9"/>
		</g>
	</g>
</g>
<g id="Layer_8">
	<g class="st0">
		<line class="st17" x1="368.2" y1="339.4" x2="502.1" y2="339.4"/>
		<line class="st17" x1="368.2" y1="366.2" x2="555.6" y2="366.2"/>
		<line class="st17" x1="368.2" y1="392.9" x2="582.4" y2="392.9"/>
		<line class="st17" x1="395" y1="419.7" x2="555.6" y2="419.7"/>
		<line class="st17" x1="368.2" y1="433.1" x2="435.1" y2="473.2"/>
	</g>
	<g class="st0">
		<line class="st18" x1="654.6" y1="641.3" x2="654.6" y2="430.5"/>
		<path class="st18" d="M654.6,430.5c0-77.7,62.9-140.6,140.6-140.6"/>
		<path class="st18" d="M935.7,430.5c0-77.7-62.9-140.6-140.6-140.6"/>
		<path class="st18" d="M1041.2,325.1c-58.3,0-105.4,47.1-105.4,105.4v35.1"/>
		<path class="st18" d="M1041.2,325.1c58.3,0,105.4,47.1,105.4,105.4v210.8"/>
	</g>
	<g class="st0">
		<line class="st18" x1="1181.6" y1="360.2" x2="1451.5" y2="360.2"/>
		<line class="st18" x1="1316.6" y1="641.3" x2="1316.6" y2="360.2"/>
	</g>
	<g class="st0">
		<path class="st18" d="M1589.5,353.9c-58.3,0-105.4,47.1-105.4,105.4V635"/>
		<path class="st18" d="M1589.5,353.9c58.3,0,105.4,47.1,105.4,105.4V635"/>
		<line class="st18" x1="1484" y1="512" x2="1694.9" y2="512"/>
	</g>
	<g class="st0">
		<polyline class="st18" points="1755.1,635 1755.1,353.9 1825.3,353.9 		"/>
		<path class="st18" d="M1930.8,459.3c0-58.3-47.1-105.4-105.4-105.4"/>
		<path class="st18" d="M1930.8,459.3c0,58.3-47.1,105.4-105.4,105.4"/>
	</g>
	<g>
		<g>
			<path class="st19" d="M200.1,433.2c10.9-85.1,57.1-157,127.6-201c48-41.2,111.8-67.1,186-70.7c18.3-0.9,36.6-0.4,54.8,1.4
				c-39.3-10.7-80-15.6-120.8-13.6c-57.9,2.8-109.5,19.2-152.1,45.8C229.6,251.6,193.3,336.9,200.1,433.2z"/>
			<path class="st20" d="M918.2,566.8c6.8,96.3-29.5,181.6-95.4,238.1C923.3,742.2,974.6,622.6,944.1,489
				c-16.6-72.7-54.9-139-106.8-192.7c35.5,46,61.7,98.8,74.6,155.5C921,491.8,922.8,530.5,918.2,566.8z"/>
			<path class="st19" d="M200.1,433.2c-6.8-96.3,29.5-181.6,95.4-238.1C194.9,257.8,143.7,377.4,174.1,511
				c16.6,72.7,54.9,139,106.8,192.7c-35.5-46-61.7-98.8-74.6-155.5C197.2,508.2,195.4,469.5,200.1,433.2z"/>
			<path class="st21" d="M670.6,850.7c-40.8,2-81.5-2.9-120.8-13.6c-101-9.9-197.7-59.8-268.9-133.4
				C364.7,812,500.3,882.3,636.8,875.6c74.2-3.6,138-29.5,186-70.7C780.1,831.5,728.6,847.9,670.6,850.7z"/>
			<path class="st20" d="M918.2,566.8c-10.9,85.1-57.1,157-127.6,201c-48,41.2-111.8,67.1-186,70.7c-18.3,0.9-36.6,0.4-54.8-1.4
				c39.3,10.7,80,15.6,120.8,13.6c57.9-2.8,109.5-19.2,152.1-45.8C888.6,748.4,924.9,663.1,918.2,566.8z"/>
			<path class="st21" d="M549.8,837.1c-92.1-25.1-176.3-82.3-235-158.3c-51.9-53.7-90.3-120-106.8-192.7
				c-4.1-17.9-6.7-35.6-7.9-52.9c-4.6,36.3-2.9,75,6.2,115c12.9,56.7,39.1,109.5,74.6,155.5C352.1,777.3,448.8,827.2,549.8,837.1z"
				/>
			<path class="st20" d="M790.6,767.8c-42.7,26.6-94.2,43-152.1,45.8c-120.1,5.9-239.6-47.9-323.6-134.8
				c58.7,75.9,142.9,133.1,235,158.3c18.2,1.8,36.5,2.3,54.8,1.4C678.8,834.8,742.6,809,790.6,767.8z"/>
			<path class="st21" d="M568.4,162.9c101,9.9,197.7,59.8,268.9,133.4C753.6,188,617.9,117.7,481.5,124.4
				c-74.2,3.6-138,29.5-186,70.7c42.7-26.6,94.2-43,152.1-45.8C488.4,147.3,529.1,152.2,568.4,162.9z"/>
			<path class="st21" d="M568.4,162.9c92.1,25.1,176.3,82.3,235,158.3c51.9,53.7,90.3,120,106.8,192.7c4.1,17.9,6.7,35.6,7.9,52.9
				c4.6-36.3,2.9-75-6.2-115c-12.9-56.7-39.1-109.5-74.6-155.5C766.1,222.7,669.4,172.8,568.4,162.9z"/>
			<path class="st19" d="M803.4,321.2c-58.7-75.9-142.9-133.1-235-158.3c-18.2-1.8-36.5-2.3-54.8-1.4c-74.2,3.6-138,29.5-186,70.7
				c42.7-26.6,94.2-43,152.1-45.8C599.9,180.6,719.4,234.3,803.4,321.2z"/>
			<path class="st21" d="M790.6,767.8c70.5-44,116.7-115.9,127.6-201c-1.2-17.3-3.8-35-7.9-52.9c-16.6-72.7-54.9-139-106.8-192.7
				c35.5,46,61.7,98.8,74.6,155.5C904.9,594.3,868.3,701.1,790.6,767.8z"/>
			<path class="st21" d="M327.6,232.2c-70.5,44-116.7,115.9-127.6,201c1.2,17.3,3.8,35,7.9,52.9c16.6,72.7,54.9,139,106.8,192.7
				c-35.5-46-61.7-98.8-74.6-155.5C213.4,405.7,249.9,298.9,327.6,232.2z"/>
			<path class="st22" d="M540.4,772.5c-6.3,0-11.3-5.1-11.3-11.3V543.6c0-6.3,5.1-11.3,11.3-11.3c6.3,0,11.3,5.1,11.3,11.3v217.6
				C551.7,767.5,546.6,772.5,540.4,772.5z"/>
			<path class="st23" d="M580.9,757.4c-6.3,0-11.3-5.1-11.3-11.3V462.6c0-6.3,5.1-11.3,11.3-11.3c6.3,0,11.3,5.1,11.3,11.3v283.5
				C592.2,752.3,587.1,757.4,580.9,757.4z"/>
			<path class="st24" d="M621.4,752.9c-6.3,0-11.3-5.1-11.3-11.3V422.1c0-6.3,5.1-11.3,11.3-11.3c6.3,0,11.3,5.1,11.3,11.3v319.5
				C632.7,747.8,627.6,752.9,621.4,752.9z"/>
			<path class="st25" d="M661.9,716.9c-6.3,0-11.3-5.1-11.3-11.3v-243c0-6.3,5.1-11.3,11.3-11.3c6.3,0,11.3,5.1,11.3,11.3v243
				C673.2,711.8,668.1,716.9,661.9,716.9z"/>
			<path class="st26" d="M682.1,757.4c-2,0-4-0.5-5.8-1.6c-5.4-3.2-7.1-10.2-3.9-15.6L733.1,639c3.2-5.4,10.2-7.1,15.6-3.9
				c5.4,3.2,7.1,10.2,3.9,15.6l-60.7,101.3C689.7,755.5,686,757.4,682.1,757.4z"/>
			<path class="st21" d="M560.6,271.4H343c-6.3,0-11.3-5.1-11.3-11.3c0-6.3,5.1-11.3,11.3-11.3h217.6c6.3,0,11.3,5.1,11.3,11.3
				C572,266.3,566.9,271.4,560.6,271.4z"/>
			<path class="st27" d="M641.6,311.9H358.1c-6.3,0-11.3-5.1-11.3-11.3s5.1-11.3,11.3-11.3h283.5c6.3,0,11.3,5.1,11.3,11.3
				S647.9,311.9,641.6,311.9z"/>
			<path class="st28" d="M682.1,352.4H362.7c-6.3,0-11.3-5.1-11.3-11.3s5.1-11.3,11.3-11.3h319.5c6.3,0,11.3,5.1,11.3,11.3
				S688.4,352.4,682.1,352.4z"/>
			<path class="st29" d="M641.6,392.9h-243c-6.3,0-11.3-5.1-11.3-11.3s5.1-11.3,11.3-11.3h243c6.3,0,11.3,5.1,11.3,11.3
				S647.9,392.9,641.6,392.9z"/>
			<path class="st30" d="M459.4,473.9c-2,0-4-0.5-5.8-1.6l-101.2-60.7c-5.4-3.2-7.1-10.2-3.9-15.6c3.2-5.4,10.2-7.1,15.6-3.9
				l101.2,60.7c5.4,3.2,7.1,10.2,3.9,15.6C467,472,463.2,473.9,459.4,473.9z"/>
		</g>
		<path class="st31" d="M2134.7,251.4h-408.4c-10.4,0-18.9,8.5-18.9,18.9c0,10.4,8.5,18.9,18.9,18.9h185.3v406.4
			c0,10.4,8.5,18.9,18.9,18.9c10.4,0,18.9-8.5,18.9-18.9V289.3h185.3c10.4,0,18.9-8.5,18.9-18.9
			C2153.6,259.9,2145.1,251.4,2134.7,251.4z"/>
		<g>
			<path class="st32" d="M2343.4,279.7c-77.5,0-140.6,63.1-140.6,140.6v60.8H2484v-60.8C2484,342.7,2420.9,279.7,2343.4,279.7z"/>
			<path class="st31" d="M2343.4,241.8c-98.4,0-178.4,80-178.4,178.4v265.8c0,10.4,8.5,18.9,18.9,18.9s18.9-8.5,18.9-18.9V518.9
				H2484v167.2c0,10.4,8.5,18.9,18.9,18.9s18.9-8.5,18.9-18.9V420.2C2521.8,321.9,2441.8,241.8,2343.4,241.8z M2202.8,481.1v-60.8
				c0-77.5,63.1-140.6,140.6-140.6c77.5,0,140.6,63.1,140.6,140.6v60.8H2202.8z"/>
		</g>
		<path class="st31" d="M2700.3,241.8H2575v444.2c0,10.4,8.5,18.9,18.9,18.9c10.4,0,18.9-8.5,18.9-18.9V279.7h87.4
			c77.5,0,140.6,63.1,140.6,140.6s-63.1,140.6-140.6,140.6c-10.4,0-18.9,8.5-18.9,18.9s8.5,18.9,18.9,18.9
			c98.4,0,178.4-80,178.4-178.4S2798.7,241.8,2700.3,241.8z"/>
		<path class="st31" d="M1513.8,198.3c-67.8,0-126.9,38-157.1,93.9c-28.4-61.1-90.3-103.5-161.9-103.5c-98.4,0-178.4,80-178.4,178.4
			v319c0,10.4,8.5,18.9,18.9,18.9c10.4,0,18.9-8.5,18.9-18.9v-319c0-77.5,63.1-140.6,140.6-140.6c77.5,0,140.6,63.1,140.6,140.6
			c0,0.8,0.1,1.6,0.2,2.3c-0.1,2.4-0.2,4.8-0.2,7.3v53.2c0,10.4,8.5,18.9,18.9,18.9c10.4,0,18.9-8.5,18.9-18.9v-53.2
			c0-77.5,63.1-140.6,140.6-140.6c77.5,0,140.6,63.1,140.6,140.6v319c0,10.4,8.5,18.9,18.9,18.9c10.4,0,18.9-8.5,18.9-18.9v-319
			C1692.2,278.3,1612.1,198.3,1513.8,198.3z"/>
		<g>
			<path class="st21" d="M1017,829.8v-76.2h11.9l23.8,60l23.8-60h11.9v76.2h-9.5v-57.1l-22.9,57.1h-6.6l-22.8-57.1v57.1H1017z"/>
			<path class="st21" d="M1101.4,762.2v-8.5h8.5v8.5H1101.4z M1101.4,829.8v-57.1h8.5v57.1H1101.4z"/>
			<path class="st21" d="M1119.8,801.3c0-8.9,2.3-16.1,6.8-21.4c4.5-5.3,10.5-8,18-8c6.6,0,12.1,1.9,16.4,5.8
				c4.3,3.8,6.7,8.8,7.3,15.2h-8.5c-0.3-4-1.9-7.2-4.6-9.6c-2.8-2.4-6.3-3.6-10.5-3.6c-4.9,0-8.9,2-11.8,6c-3,3.9-4.5,9.2-4.5,15.7
				c0,6.6,1.5,11.9,4.5,15.9c2.9,4,6.8,6,11.8,6c4.2,0,7.6-1.3,10.4-3.9c2.8-2.6,4.3-6.1,4.8-10.4h8.5c-0.6,6.6-3,11.9-7.4,15.8
				c-4.3,4.1-9.7,6.1-16.3,6.1c-7.5,0-13.5-2.7-18-8C1122,817.3,1119.8,810.2,1119.8,801.3z"/>
			<path class="st21" d="M1177.1,829.8v-76.2h8.5v26.6c2-2.3,4.3-4.1,6.9-5.4c2.7-1.4,5.5-2.1,8.4-2.1c5.3,0,9.7,1.9,13.4,5.6
				c3.8,3.7,5.6,8.1,5.6,13.4v38.1h-8.5v-38.2c0-2.9-1.2-5.4-3.5-7.5c-2.3-1.9-4.9-2.9-8-2.9c-3.8,0-8.2,3.1-13.3,9.3l-1,1.1v38.2
				H1177.1z"/>
			<path class="st21" d="M1232,762.2v-8.5h8.5v8.5H1232z M1232,829.8v-57.1h8.5v57.1H1232z"/>
			<path class="st21" d="M1250.2,801.3c0-7.7,2.2-14.3,6.5-19.8c4.5-5.8,10.2-8.8,17.2-8.8c3.3,0,6.2,0.6,8.8,1.8
				c2.9,1.3,5.1,3.2,6.5,5.7v-5.8h8.5v55.4c0,5.7-2.5,10.3-7.4,13.9c-4.6,3.4-10.1,5.1-16.5,5.1c-5.8,0-10.9-1.4-15.1-4.1
				c-4.7-3.1-7.2-7.1-7.6-12.1h8.6c0.5,2.8,2.2,5.1,5.1,6.6c2.5,1.3,5.5,2,9,2c4.1,0,7.6-1,10.5-3c3.2-2.1,4.8-4.9,4.8-8.4l-0.1-7.6
				c-1.4,2.5-3.6,4.4-6.5,5.8c-2.6,1.3-5.5,1.9-8.7,1.9c-6.9,0-12.6-2.9-17.1-8.8C1252.3,815.5,1250.2,809,1250.2,801.3z
				 M1258.7,801.2c0,5.6,1.3,10.4,3.9,14.4c2.8,4.4,6.6,6.5,11.3,6.5c4.7,0,8.5-2.2,11.4-6.5c2.6-4,3.9-8.8,3.9-14.4
				c0-5.6-1.3-10.4-3.9-14.3c-2.9-4.4-6.7-6.5-11.4-6.5c-4.7,0-8.4,2.2-11.3,6.5C1260,790.8,1258.7,795.6,1258.7,801.2z"/>
			<path class="st21" d="M1306.9,814.5c0-4.8,2.2-8.8,6.6-12c4-2.8,8.9-4.5,14.8-5c4.1-0.3,7.2-1,9.3-1.9c2.9-1.2,4.4-3.1,4.4-5.8
				c0-2.9-1.1-5.4-3.4-7.4c-2.3-2-4.9-3-8-3c-3.3,0-6.1,1-8.5,2.9c-2.5,2-3.8,4.5-3.8,7.5v1.9h-8.6V788c0-4.8,2.2-8.8,6.5-11.9
				c4-2.8,8.8-4.3,14.4-4.3c5.3,0,9.9,1.5,13.9,4.4c4.1,3.1,6.1,7,6.1,11.8v28.6c0,1.6,0.6,2.9,1.8,4c1.1,1.1,2.4,1.6,4,1.6v7.6
				h-3.4c-2.2,0-4.3-0.6-6.1-1.8c-1.8-1.3-3.1-2.9-3.8-4.9c-1.8,2.6-4.2,4.5-7.4,5.8c-2.9,1.2-6.1,1.8-9.6,1.8
				c-5.8,0-10.4-1.5-13.8-4.4C1308.6,823.4,1306.9,819.5,1306.9,814.5z M1315.4,814.5c0,2.4,1.1,4.4,3.3,6c2,1.4,4.4,2.1,7.3,2.1
				c4.3,0,8.1-1.3,11.1-3.9c3.3-2.6,4.9-5.9,4.9-9.9l-0.1-7.6c-2.3,1.9-6.6,3.1-12.7,3.6l-2.4,0.1c-3.1,0.2-5.7,1.2-7.9,2.9
				C1316.6,809.7,1315.4,811.9,1315.4,814.5z"/>
			<path class="st21" d="M1364.3,829.8v-55.2h8.5l0,5.8c1.5-2.6,3.7-4.5,6.6-5.9c2.7-1.2,5.8-1.8,9.1-1.8c5.9,0,10.9,2.2,15.1,6.5
				c4.2,4.3,6.2,9.4,6.2,15.4v35.2h-8.5v-35.2c0-3.8-1.4-7.1-4.1-9.8c-2.8-2.7-6.1-4-10-4c-3.9,0-7.3,1.3-10.1,4
				c-2.8,2.7-4.3,5.9-4.3,9.8v35.2H1364.3z"/>
			<path class="st21" d="M1448.6,762.2v-8.5h57.1v8.5h-23.9v67.6h-9.5v-67.6H1448.6z"/>
			<path class="st21" d="M1509,814.5c0-4.8,2.2-8.8,6.6-12c4-2.8,8.9-4.5,14.8-5c4.1-0.3,7.2-1,9.3-1.9c2.9-1.2,4.4-3.1,4.4-5.8
				c0-2.9-1.1-5.4-3.4-7.4c-2.3-2-4.9-3-8-3c-3.3,0-6.1,1-8.5,2.9c-2.5,2-3.8,4.5-3.8,7.5v1.9h-8.6V788c0-4.8,2.2-8.8,6.5-11.9
				c4-2.8,8.8-4.3,14.4-4.3c5.3,0,9.9,1.5,13.9,4.4c4.1,3.1,6.1,7,6.1,11.8v28.6c0,1.6,0.6,2.9,1.8,4c1.1,1.1,2.4,1.6,4,1.6v7.6
				h-3.4c-2.2,0-4.3-0.6-6.1-1.8c-1.8-1.3-3.1-2.9-3.8-4.9c-1.8,2.6-4.2,4.5-7.4,5.8c-2.9,1.2-6.1,1.8-9.6,1.8
				c-5.8,0-10.4-1.5-13.8-4.4C1510.8,823.4,1509,819.5,1509,814.5z M1517.6,814.5c0,2.4,1.1,4.4,3.3,6c2,1.4,4.4,2.1,7.3,2.1
				c4.3,0,8.1-1.3,11.1-3.9c3.3-2.6,4.9-5.9,4.9-9.9l-0.1-7.6c-2.3,1.9-6.6,3.1-12.7,3.6l-2.4,0.1c-3.1,0.2-5.7,1.2-7.9,2.9
				C1518.7,809.7,1517.6,811.9,1517.6,814.5z"/>
			<path class="st21" d="M1561.1,829.8l19-28.6l-19-27.6h9.5l14.2,19.9l14.4-19.9h9.5l-19,27.6l19,28.6h-9.5l-14.4-20.9l-14.2,20.9
				H1561.1z"/>
			<path class="st21" d="M1644.2,810.8c0-3.9,1.5-7.9,4.4-11.9c3-4,7.1-7.5,12.2-10.4c-2.9-3.8-5.1-7.3-6.6-10.6
				c-1.6-3.3-2.4-6.3-2.4-8.9c0-4.3,1.7-7.8,5.1-10.8c3.5-3,7.7-4.5,12.5-4.5c4.6,0,8.5,1.7,11.8,5c3.3,3.3,4.9,7.4,4.9,12.1
				c0,3.6-1.1,7.1-3.4,10.5c-2.3,3.4-5.5,6.3-9.4,8.5L1685,805c0.7-2.5,1-5.7,1-9.5h8.5c0,8-1.1,13.9-3.3,17.7l12.8,16.7h-11.4
				l-7.1-8.5c-2.1,2.9-4.8,5.2-8.3,6.9c-3.4,1.7-7.2,2.5-11.3,2.5c-6,0-11.1-2-15.4-5.9C1646.3,821,1644.2,816.3,1644.2,810.8z
				 M1653.7,809.9c0,3.4,1.3,6.3,3.9,8.6c2.6,2.4,5.7,3.6,9.4,3.6c2.5,0,5-0.7,7.4-2.1c2.5-1.4,4.6-3.4,6.4-6l-15.2-19
				c-3.7,2.1-6.6,4.5-8.8,7.1C1654.7,804.8,1653.7,807.4,1653.7,809.9z M1661.2,770c0,1.6,0.6,3.5,1.8,5.8c1.1,2.3,2.7,4.8,4.9,7.5
				c2.7-1.5,4.8-3.4,6.4-5.6c1.5-2.3,2.3-4.5,2.3-6.8c0-2.5-0.7-4.6-2-6.4c-1.3-1.8-2.9-2.6-4.8-2.6c-2.3,0-4.3,0.8-6,2.4
				C1662.1,765.8,1661.2,767.7,1661.2,770z"/>
			<path class="st21" d="M1737.9,829.8l24.8-76.2h12.3l24.8,76.2h-9.5l-7.6-22.8H1755l-7.6,22.8H1737.9z M1757.8,798.5h22l-11-32.9
				L1757.8,798.5z"/>
			<path class="st21" d="M1804,801.3c0-8.9,2.3-16.1,6.8-21.4c4.5-5.3,10.5-8,18-8c6.6,0,12.1,1.9,16.4,5.8
				c4.3,3.8,6.7,8.8,7.3,15.2h-8.5c-0.3-4-1.9-7.2-4.6-9.6c-2.8-2.4-6.3-3.6-10.5-3.6c-4.9,0-8.9,2-11.8,6c-3,3.9-4.5,9.2-4.5,15.7
				c0,6.6,1.5,11.9,4.5,15.9c2.9,4,6.8,6,11.8,6c4.2,0,7.6-1.3,10.4-3.9c2.8-2.6,4.3-6.1,4.8-10.4h8.5c-0.6,6.6-3,11.9-7.4,15.8
				c-4.3,4.1-9.7,6.1-16.3,6.1c-7.5,0-13.5-2.7-18-8C1806.3,817.3,1804,810.2,1804,801.3z"/>
			<path class="st21" d="M1858.2,801.3c0-8.9,2.3-16.1,6.8-21.4c4.5-5.3,10.5-8,18-8c6.6,0,12.1,1.9,16.4,5.8
				c4.3,3.8,6.7,8.8,7.3,15.2h-8.5c-0.3-4-1.9-7.2-4.6-9.6c-2.8-2.4-6.3-3.6-10.5-3.6c-4.9,0-8.9,2-11.8,6c-3,3.9-4.5,9.2-4.5,15.7
				c0,6.6,1.5,11.9,4.5,15.9c2.9,4,6.8,6,11.8,6c4.2,0,7.6-1.3,10.4-3.9c2.8-2.6,4.3-6.1,4.8-10.4h8.5c-0.6,6.6-3,11.9-7.4,15.8
				c-4.3,4.1-9.7,6.1-16.3,6.1c-7.5,0-13.5-2.7-18-8C1860.5,817.3,1858.2,810.2,1858.2,801.3z"/>
			<path class="st21" d="M1912.5,801.3c0-8.9,2.3-16.1,7-21.4c4.7-5.3,10.9-8,18.6-8c7.7,0,14,2.7,18.7,8c4.7,5.3,7,12.5,7,21.4
				c0,8.9-2.3,16.1-7,21.4c-4.7,5.3-11,8-18.7,8c-7.7,0-14-2.7-18.6-8C1914.8,817.3,1912.5,810.2,1912.5,801.3z M1921,801.2
				c0,6.6,1.5,11.9,4.6,15.9c3.2,4,7.3,6,12.5,6c5.2,0,9.4-2,12.5-6c3.1-4,4.6-9.3,4.6-15.9c0-6.6-1.5-11.8-4.6-15.7
				c-3.2-4-7.3-6-12.5-6c-5.2,0-9.4,2-12.5,6C1922.5,789.4,1921,794.6,1921,801.2z"/>
			<path class="st21" d="M1972.6,808v-34.3h8.5v33.2c0,4.3,1.2,8,3.6,11.1c2.6,3.3,5.8,5,9.8,5c4.3,0,7.8-1.6,10.8-4.7
				c2.9-3.2,4.4-7,4.4-11.4v-33.2h8.5v56.1h-8.5v-7.6c-1.6,2.8-4,5-7.3,6.5c-2.9,1.3-6.2,2-9.8,2c-5.8,0-10.6-2.3-14.4-6.9
				C1974.5,819.4,1972.6,814.1,1972.6,808z"/>
			<path class="st21" d="M2031.2,829.8v-55.2h8.5l0,5.8c1.5-2.6,3.7-4.5,6.6-5.9c2.7-1.2,5.8-1.8,9.1-1.8c5.9,0,10.9,2.2,15.1,6.5
				c4.2,4.3,6.2,9.4,6.2,15.4v35.2h-8.5v-35.2c0-3.8-1.4-7.1-4.1-9.8c-2.8-2.7-6.1-4-10-4c-3.9,0-7.3,1.3-10.1,4
				c-2.8,2.7-4.3,5.9-4.3,9.8v35.2H2031.2z"/>
			<path class="st21" d="M2090.7,773.7v-16.3h8.5v16.3h8.6v7.6h-8.6v36.2c0,1,0.4,1.9,1.1,2.6c0.8,0.8,1.6,1.1,2.6,1.1h4.9v8.5h-7.6
				c-2.6,0-4.8-0.9-6.8-2.8c-1.8-1.9-2.8-4.2-2.8-6.8v-39h-7.6v-7.6H2090.7z"/>
			<path class="st21" d="M2116.2,762.2v-8.5h8.5v8.5H2116.2z M2116.2,829.8v-57.1h8.5v57.1H2116.2z"/>
			<path class="st21" d="M2137.7,829.8v-55.2h8.5l0,5.8c1.5-2.6,3.7-4.5,6.6-5.9c2.7-1.2,5.8-1.8,9.1-1.8c5.9,0,10.9,2.2,15.1,6.5
				c4.2,4.3,6.2,9.4,6.2,15.4v35.2h-8.5v-35.2c0-3.8-1.4-7.1-4.1-9.8c-2.8-2.7-6.1-4-10-4c-3.9,0-7.3,1.3-10.1,4
				c-2.8,2.7-4.3,5.9-4.3,9.8v35.2H2137.7z"/>
			<path class="st21" d="M2191.8,801.3c0-7.7,2.2-14.3,6.5-19.8c4.5-5.8,10.2-8.8,17.2-8.8c3.3,0,6.2,0.6,8.8,1.8
				c2.9,1.3,5.1,3.2,6.5,5.7v-5.8h8.5v55.4c0,5.7-2.5,10.3-7.4,13.9c-4.6,3.4-10.1,5.1-16.5,5.1c-5.8,0-10.9-1.4-15.1-4.1
				c-4.7-3.1-7.2-7.1-7.6-12.1h8.6c0.5,2.8,2.2,5.1,5.1,6.6c2.5,1.3,5.5,2,9,2c4.1,0,7.6-1,10.5-3c3.2-2.1,4.8-4.9,4.8-8.4l-0.1-7.6
				c-1.4,2.5-3.6,4.4-6.5,5.8c-2.6,1.3-5.5,1.9-8.7,1.9c-6.9,0-12.6-2.9-17.1-8.8C2193.9,815.5,2191.8,809,2191.8,801.3z
				 M2200.3,801.2c0,5.6,1.3,10.4,3.9,14.4c2.8,4.4,6.6,6.5,11.3,6.5c4.7,0,8.5-2.2,11.4-6.5c2.6-4,3.9-8.8,3.9-14.4
				c0-5.6-1.3-10.4-3.9-14.3c-2.9-4.4-6.7-6.5-11.4-6.5c-4.7,0-8.4,2.2-11.3,6.5C2201.6,790.8,2200.3,795.6,2200.3,801.2z"/>
			<path class="st21" d="M2284.8,829.8v-76.2h31.3c7.3,0,13.1,2,17.4,6.1c4.3,4,6.5,9.4,6.5,16.2c0,6.8-2.2,12.3-6.5,16.4
				c-4.3,4.1-10.1,6.1-17.4,6.1h-21.8v31.3H2284.8z M2294.3,790h21.8c4.3,0,7.8-1.3,10.5-3.8c2.6-2.6,3.9-6,3.9-10.2
				c0-4.1-1.3-7.5-3.9-10c-2.7-2.5-6.2-3.8-10.5-3.8h-21.8V790z"/>
			<path class="st21" d="M2348.6,829.8v-56.1h8.5v9.9c1.3-3.4,3.5-6.1,6.8-8c3.1-1.9,6.6-2.9,10.4-2.9h3.8v8.5h-3.8
				c-4.8,0-8.9,1.9-12.3,5.8c-3.3,3.7-4.9,8.1-4.9,13.3v29.5H2348.6z"/>
			<path class="st21" d="M2382.3,801.3c0-8.9,2.3-16.1,7-21.4c4.7-5.3,10.9-8,18.6-8s14,2.7,18.7,8c4.7,5.3,7,12.5,7,21.4
				c0,8.9-2.3,16.1-7,21.4c-4.7,5.3-11,8-18.7,8s-14-2.7-18.6-8C2384.6,817.3,2382.3,810.2,2382.3,801.3z M2390.8,801.2
				c0,6.6,1.5,11.9,4.6,15.9c3.2,4,7.3,6,12.5,6c5.2,0,9.4-2,12.5-6c3.1-4,4.6-9.3,4.6-15.9c0-6.6-1.5-11.8-4.6-15.7
				c-3.2-4-7.3-6-12.5-6c-5.2,0-9.4,2-12.5,6C2392.3,789.4,2390.8,794.6,2390.8,801.2z"/>
			<path class="st21" d="M2438.1,782.2v-8.5h7.6V769c0-4.2,1.5-7.8,4.4-10.8c3-3,6.6-4.5,10.8-4.5h4.8v8.6h-3.8
				c-2.1,0-3.8,0.6-5.3,1.9c-1.6,1.3-2.4,2.8-2.4,4.8v4.8h11.4v8.5h-11.4v47.6h-8.5v-47.6H2438.1z"/>
			<path class="st21" d="M2470.2,801.3c0-8.9,2.2-16.1,6.5-21.4c4.3-5.3,10.1-8,17.3-8c7.2,0,12.9,2.7,17.3,8
				c4.3,5.3,6.5,12.5,6.5,21.4v2.9h-39.1c0,5.7,1.4,10.3,4.1,13.7c2.8,3.5,6.6,5.2,11.1,5.2c4,0,7.3-1,9.9-3.1
				c2.6-2.1,4-4.8,4.4-8.2h8.5c-0.5,5.8-2.8,10.4-7,13.8c-4.1,3.4-9.4,5.1-15.8,5.1c-7.2,0-12.9-2.7-17.3-8
				C2472.4,817.3,2470.2,810.2,2470.2,801.3z M2478.7,796.5h30.4c-0.4-5.2-2-9.3-4.8-12.4c-2.8-3.1-6.2-4.6-10.4-4.6
				c-4.2,0-7.6,1.5-10.4,4.6C2480.8,787.2,2479.1,791.3,2478.7,796.5z"/>
			<path class="st21" d="M2523.2,808.9h8.5c0,4,1.2,7.2,3.6,9.6c2.4,2.4,5.6,3.6,9.6,3.6c4.1,0,7.3-0.8,9.8-2.2
				c2.4-1.5,3.6-3.5,3.6-5.9c0-3.3-1.7-6-5.1-7.9c-2.8-1.6-6.5-2.6-11-3c-4.8-0.4-8.8-2.2-12-5.2c-3.4-3.2-5.1-7-5.1-11.4
				c0-4.7,1.8-8.5,5.3-11.4c3.4-2.8,8-4.2,13.8-4.2c6.3,0,11.4,1.8,15.2,5.3c3.8,3.4,5.8,8,5.8,13.8h-8.5c0-3.4-1.1-6.2-3.4-8.3
				c-2.3-2.1-5.3-3.1-9-3.1c-3.2,0-5.7,0.7-7.6,2.1c-1.9,1.5-2.9,3.5-2.9,5.9c0,2.9,1.5,5.1,4.6,6.6c2.3,1.3,5.6,2,9.7,2.4
				c5.2,0.4,9.6,2.2,13.2,5.3c3.8,3.3,5.7,7.2,5.7,11.9c0,5.2-1.9,9.3-5.7,12.4c-3.8,3.1-8.9,4.6-15.2,4.6c-6.9,0-12.4-1.9-16.5-5.6
				C2525.3,820.2,2523.2,815.2,2523.2,808.9z"/>
			<path class="st21" d="M2572.3,808.9h8.5c0,4,1.2,7.2,3.6,9.6c2.4,2.4,5.6,3.6,9.6,3.6c4.1,0,7.3-0.8,9.8-2.2
				c2.4-1.5,3.6-3.5,3.6-5.9c0-3.3-1.7-6-5.1-7.9c-2.8-1.6-6.5-2.6-11-3c-4.8-0.4-8.8-2.2-12-5.2c-3.4-3.2-5.1-7-5.1-11.4
				c0-4.7,1.8-8.5,5.3-11.4c3.4-2.8,8-4.2,13.8-4.2c6.3,0,11.4,1.8,15.2,5.3c3.8,3.4,5.8,8,5.8,13.8h-8.5c0-3.4-1.1-6.2-3.4-8.3
				c-2.3-2.1-5.3-3.1-9-3.1c-3.2,0-5.7,0.7-7.6,2.1c-1.9,1.5-2.9,3.5-2.9,5.9c0,2.9,1.5,5.1,4.6,6.6c2.3,1.3,5.6,2,9.7,2.4
				c5.2,0.4,9.6,2.2,13.2,5.3c3.8,3.3,5.7,7.2,5.7,11.9c0,5.2-1.9,9.3-5.7,12.4c-3.8,3.1-8.9,4.6-15.2,4.6c-6.9,0-12.4-1.9-16.5-5.6
				C2574.4,820.2,2572.3,815.2,2572.3,808.9z"/>
			<path class="st21" d="M2625.4,762.2v-8.5h8.5v8.5H2625.4z M2625.4,829.8v-57.1h8.5v57.1H2625.4z"/>
			<path class="st21" d="M2643.8,801.3c0-8.9,2.3-16.1,7-21.4c4.7-5.3,10.9-8,18.6-8s14,2.7,18.7,8c4.7,5.3,7,12.5,7,21.4
				c0,8.9-2.3,16.1-7,21.4c-4.7,5.3-11,8-18.7,8s-14-2.7-18.6-8C2646.1,817.3,2643.8,810.2,2643.8,801.3z M2652.3,801.2
				c0,6.6,1.5,11.9,4.6,15.9c3.2,4,7.3,6,12.5,6c5.2,0,9.4-2,12.5-6c3.1-4,4.6-9.3,4.6-15.9c0-6.6-1.5-11.8-4.6-15.7
				c-3.2-4-7.3-6-12.5-6c-5.2,0-9.4,2-12.5,6C2653.8,789.4,2652.3,794.6,2652.3,801.2z"/>
			<path class="st21" d="M2705,829.8v-55.2h8.5l0,5.8c1.5-2.6,3.7-4.5,6.6-5.9c2.7-1.2,5.8-1.8,9.1-1.8c5.9,0,10.9,2.2,15.1,6.5
				c4.2,4.3,6.2,9.4,6.2,15.4v35.2h-8.5v-35.2c0-3.8-1.4-7.1-4.1-9.8c-2.8-2.7-6.1-4-10-4c-3.9,0-7.3,1.3-10.1,4
				c-2.8,2.7-4.3,5.9-4.3,9.8v35.2H2705z"/>
			<path class="st21" d="M2758.8,814.5c0-4.8,2.2-8.8,6.6-12c4-2.8,8.9-4.5,14.8-5c4.1-0.3,7.2-1,9.3-1.9c2.9-1.2,4.4-3.1,4.4-5.8
				c0-2.9-1.1-5.4-3.4-7.4c-2.3-2-4.9-3-8-3c-3.3,0-6.1,1-8.5,2.9c-2.5,2-3.8,4.5-3.8,7.5v1.9h-8.6V788c0-4.8,2.2-8.8,6.5-11.9
				c4-2.8,8.8-4.3,14.4-4.3c5.3,0,9.9,1.5,13.9,4.4c4.1,3.1,6.1,7,6.1,11.8v28.6c0,1.6,0.6,2.9,1.8,4c1.1,1.1,2.4,1.6,4,1.6v7.6
				h-3.4c-2.2,0-4.3-0.6-6.1-1.8c-1.8-1.3-3.1-2.9-3.8-4.9c-1.8,2.6-4.2,4.5-7.4,5.8c-2.9,1.2-6.1,1.8-9.6,1.8
				c-5.8,0-10.4-1.5-13.8-4.4C2760.5,823.4,2758.8,819.5,2758.8,814.5z M2767.3,814.5c0,2.4,1.1,4.4,3.3,6c2,1.4,4.4,2.1,7.3,2.1
				c4.3,0,8.1-1.3,11.1-3.9c3.3-2.6,4.9-5.9,4.9-9.9l-0.1-7.6c-2.3,1.9-6.6,3.1-12.7,3.6l-2.4,0.1c-3.1,0.2-5.7,1.2-7.9,2.9
				C2768.4,809.7,2767.3,811.9,2767.3,814.5z"/>
			<path class="st21" d="M2816.2,829.8v-76.2h8.5v76.2H2816.2z"/>
			<path class="st21" d="M2833.8,808.9h8.5c0,4,1.2,7.2,3.6,9.6c2.4,2.4,5.6,3.6,9.6,3.6c4.1,0,7.3-0.8,9.8-2.2
				c2.4-1.5,3.6-3.5,3.6-5.9c0-3.3-1.7-6-5.1-7.9c-2.8-1.6-6.5-2.6-11-3c-4.8-0.4-8.8-2.2-12-5.2c-3.4-3.2-5.1-7-5.1-11.4
				c0-4.7,1.8-8.5,5.3-11.4c3.4-2.8,8-4.2,13.8-4.2c6.3,0,11.4,1.8,15.2,5.3c3.8,3.4,5.8,8,5.8,13.8h-8.5c0-3.4-1.1-6.2-3.4-8.3
				c-2.3-2.1-5.3-3.1-9-3.1c-3.2,0-5.7,0.7-7.6,2.1c-1.9,1.5-2.9,3.5-2.9,5.9c0,2.9,1.5,5.1,4.6,6.6c2.3,1.3,5.6,2,9.7,2.4
				c5.2,0.4,9.6,2.2,13.2,5.3c3.8,3.3,5.7,7.2,5.7,11.9c0,5.2-1.9,9.3-5.7,12.4c-3.8,3.1-8.9,4.6-15.2,4.6c-6.9,0-12.4-1.9-16.5-5.6
				C2835.9,820.2,2833.8,815.2,2833.8,808.9z"/>
		</g>
	</g>
</g>
<g id="Black_v1" class="st0">
	<path class="st9" d="M944.1,489c-16.6-72.7-54.9-139-106.8-192.7c35.5,46,61.7,98.8,74.6,155.5c9.1,40,10.9,78.6,6.2,115
		c-10.9,85.1-57.1,157-127.6,201c-42.7,26.6-94.2,43-152.1,45.8c-120.1,5.9-239.6-47.9-323.6-134.8c58.7,75.9,142.9,133.1,235,158.3
		c39.3,10.7,80,15.6,120.8,13.6c57.9-2.8,109.5-19.2,152.1-45.8C923.3,742.2,974.6,622.6,944.1,489z"/>
	<path class="st9" d="M568.4,162.9c-39.3-10.7-80-15.6-120.8-13.6c-57.9,2.8-109.5,19.2-152.1,45.8
		C194.9,257.8,143.7,377.4,174.1,511c16.6,72.7,54.9,139,106.8,192.7c-35.5-46-61.7-98.8-74.6-155.5c-9.1-40-10.9-78.6-6.2-115
		c10.9-85.1,57.1-157,127.6-201c42.7-26.6,94.2-43,152.1-45.8c120.1-5.9,239.6,47.9,323.6,134.8
		C744.7,245.3,660.5,188.1,568.4,162.9z"/>
	<g class="st9">
		<path d="M499.4,132c61.8,0,125.5,16.1,184.1,46.4c57.3,29.7,108.3,72.2,147.5,122.8c17.6,22.8,32.7,47.1,44.9,72.3
			c12.5,25.9,22,52.8,28.2,80.1c8.7,38.1,10.7,75.9,6.1,112.2c-5.2,41-18.8,78.9-40.3,112.6c-2.5,4-5.1,7.8-7.8,11.6
			c7.6-14.7,14-30.2,19-46.3c8.1-25.8,12.6-53.1,13.5-81c0.9-28.7-2-58.2-8.8-87.8c-6.5-28.4-16.4-56.5-29.4-83.5
			c-12.7-26.2-28.4-51.5-46.7-75.1c-29.8-38.6-65.8-72.2-106.8-99.9c-41.3-27.9-85.9-48.5-132.4-61.2
			c-34.9-9.5-70.3-14.4-105.1-14.4c-6.1,0-12.2,0.1-18.2,0.4c-16.3,0.8-32.2,2.6-47.8,5.5c25.9-8.2,53.5-13,82.4-14.4
			C487.6,132.1,493.5,132,499.4,132 M499.4,124c-6,0-11.9,0.1-17.9,0.4c-74.2,3.6-138,29.5-186,70.7c42.7-26.6,94.2-43,152.1-45.8
			c6-0.3,11.9-0.4,17.8-0.4c34.8,0,69.4,4.9,103,14.1c92.1,25.1,176.3,82.3,235,158.3c35.5,46,61.7,98.8,74.6,155.5
			c26.8,117.6-9.8,224.4-87.5,291.1c70.5-44,116.7-115.9,127.6-201c4.6-36.3,2.9-75-6.2-115c-12.9-56.7-39.1-109.5-74.6-155.5
			C757.2,192.7,629.7,124,499.4,124L499.4,124z"/>
	</g>
	<g class="st9">
		<path d="M256.1,310c-7.6,14.7-14,30.2-19,46.3c-8.1,25.8-12.6,53.1-13.5,81c-0.9,28.7,2,58.2,8.8,87.8
			c6.5,28.4,16.4,56.5,29.4,83.5c12.7,26.2,28.4,51.5,46.7,75.1c29.8,38.6,65.8,72.2,106.8,99.9c41.3,27.9,85.9,48.5,132.4,61.2
			c34.9,9.5,70.3,14.4,105.1,14.4c6.1,0,12.2-0.1,18.2-0.4c16.3-0.8,32.2-2.6,47.8-5.5c-25.9,8.2-53.5,13-82.4,14.4
			c-5.8,0.3-11.7,0.4-17.5,0.4c-61.8,0-125.5-16.1-184.1-46.4c-57.3-29.7-108.3-72.2-147.5-122.8c-17.6-22.8-32.7-47.1-44.9-72.3
			c-12.5-25.9-22-52.8-28.2-80.1c-8.7-38.1-10.7-75.9-6.1-112.2c5.2-41,18.8-78.9,40.3-112.6C250.8,317.6,253.4,313.8,256.1,310
			 M327.6,232.2c-70.5,44-116.7,115.9-127.6,201c-4.6,36.3-2.9,75,6.2,115c12.9,56.7,39.1,109.5,74.6,155.5
			C361,807.3,488.5,876,618.9,876c6,0,11.9-0.1,17.9-0.4c74.2-3.6,138-29.5,186-70.7c-42.7,26.6-94.2,43-152.1,45.8
			c-6,0.3-11.9,0.4-17.8,0.4c-34.8,0-69.4-4.9-103-14.1c-92.1-25.1-176.3-82.3-235-158.3c-35.5-46-61.7-98.8-74.6-155.5
			C213.4,405.7,249.9,298.9,327.6,232.2L327.6,232.2z"/>
	</g>
	<path class="st9" d="M540.4,772.5c-6.3,0-11.3-5.1-11.3-11.3V543.6c0-6.3,5.1-11.3,11.3-11.3c6.3,0,11.3,5.1,11.3,11.3v217.6
		C551.7,767.5,546.6,772.5,540.4,772.5z"/>
	<path class="st9" d="M580.9,757.4c-6.3,0-11.3-5.1-11.3-11.3V462.6c0-6.3,5.1-11.3,11.3-11.3c6.3,0,11.3,5.1,11.3,11.3v283.5
		C592.2,752.3,587.1,757.4,580.9,757.4z"/>
	<path class="st9" d="M621.4,752.9c-6.3,0-11.3-5.1-11.3-11.3V422.1c0-6.3,5.1-11.3,11.3-11.3c6.3,0,11.3,5.1,11.3,11.3v319.5
		C632.7,747.8,627.6,752.9,621.4,752.9z"/>
	<path class="st9" d="M661.9,716.9c-6.3,0-11.3-5.1-11.3-11.3v-243c0-6.3,5.1-11.3,11.3-11.3c6.3,0,11.3,5.1,11.3,11.3v243
		C673.2,711.8,668.1,716.9,661.9,716.9z"/>
	<path class="st9" d="M682.1,757.4c-2,0-4-0.5-5.8-1.6c-5.4-3.2-7.1-10.2-3.9-15.6L733.1,639c3.2-5.4,10.2-7.1,15.6-3.9
		c5.4,3.2,7.1,10.2,3.9,15.6l-60.7,101.3C689.7,755.5,686,757.4,682.1,757.4z"/>
	<path class="st9" d="M560.6,271.4H343c-6.3,0-11.3-5.1-11.3-11.3c0-6.3,5.1-11.3,11.3-11.3h217.6c6.3,0,11.3,5.1,11.3,11.3
		C572,266.3,566.9,271.4,560.6,271.4z"/>
	<path class="st9" d="M641.6,311.9H358.1c-6.3,0-11.3-5.1-11.3-11.3s5.1-11.3,11.3-11.3h283.5c6.3,0,11.3,5.1,11.3,11.3
		S647.9,311.9,641.6,311.9z"/>
	<path class="st9" d="M682.1,352.4H362.7c-6.3,0-11.3-5.1-11.3-11.3s5.1-11.3,11.3-11.3h319.5c6.3,0,11.3,5.1,11.3,11.3
		S688.4,352.4,682.1,352.4z"/>
	<path class="st9" d="M641.6,392.9h-243c-6.3,0-11.3-5.1-11.3-11.3s5.1-11.3,11.3-11.3h243c6.3,0,11.3,5.1,11.3,11.3
		S647.9,392.9,641.6,392.9z"/>
	<path class="st9" d="M459.4,473.9c-2,0-4-0.5-5.8-1.6l-101.2-60.7c-5.4-3.2-7.1-10.2-3.9-15.6c3.2-5.4,10.2-7.1,15.6-3.9
		l101.2,60.7c5.4,3.2,7.1,10.2,3.9,15.6C467,472,463.2,473.9,459.4,473.9z"/>
	<path class="st9" d="M2134.7,251.4h-408.4c-10.4,0-18.9,8.5-18.9,18.9c0,10.4,8.5,18.9,18.9,18.9h185.3v406.4
		c0,10.4,8.5,18.9,18.9,18.9c10.4,0,18.9-8.5,18.9-18.9V289.3h185.3c10.4,0,18.9-8.5,18.9-18.9
		C2153.6,259.9,2145.1,251.4,2134.7,251.4z"/>
	<path class="st9" d="M2343.4,241.8c-98.4,0-178.4,80-178.4,178.4v265.8c0,10.4,8.5,18.9,18.9,18.9s18.9-8.5,18.9-18.9V518.9H2484
		v167.2c0,10.4,8.5,18.9,18.9,18.9s18.9-8.5,18.9-18.9V420.2C2521.8,321.9,2441.8,241.8,2343.4,241.8z M2202.8,481.1v-60.8
		c0-77.5,63.1-140.6,140.6-140.6c77.5,0,140.6,63.1,140.6,140.6v60.8H2202.8z"/>
	<path class="st9" d="M2700.3,241.8H2575v444.2c0,10.4,8.5,18.9,18.9,18.9c10.4,0,18.9-8.5,18.9-18.9V279.7h87.4
		c77.5,0,140.6,63.1,140.6,140.6s-63.1,140.6-140.6,140.6c-10.4,0-18.9,8.5-18.9,18.9s8.5,18.9,18.9,18.9
		c98.4,0,178.4-80,178.4-178.4S2798.7,241.8,2700.3,241.8z"/>
	<path class="st9" d="M1513.8,198.3c-67.8,0-126.9,38-157.1,93.9c-28.4-61.1-90.3-103.5-161.9-103.5c-98.4,0-178.4,80-178.4,178.4
		v319c0,10.4,8.5,18.9,18.9,18.9c10.4,0,18.9-8.5,18.9-18.9v-319c0-77.5,63.1-140.6,140.6-140.6c77.5,0,140.6,63.1,140.6,140.6
		c0,0.8,0.1,1.6,0.2,2.3c-0.1,2.4-0.2,4.8-0.2,7.3v53.2c0,10.4,8.5,18.9,18.9,18.9c10.4,0,18.9-8.5,18.9-18.9v-53.2
		c0-77.5,63.1-140.6,140.6-140.6c77.5,0,140.6,63.1,140.6,140.6v319c0,10.4,8.5,18.9,18.9,18.9c10.4,0,18.9-8.5,18.9-18.9v-319
		C1692.2,278.3,1612.1,198.3,1513.8,198.3z"/>
	<g class="st9">
		<path d="M1017,829.8v-76.2h11.9l23.8,60l23.8-60h11.9v76.2h-9.5v-57.1l-22.9,57.1h-6.6l-22.8-57.1v57.1H1017z"/>
		<path d="M1101.4,762.2v-8.5h8.5v8.5H1101.4z M1101.4,829.8v-57.1h8.5v57.1H1101.4z"/>
		<path d="M1119.8,801.3c0-8.9,2.3-16.1,6.8-21.4c4.5-5.3,10.5-8,18-8c6.6,0,12.1,1.9,16.4,5.8c4.3,3.8,6.7,8.8,7.3,15.2h-8.5
			c-0.3-4-1.9-7.2-4.6-9.6c-2.8-2.4-6.3-3.6-10.5-3.6c-4.9,0-8.9,2-11.8,6c-3,3.9-4.5,9.2-4.5,15.7c0,6.6,1.5,11.9,4.5,15.9
			c2.9,4,6.8,6,11.8,6c4.2,0,7.6-1.3,10.4-3.9c2.8-2.6,4.3-6.1,4.8-10.4h8.5c-0.6,6.6-3,11.9-7.4,15.8c-4.3,4.1-9.7,6.1-16.3,6.1
			c-7.5,0-13.5-2.7-18-8C1122,817.3,1119.8,810.2,1119.8,801.3z"/>
		<path d="M1177.1,829.8v-76.2h8.5v26.6c2-2.3,4.3-4.1,6.9-5.4c2.7-1.4,5.5-2.1,8.4-2.1c5.3,0,9.7,1.9,13.4,5.6
			c3.8,3.7,5.6,8.1,5.6,13.4v38.1h-8.5v-38.2c0-2.9-1.2-5.4-3.5-7.5c-2.3-1.9-4.9-2.9-8-2.9c-3.8,0-8.2,3.1-13.3,9.3l-1,1.1v38.2
			H1177.1z"/>
		<path d="M1232,762.2v-8.5h8.5v8.5H1232z M1232,829.8v-57.1h8.5v57.1H1232z"/>
		<path d="M1250.2,801.3c0-7.7,2.2-14.3,6.5-19.8c4.5-5.8,10.2-8.8,17.2-8.8c3.3,0,6.2,0.6,8.8,1.8c2.9,1.3,5.1,3.2,6.5,5.7v-5.8
			h8.5v55.4c0,5.7-2.5,10.3-7.4,13.9c-4.6,3.4-10.1,5.1-16.5,5.1c-5.8,0-10.9-1.4-15.1-4.1c-4.7-3.1-7.2-7.1-7.6-12.1h8.6
			c0.5,2.8,2.2,5.1,5.1,6.6c2.5,1.3,5.5,2,9,2c4.1,0,7.6-1,10.5-3c3.2-2.1,4.8-4.9,4.8-8.4l-0.1-7.6c-1.4,2.5-3.6,4.4-6.5,5.8
			c-2.6,1.3-5.5,1.9-8.7,1.9c-6.9,0-12.6-2.9-17.1-8.8C1252.3,815.5,1250.2,809,1250.2,801.3z M1258.7,801.2
			c0,5.6,1.3,10.4,3.9,14.4c2.8,4.4,6.6,6.5,11.3,6.5c4.7,0,8.5-2.2,11.4-6.5c2.6-4,3.9-8.8,3.9-14.4c0-5.6-1.3-10.4-3.9-14.3
			c-2.9-4.4-6.7-6.5-11.4-6.5c-4.7,0-8.4,2.2-11.3,6.5C1260,790.8,1258.7,795.6,1258.7,801.2z"/>
		<path d="M1306.9,814.5c0-4.8,2.2-8.8,6.6-12c4-2.8,8.9-4.5,14.8-5c4.1-0.3,7.2-1,9.3-1.9c2.9-1.2,4.4-3.1,4.4-5.8
			c0-2.9-1.1-5.4-3.4-7.4c-2.3-2-4.9-3-8-3c-3.3,0-6.1,1-8.5,2.9c-2.5,2-3.8,4.5-3.8,7.5v1.9h-8.6V788c0-4.8,2.2-8.8,6.5-11.9
			c4-2.8,8.8-4.3,14.4-4.3c5.3,0,9.9,1.5,13.9,4.4c4.1,3.1,6.1,7,6.1,11.8v28.6c0,1.6,0.6,2.9,1.8,4c1.1,1.1,2.4,1.6,4,1.6v7.6h-3.4
			c-2.2,0-4.3-0.6-6.1-1.8c-1.8-1.3-3.1-2.9-3.8-4.9c-1.8,2.6-4.2,4.5-7.4,5.8c-2.9,1.2-6.1,1.8-9.6,1.8c-5.8,0-10.4-1.5-13.8-4.4
			C1308.6,823.4,1306.9,819.5,1306.9,814.5z M1315.4,814.5c0,2.4,1.1,4.4,3.3,6c2,1.4,4.4,2.1,7.3,2.1c4.3,0,8.1-1.3,11.1-3.9
			c3.3-2.6,4.9-5.9,4.9-9.9l-0.1-7.6c-2.3,1.9-6.6,3.1-12.7,3.6l-2.4,0.1c-3.1,0.2-5.7,1.2-7.9,2.9
			C1316.6,809.7,1315.4,811.9,1315.4,814.5z"/>
		<path d="M1364.3,829.8v-55.2h8.5l0,5.8c1.5-2.6,3.7-4.5,6.6-5.9c2.7-1.2,5.8-1.8,9.1-1.8c5.9,0,10.9,2.2,15.1,6.5
			c4.2,4.3,6.2,9.4,6.2,15.4v35.2h-8.5v-35.2c0-3.8-1.4-7.1-4.1-9.8c-2.8-2.7-6.1-4-10-4c-3.9,0-7.3,1.3-10.1,4
			c-2.8,2.7-4.3,5.9-4.3,9.8v35.2H1364.3z"/>
		<path d="M1448.6,762.2v-8.5h57.1v8.5h-23.9v67.6h-9.5v-67.6H1448.6z"/>
		<path d="M1509,814.5c0-4.8,2.2-8.8,6.6-12c4-2.8,8.9-4.5,14.8-5c4.1-0.3,7.2-1,9.3-1.9c2.9-1.2,4.4-3.1,4.4-5.8
			c0-2.9-1.1-5.4-3.4-7.4c-2.3-2-4.9-3-8-3c-3.3,0-6.1,1-8.5,2.9c-2.5,2-3.8,4.5-3.8,7.5v1.9h-8.6V788c0-4.8,2.2-8.8,6.5-11.9
			c4-2.8,8.8-4.3,14.4-4.3c5.3,0,9.9,1.5,13.9,4.4c4.1,3.1,6.1,7,6.1,11.8v28.6c0,1.6,0.6,2.9,1.8,4c1.1,1.1,2.4,1.6,4,1.6v7.6h-3.4
			c-2.2,0-4.3-0.6-6.1-1.8c-1.8-1.3-3.1-2.9-3.8-4.9c-1.8,2.6-4.2,4.5-7.4,5.8c-2.9,1.2-6.1,1.8-9.6,1.8c-5.8,0-10.4-1.5-13.8-4.4
			C1510.8,823.4,1509,819.5,1509,814.5z M1517.6,814.5c0,2.4,1.1,4.4,3.3,6c2,1.4,4.4,2.1,7.3,2.1c4.3,0,8.1-1.3,11.1-3.9
			c3.3-2.6,4.9-5.9,4.9-9.9l-0.1-7.6c-2.3,1.9-6.6,3.1-12.7,3.6l-2.4,0.1c-3.1,0.2-5.7,1.2-7.9,2.9
			C1518.7,809.7,1517.6,811.9,1517.6,814.5z"/>
		<path d="M1561.1,829.8l19-28.6l-19-27.6h9.5l14.2,19.9l14.4-19.9h9.5l-19,27.6l19,28.6h-9.5l-14.4-20.9l-14.2,20.9H1561.1z"/>
		<path d="M1644.2,810.8c0-3.9,1.5-7.9,4.4-11.9c3-4,7.1-7.5,12.2-10.4c-2.9-3.8-5.1-7.3-6.6-10.6c-1.6-3.3-2.4-6.3-2.4-8.9
			c0-4.3,1.7-7.8,5.1-10.8c3.5-3,7.7-4.5,12.5-4.5c4.6,0,8.5,1.7,11.8,5c3.3,3.3,4.9,7.4,4.9,12.1c0,3.6-1.1,7.1-3.4,10.5
			c-2.3,3.4-5.5,6.3-9.4,8.5L1685,805c0.7-2.5,1-5.7,1-9.5h8.5c0,8-1.1,13.9-3.3,17.7l12.8,16.7h-11.4l-7.1-8.5
			c-2.1,2.9-4.8,5.2-8.3,6.9c-3.4,1.7-7.2,2.5-11.3,2.5c-6,0-11.1-2-15.4-5.9C1646.3,821,1644.2,816.3,1644.2,810.8z M1653.7,809.9
			c0,3.4,1.3,6.3,3.9,8.6c2.6,2.4,5.7,3.6,9.4,3.6c2.5,0,5-0.7,7.4-2.1c2.5-1.4,4.6-3.4,6.4-6l-15.2-19c-3.7,2.1-6.6,4.5-8.8,7.1
			C1654.7,804.8,1653.7,807.4,1653.7,809.9z M1661.2,770c0,1.6,0.6,3.5,1.8,5.8c1.1,2.3,2.7,4.8,4.9,7.5c2.7-1.5,4.8-3.4,6.4-5.6
			c1.5-2.3,2.3-4.5,2.3-6.8c0-2.5-0.7-4.6-2-6.4c-1.3-1.8-2.9-2.6-4.8-2.6c-2.3,0-4.3,0.8-6,2.4
			C1662.1,765.8,1661.2,767.7,1661.2,770z"/>
		<path d="M1737.9,829.8l24.8-76.2h12.3l24.8,76.2h-9.5l-7.6-22.8H1755l-7.6,22.8H1737.9z M1757.8,798.5h22l-11-32.9L1757.8,798.5z"
			/>
		<path d="M1804,801.3c0-8.9,2.3-16.1,6.8-21.4c4.5-5.3,10.5-8,18-8c6.6,0,12.1,1.9,16.4,5.8c4.3,3.8,6.7,8.8,7.3,15.2h-8.5
			c-0.3-4-1.9-7.2-4.6-9.6c-2.8-2.4-6.3-3.6-10.5-3.6c-4.9,0-8.9,2-11.8,6c-3,3.9-4.5,9.2-4.5,15.7c0,6.6,1.5,11.9,4.5,15.9
			c2.9,4,6.8,6,11.8,6c4.2,0,7.6-1.3,10.4-3.9c2.8-2.6,4.3-6.1,4.8-10.4h8.5c-0.6,6.6-3,11.9-7.4,15.8c-4.3,4.1-9.7,6.1-16.3,6.1
			c-7.5,0-13.5-2.7-18-8C1806.3,817.3,1804,810.2,1804,801.3z"/>
		<path d="M1858.2,801.3c0-8.9,2.3-16.1,6.8-21.4c4.5-5.3,10.5-8,18-8c6.6,0,12.1,1.9,16.4,5.8c4.3,3.8,6.7,8.8,7.3,15.2h-8.5
			c-0.3-4-1.9-7.2-4.6-9.6c-2.8-2.4-6.3-3.6-10.5-3.6c-4.9,0-8.9,2-11.8,6c-3,3.9-4.5,9.2-4.5,15.7c0,6.6,1.5,11.9,4.5,15.9
			c2.9,4,6.8,6,11.8,6c4.2,0,7.6-1.3,10.4-3.9c2.8-2.6,4.3-6.1,4.8-10.4h8.5c-0.6,6.6-3,11.9-7.4,15.8c-4.3,4.1-9.7,6.1-16.3,6.1
			c-7.5,0-13.5-2.7-18-8C1860.5,817.3,1858.2,810.2,1858.2,801.3z"/>
		<path d="M1912.5,801.3c0-8.9,2.3-16.1,7-21.4c4.7-5.3,10.9-8,18.6-8c7.7,0,14,2.7,18.7,8c4.7,5.3,7,12.5,7,21.4
			c0,8.9-2.3,16.1-7,21.4c-4.7,5.3-11,8-18.7,8c-7.7,0-14-2.7-18.6-8C1914.8,817.3,1912.5,810.2,1912.5,801.3z M1921,801.2
			c0,6.6,1.5,11.9,4.6,15.9c3.2,4,7.3,6,12.5,6c5.2,0,9.4-2,12.5-6c3.1-4,4.6-9.3,4.6-15.9c0-6.6-1.5-11.8-4.6-15.7
			c-3.2-4-7.3-6-12.5-6c-5.2,0-9.4,2-12.5,6C1922.5,789.4,1921,794.6,1921,801.2z"/>
		<path d="M1972.6,808v-34.3h8.5v33.2c0,4.3,1.2,8,3.6,11.1c2.6,3.3,5.8,5,9.8,5c4.3,0,7.8-1.6,10.8-4.7c2.9-3.2,4.4-7,4.4-11.4
			v-33.2h8.5v56.1h-8.5v-7.6c-1.6,2.8-4,5-7.3,6.5c-2.9,1.3-6.2,2-9.8,2c-5.8,0-10.6-2.3-14.4-6.9
			C1974.5,819.4,1972.6,814.1,1972.6,808z"/>
		<path d="M2031.2,829.8v-55.2h8.5l0,5.8c1.5-2.6,3.7-4.5,6.6-5.9c2.7-1.2,5.8-1.8,9.1-1.8c5.9,0,10.9,2.2,15.1,6.5
			c4.2,4.3,6.2,9.4,6.2,15.4v35.2h-8.5v-35.2c0-3.8-1.4-7.1-4.1-9.8c-2.8-2.7-6.1-4-10-4c-3.9,0-7.3,1.3-10.1,4
			c-2.8,2.7-4.3,5.9-4.3,9.8v35.2H2031.2z"/>
		<path d="M2090.7,773.7v-16.3h8.5v16.3h8.6v7.6h-8.6v36.2c0,1,0.4,1.9,1.1,2.6c0.8,0.8,1.6,1.1,2.6,1.1h4.9v8.5h-7.6
			c-2.6,0-4.8-0.9-6.8-2.8c-1.8-1.9-2.8-4.2-2.8-6.8v-39h-7.6v-7.6H2090.7z"/>
		<path d="M2116.2,762.2v-8.5h8.5v8.5H2116.2z M2116.2,829.8v-57.1h8.5v57.1H2116.2z"/>
		<path d="M2137.7,829.8v-55.2h8.5l0,5.8c1.5-2.6,3.7-4.5,6.6-5.9c2.7-1.2,5.8-1.8,9.1-1.8c5.9,0,10.9,2.2,15.1,6.5
			c4.2,4.3,6.2,9.4,6.2,15.4v35.2h-8.5v-35.2c0-3.8-1.4-7.1-4.1-9.8c-2.8-2.7-6.1-4-10-4c-3.9,0-7.3,1.3-10.1,4
			c-2.8,2.7-4.3,5.9-4.3,9.8v35.2H2137.7z"/>
		<path d="M2191.8,801.3c0-7.7,2.2-14.3,6.5-19.8c4.5-5.8,10.2-8.8,17.2-8.8c3.3,0,6.2,0.6,8.8,1.8c2.9,1.3,5.1,3.2,6.5,5.7v-5.8
			h8.5v55.4c0,5.7-2.5,10.3-7.4,13.9c-4.6,3.4-10.1,5.1-16.5,5.1c-5.8,0-10.9-1.4-15.1-4.1c-4.7-3.1-7.2-7.1-7.6-12.1h8.6
			c0.5,2.8,2.2,5.1,5.1,6.6c2.5,1.3,5.5,2,9,2c4.1,0,7.6-1,10.5-3c3.2-2.1,4.8-4.9,4.8-8.4l-0.1-7.6c-1.4,2.5-3.6,4.4-6.5,5.8
			c-2.6,1.3-5.5,1.9-8.7,1.9c-6.9,0-12.6-2.9-17.1-8.8C2193.9,815.5,2191.8,809,2191.8,801.3z M2200.3,801.2
			c0,5.6,1.3,10.4,3.9,14.4c2.8,4.4,6.6,6.5,11.3,6.5c4.7,0,8.5-2.2,11.4-6.5c2.6-4,3.9-8.8,3.9-14.4c0-5.6-1.3-10.4-3.9-14.3
			c-2.9-4.4-6.7-6.5-11.4-6.5c-4.7,0-8.4,2.2-11.3,6.5C2201.6,790.8,2200.3,795.6,2200.3,801.2z"/>
		<path d="M2284.8,829.8v-76.2h31.3c7.3,0,13.1,2,17.4,6.1c4.3,4,6.5,9.4,6.5,16.2c0,6.8-2.2,12.3-6.5,16.4
			c-4.3,4.1-10.1,6.1-17.4,6.1h-21.8v31.3H2284.8z M2294.3,790h21.8c4.3,0,7.8-1.3,10.5-3.8c2.6-2.6,3.9-6,3.9-10.2
			c0-4.1-1.3-7.5-3.9-10c-2.7-2.5-6.2-3.8-10.5-3.8h-21.8V790z"/>
		<path d="M2348.6,829.8v-56.1h8.5v9.9c1.3-3.4,3.5-6.1,6.8-8c3.1-1.9,6.6-2.9,10.4-2.9h3.8v8.5h-3.8c-4.8,0-8.9,1.9-12.3,5.8
			c-3.3,3.7-4.9,8.1-4.9,13.3v29.5H2348.6z"/>
		<path d="M2382.3,801.3c0-8.9,2.3-16.1,7-21.4c4.7-5.3,10.9-8,18.6-8s14,2.7,18.7,8c4.7,5.3,7,12.5,7,21.4c0,8.9-2.3,16.1-7,21.4
			c-4.7,5.3-11,8-18.7,8s-14-2.7-18.6-8C2384.6,817.3,2382.3,810.2,2382.3,801.3z M2390.8,801.2c0,6.6,1.5,11.9,4.6,15.9
			c3.2,4,7.3,6,12.5,6c5.2,0,9.4-2,12.5-6c3.1-4,4.6-9.3,4.6-15.9c0-6.6-1.5-11.8-4.6-15.7c-3.2-4-7.3-6-12.5-6c-5.2,0-9.4,2-12.5,6
			C2392.3,789.4,2390.8,794.6,2390.8,801.2z"/>
		<path d="M2438.1,782.2v-8.5h7.6V769c0-4.2,1.5-7.8,4.4-10.8c3-3,6.6-4.5,10.8-4.5h4.8v8.6h-3.8c-2.1,0-3.8,0.6-5.3,1.9
			c-1.6,1.3-2.4,2.8-2.4,4.8v4.8h11.4v8.5h-11.4v47.6h-8.5v-47.6H2438.1z"/>
		<path d="M2470.2,801.3c0-8.9,2.2-16.1,6.5-21.4c4.3-5.3,10.1-8,17.3-8c7.2,0,12.9,2.7,17.3,8c4.3,5.3,6.5,12.5,6.5,21.4v2.9h-39.1
			c0,5.7,1.4,10.3,4.1,13.7c2.8,3.5,6.6,5.2,11.1,5.2c4,0,7.3-1,9.9-3.1c2.6-2.1,4-4.8,4.4-8.2h8.5c-0.5,5.8-2.8,10.4-7,13.8
			c-4.1,3.4-9.4,5.1-15.8,5.1c-7.2,0-12.9-2.7-17.3-8C2472.4,817.3,2470.2,810.2,2470.2,801.3z M2478.7,796.5h30.4
			c-0.4-5.2-2-9.3-4.8-12.4c-2.8-3.1-6.2-4.6-10.4-4.6c-4.2,0-7.6,1.5-10.4,4.6C2480.8,787.2,2479.1,791.3,2478.7,796.5z"/>
		<path d="M2523.2,808.9h8.5c0,4,1.2,7.2,3.6,9.6c2.4,2.4,5.6,3.6,9.6,3.6c4.1,0,7.3-0.8,9.8-2.2c2.4-1.5,3.6-3.5,3.6-5.9
			c0-3.3-1.7-6-5.1-7.9c-2.8-1.6-6.5-2.6-11-3c-4.8-0.4-8.8-2.2-12-5.2c-3.4-3.2-5.1-7-5.1-11.4c0-4.7,1.8-8.5,5.3-11.4
			c3.4-2.8,8-4.2,13.8-4.2c6.3,0,11.4,1.8,15.2,5.3c3.8,3.4,5.8,8,5.8,13.8h-8.5c0-3.4-1.1-6.2-3.4-8.3c-2.3-2.1-5.3-3.1-9-3.1
			c-3.2,0-5.7,0.7-7.6,2.1c-1.9,1.5-2.9,3.5-2.9,5.9c0,2.9,1.5,5.1,4.6,6.6c2.3,1.3,5.6,2,9.7,2.4c5.2,0.4,9.6,2.2,13.2,5.3
			c3.8,3.3,5.7,7.2,5.7,11.9c0,5.2-1.9,9.3-5.7,12.4c-3.8,3.1-8.9,4.6-15.2,4.6c-6.9,0-12.4-1.9-16.5-5.6
			C2525.3,820.2,2523.2,815.2,2523.2,808.9z"/>
		<path d="M2572.3,808.9h8.5c0,4,1.2,7.2,3.6,9.6c2.4,2.4,5.6,3.6,9.6,3.6c4.1,0,7.3-0.8,9.8-2.2c2.4-1.5,3.6-3.5,3.6-5.9
			c0-3.3-1.7-6-5.1-7.9c-2.8-1.6-6.5-2.6-11-3c-4.8-0.4-8.8-2.2-12-5.2c-3.4-3.2-5.1-7-5.1-11.4c0-4.7,1.8-8.5,5.3-11.4
			c3.4-2.8,8-4.2,13.8-4.2c6.3,0,11.4,1.8,15.2,5.3c3.8,3.4,5.8,8,5.8,13.8h-8.5c0-3.4-1.1-6.2-3.4-8.3c-2.3-2.1-5.3-3.1-9-3.1
			c-3.2,0-5.7,0.7-7.6,2.1c-1.9,1.5-2.9,3.5-2.9,5.9c0,2.9,1.5,5.1,4.6,6.6c2.3,1.3,5.6,2,9.7,2.4c5.2,0.4,9.6,2.2,13.2,5.3
			c3.8,3.3,5.7,7.2,5.7,11.9c0,5.2-1.9,9.3-5.7,12.4c-3.8,3.1-8.9,4.6-15.2,4.6c-6.9,0-12.4-1.9-16.5-5.6
			C2574.4,820.2,2572.3,815.2,2572.3,808.9z"/>
		<path d="M2625.4,762.2v-8.5h8.5v8.5H2625.4z M2625.4,829.8v-57.1h8.5v57.1H2625.4z"/>
		<path d="M2643.8,801.3c0-8.9,2.3-16.1,7-21.4c4.7-5.3,10.9-8,18.6-8s14,2.7,18.7,8c4.7,5.3,7,12.5,7,21.4c0,8.9-2.3,16.1-7,21.4
			c-4.7,5.3-11,8-18.7,8s-14-2.7-18.6-8C2646.1,817.3,2643.8,810.2,2643.8,801.3z M2652.3,801.2c0,6.6,1.5,11.9,4.6,15.9
			c3.2,4,7.3,6,12.5,6c5.2,0,9.4-2,12.5-6c3.1-4,4.6-9.3,4.6-15.9c0-6.6-1.5-11.8-4.6-15.7c-3.2-4-7.3-6-12.5-6c-5.2,0-9.4,2-12.5,6
			C2653.8,789.4,2652.3,794.6,2652.3,801.2z"/>
		<path d="M2705,829.8v-55.2h8.5l0,5.8c1.5-2.6,3.7-4.5,6.6-5.9c2.7-1.2,5.8-1.8,9.1-1.8c5.9,0,10.9,2.2,15.1,6.5
			c4.2,4.3,6.2,9.4,6.2,15.4v35.2h-8.5v-35.2c0-3.8-1.4-7.1-4.1-9.8c-2.8-2.7-6.1-4-10-4c-3.9,0-7.3,1.3-10.1,4
			c-2.8,2.7-4.3,5.9-4.3,9.8v35.2H2705z"/>
		<path d="M2758.8,814.5c0-4.8,2.2-8.8,6.6-12c4-2.8,8.9-4.5,14.8-5c4.1-0.3,7.2-1,9.3-1.9c2.9-1.2,4.4-3.1,4.4-5.8
			c0-2.9-1.1-5.4-3.4-7.4c-2.3-2-4.9-3-8-3c-3.3,0-6.1,1-8.5,2.9c-2.5,2-3.8,4.5-3.8,7.5v1.9h-8.6V788c0-4.8,2.2-8.8,6.5-11.9
			c4-2.8,8.8-4.3,14.4-4.3c5.3,0,9.9,1.5,13.9,4.4c4.1,3.1,6.1,7,6.1,11.8v28.6c0,1.6,0.6,2.9,1.8,4c1.1,1.1,2.4,1.6,4,1.6v7.6h-3.4
			c-2.2,0-4.3-0.6-6.1-1.8c-1.8-1.3-3.1-2.9-3.8-4.9c-1.8,2.6-4.2,4.5-7.4,5.8c-2.9,1.2-6.1,1.8-9.6,1.8c-5.8,0-10.4-1.5-13.8-4.4
			C2760.5,823.4,2758.8,819.5,2758.8,814.5z M2767.3,814.5c0,2.4,1.1,4.4,3.3,6c2,1.4,4.4,2.1,7.3,2.1c4.3,0,8.1-1.3,11.1-3.9
			c3.3-2.6,4.9-5.9,4.9-9.9l-0.1-7.6c-2.3,1.9-6.6,3.1-12.7,3.6l-2.4,0.1c-3.1,0.2-5.7,1.2-7.9,2.9
			C2768.4,809.7,2767.3,811.9,2767.3,814.5z"/>
		<path d="M2816.2,829.8v-76.2h8.5v76.2H2816.2z"/>
		<path d="M2833.8,808.9h8.5c0,4,1.2,7.2,3.6,9.6c2.4,2.4,5.6,3.6,9.6,3.6c4.1,0,7.3-0.8,9.8-2.2c2.4-1.5,3.6-3.5,3.6-5.9
			c0-3.3-1.7-6-5.1-7.9c-2.8-1.6-6.5-2.6-11-3c-4.8-0.4-8.8-2.2-12-5.2c-3.4-3.2-5.1-7-5.1-11.4c0-4.7,1.8-8.5,5.3-11.4
			c3.4-2.8,8-4.2,13.8-4.2c6.3,0,11.4,1.8,15.2,5.3c3.8,3.4,5.8,8,5.8,13.8h-8.5c0-3.4-1.1-6.2-3.4-8.3c-2.3-2.1-5.3-3.1-9-3.1
			c-3.2,0-5.7,0.7-7.6,2.1c-1.9,1.5-2.9,3.5-2.9,5.9c0,2.9,1.5,5.1,4.6,6.6c2.3,1.3,5.6,2,9.7,2.4c5.2,0.4,9.6,2.2,13.2,5.3
			c3.8,3.3,5.7,7.2,5.7,11.9c0,5.2-1.9,9.3-5.7,12.4c-3.8,3.1-8.9,4.6-15.2,4.6c-6.9,0-12.4-1.9-16.5-5.6
			C2835.9,820.2,2833.8,815.2,2833.8,808.9z"/>
	</g>
</g>
<g id="Black_v2" class="st0">
	<g class="st9">
		<path d="M909.5,413.6c11.8,24.9,20.8,50.8,26.8,77.2c14.3,63,10.5,125.1-11.2,179.8c-21,53.1-57.9,97.2-106.6,127.5
			c-21,13.1-44,23.5-68.4,31c-25.2,7.7-52.1,12.3-79.8,13.6c-5.8,0.3-11.6,0.4-17.5,0.4c-33.4,0-67.3-4.6-100.9-13.8
			c-42.5-11.6-83.3-30-121.3-54.8c6.9,3.6,13.9,6.9,21,10.1c26.8,12.1,54.6,21.4,82.6,27.6c28.7,6.4,57.8,9.7,86.4,9.7
			c6.1,0,12.2-0.1,18.3-0.4c29.1-1.4,57.3-6.2,83.7-14.3c25.8-7.9,50.1-18.9,72.2-32.7c36.2-22.6,66-52,88.6-87.6
			c22.7-35.7,37.1-75.8,42.6-119.2c4.9-38.2,2.7-77.8-6.4-117.7C917,437.8,913.5,425.6,909.5,413.6 M837.3,296.3
			c35.5,46,61.7,98.8,74.6,155.5c9.1,40,10.9,78.6,6.2,115c-10.9,85.1-57.1,157-127.6,201c-42.7,26.6-94.2,43-152.1,45.8
			c-6,0.3-11.9,0.4-17.9,0.4c-114,0-225.9-52.7-305.8-135.2c58.7,75.9,142.9,133.1,235,158.3c33.6,9.2,68.2,14.1,103,14.1
			c5.9,0,11.9-0.1,17.8-0.4c57.9-2.8,109.5-19.2,152.1-45.8C923.3,742.2,974.6,622.6,944.1,489C927.6,416.3,889.2,350,837.3,296.3
			L837.3,296.3z"/>
	</g>
	<g class="st9">
		<path d="M465.4,156.8c33.4,0,67.3,4.6,100.9,13.8c42.5,11.6,83.3,30,121.3,54.8c-6.9-3.6-13.9-6.9-21-10.1
			c-26.8-12.1-54.6-21.4-82.6-27.6c-28.7-6.4-57.8-9.7-86.4-9.7c-6.1,0-12.2,0.1-18.3,0.4c-29.1,1.4-57.3,6.2-83.7,14.3
			c-25.8,7.9-50.1,18.9-72.2,32.7c-36.2,22.6-66,52-88.6,87.6c-22.7,35.7-37.1,75.8-42.6,119.2c-4.9,38.2-2.7,77.8,6.4,117.7
			c2.8,12.2,6.2,24.4,10.2,36.5c-11.8-24.9-20.8-50.8-26.8-77.2c-14.3-63-10.5-125.1,11.2-179.8c21-53.1,57.9-97.2,106.6-127.5
			c21-13.1,44-23.5,68.4-31c25.2-7.7,52.1-12.3,79.8-13.6C453.7,157,459.6,156.8,465.4,156.8 M465.4,148.8c-5.9,0-11.9,0.1-17.8,0.4
			c-57.9,2.8-109.5,19.2-152.1,45.8C194.9,257.8,143.7,377.4,174.1,511c16.6,72.7,54.9,139,106.8,192.7
			c-35.5-46-61.7-98.8-74.6-155.5c-9.1-40-10.9-78.6-6.2-115c10.9-85.1,57.1-157,127.6-201c42.7-26.6,94.2-43,152.1-45.8
			c6-0.3,11.9-0.4,17.9-0.4c114,0,225.9,52.7,305.8,135.2c-58.7-75.9-142.9-133.1-235-158.3C534.9,153.8,500.2,148.8,465.4,148.8
			L465.4,148.8z"/>
	</g>
	<g class="st9">
		<path d="M499.4,132c61.8,0,125.5,16.1,184.1,46.4c57.3,29.7,108.3,72.2,147.5,122.8c17.6,22.8,32.7,47.1,44.9,72.3
			c12.5,25.9,22,52.8,28.2,80.1c8.7,38.1,10.7,75.9,6.1,112.2c-5.2,41-18.8,78.9-40.3,112.6c-2.5,4-5.1,7.8-7.8,11.6
			c7.6-14.7,14-30.2,19-46.3c8.1-25.8,12.6-53.1,13.5-81c0.9-28.7-2-58.2-8.8-87.8c-6.5-28.4-16.4-56.5-29.4-83.5
			c-12.7-26.2-28.4-51.5-46.7-75.1c-29.8-38.6-65.8-72.2-106.8-99.9c-41.3-27.9-85.9-48.5-132.4-61.2
			c-34.9-9.5-70.3-14.4-105.1-14.4c-6.1,0-12.2,0.1-18.2,0.4c-16.3,0.8-32.2,2.6-47.8,5.5c25.9-8.2,53.5-13,82.4-14.4
			C487.6,132.1,493.5,132,499.4,132 M499.4,124c-6,0-11.9,0.1-17.9,0.4c-74.2,3.6-138,29.5-186,70.7c42.7-26.6,94.2-43,152.1-45.8
			c6-0.3,11.9-0.4,17.8-0.4c34.8,0,69.4,4.9,103,14.1c92.1,25.1,176.3,82.3,235,158.3c35.5,46,61.7,98.8,74.6,155.5
			c26.8,117.6-9.8,224.4-87.5,291.1c70.5-44,116.7-115.9,127.6-201c4.6-36.3,2.9-75-6.2-115c-12.9-56.7-39.1-109.5-74.6-155.5
			C757.2,192.7,629.7,124,499.4,124L499.4,124z"/>
	</g>
	<g class="st9">
		<path d="M256.1,310c-7.6,14.7-14,30.2-19,46.3c-8.1,25.8-12.6,53.1-13.5,81c-0.9,28.7,2,58.2,8.8,87.8
			c6.5,28.4,16.4,56.5,29.4,83.5c12.7,26.2,28.4,51.5,46.7,75.1c29.8,38.6,65.8,72.2,106.8,99.9c41.3,27.9,85.9,48.5,132.4,61.2
			c34.9,9.5,70.3,14.4,105.1,14.4c6.1,0,12.2-0.1,18.2-0.4c16.3-0.8,32.2-2.6,47.8-5.5c-25.9,8.2-53.5,13-82.4,14.4
			c-5.8,0.3-11.7,0.4-17.5,0.4c-61.8,0-125.5-16.1-184.1-46.4c-57.3-29.7-108.3-72.2-147.5-122.8c-17.6-22.8-32.7-47.1-44.9-72.3
			c-12.5-25.9-22-52.8-28.2-80.1c-8.7-38.1-10.7-75.9-6.1-112.2c5.2-41,18.8-78.9,40.3-112.6C250.8,317.6,253.4,313.8,256.1,310
			 M327.6,232.2c-70.5,44-116.7,115.9-127.6,201c-4.6,36.3-2.9,75,6.2,115c12.9,56.7,39.1,109.5,74.6,155.5
			C361,807.3,488.5,876,618.9,876c6,0,11.9-0.1,17.9-0.4c74.2-3.6,138-29.5,186-70.7c-42.7,26.6-94.2,43-152.1,45.8
			c-6,0.3-11.9,0.4-17.8,0.4c-34.8,0-69.4-4.9-103-14.1c-92.1-25.1-176.3-82.3-235-158.3c-35.5-46-61.7-98.8-74.6-155.5
			C213.4,405.7,249.9,298.9,327.6,232.2L327.6,232.2z"/>
	</g>
	<path class="st9" d="M540.4,772.5c-6.3,0-11.3-5.1-11.3-11.3V543.6c0-6.3,5.1-11.3,11.3-11.3c6.3,0,11.3,5.1,11.3,11.3v217.6
		C551.7,767.5,546.6,772.5,540.4,772.5z"/>
	<path class="st9" d="M580.9,757.4c-6.3,0-11.3-5.1-11.3-11.3V462.6c0-6.3,5.1-11.3,11.3-11.3c6.3,0,11.3,5.1,11.3,11.3v283.5
		C592.2,752.3,587.1,757.4,580.9,757.4z"/>
	<path class="st9" d="M621.4,752.9c-6.3,0-11.3-5.1-11.3-11.3V422.1c0-6.3,5.1-11.3,11.3-11.3c6.3,0,11.3,5.1,11.3,11.3v319.5
		C632.7,747.8,627.6,752.9,621.4,752.9z"/>
	<path class="st9" d="M661.9,716.9c-6.3,0-11.3-5.1-11.3-11.3v-243c0-6.3,5.1-11.3,11.3-11.3c6.3,0,11.3,5.1,11.3,11.3v243
		C673.2,711.8,668.1,716.9,661.9,716.9z"/>
	<path class="st9" d="M682.1,757.4c-2,0-4-0.5-5.8-1.6c-5.4-3.2-7.1-10.2-3.9-15.6L733.1,639c3.2-5.4,10.2-7.1,15.6-3.9
		c5.4,3.2,7.1,10.2,3.9,15.6l-60.7,101.3C689.7,755.5,686,757.4,682.1,757.4z"/>
	<path class="st9" d="M560.6,271.4H343c-6.3,0-11.3-5.1-11.3-11.3c0-6.3,5.1-11.3,11.3-11.3h217.6c6.3,0,11.3,5.1,11.3,11.3
		C572,266.3,566.9,271.4,560.6,271.4z"/>
	<path class="st9" d="M641.6,311.9H358.1c-6.3,0-11.3-5.1-11.3-11.3s5.1-11.3,11.3-11.3h283.5c6.3,0,11.3,5.1,11.3,11.3
		S647.9,311.9,641.6,311.9z"/>
	<path class="st9" d="M682.1,352.4H362.7c-6.3,0-11.3-5.1-11.3-11.3s5.1-11.3,11.3-11.3h319.5c6.3,0,11.3,5.1,11.3,11.3
		S688.4,352.4,682.1,352.4z"/>
	<path class="st9" d="M641.6,392.9h-243c-6.3,0-11.3-5.1-11.3-11.3s5.1-11.3,11.3-11.3h243c6.3,0,11.3,5.1,11.3,11.3
		S647.9,392.9,641.6,392.9z"/>
	<path class="st9" d="M459.4,473.9c-2,0-4-0.5-5.8-1.6l-101.2-60.7c-5.4-3.2-7.1-10.2-3.9-15.6c3.2-5.4,10.2-7.1,15.6-3.9
		l101.2,60.7c5.4,3.2,7.1,10.2,3.9,15.6C467,472,463.2,473.9,459.4,473.9z"/>
	<path class="st9" d="M2134.7,251.4h-408.4c-10.4,0-18.9,8.5-18.9,18.9c0,10.4,8.5,18.9,18.9,18.9h185.3v406.4
		c0,10.4,8.5,18.9,18.9,18.9c10.4,0,18.9-8.5,18.9-18.9V289.3h185.3c10.4,0,18.9-8.5,18.9-18.9
		C2153.6,259.9,2145.1,251.4,2134.7,251.4z"/>
	<path class="st9" d="M2343.4,241.8c-98.4,0-178.4,80-178.4,178.4v265.8c0,10.4,8.5,18.9,18.9,18.9s18.9-8.5,18.9-18.9V518.9H2484
		v167.2c0,10.4,8.5,18.9,18.9,18.9s18.9-8.5,18.9-18.9V420.2C2521.8,321.9,2441.8,241.8,2343.4,241.8z M2202.8,481.1v-60.8
		c0-77.5,63.1-140.6,140.6-140.6c77.5,0,140.6,63.1,140.6,140.6v60.8H2202.8z"/>
	<path class="st9" d="M2700.3,241.8H2575v444.2c0,10.4,8.5,18.9,18.9,18.9c10.4,0,18.9-8.5,18.9-18.9V279.7h87.4
		c77.5,0,140.6,63.1,140.6,140.6s-63.1,140.6-140.6,140.6c-10.4,0-18.9,8.5-18.9,18.9s8.5,18.9,18.9,18.9
		c98.4,0,178.4-80,178.4-178.4S2798.7,241.8,2700.3,241.8z"/>
	<path class="st9" d="M1513.8,198.3c-67.8,0-126.9,38-157.1,93.9c-28.4-61.1-90.3-103.5-161.9-103.5c-98.4,0-178.4,80-178.4,178.4
		v319c0,10.4,8.5,18.9,18.9,18.9c10.4,0,18.9-8.5,18.9-18.9v-319c0-77.5,63.1-140.6,140.6-140.6c77.5,0,140.6,63.1,140.6,140.6
		c0,0.8,0.1,1.6,0.2,2.3c-0.1,2.4-0.2,4.8-0.2,7.3v53.2c0,10.4,8.5,18.9,18.9,18.9c10.4,0,18.9-8.5,18.9-18.9v-53.2
		c0-77.5,63.1-140.6,140.6-140.6c77.5,0,140.6,63.1,140.6,140.6v319c0,10.4,8.5,18.9,18.9,18.9c10.4,0,18.9-8.5,18.9-18.9v-319
		C1692.2,278.3,1612.1,198.3,1513.8,198.3z"/>
	<g class="st9">
		<path d="M1017,829.8v-76.2h11.9l23.8,60l23.8-60h11.9v76.2h-9.5v-57.1l-22.9,57.1h-6.6l-22.8-57.1v57.1H1017z"/>
		<path d="M1101.4,762.2v-8.5h8.5v8.5H1101.4z M1101.4,829.8v-57.1h8.5v57.1H1101.4z"/>
		<path d="M1119.8,801.3c0-8.9,2.3-16.1,6.8-21.4c4.5-5.3,10.5-8,18-8c6.6,0,12.1,1.9,16.4,5.8c4.3,3.8,6.7,8.8,7.3,15.2h-8.5
			c-0.3-4-1.9-7.2-4.6-9.6c-2.8-2.4-6.3-3.6-10.5-3.6c-4.9,0-8.9,2-11.8,6c-3,3.9-4.5,9.2-4.5,15.7c0,6.6,1.5,11.9,4.5,15.9
			c2.9,4,6.8,6,11.8,6c4.2,0,7.6-1.3,10.4-3.9c2.8-2.6,4.3-6.1,4.8-10.4h8.5c-0.6,6.6-3,11.9-7.4,15.8c-4.3,4.1-9.7,6.1-16.3,6.1
			c-7.5,0-13.5-2.7-18-8C1122,817.3,1119.8,810.2,1119.8,801.3z"/>
		<path d="M1177.1,829.8v-76.2h8.5v26.6c2-2.3,4.3-4.1,6.9-5.4c2.7-1.4,5.5-2.1,8.4-2.1c5.3,0,9.7,1.9,13.4,5.6
			c3.8,3.7,5.6,8.1,5.6,13.4v38.1h-8.5v-38.2c0-2.9-1.2-5.4-3.5-7.5c-2.3-1.9-4.9-2.9-8-2.9c-3.8,0-8.2,3.1-13.3,9.3l-1,1.1v38.2
			H1177.1z"/>
		<path d="M1232,762.2v-8.5h8.5v8.5H1232z M1232,829.8v-57.1h8.5v57.1H1232z"/>
		<path d="M1250.2,801.3c0-7.7,2.2-14.3,6.5-19.8c4.5-5.8,10.2-8.8,17.2-8.8c3.3,0,6.2,0.6,8.8,1.8c2.9,1.3,5.1,3.2,6.5,5.7v-5.8
			h8.5v55.4c0,5.7-2.5,10.3-7.4,13.9c-4.6,3.4-10.1,5.1-16.5,5.1c-5.8,0-10.9-1.4-15.1-4.1c-4.7-3.1-7.2-7.1-7.6-12.1h8.6
			c0.5,2.8,2.2,5.1,5.1,6.6c2.5,1.3,5.5,2,9,2c4.1,0,7.6-1,10.5-3c3.2-2.1,4.8-4.9,4.8-8.4l-0.1-7.6c-1.4,2.5-3.6,4.4-6.5,5.8
			c-2.6,1.3-5.5,1.9-8.7,1.9c-6.9,0-12.6-2.9-17.1-8.8C1252.3,815.5,1250.2,809,1250.2,801.3z M1258.7,801.2
			c0,5.6,1.3,10.4,3.9,14.4c2.8,4.4,6.6,6.5,11.3,6.5c4.7,0,8.5-2.2,11.4-6.5c2.6-4,3.9-8.8,3.9-14.4c0-5.6-1.3-10.4-3.9-14.3
			c-2.9-4.4-6.7-6.5-11.4-6.5c-4.7,0-8.4,2.2-11.3,6.5C1260,790.8,1258.7,795.6,1258.7,801.2z"/>
		<path d="M1306.9,814.5c0-4.8,2.2-8.8,6.6-12c4-2.8,8.9-4.5,14.8-5c4.1-0.3,7.2-1,9.3-1.9c2.9-1.2,4.4-3.1,4.4-5.8
			c0-2.9-1.1-5.4-3.4-7.4c-2.3-2-4.9-3-8-3c-3.3,0-6.1,1-8.5,2.9c-2.5,2-3.8,4.5-3.8,7.5v1.9h-8.6V788c0-4.8,2.2-8.8,6.5-11.9
			c4-2.8,8.8-4.3,14.4-4.3c5.3,0,9.9,1.5,13.9,4.4c4.1,3.1,6.1,7,6.1,11.8v28.6c0,1.6,0.6,2.9,1.8,4c1.1,1.1,2.4,1.6,4,1.6v7.6h-3.4
			c-2.2,0-4.3-0.6-6.1-1.8c-1.8-1.3-3.1-2.9-3.8-4.9c-1.8,2.6-4.2,4.5-7.4,5.8c-2.9,1.2-6.1,1.8-9.6,1.8c-5.8,0-10.4-1.5-13.8-4.4
			C1308.6,823.4,1306.9,819.5,1306.9,814.5z M1315.4,814.5c0,2.4,1.1,4.4,3.3,6c2,1.4,4.4,2.1,7.3,2.1c4.3,0,8.1-1.3,11.1-3.9
			c3.3-2.6,4.9-5.9,4.9-9.9l-0.1-7.6c-2.3,1.9-6.6,3.1-12.7,3.6l-2.4,0.1c-3.1,0.2-5.7,1.2-7.9,2.9
			C1316.6,809.7,1315.4,811.9,1315.4,814.5z"/>
		<path d="M1364.3,829.8v-55.2h8.5l0,5.8c1.5-2.6,3.7-4.5,6.6-5.9c2.7-1.2,5.8-1.8,9.1-1.8c5.9,0,10.9,2.2,15.1,6.5
			c4.2,4.3,6.2,9.4,6.2,15.4v35.2h-8.5v-35.2c0-3.8-1.4-7.1-4.1-9.8c-2.8-2.7-6.1-4-10-4c-3.9,0-7.3,1.3-10.1,4
			c-2.8,2.7-4.3,5.9-4.3,9.8v35.2H1364.3z"/>
		<path d="M1448.6,762.2v-8.5h57.1v8.5h-23.9v67.6h-9.5v-67.6H1448.6z"/>
		<path d="M1509,814.5c0-4.8,2.2-8.8,6.6-12c4-2.8,8.9-4.5,14.8-5c4.1-0.3,7.2-1,9.3-1.9c2.9-1.2,4.4-3.1,4.4-5.8
			c0-2.9-1.1-5.4-3.4-7.4c-2.3-2-4.9-3-8-3c-3.3,0-6.1,1-8.5,2.9c-2.5,2-3.8,4.5-3.8,7.5v1.9h-8.6V788c0-4.8,2.2-8.8,6.5-11.9
			c4-2.8,8.8-4.3,14.4-4.3c5.3,0,9.9,1.5,13.9,4.4c4.1,3.1,6.1,7,6.1,11.8v28.6c0,1.6,0.6,2.9,1.8,4c1.1,1.1,2.4,1.6,4,1.6v7.6h-3.4
			c-2.2,0-4.3-0.6-6.1-1.8c-1.8-1.3-3.1-2.9-3.8-4.9c-1.8,2.6-4.2,4.5-7.4,5.8c-2.9,1.2-6.1,1.8-9.6,1.8c-5.8,0-10.4-1.5-13.8-4.4
			C1510.8,823.4,1509,819.5,1509,814.5z M1517.6,814.5c0,2.4,1.1,4.4,3.3,6c2,1.4,4.4,2.1,7.3,2.1c4.3,0,8.1-1.3,11.1-3.9
			c3.3-2.6,4.9-5.9,4.9-9.9l-0.1-7.6c-2.3,1.9-6.6,3.1-12.7,3.6l-2.4,0.1c-3.1,0.2-5.7,1.2-7.9,2.9
			C1518.7,809.7,1517.6,811.9,1517.6,814.5z"/>
		<path d="M1561.1,829.8l19-28.6l-19-27.6h9.5l14.2,19.9l14.4-19.9h9.5l-19,27.6l19,28.6h-9.5l-14.4-20.9l-14.2,20.9H1561.1z"/>
		<path d="M1644.2,810.8c0-3.9,1.5-7.9,4.4-11.9c3-4,7.1-7.5,12.2-10.4c-2.9-3.8-5.1-7.3-6.6-10.6c-1.6-3.3-2.4-6.3-2.4-8.9
			c0-4.3,1.7-7.8,5.1-10.8c3.5-3,7.7-4.5,12.5-4.5c4.6,0,8.5,1.7,11.8,5c3.3,3.3,4.9,7.4,4.9,12.1c0,3.6-1.1,7.1-3.4,10.5
			c-2.3,3.4-5.5,6.3-9.4,8.5L1685,805c0.7-2.5,1-5.7,1-9.5h8.5c0,8-1.1,13.9-3.3,17.7l12.8,16.7h-11.4l-7.1-8.5
			c-2.1,2.9-4.8,5.2-8.3,6.9c-3.4,1.7-7.2,2.5-11.3,2.5c-6,0-11.1-2-15.4-5.9C1646.3,821,1644.2,816.3,1644.2,810.8z M1653.7,809.9
			c0,3.4,1.3,6.3,3.9,8.6c2.6,2.4,5.7,3.6,9.4,3.6c2.5,0,5-0.7,7.4-2.1c2.5-1.4,4.6-3.4,6.4-6l-15.2-19c-3.7,2.1-6.6,4.5-8.8,7.1
			C1654.7,804.8,1653.7,807.4,1653.7,809.9z M1661.2,770c0,1.6,0.6,3.5,1.8,5.8c1.1,2.3,2.7,4.8,4.9,7.5c2.7-1.5,4.8-3.4,6.4-5.6
			c1.5-2.3,2.3-4.5,2.3-6.8c0-2.5-0.7-4.6-2-6.4c-1.3-1.8-2.9-2.6-4.8-2.6c-2.3,0-4.3,0.8-6,2.4
			C1662.1,765.8,1661.2,767.7,1661.2,770z"/>
		<path d="M1737.9,829.8l24.8-76.2h12.3l24.8,76.2h-9.5l-7.6-22.8H1755l-7.6,22.8H1737.9z M1757.8,798.5h22l-11-32.9L1757.8,798.5z"
			/>
		<path d="M1804,801.3c0-8.9,2.3-16.1,6.8-21.4c4.5-5.3,10.5-8,18-8c6.6,0,12.1,1.9,16.4,5.8c4.3,3.8,6.7,8.8,7.3,15.2h-8.5
			c-0.3-4-1.9-7.2-4.6-9.6c-2.8-2.4-6.3-3.6-10.5-3.6c-4.9,0-8.9,2-11.8,6c-3,3.9-4.5,9.2-4.5,15.7c0,6.6,1.5,11.9,4.5,15.9
			c2.9,4,6.8,6,11.8,6c4.2,0,7.6-1.3,10.4-3.9c2.8-2.6,4.3-6.1,4.8-10.4h8.5c-0.6,6.6-3,11.9-7.4,15.8c-4.3,4.1-9.7,6.1-16.3,6.1
			c-7.5,0-13.5-2.7-18-8C1806.3,817.3,1804,810.2,1804,801.3z"/>
		<path d="M1858.2,801.3c0-8.9,2.3-16.1,6.8-21.4c4.5-5.3,10.5-8,18-8c6.6,0,12.1,1.9,16.4,5.8c4.3,3.8,6.7,8.8,7.3,15.2h-8.5
			c-0.3-4-1.9-7.2-4.6-9.6c-2.8-2.4-6.3-3.6-10.5-3.6c-4.9,0-8.9,2-11.8,6c-3,3.9-4.5,9.2-4.5,15.7c0,6.6,1.5,11.9,4.5,15.9
			c2.9,4,6.8,6,11.8,6c4.2,0,7.6-1.3,10.4-3.9c2.8-2.6,4.3-6.1,4.8-10.4h8.5c-0.6,6.6-3,11.9-7.4,15.8c-4.3,4.1-9.7,6.1-16.3,6.1
			c-7.5,0-13.5-2.7-18-8C1860.5,817.3,1858.2,810.2,1858.2,801.3z"/>
		<path d="M1912.5,801.3c0-8.9,2.3-16.1,7-21.4c4.7-5.3,10.9-8,18.6-8c7.7,0,14,2.7,18.7,8c4.7,5.3,7,12.5,7,21.4
			c0,8.9-2.3,16.1-7,21.4c-4.7,5.3-11,8-18.7,8c-7.7,0-14-2.7-18.6-8C1914.8,817.3,1912.5,810.2,1912.5,801.3z M1921,801.2
			c0,6.6,1.5,11.9,4.6,15.9c3.2,4,7.3,6,12.5,6c5.2,0,9.4-2,12.5-6c3.1-4,4.6-9.3,4.6-15.9c0-6.6-1.5-11.8-4.6-15.7
			c-3.2-4-7.3-6-12.5-6c-5.2,0-9.4,2-12.5,6C1922.5,789.4,1921,794.6,1921,801.2z"/>
		<path d="M1972.6,808v-34.3h8.5v33.2c0,4.3,1.2,8,3.6,11.1c2.6,3.3,5.8,5,9.8,5c4.3,0,7.8-1.6,10.8-4.7c2.9-3.2,4.4-7,4.4-11.4
			v-33.2h8.5v56.1h-8.5v-7.6c-1.6,2.8-4,5-7.3,6.5c-2.9,1.3-6.2,2-9.8,2c-5.8,0-10.6-2.3-14.4-6.9
			C1974.5,819.4,1972.6,814.1,1972.6,808z"/>
		<path d="M2031.2,829.8v-55.2h8.5l0,5.8c1.5-2.6,3.7-4.5,6.6-5.9c2.7-1.2,5.8-1.8,9.1-1.8c5.9,0,10.9,2.2,15.1,6.5
			c4.2,4.3,6.2,9.4,6.2,15.4v35.2h-8.5v-35.2c0-3.8-1.4-7.1-4.1-9.8c-2.8-2.7-6.1-4-10-4c-3.9,0-7.3,1.3-10.1,4
			c-2.8,2.7-4.3,5.9-4.3,9.8v35.2H2031.2z"/>
		<path d="M2090.7,773.7v-16.3h8.5v16.3h8.6v7.6h-8.6v36.2c0,1,0.4,1.9,1.1,2.6c0.8,0.8,1.6,1.1,2.6,1.1h4.9v8.5h-7.6
			c-2.6,0-4.8-0.9-6.8-2.8c-1.8-1.9-2.8-4.2-2.8-6.8v-39h-7.6v-7.6H2090.7z"/>
		<path d="M2116.2,762.2v-8.5h8.5v8.5H2116.2z M2116.2,829.8v-57.1h8.5v57.1H2116.2z"/>
		<path d="M2137.7,829.8v-55.2h8.5l0,5.8c1.5-2.6,3.7-4.5,6.6-5.9c2.7-1.2,5.8-1.8,9.1-1.8c5.9,0,10.9,2.2,15.1,6.5
			c4.2,4.3,6.2,9.4,6.2,15.4v35.2h-8.5v-35.2c0-3.8-1.4-7.1-4.1-9.8c-2.8-2.7-6.1-4-10-4c-3.9,0-7.3,1.3-10.1,4
			c-2.8,2.7-4.3,5.9-4.3,9.8v35.2H2137.7z"/>
		<path d="M2191.8,801.3c0-7.7,2.2-14.3,6.5-19.8c4.5-5.8,10.2-8.8,17.2-8.8c3.3,0,6.2,0.6,8.8,1.8c2.9,1.3,5.1,3.2,6.5,5.7v-5.8
			h8.5v55.4c0,5.7-2.5,10.3-7.4,13.9c-4.6,3.4-10.1,5.1-16.5,5.1c-5.8,0-10.9-1.4-15.1-4.1c-4.7-3.1-7.2-7.1-7.6-12.1h8.6
			c0.5,2.8,2.2,5.1,5.1,6.6c2.5,1.3,5.5,2,9,2c4.1,0,7.6-1,10.5-3c3.2-2.1,4.8-4.9,4.8-8.4l-0.1-7.6c-1.4,2.5-3.6,4.4-6.5,5.8
			c-2.6,1.3-5.5,1.9-8.7,1.9c-6.9,0-12.6-2.9-17.1-8.8C2193.9,815.5,2191.8,809,2191.8,801.3z M2200.3,801.2
			c0,5.6,1.3,10.4,3.9,14.4c2.8,4.4,6.6,6.5,11.3,6.5c4.7,0,8.5-2.2,11.4-6.5c2.6-4,3.9-8.8,3.9-14.4c0-5.6-1.3-10.4-3.9-14.3
			c-2.9-4.4-6.7-6.5-11.4-6.5c-4.7,0-8.4,2.2-11.3,6.5C2201.6,790.8,2200.3,795.6,2200.3,801.2z"/>
		<path d="M2284.8,829.8v-76.2h31.3c7.3,0,13.1,2,17.4,6.1c4.3,4,6.5,9.4,6.5,16.2c0,6.8-2.2,12.3-6.5,16.4
			c-4.3,4.1-10.1,6.1-17.4,6.1h-21.8v31.3H2284.8z M2294.3,790h21.8c4.3,0,7.8-1.3,10.5-3.8c2.6-2.6,3.9-6,3.9-10.2
			c0-4.1-1.3-7.5-3.9-10c-2.7-2.5-6.2-3.8-10.5-3.8h-21.8V790z"/>
		<path d="M2348.6,829.8v-56.1h8.5v9.9c1.3-3.4,3.5-6.1,6.8-8c3.1-1.9,6.6-2.9,10.4-2.9h3.8v8.5h-3.8c-4.8,0-8.9,1.9-12.3,5.8
			c-3.3,3.7-4.9,8.1-4.9,13.3v29.5H2348.6z"/>
		<path d="M2382.3,801.3c0-8.9,2.3-16.1,7-21.4c4.7-5.3,10.9-8,18.6-8s14,2.7,18.7,8c4.7,5.3,7,12.5,7,21.4c0,8.9-2.3,16.1-7,21.4
			c-4.7,5.3-11,8-18.7,8s-14-2.7-18.6-8C2384.6,817.3,2382.3,810.2,2382.3,801.3z M2390.8,801.2c0,6.6,1.5,11.9,4.6,15.9
			c3.2,4,7.3,6,12.5,6c5.2,0,9.4-2,12.5-6c3.1-4,4.6-9.3,4.6-15.9c0-6.6-1.5-11.8-4.6-15.7c-3.2-4-7.3-6-12.5-6c-5.2,0-9.4,2-12.5,6
			C2392.3,789.4,2390.8,794.6,2390.8,801.2z"/>
		<path d="M2438.1,782.2v-8.5h7.6V769c0-4.2,1.5-7.8,4.4-10.8c3-3,6.6-4.5,10.8-4.5h4.8v8.6h-3.8c-2.1,0-3.8,0.6-5.3,1.9
			c-1.6,1.3-2.4,2.8-2.4,4.8v4.8h11.4v8.5h-11.4v47.6h-8.5v-47.6H2438.1z"/>
		<path d="M2470.2,801.3c0-8.9,2.2-16.1,6.5-21.4c4.3-5.3,10.1-8,17.3-8c7.2,0,12.9,2.7,17.3,8c4.3,5.3,6.5,12.5,6.5,21.4v2.9h-39.1
			c0,5.7,1.4,10.3,4.1,13.7c2.8,3.5,6.6,5.2,11.1,5.2c4,0,7.3-1,9.9-3.1c2.6-2.1,4-4.8,4.4-8.2h8.5c-0.5,5.8-2.8,10.4-7,13.8
			c-4.1,3.4-9.4,5.1-15.8,5.1c-7.2,0-12.9-2.7-17.3-8C2472.4,817.3,2470.2,810.2,2470.2,801.3z M2478.7,796.5h30.4
			c-0.4-5.2-2-9.3-4.8-12.4c-2.8-3.1-6.2-4.6-10.4-4.6c-4.2,0-7.6,1.5-10.4,4.6C2480.8,787.2,2479.1,791.3,2478.7,796.5z"/>
		<path d="M2523.2,808.9h8.5c0,4,1.2,7.2,3.6,9.6c2.4,2.4,5.6,3.6,9.6,3.6c4.1,0,7.3-0.8,9.8-2.2c2.4-1.5,3.6-3.5,3.6-5.9
			c0-3.3-1.7-6-5.1-7.9c-2.8-1.6-6.5-2.6-11-3c-4.8-0.4-8.8-2.2-12-5.2c-3.4-3.2-5.1-7-5.1-11.4c0-4.7,1.8-8.5,5.3-11.4
			c3.4-2.8,8-4.2,13.8-4.2c6.3,0,11.4,1.8,15.2,5.3c3.8,3.4,5.8,8,5.8,13.8h-8.5c0-3.4-1.1-6.2-3.4-8.3c-2.3-2.1-5.3-3.1-9-3.1
			c-3.2,0-5.7,0.7-7.6,2.1c-1.9,1.5-2.9,3.5-2.9,5.9c0,2.9,1.5,5.1,4.6,6.6c2.3,1.3,5.6,2,9.7,2.4c5.2,0.4,9.6,2.2,13.2,5.3
			c3.8,3.3,5.7,7.2,5.7,11.9c0,5.2-1.9,9.3-5.7,12.4c-3.8,3.1-8.9,4.6-15.2,4.6c-6.9,0-12.4-1.9-16.5-5.6
			C2525.3,820.2,2523.2,815.2,2523.2,808.9z"/>
		<path d="M2572.3,808.9h8.5c0,4,1.2,7.2,3.6,9.6c2.4,2.4,5.6,3.6,9.6,3.6c4.1,0,7.3-0.8,9.8-2.2c2.4-1.5,3.6-3.5,3.6-5.9
			c0-3.3-1.7-6-5.1-7.9c-2.8-1.6-6.5-2.6-11-3c-4.8-0.4-8.8-2.2-12-5.2c-3.4-3.2-5.1-7-5.1-11.4c0-4.7,1.8-8.5,5.3-11.4
			c3.4-2.8,8-4.2,13.8-4.2c6.3,0,11.4,1.8,15.2,5.3c3.8,3.4,5.8,8,5.8,13.8h-8.5c0-3.4-1.1-6.2-3.4-8.3c-2.3-2.1-5.3-3.1-9-3.1
			c-3.2,0-5.7,0.7-7.6,2.1c-1.9,1.5-2.9,3.5-2.9,5.9c0,2.9,1.5,5.1,4.6,6.6c2.3,1.3,5.6,2,9.7,2.4c5.2,0.4,9.6,2.2,13.2,5.3
			c3.8,3.3,5.7,7.2,5.7,11.9c0,5.2-1.9,9.3-5.7,12.4c-3.8,3.1-8.9,4.6-15.2,4.6c-6.9,0-12.4-1.9-16.5-5.6
			C2574.4,820.2,2572.3,815.2,2572.3,808.9z"/>
		<path d="M2625.4,762.2v-8.5h8.5v8.5H2625.4z M2625.4,829.8v-57.1h8.5v57.1H2625.4z"/>
		<path d="M2643.8,801.3c0-8.9,2.3-16.1,7-21.4c4.7-5.3,10.9-8,18.6-8s14,2.7,18.7,8c4.7,5.3,7,12.5,7,21.4c0,8.9-2.3,16.1-7,21.4
			c-4.7,5.3-11,8-18.7,8s-14-2.7-18.6-8C2646.1,817.3,2643.8,810.2,2643.8,801.3z M2652.3,801.2c0,6.6,1.5,11.9,4.6,15.9
			c3.2,4,7.3,6,12.5,6c5.2,0,9.4-2,12.5-6c3.1-4,4.6-9.3,4.6-15.9c0-6.6-1.5-11.8-4.6-15.7c-3.2-4-7.3-6-12.5-6c-5.2,0-9.4,2-12.5,6
			C2653.8,789.4,2652.3,794.6,2652.3,801.2z"/>
		<path d="M2705,829.8v-55.2h8.5l0,5.8c1.5-2.6,3.7-4.5,6.6-5.9c2.7-1.2,5.8-1.8,9.1-1.8c5.9,0,10.9,2.2,15.1,6.5
			c4.2,4.3,6.2,9.4,6.2,15.4v35.2h-8.5v-35.2c0-3.8-1.4-7.1-4.1-9.8c-2.8-2.7-6.1-4-10-4c-3.9,0-7.3,1.3-10.1,4
			c-2.8,2.7-4.3,5.9-4.3,9.8v35.2H2705z"/>
		<path d="M2758.8,814.5c0-4.8,2.2-8.8,6.6-12c4-2.8,8.9-4.5,14.8-5c4.1-0.3,7.2-1,9.3-1.9c2.9-1.2,4.4-3.1,4.4-5.8
			c0-2.9-1.1-5.4-3.4-7.4c-2.3-2-4.9-3-8-3c-3.3,0-6.1,1-8.5,2.9c-2.5,2-3.8,4.5-3.8,7.5v1.9h-8.6V788c0-4.8,2.2-8.8,6.5-11.9
			c4-2.8,8.8-4.3,14.4-4.3c5.3,0,9.9,1.5,13.9,4.4c4.1,3.1,6.1,7,6.1,11.8v28.6c0,1.6,0.6,2.9,1.8,4c1.1,1.1,2.4,1.6,4,1.6v7.6h-3.4
			c-2.2,0-4.3-0.6-6.1-1.8c-1.8-1.3-3.1-2.9-3.8-4.9c-1.8,2.6-4.2,4.5-7.4,5.8c-2.9,1.2-6.1,1.8-9.6,1.8c-5.8,0-10.4-1.5-13.8-4.4
			C2760.5,823.4,2758.8,819.5,2758.8,814.5z M2767.3,814.5c0,2.4,1.1,4.4,3.3,6c2,1.4,4.4,2.1,7.3,2.1c4.3,0,8.1-1.3,11.1-3.9
			c3.3-2.6,4.9-5.9,4.9-9.9l-0.1-7.6c-2.3,1.9-6.6,3.1-12.7,3.6l-2.4,0.1c-3.1,0.2-5.7,1.2-7.9,2.9
			C2768.4,809.7,2767.3,811.9,2767.3,814.5z"/>
		<path d="M2816.2,829.8v-76.2h8.5v76.2H2816.2z"/>
		<path d="M2833.8,808.9h8.5c0,4,1.2,7.2,3.6,9.6c2.4,2.4,5.6,3.6,9.6,3.6c4.1,0,7.3-0.8,9.8-2.2c2.4-1.5,3.6-3.5,3.6-5.9
			c0-3.3-1.7-6-5.1-7.9c-2.8-1.6-6.5-2.6-11-3c-4.8-0.4-8.8-2.2-12-5.2c-3.4-3.2-5.1-7-5.1-11.4c0-4.7,1.8-8.5,5.3-11.4
			c3.4-2.8,8-4.2,13.8-4.2c6.3,0,11.4,1.8,15.2,5.3c3.8,3.4,5.8,8,5.8,13.8h-8.5c0-3.4-1.1-6.2-3.4-8.3c-2.3-2.1-5.3-3.1-9-3.1
			c-3.2,0-5.7,0.7-7.6,2.1c-1.9,1.5-2.9,3.5-2.9,5.9c0,2.9,1.5,5.1,4.6,6.6c2.3,1.3,5.6,2,9.7,2.4c5.2,0.4,9.6,2.2,13.2,5.3
			c3.8,3.3,5.7,7.2,5.7,11.9c0,5.2-1.9,9.3-5.7,12.4c-3.8,3.1-8.9,4.6-15.2,4.6c-6.9,0-12.4-1.9-16.5-5.6
			C2835.9,820.2,2833.8,815.2,2833.8,808.9z"/>
	</g>
</g>
<g id="Layer_9" class="st0">
	<rect x="37.8" y="166.9" class="st33" width="2943.3" height="732"/>
	<text transform="matrix(1 0 0 1 296.0508 816.8926)" class="st4 st34 st35">MTAP</text>
	<path class="st4" d="M0,130.8v798.1h3020.1V130.8H0z M2744,703.8c0,54.5-44.6,99-99,99H298.8c-54.5,0-99-44.6-99-99V334.9
		c0-54.5,44.6-99,99-99H2645c54.5,0,99,44.6,99,99V703.8z"/>
</g>
</svg>
