<svg id="Layer_8" data-name="Layer 8" xmlns="http://www.w3.org/2000/svg" viewBox="0 0 3044.07 1000">
  <defs>
    <style>
      .cls-1 {
        fill: #d16661;
      }

      .cls-2 {
        fill: #a43a33;
      }

      .cls-3 {
        fill: #7b2c26;
      }

      .cls-4 {
        fill: #782b25;
      }

      .cls-5 {
        fill: #b44038;
      }

      .cls-6 {
        fill: #f1554b;
      }

      .cls-7 {
        fill: #f3776f;
      }

      .cls-8 {
        fill: #f69993;
      }

      .cls-9 {
        fill: #a03a3a;
      }

      .cls-10 {
        fill: #b74646;
      }

      .cls-11 {
        fill: #d15454;
      }

      .cls-12 {
        fill: #ea6868;
      }

      .cls-13 {
        fill: #112156;
      }

      .cls-14 {
        fill: none;
      }
    </style>
  </defs>
  <title>Full Logo</title>
  <path class="cls-1" d="M944.13,489c-16.56-72.69-54.93-139-106.84-192.66,35.54,46,61.73,98.8,74.65,155.51,9.1,40,10.87,78.65,6.22,115-10.88,85.09-57.12,157-127.58,201-42.66,26.62-94.2,43-152.13,45.82-120.15,5.86-239.64-47.92-323.64-134.77,58.68,75.92,142.88,133.12,235,158.26a387.25,387.25,0,0,0,120.84,13.65c57.93-2.82,109.46-19.19,152.13-45.81C923.28,742.19,974.56,622.57,944.13,489Z"/>
  <path class="cls-2" d="M568.42,162.93a387.25,387.25,0,0,0-120.84-13.65c-57.92,2.82-109.46,19.19-152.13,45.81C194.94,257.81,143.66,377.43,174.1,511,190.65,583.72,229,650,280.93,703.69c-35.54-46-61.73-98.8-74.65-155.51-9.1-40-10.87-78.65-6.22-115,10.89-85.09,57.13-157,127.58-201,42.67-26.62,94.2-43,152.13-45.82,120.15-5.86,239.65,47.92,323.65,134.77C744.73,245.27,660.53,188.07,568.42,162.93Z"/>
  <path class="cls-3" d="M911.94,451.82C899,395.11,872.83,342.29,837.29,296.31,753.57,188,617.93,117.74,481.46,124.4c-74.25,3.62-138,29.5-186,70.69,42.67-26.62,94.21-43,152.13-45.81a387.25,387.25,0,0,1,120.84,13.65c92.11,25.14,176.31,82.34,235,158.26,35.54,46,61.73,98.8,74.64,155.51,26.8,117.63-9.76,224.4-87.48,291.06,70.46-44,116.7-115.89,127.58-201C922.81,530.47,921,491.78,911.94,451.82Z"/>
  <path class="cls-3" d="M670.64,850.72A387.25,387.25,0,0,1,549.8,837.07c-92.11-25.14-176.31-82.34-235-158.26-35.54-46-61.73-98.8-74.65-155.51-26.79-117.63,9.76-224.4,87.48-291.06-70.45,44-116.69,115.89-127.58,201-4.65,36.31-2.88,75,6.22,115,12.92,56.71,39.11,109.53,74.65,155.51C364.65,812,500.3,882.26,636.76,875.6c74.25-3.62,138-29.5,186-70.69C780.1,831.53,728.57,847.9,670.64,850.72Z"/>
  <path class="cls-4" d="M540.37,772.55A11.35,11.35,0,0,1,529,761.2V543.57a11.35,11.35,0,1,1,22.69,0V761.2A11.35,11.35,0,0,1,540.37,772.55Z"/>
  <path class="cls-5" d="M580.87,757.42a11.35,11.35,0,0,1-11.35-11.35V462.57a11.35,11.35,0,1,1,22.69,0v283.5A11.35,11.35,0,0,1,580.87,757.42Z"/>
  <path class="cls-6" d="M621.37,752.88A11.35,11.35,0,0,1,610,741.53V422.07a11.35,11.35,0,1,1,22.69,0V741.53A11.35,11.35,0,0,1,621.37,752.88Z"/>
  <path class="cls-7" d="M661.87,716.91a11.35,11.35,0,0,1-11.35-11.34v-243a11.35,11.35,0,1,1,22.69,0v243A11.34,11.34,0,0,1,661.87,716.91Z"/>
  <path class="cls-8" d="M682.1,757.42a11.36,11.36,0,0,1-9.72-17.19L733.13,639a11.35,11.35,0,0,1,19.47,11.68L691.85,751.91A11.36,11.36,0,0,1,682.1,757.42Z"/>
  <path class="cls-3" d="M560.62,271.41H343a11.35,11.35,0,0,1,0-22.69H560.62a11.35,11.35,0,0,1,0,22.69Z"/>
  <path class="cls-9" d="M641.62,311.91H358.11a11.35,11.35,0,0,1,0-22.69H641.62a11.35,11.35,0,0,1,0,22.69Z"/>
  <path class="cls-10" d="M682.12,352.41H362.65a11.35,11.35,0,0,1,0-22.69H682.12a11.35,11.35,0,0,1,0,22.69Z"/>
  <path class="cls-11" d="M641.62,392.91h-243a11.35,11.35,0,0,1,0-22.69h243a11.35,11.35,0,0,1,0,22.69Z"/>
  <path class="cls-12" d="M459.35,473.92a11.33,11.33,0,0,1-5.82-1.62L352.28,411.55A11.35,11.35,0,1,1,364,392.09L465.2,452.84a11.35,11.35,0,0,1-5.85,21.08Z"/>
  <path class="cls-13" d="M2134.7,251.44H1726.29a18.91,18.91,0,1,0,0,37.82h185.29V695.69a18.92,18.92,0,0,0,37.83,0V289.26H2134.7a18.91,18.91,0,1,0,0-37.82Z"/>
  <g>
    <path class="cls-14" d="M2343.38,279.66c-77.52,0-140.59,63.07-140.59,140.59v60.84H2484V420.25C2484,342.73,2420.9,279.66,2343.38,279.66Z"/>
    <path class="cls-13" d="M2343.38,241.83c-98.38,0-178.41,80-178.41,178.42V686.08a18.91,18.91,0,1,0,37.82,0V518.91H2484V686.08a18.92,18.92,0,1,0,37.83,0V420.25C2521.8,321.87,2441.76,241.83,2343.38,241.83ZM2202.79,481.09V420.25c0-77.52,63.07-140.59,140.59-140.59S2484,342.73,2484,420.25v60.84Z"/>
  </g>
  <path class="cls-13" d="M2700.29,241.83H2575V686.08a18.92,18.92,0,1,0,37.83,0V279.66h87.42c77.52,0,140.58,63.07,140.58,140.59s-63.06,140.59-140.58,140.59a18.91,18.91,0,1,0,0,37.82c98.37,0,178.41-80,178.41-178.41S2798.66,241.83,2700.29,241.83Z"/>
  <path class="cls-13" d="M1513.75,198.27a178.55,178.55,0,0,0-157.09,93.91c-28.37-61.06-90.27-103.51-161.91-103.51-98.38,0-178.41,80-178.41,178.41v319a18.91,18.91,0,1,0,37.82,0v-319c0-77.52,63.07-140.59,140.59-140.59s140.59,63.07,140.59,140.59a17.91,17.91,0,0,0,.16,2.34c-.1,2.41-.16,4.83-.16,7.26v53.17a18.92,18.92,0,0,0,37.83,0V376.68c0-77.52,63.06-140.59,140.58-140.59s140.59,63.07,140.59,140.59v319a18.92,18.92,0,0,0,37.83,0v-319C1692.17,278.3,1612.13,198.27,1513.75,198.27Z"/>
  <g>
    <path class="cls-3" d="M1017,829.82V753.67h11.9l23.8,60,23.79-60h11.9v76.15h-9.52V772.71l-22.92,57.11h-6.64l-22.79-57.11v57.11Z"/>
    <path class="cls-3" d="M1101.37,762.19v-8.52h8.52v8.52Zm0,67.63V772.71h8.52v57.11Z"/>
    <path class="cls-3" d="M1119.78,801.27q0-13.41,6.76-21.42t18-8q9.89,0,16.41,5.77t7.26,15.15h-8.52a13.81,13.81,0,0,0-4.63-9.64,15.36,15.36,0,0,0-10.52-3.63,13.86,13.86,0,0,0-11.78,6q-4.5,5.87-4.5,15.74t4.5,15.86a13.88,13.88,0,0,0,11.78,6,14.56,14.56,0,0,0,10.39-3.88,15.76,15.76,0,0,0,4.76-10.4h8.52q-.88,9.9-7.39,15.81-6.39,6.12-16.28,6.11-11.28,0-18-8T1119.78,801.27Z"/>
    <path class="cls-3" d="M1177.14,829.82V753.67h8.52v26.57a22.81,22.81,0,0,1,6.89-5.43,17.81,17.81,0,0,1,8.39-2.1,19.26,19.26,0,0,1,19,19v38.07h-8.52V791.65a9.75,9.75,0,0,0-3.51-7.53,11.9,11.9,0,0,0-8-2.89q-5.64,0-13.28,9.29l-1,1.13v38.17Z"/>
    <path class="cls-3" d="M1232,762.19v-8.52h8.52v8.52Zm0,67.63V772.71h8.52v57.11Z"/>
    <path class="cls-3" d="M1250.16,801.27a31,31,0,0,1,6.51-19.79q6.76-8.78,17.16-8.77a20.19,20.19,0,0,1,8.77,1.85,13.75,13.75,0,0,1,6.51,5.67v-5.76h8.52v55.35q0,8.52-7.36,13.91a29.35,29.35,0,0,1-31.59,1q-7-4.63-7.64-12.15h8.64a9.24,9.24,0,0,0,5.14,6.64,19,19,0,0,0,9,2,18.17,18.17,0,0,0,10.52-3,9.61,9.61,0,0,0,4.76-8.4l-.1-7.64a13.77,13.77,0,0,1-6.49,5.77,19.85,19.85,0,0,1-8.75,1.87q-10.37,0-17.11-8.76A31.07,31.07,0,0,1,1250.16,801.27Zm8.52-.06a26.08,26.08,0,0,0,3.88,14.44q4.26,6.54,11.27,6.53t11.4-6.53a26.08,26.08,0,0,0,3.88-14.44,25.49,25.49,0,0,0-3.88-14.33q-4.38-6.52-11.4-6.53t-11.27,6.53A25.49,25.49,0,0,0,1258.68,801.21Z"/>
    <path class="cls-3" d="M1306.9,814.54q0-7.26,6.63-12a29.42,29.42,0,0,1,14.78-5,30,30,0,0,0,9.27-1.88c2.92-1.17,4.39-3.09,4.39-5.76a9.5,9.5,0,0,0-3.39-7.39,11.66,11.66,0,0,0-8-3,13.3,13.3,0,0,0-8.52,2.88,9.25,9.25,0,0,0-3.76,7.51v1.88h-8.64V788q0-7.26,6.51-11.9a24.21,24.21,0,0,1,14.36-4.26,22.51,22.51,0,0,1,13.85,4.39,14.19,14.19,0,0,1,6.11,11.77v28.56a5.26,5.26,0,0,0,1.76,4,5.45,5.45,0,0,0,4,1.62v7.64h-3.39a11,11,0,0,1-6.08-1.75,10,10,0,0,1-3.82-4.88,15.57,15.57,0,0,1-7.39,5.76,25.75,25.75,0,0,1-9.64,1.75q-8.64,0-13.77-4.38A14.53,14.53,0,0,1,1306.9,814.54Zm8.51,0a7.19,7.19,0,0,0,3.26,6,12.21,12.21,0,0,0,7.26,2.13,16.78,16.78,0,0,0,11.15-3.89,12.08,12.08,0,0,0,4.89-9.89l-.1-7.64q-3.49,2.88-12.73,3.63l-2.37.13a14.45,14.45,0,0,0-7.86,2.88A8,8,0,0,0,1315.41,814.54Z"/>
    <path class="cls-3" d="M1364.26,829.82V774.59h8.52l0,5.76a14.31,14.31,0,0,1,6.63-5.89,23.15,23.15,0,0,1,9.11-1.75,20.2,20.2,0,0,1,15.12,6.51,21.26,21.26,0,0,1,6.24,15.41v35.19h-8.52V794.63a13.07,13.07,0,0,0-4.13-9.77,13.87,13.87,0,0,0-10-4,14.28,14.28,0,0,0-10.14,4,12.91,12.91,0,0,0-4.26,9.77v35.19Z"/>
    <path class="cls-3" d="M1448.55,762.19v-8.52h57.11v8.52h-23.92v67.63h-9.52V762.19Z"/>
    <path class="cls-3" d="M1509.05,814.54q0-7.26,6.63-12a29.42,29.42,0,0,1,14.78-5,30.1,30.1,0,0,0,9.27-1.88c2.92-1.17,4.39-3.09,4.39-5.76a9.5,9.5,0,0,0-3.39-7.39,11.66,11.66,0,0,0-8-3,13.3,13.3,0,0,0-8.52,2.88,9.25,9.25,0,0,0-3.76,7.51v1.88h-8.64V788q0-7.26,6.51-11.9a24.2,24.2,0,0,1,14.35-4.26,22.52,22.52,0,0,1,13.86,4.39,14.19,14.19,0,0,1,6.11,11.77v28.56a5.26,5.26,0,0,0,1.76,4,5.44,5.44,0,0,0,4,1.62v7.64H1555a11,11,0,0,1-6.08-1.75,10.08,10.08,0,0,1-3.83-4.88,15.49,15.49,0,0,1-7.38,5.76,25.75,25.75,0,0,1-9.64,1.75q-8.64,0-13.77-4.38A14.53,14.53,0,0,1,1509.05,814.54Zm8.51,0a7.19,7.19,0,0,0,3.26,6,12.21,12.21,0,0,0,7.26,2.13,16.78,16.78,0,0,0,11.15-3.89,12.08,12.08,0,0,0,4.89-9.89l-.1-7.64q-3.49,2.88-12.73,3.63l-2.37.13a14.45,14.45,0,0,0-7.86,2.88A8,8,0,0,0,1517.56,814.54Z"/>
    <path class="cls-3" d="M1561.15,829.82l19-28.55-19-27.56h9.52l14.15,19.92,14.4-19.92h9.52l-19,27.56,19,28.55h-9.52l-14.4-20.91-14.15,20.91Z"/>
    <path class="cls-3" d="M1644.19,810.79q0-5.89,4.38-11.9a39.46,39.46,0,0,1,12.15-10.4,53,53,0,0,1-6.64-10.64,21.15,21.15,0,0,1-2.38-8.9,13.64,13.64,0,0,1,5.14-10.77,18.63,18.63,0,0,1,12.52-4.51,15.87,15.87,0,0,1,11.77,5,16.75,16.75,0,0,1,4.89,12.15,18.94,18.94,0,0,1-3.38,10.52,28,28,0,0,1-9.4,8.52L1685,805a38.18,38.18,0,0,0,1-9.52h8.52q0,12-3.26,17.66l12.77,16.65h-11.39l-7.14-8.51a21.65,21.65,0,0,1-8.27,6.89,25.34,25.34,0,0,1-11.27,2.5,21.92,21.92,0,0,1-15.41-5.89A18.18,18.18,0,0,1,1644.19,810.79Zm9.52-.88a11.17,11.17,0,0,0,3.88,8.64,13.2,13.2,0,0,0,9.39,3.63,14.43,14.43,0,0,0,7.39-2.12,19.06,19.06,0,0,0,6.39-6l-15.16-19a30.46,30.46,0,0,0-8.76,7.13Q1653.71,806.16,1653.71,809.91Zm7.51-39.95a13.08,13.08,0,0,0,1.75,5.76,42.16,42.16,0,0,0,4.89,7.51,19.16,19.16,0,0,0,6.39-5.63,12.16,12.16,0,0,0,2.25-6.77,10.3,10.3,0,0,0-2-6.39,5.89,5.89,0,0,0-4.76-2.63,8.43,8.43,0,0,0-6,2.39A7.63,7.63,0,0,0,1661.22,770Z"/>
    <path class="cls-3" d="M1737.87,829.82l24.8-76.15h12.27l24.8,76.15h-9.52L1782.58,807H1755l-7.64,22.79Zm19.92-31.31h22l-11-32.94Z"/>
    <path class="cls-3" d="M1804,801.27q0-13.41,6.76-21.42t18-8q9.89,0,16.41,5.77t7.26,15.15H1844a13.77,13.77,0,0,0-4.63-9.64,15.36,15.36,0,0,0-10.52-3.63,13.83,13.83,0,0,0-11.77,6q-4.52,5.87-4.51,15.74t4.51,15.86a13.85,13.85,0,0,0,11.77,6,14.56,14.56,0,0,0,10.39-3.88,15.71,15.71,0,0,0,4.76-10.4h8.52q-.87,9.9-7.39,15.81-6.39,6.12-16.28,6.11-11.28,0-18-8T1804,801.27Z"/>
    <path class="cls-3" d="M1858.23,801.27q0-13.41,6.77-21.42t18-8q9.9,0,16.41,5.77t7.26,15.15h-8.51a13.82,13.82,0,0,0-4.64-9.64,15.34,15.34,0,0,0-10.52-3.63,13.83,13.83,0,0,0-11.77,6q-4.52,5.87-4.51,15.74t4.51,15.86a13.85,13.85,0,0,0,11.77,6,14.59,14.59,0,0,0,10.4-3.88,15.8,15.8,0,0,0,4.76-10.4h8.51q-.87,9.9-7.39,15.81-6.37,6.12-16.28,6.11-11.27,0-18-8T1858.23,801.27Z"/>
    <path class="cls-3" d="M1912.47,801.27q0-13.41,7-21.42t18.62-8q11.63,0,18.74,8t7,21.42q0,13.4-7,21.42t-18.74,8q-11.62,0-18.62-8T1912.47,801.27Zm8.51-.06q0,9.85,4.64,15.86a16.09,16.09,0,0,0,25.05,0q4.63-6,4.63-15.86t-4.63-15.74a16.09,16.09,0,0,0-25.05,0Q1921,791.34,1921,801.21Z"/>
    <path class="cls-3" d="M1972.58,808V773.71h8.52V807a17.43,17.43,0,0,0,3.63,11.11,11.88,11.88,0,0,0,9.77,5,14.1,14.1,0,0,0,10.78-4.75,16.16,16.16,0,0,0,4.38-11.36V773.71h8.52v56.11h-8.52v-7.64a15.48,15.48,0,0,1-7.27,6.52,23.31,23.31,0,0,1-9.77,2,18,18,0,0,1-14.4-6.89A23.56,23.56,0,0,1,1972.58,808Z"/>
    <path class="cls-3" d="M2031.2,829.82V774.59h8.52l0,5.76a14.33,14.33,0,0,1,6.62-5.89,23.24,23.24,0,0,1,9.12-1.75,20.2,20.2,0,0,1,15.12,6.51,21.26,21.26,0,0,1,6.24,15.41v35.19h-8.52V794.63a13.07,13.07,0,0,0-4.13-9.77,13.87,13.87,0,0,0-10-4,14.28,14.28,0,0,0-10.14,4,12.91,12.91,0,0,0-4.26,9.77v35.19Z"/>
    <path class="cls-3" d="M2090.69,773.71V757.43h8.52v16.28h8.64v7.64h-8.64v36.2a3.86,3.86,0,0,0,3.76,3.76h4.88v8.51h-7.64a9.41,9.41,0,0,1-9.52-9.51v-39h-7.64v-7.64Z"/>
    <path class="cls-3" d="M2116.24,762.19v-8.52h8.52v8.52Zm0,67.63V772.71h8.52v57.11Z"/>
    <path class="cls-3" d="M2137.66,829.82V774.59h8.52l0,5.76a14.33,14.33,0,0,1,6.62-5.89,23.24,23.24,0,0,1,9.12-1.75,20.2,20.2,0,0,1,15.12,6.51,21.26,21.26,0,0,1,6.24,15.41v35.19h-8.52V794.63a13.07,13.07,0,0,0-4.13-9.77,13.89,13.89,0,0,0-10-4,14.31,14.31,0,0,0-10.15,4,12.93,12.93,0,0,0-4.25,9.77v35.19Z"/>
    <path class="cls-3" d="M2191.77,801.27a31,31,0,0,1,6.51-19.79q6.76-8.78,17.16-8.77a20.14,20.14,0,0,1,8.76,1.85,13.72,13.72,0,0,1,6.52,5.67v-5.76h8.52v55.35q0,8.52-7.37,13.91a26.76,26.76,0,0,1-16.48,5.13,27.1,27.1,0,0,1-15.11-4.13q-7-4.63-7.64-12.15h8.64a9.29,9.29,0,0,0,5.14,6.64,19,19,0,0,0,9,2,18.19,18.19,0,0,0,10.52-3,9.63,9.63,0,0,0,4.76-8.4l-.1-7.64a13.85,13.85,0,0,1-6.5,5.77,19.82,19.82,0,0,1-8.75,1.87q-10.36,0-17.11-8.76A31.06,31.06,0,0,1,2191.77,801.27Zm8.51-.06a26.08,26.08,0,0,0,3.89,14.44q4.24,6.54,11.27,6.53t11.4-6.53a26.16,26.16,0,0,0,3.88-14.44,25.57,25.57,0,0,0-3.88-14.33q-4.4-6.52-11.4-6.53t-11.27,6.53A25.5,25.5,0,0,0,2200.28,801.21Z"/>
    <path class="cls-3" d="M2284.82,829.82V753.67h31.32q10.89,0,17.41,6.14t6.51,16.16q0,10.28-6.51,16.41t-17.41,6.13h-21.8v31.31Zm9.52-39.82h21.8a14.73,14.73,0,0,0,10.52-3.79,14,14,0,0,0,3.88-10.24,13.37,13.37,0,0,0-3.88-10,14.68,14.68,0,0,0-10.52-3.79h-21.8Z"/>
    <path class="cls-3" d="M2348.57,829.82V773.71h8.52v9.9a15.16,15.16,0,0,1,6.76-8,19.31,19.31,0,0,1,10.4-2.88H2378v8.52h-3.76A15.63,15.63,0,0,0,2362,787a19.41,19.41,0,0,0-4.88,13.31v29.5Z"/>
    <path class="cls-3" d="M2382.27,801.27q0-13.41,7-21.42t18.62-8q11.61,0,18.74,8t7,21.42q0,13.4-7,21.42t-18.74,8q-11.62,0-18.62-8T2382.27,801.27Zm8.51-.06q0,9.85,4.64,15.86a16.09,16.09,0,0,0,25,0q4.62-6,4.63-15.86t-4.63-15.74a16.09,16.09,0,0,0-25,0Q2390.79,791.34,2390.78,801.21Z"/>
    <path class="cls-3" d="M2438.13,782.23v-8.52h7.64V769a14.93,14.93,0,0,1,4.38-10.77,14.72,14.72,0,0,1,10.77-4.51h4.76v8.65h-3.76a7.63,7.63,0,0,0-5.26,1.88,5.79,5.79,0,0,0-2.38,4.75v4.76h11.4v8.52h-11.4v47.59h-8.51V782.23Z"/>
    <path class="cls-3" d="M2470.19,801.27q0-13.41,6.51-21.42a22.64,22.64,0,0,1,34.57,0q6.51,8,6.51,21.42v2.88h-39.07q0,8.58,4.13,13.69a13.69,13.69,0,0,0,11.15,5.22,15.33,15.33,0,0,0,9.89-3.1,11.49,11.49,0,0,0,4.39-8.17h8.51a19.22,19.22,0,0,1-7,13.78q-6.14,5.13-15.78,5.13a21.17,21.17,0,0,1-17.29-8Q2470.19,814.67,2470.19,801.27Zm8.52-4.76h30.43q-.63-7.77-4.76-12.4a14,14,0,0,0-20.79,0Q2479.33,788.75,2478.71,796.51Z"/>
    <path class="cls-3" d="M2523.17,808.91h8.52a12.84,12.84,0,0,0,3.63,9.55,13.1,13.1,0,0,0,9.64,3.6q6.14,0,9.77-2.25c2.42-1.5,3.63-3.45,3.63-5.87q0-5-5.13-7.87a28,28,0,0,0-11-3,19.47,19.47,0,0,1-12-5.25,15,15,0,0,1-5.13-11.37,13.85,13.85,0,0,1,5.26-11.37q5.13-4.25,13.78-4.25,9.51,0,15.15,5.26t5.76,13.78h-8.51a10.74,10.74,0,0,0-3.39-8.27,12.76,12.76,0,0,0-9-3.13,12.54,12.54,0,0,0-7.64,2.13,7.12,7.12,0,0,0-2.88,5.89c0,2.92,1.53,5.13,4.61,6.64a25.27,25.27,0,0,0,9.73,2.38,22.82,22.82,0,0,1,13.23,5.26,15.78,15.78,0,0,1,.06,24.3q-5.72,4.63-15.24,4.63-10.39,0-16.53-5.64T2523.17,808.91Z"/>
    <path class="cls-3" d="M2572.27,808.91h8.51a12.84,12.84,0,0,0,3.63,9.55,13.12,13.12,0,0,0,9.65,3.6q6.14,0,9.77-2.25c2.42-1.5,3.63-3.45,3.63-5.87q0-5-5.13-7.87a28.05,28.05,0,0,0-11-3,19.44,19.44,0,0,1-12-5.25,15,15,0,0,1-5.13-11.37,13.85,13.85,0,0,1,5.26-11.37q5.13-4.25,13.77-4.25,9.53,0,15.16,5.26t5.76,13.78h-8.52a10.73,10.73,0,0,0-3.38-8.27,12.77,12.77,0,0,0-9-3.13,12.56,12.56,0,0,0-7.64,2.13,7.14,7.14,0,0,0-2.88,5.89q0,4.38,4.62,6.64a25.27,25.27,0,0,0,9.73,2.38,22.82,22.82,0,0,1,13.23,5.26,15.78,15.78,0,0,1,.06,24.3q-5.72,4.63-15.24,4.63-10.39,0-16.53-5.64T2572.27,808.91Z"/>
    <path class="cls-3" d="M2625.37,762.19v-8.52h8.52v8.52Zm0,67.63V772.71h8.52v57.11Z"/>
    <path class="cls-3" d="M2643.78,801.27q0-13.41,7-21.42t18.62-8q11.61,0,18.74,8t7,21.42q0,13.4-7,21.42t-18.74,8q-11.62,0-18.62-8T2643.78,801.27Zm8.52-.06q0,9.85,4.63,15.86a16.09,16.09,0,0,0,25.05,0q4.64-6,4.64-15.86T2682,785.47a16.09,16.09,0,0,0-25.05,0Q2652.3,791.34,2652.3,801.21Z"/>
    <path class="cls-3" d="M2705,829.82V774.59h8.52l0,5.76a14.33,14.33,0,0,1,6.62-5.89,23.24,23.24,0,0,1,9.12-1.75,20.16,20.16,0,0,1,15.11,6.51,21.23,21.23,0,0,1,6.25,15.41v35.19h-8.52V794.63a13.11,13.11,0,0,0-4.13-9.77,13.89,13.89,0,0,0-10-4,14.31,14.31,0,0,0-10.15,4,12.9,12.9,0,0,0-4.25,9.77v35.19Z"/>
    <path class="cls-3" d="M2758.76,814.54q0-7.26,6.64-12a29.39,29.39,0,0,1,14.78-5,30.1,30.1,0,0,0,9.27-1.88q4.38-1.75,4.38-5.76a9.52,9.52,0,0,0-3.38-7.39,11.7,11.7,0,0,0-8-3,13.32,13.32,0,0,0-8.52,2.88,9.24,9.24,0,0,0-3.75,7.51v1.88h-8.64V788q0-7.26,6.51-11.9a24.16,24.16,0,0,1,14.35-4.26,22.51,22.51,0,0,1,13.85,4.39,14.18,14.18,0,0,1,6.12,11.77v28.56a5.25,5.25,0,0,0,1.75,4,5.45,5.45,0,0,0,4,1.62v7.64h-3.38a11,11,0,0,1-6.09-1.75,10.06,10.06,0,0,1-3.82-4.88,15.57,15.57,0,0,1-7.39,5.76,25.68,25.68,0,0,1-9.64,1.75q-8.64,0-13.77-4.38A14.53,14.53,0,0,1,2758.76,814.54Zm8.52,0a7.18,7.18,0,0,0,3.25,6,12.27,12.27,0,0,0,7.27,2.13,16.75,16.75,0,0,0,11.14-3.89,12.08,12.08,0,0,0,4.89-9.89l-.1-7.64q-3.49,2.88-12.73,3.63l-2.37.13a14.45,14.45,0,0,0-7.86,2.88A8,8,0,0,0,2767.28,814.54Z"/>
    <path class="cls-3" d="M2816.25,829.82V753.67h8.52v76.15Z"/>
    <path class="cls-3" d="M2833.78,808.91h8.52a12.84,12.84,0,0,0,3.63,9.55,13.11,13.11,0,0,0,9.65,3.6q6.14,0,9.77-2.25c2.42-1.5,3.63-3.45,3.63-5.87q0-5-5.14-7.87a28,28,0,0,0-11-3,19.42,19.42,0,0,1-12-5.25,14.94,14.94,0,0,1-5.14-11.37,13.85,13.85,0,0,1,5.26-11.37q5.13-4.25,13.78-4.25,9.51,0,15.15,5.26t5.76,13.78h-8.51a10.76,10.76,0,0,0-3.38-8.27,12.79,12.79,0,0,0-9-3.13,12.54,12.54,0,0,0-7.64,2.13,7.14,7.14,0,0,0-2.88,5.89q0,4.38,4.61,6.64a25.33,25.33,0,0,0,9.74,2.38,22.79,22.79,0,0,1,13.22,5.26,15.05,15.05,0,0,1,5.74,11.9,15.21,15.21,0,0,1-5.67,12.4q-5.73,4.63-15.24,4.63-10.39,0-16.54-5.64T2833.78,808.91Z"/>
  </g>
</svg>
