<svg xmlns="http://www.w3.org/2000/svg" viewBox="0 0 252 144"><defs><style>.cls-1{fill:#fff}.cls-2{fill:#444445}.cls-3{fill:#1a8383}</style></defs><g id="Layer_2" data-name="Layer 2"><g id="Business_Cards" data-name="Business Cards"><path class="cls-1" d="M0 0h252v144H0z"/><path class="cls-1" d="M252 0H66.29L0 71.9V144h185.71L252 72.1V0z"/><path class="cls-2" d="M131.73 72h-.7a9.88 9.88 0 019.86 9.86v1.23A9.88 9.88 0 01131 93h-11.05V51.12h11.79l2.56-4.53A29.17 29.17 0 10149.11 72zM108.1 92.93h-4.93V51.05h4.93zm8.39 0h-4.93V51.05h4.93z"/><path class="cls-3" d="M131 72.06h-11.05l11.82-20.91a9.89 9.89 0 019.12 9.85v1.2a9.88 9.88 0 01-9.89 9.86z"/><path class="cls-1" d="M211.22 144L252 72.1 211.22 144zM40.78 0L0 71.9 40.78 0z"/><path class="cls-3" d="M252 72.1L185.71 144h25.51L252 72.1z"/><path class="cls-2" d="M252 144V72.1L211.22 144H252z"/><path class="cls-3" d="M40.78 0L0 71.9 66.29 0H40.78z"/><path class="cls-2" d="M0 0v71.9L40.78 0H0z"/></g></g></svg>