<svg xmlns="http://www.w3.org/2000/svg" viewBox="0 0 252 144"><defs><style>.cls-1{fill:#fff}.cls-2{fill:#444445}.cls-3{fill:#1a8383}</style></defs><g id="Layer_2" data-name="Layer 2"><g id="Business_Cards" data-name="Business Cards"><path class="cls-1" d="M0 0h252v144H0z"/><path class="cls-1" d="M59.26 43.8l25.8 27.84L18.66 0l40.6 43.8zM18.66 0H0v144h100.09L59.26 71.64 18.66 0zm81.45 87.84l.03.04-.03-.04z"/><path class="cls-2" d="M85.06 71.64l15.05 16.2.03.04 52.3 56.12H252V0H18.66l66.4 71.64z"/><path class="cls-3" d="M100.14 87.88l-.03-.04-14.64-15.76-.41-.44-25.8-27.84L18.66 0l40.6 71.64L100.09 144h52.17l-52.12-56.12z"/><path class="cls-3" d="M152.26 144h.18l-52.3-56.12L152.26 144zm-67.2-72.36l.41.44 14.64 15.76-15.05-16.2z"/><path class="cls-2" d="M49.34 136.91v-14.45H50v14.45zm13.37 0l-7.23-13.62c.06.85.1 2 .1 4.51v9.11h-.68v-14.45h.9l7.2 13.63c0-.83-.08-2.27-.08-4.2v-9.43h.69v14.45zM76.4 123.7l-.39.52a4.24 4.24 0 00-2.93-1.07c-2.65 0-4.83 1.92-4.83 6.57 0 4.41 2.12 6.55 4.74 6.55a4.35 4.35 0 003.16-1.2l.41.52A5.09 5.09 0 0173 137c-3.12 0-5.46-2.51-5.46-7.23s2.46-7.31 5.46-7.31a4.7 4.7 0 013.4 1.24z"/><path class="cls-3" d="M11.15 130.87l-.2.23a2.26 2.26 0 00-1.5-.51c-1.1 0-2.29.85-2.29 3s.94 3.11 2.33 3.11a2.81 2.81 0 001.47-.38v-2.57H9.59v-.31h1.74v3.06a3.56 3.56 0 01-1.81.5c-1.58 0-2.68-1.15-2.68-3.42s1.35-3.35 2.64-3.35a2.54 2.54 0 011.67.64zm5.07 3.02V137h-.34v-6.57h1.49c1.54 0 2.22.62 2.22 1.73a1.65 1.65 0 01-1.49 1.71l1.84 3.13h-.42l-1.76-3.06zm3-1.77c0-.92-.51-1.44-1.9-1.44h-1.1v2.9h1.22c1.14 0 1.81-.45 1.81-1.46zm9.72 1.56c0 2.14-1 3.37-2.61 3.37s-2.61-1.19-2.61-3.36 1.07-3.41 2.61-3.41 2.61 1.17 2.61 3.4zm-4.87 0c0 2 .93 3.05 2.26 3.05s2.26-1 2.26-3.06-.91-3.08-2.26-3.08-2.27 1.04-2.27 3.1zM35.54 137a1.88 1.88 0 01-2.06-2.11v-4.56h.34v4.53c0 1.09.5 1.83 1.72 1.83s1.7-.76 1.7-1.83v-4.53h.35v4.56a1.89 1.89 0 01-2.05 2.11zm10.78-4.7c0 1.45-1 2-2.4 2h-1v2.7h-.34v-6.57H44c1.46-.05 2.32.57 2.32 1.87zm-.36 0c0-1.2-.71-1.63-2-1.63H42.9V134h1c1.23 0 2.1-.41 2.1-1.69zm-35.15-5.06c0 1.16-.81 1.79-2.2 1.79H6.84v-6.57h1.4c1.42 0 2.24.53 2.24 1.63a1.33 1.33 0 01-1.18 1.45 1.53 1.53 0 011.51 1.7zm-3.63-1.82h1.56a1.27 1.27 0 001.4-1.32c0-.92-.66-1.33-1.86-1.33h-1.1zm3.28 1.82a1.47 1.47 0 00-1.68-1.53h-1.6v3h1.45c1.14.01 1.84-.47 1.84-1.47zm4.06 1.76a1.87 1.87 0 01-2.06-2v-4.49h.34v4.46a1.58 1.58 0 001.72 1.8 1.58 1.58 0 001.7-1.8v-4.46h.35V127a1.88 1.88 0 01-2.05 2zm7.48-5.86l-.21.22a2.15 2.15 0 00-1.56-.6c-.92 0-1.49.49-1.49 1.2s.42 1.06 1.6 1.4 1.87.79 1.87 1.85a1.85 1.85 0 01-2.09 1.79 2.9 2.9 0 01-2-.78l.22-.22a2.48 2.48 0 001.78.7 1.53 1.53 0 001.73-1.5c0-.89-.44-1.22-1.66-1.59s-1.82-.82-1.82-1.68a1.62 1.62 0 011.83-1.5 2.45 2.45 0 011.8.71zm2 5.86v-6.57h.34V129zm6.32 0l-3.42-6.19V129h-.33v-6.57H27l3.41 6.19v-6.2h.33V129zm3.08-6.23v2.66h2.42v.3H33.4v3h2.9v.27h-3.24v-6.57h3.18v.31zm7.65.37l-.21.22a2.15 2.15 0 00-1.56-.6c-.92 0-1.49.49-1.49 1.2s.42 1.06 1.6 1.4 1.87.79 1.87 1.85a1.85 1.85 0 01-2.07 1.79 2.9 2.9 0 01-2-.78l.22-.22a2.48 2.48 0 001.78.7 1.53 1.53 0 001.73-1.5c0-.89-.44-1.22-1.66-1.59s-1.82-.82-1.82-1.68a1.62 1.62 0 011.83-1.5 2.45 2.45 0 011.78.71zm5.09 0l-.21.22a2.15 2.15 0 00-1.56-.6c-.92 0-1.49.49-1.49 1.2s.42 1.06 1.6 1.4 1.87.79 1.87 1.85a1.85 1.85 0 01-2.07 1.79 2.9 2.9 0 01-2-.78l.22-.22a2.48 2.48 0 001.78.7 1.53 1.53 0 001.73-1.5c0-.89-.44-1.22-1.66-1.59s-1.82-.82-1.82-1.68a1.62 1.62 0 011.83-1.5 2.45 2.45 0 011.78.71z"/><path class="cls-2" d="M9.07 113.18v8.56H6.85v-18.06h2.22v7.61h7.72v-7.61H19v18.06h-2.22v-8.56zm16.8 3.94l-1.39 4.62H22.2l5.8-18.06h2.8l5.73 18.06h-2.38l-1.37-4.62zm3.46-11.55l-2.92 9.69h5.81zm14.06 16.17h-2.27v-7l-5.7-11.11h2.48l4.44 9.11 4.41-9.11h2.35l-5.7 11.08zm11.07-16.22v6.09h6.06v1.84h-6.06v6.46h7.43v1.84h-9.65v-18.07h9.47l-.26 1.84zm21.54.16l-1.27 1.39a5.86 5.86 0 00-4.05-1.57c-1.9 0-3.33.89-3.33 2.58 0 1.54.75 2.28 4 3.24 2.94.86 5.25 2 5.25 5.24 0 3-2.34 5.14-6.26 5.14a8.44 8.44 0 01-6-2.23l1.33-1.42a6.47 6.47 0 004.65 1.82c2.18 0 4-1.09 4-3.24 0-1.8-.88-2.58-4-3.49-3.51-1-5.25-2.33-5.25-5s2.29-4.48 5.54-4.48a7.46 7.46 0 015.39 2.02z"/><path class="cls-1" d="M161.54 17.72l-.33-.9a2.1 2.1 0 001.56-2.4V6H164v8.43c0 2.03-.88 2.77-2.46 3.29zm11.87-5.9c0 2.65-1.44 4.17-3.58 4.17s-3.58-1.48-3.58-4.15 1.45-4.15 3.58-4.15 3.58 1.46 3.58 4.13zm-5.92 0c0 2.26 1 3.19 2.33 3.19s2.32-.92 2.32-3.2-.88-3.19-2.32-3.19-2.33.97-2.33 3.22zm8.41 2.02l-.63 2H174l2.73-8h1.48l2.72 8h-1.27l-.62-2zm1.59-5.06l-1.29 4.12h2.59zm9.4 7.05L183.49 9c.06.77.16 1.66.16 3.16v3.67h-1.09v-8h1.55l3.46 6.85a21.6 21.6 0 01-.17-2.66V7.83h1.09v8zm8.86 0L192.36 9c.06.77.16 1.66.16 3.16v3.67h-1.09v-8H193l3.46 6.85a21.6 21.6 0 01-.17-2.66V7.83h1.1v8zm5.72-7.08v2.52h2.86v.92h-2.86v2.72H205v.92h-4.69v-8h4.62l-.14.92zm10.74 2.45v4.64H211V6h1.22v4.12h4.25V6h1.24v9.78h-1.24V11.2zm8.92 2.64l-.63 2h-1.22l2.73-8h1.48l2.72 8h-1.27l-.62-2zm1.59-5.06l-1.29 4.12H224zm6.78 7.05h-1.21v-3.07l-2.72-4.93h1.31l2.06 3.94 2-3.94h1.27l-2.73 4.92zm5.5-7.08v2.52h2.86v.92H235v2.72h3.5v.92h-4.7v-8h4.62l-.14.92zm10.33-.11l-.65.71a2.84 2.84 0 00-1.93-.71c-.87 0-1.54.37-1.54 1.11s.37 1 1.86 1.39 2.5 1 2.5 2.46-1.14 2.39-3 2.39a4.16 4.16 0 01-2.93-1.07l.67-.74a3.18 3.18 0 002.23.84c1 0 1.79-.47 1.79-1.37s-.4-1.12-1.83-1.54c-1.72-.47-2.5-1.11-2.5-2.31s1.14-2.12 2.72-2.12a3.63 3.63 0 012.61.96z"/><path class="cls-3" d="M192.84 20.46c0 1.61-1.1 2.21-2.66 2.21h-1.13v2.94h-.37v-7.27h1.56c1.65 0 2.6.66 2.6 2.12zm-.39 0c0-1.33-.79-1.8-2.21-1.8h-1.18v3.66h1.16c1.3.01 2.22-.43 2.22-1.85zm3.67 1.76v3.39h-.37v-7.27h1.65c1.71 0 2.46.68 2.46 1.92a1.83 1.83 0 01-1.65 1.9l2 3.46h-.47l-2-3.39zm3.35-2c0-1-.56-1.59-2.1-1.59h-1.25v3.21h1.35c1.26.04 2-.46 2-1.58zm3.89-1.54v2.94H206V22h-2.68v3.32h3.21v.34H203v-7.32h3.52l-.05.34zm9.52.32l-.23.26a2.34 2.34 0 00-1.73-.68c-1 0-1.65.55-1.65 1.37s.47 1.21 1.77 1.6 2.07.91 2.07 2.11a2.08 2.08 0 01-2.28 2.07 3.16 3.16 0 01-2.23-.89l.25-.26a2.7 2.7 0 002 .8 1.72 1.72 0 001.92-1.71c0-1-.49-1.4-1.83-1.81s-2-.94-2-1.92a1.81 1.81 0 012-1.72 2.67 2.67 0 011.94.78zm3.24 6.61v-7.27h.37v7.27zm8.58-3.71c0 3.06-1.73 3.71-3.17 3.71h-1.43v-7.27h1.39c1.58 0 3.21.59 3.21 3.56zm-4.22 3.37h1.07c1.34 0 2.76-.61 2.76-3.37s-1.47-3.22-2.84-3.22h-1zm7.71-6.59v2.94h2.68V22h-2.68v3.32h3.21v.34h-3.58v-7.32h3.52l-.05.34zm10.08 6.93l-3.79-6.86c0 .43.05 1 .05 2.27v4.59h-.36v-7.27h.47l3.78 6.86v-6.86h.36v7.27zm5.54-6.92v6.92h-.37v-6.92h-2.21v-.35h4.85l-.06.35z"/><path class="cls-1" d="M165.24 131h.44v2.64h3.21V131h.45v6h-.45v-3h-3.21v3h-.44zm8.86 4l-.69 2.09h-.46c.64-1.91 1.32-3.89 2-6h.55l2.12 6h-.5l-.7-2.09zm2.22-.42c-.6-1.76-1-2.68-1.07-3.11-.17.73-.51 1.66-1 3.11zm5.45 2.48v-2.45a.3.3 0 000-.15l-2-3.45h.51c.56 1 1.54 2.67 1.78 3.08.51-.88 1.23-2.12 1.78-3.08h.49l-2 3.49v2.55zm9.06-2.98h-2.77v2.57h3l-.07.41h-3.42v-6H191v.41h-2.91v2.24h2.77zm4.17 1.33a1.44 1.44 0 001.54 1.32 1.24 1.24 0 001.37-1.25c0-.74-.3-1.06-1.48-1.45s-1.66-.75-1.66-1.61.61-1.49 1.72-1.49a1.63 1.63 0 011.79 1.56h-.45a1.22 1.22 0 00-1.35-1.15c-.82 0-1.22.4-1.22 1s.32.92 1.36 1.24c1.45.45 1.79 1 1.79 1.81a1.66 1.66 0 01-1.86 1.68 1.79 1.79 0 01-2-1.72zm7.13-4.41h2c.94 0 1.67.47 1.67 1.46a1.25 1.25 0 01-.94 1.29 1.5 1.5 0 011.14 1.55 1.73 1.73 0 01-2 1.76h-1.86zm1.8 2.57c1 0 1.37-.44 1.37-1.09s-.37-1.09-1.31-1.09h-1.42v2.18zm-1.36 3.09H204c.89 0 1.54-.43 1.54-1.36s-.54-1.3-1.65-1.3h-1.32zm11.49.4h-.37a7.13 7.13 0 01-.05-1 1.76 1.76 0 01-1.84 1.06c-1.58 0-2.3-1.38-2.3-3.08s.86-3.14 2.49-3.14a1.93 1.93 0 012.09 1.71h-.44a1.56 1.56 0 00-1.66-1.29c-1.37 0-2 1.17-2 2.72 0 1.38.57 2.67 1.87 2.67 1.53 0 1.79-1.06 1.79-2.4h-1.76v-.42h2.2zm3.87.02v-1.54h.61v1.54zm9.84-1.69a2 2 0 01-2.13 1.76c-1.68 0-2.34-1.32-2.34-3.18 0-1.52.7-3 2.38-3a1.93 1.93 0 012.06 1.79h-.47a1.53 1.53 0 00-1.61-1.38c-1.31 0-1.89 1.24-1.89 2.63s.44 2.76 1.89 2.76a1.58 1.58 0 001.65-1.35zm8.34-1.39c0 1.73-.78 3.15-2.47 3.15s-2.41-1.26-2.41-3.14c0-1.64.83-3.08 2.47-3.08s2.41 1.25 2.41 3.07zm-4.42 0c0 1.55.64 2.75 2 2.75s2-1.22 2-2.74-.64-2.66-2-2.66-1.99 1.19-1.99 2.65zm13.31.28v-2.89c-.3 1-1.41 3.92-2.1 5.67h-.46c-.52-1.46-1.68-4.57-2-5.68 0 .7.06 2.07.06 3.11v2.57h-.5v-6h.68c.75 2 1.73 4.72 2 5.5.11-.45 1.26-3.46 2-5.5h.68v6H245zM118.11 50.34v3.73c0 .72-.07 1.32-.81 1.32h-.19V55h.19c.43 0 .46-.36.46-.86v-3.8zm-.35-.94v-.69h.36v.69zm5.61 2.66c0 1-.43 1.9-1.51 1.9s-1.46-.9-1.46-1.88.52-1.8 1.5-1.8 1.47.72 1.47 1.78zm-2.6 0c0 .86.38 1.56 1.12 1.56S123 53 123 52.06s-.38-1.46-1.12-1.46-1.12.62-1.12 1.48zm7.16 1.13a4.47 4.47 0 00.06.7h-.34a3.54 3.54 0 010-.63 1.08 1.08 0 01-1.13.69 1 1 0 01-1.1-1.07c0-.47.28-1.11 1.58-1.11h.63v-.4c0-.37-.1-.8-.83-.8a.77.77 0 00-.9.73h-.35a1.1 1.1 0 011.27-1c.68 0 1.15.31 1.15 1.07zm-.34-1.1h-.65c-1 0-1.19.41-1.19.79a.71.71 0 00.76.75c.79 0 1.09-.54 1.09-1.47zm2.88-.63v-1.12h.35v.62a1.09 1.09 0 011.08-.69c.6 0 1.14.3 1.14 1.36v2.27h-.36v-2.24c0-.59-.23-1.05-.82-1.05-.78 0-1.05.62-1.05 1.44v1.85h-.35zm5.12 0v-1.12h.35v.62a1.09 1.09 0 011.08-.69c.6 0 1.14.3 1.14 1.36v2.27h-.36v-2.24c0-.59-.23-1.05-.82-1.05-.78 0-1.05.62-1.05 1.44v1.85h-.35zm5.21.7c0 .9.38 1.49 1.08 1.49a1 1 0 001-.7h.35a1.28 1.28 0 01-1.33 1c-1.1 0-1.42-.95-1.42-1.87s.42-1.83 1.44-1.83 1.36.88 1.36 1.64v.26zm2.09-.31c0-.74-.32-1.27-1-1.27s-1 .78-1.05 1.27zm2.99-3.14v2.19a1.14 1.14 0 011.1-.63c.44 0 1.12.21 1.12 1.27v2.36h-.35v-2.29c0-.65-.28-1-.85-1s-1 .43-1 1.23v2.06h-.35v-5.19zm6.98 4.48a4.47 4.47 0 00.06.7h-.34a3.54 3.54 0 010-.63 1.08 1.08 0 01-1.13.69 1 1 0 01-1.09-1.07c0-.47.28-1.11 1.58-1.11h.63v-.4c0-.37-.1-.8-.83-.8a.77.77 0 00-.9.73h-.35a1.09 1.09 0 011.27-1c.68 0 1.15.31 1.15 1.07zm-.34-1.1h-.65c-1 0-1.19.41-1.19.79a.71.71 0 00.76.75c.79 0 1.09-.54 1.09-1.47zm2.71-1.75c.64 1.86 1 2.75 1.07 3.19.11-.36.43-1.34 1-3.19h.38l-1.27 3.72c-.36 1-.55 1.33-1.2 1.33h-.27V55h.29c.51 0 .63-.44.85-1.09l-1.29-3.63zm4.68 1.82c0 .9.38 1.49 1.08 1.49a1 1 0 001-.7h.35A1.28 1.28 0 01161 54c-1.1 0-1.42-.95-1.42-1.87s.42-1.83 1.44-1.83 1.36.88 1.36 1.64v.26zm2.09-.31c0-.74-.32-1.27-1-1.27s-1 .78-1.05 1.27zm2.65 1.07a.87.87 0 00.92.74c.6 0 .8-.36.8-.7s-.24-.6-.89-.77c-.81-.21-1-.53-1-1a1 1 0 011.09-.93 1 1 0 011.14 1h-.35a.75.75 0 00-.81-.68c-.5 0-.71.25-.71.6s.13.49.78.67c.87.23 1.15.52 1.15 1.08a1.05 1.05 0 01-1.18 1 1.14 1.14 0 01-1.27-1zm7.97 2.16a3 3 0 01-1.25.22 2.59 2.59 0 01-2.57-2.88c0-1.75 1-3.23 2.8-3.23a2.41 2.41 0 012.51 2.58c0 1.27-.53 2.1-1.34 2.1a.58.58 0 01-.66-.59 1 1 0 01-1 .59c-.53 0-.94-.39-.94-1.22 0-1.21.63-2 1.39-2a.74.74 0 01.79.58l.08-.5h.35l-.36 2.24c-.07.46.11.63.38.63.49 0 .94-.58.94-1.79a2.09 2.09 0 00-2.18-2.25c-1.6 0-2.41 1.34-2.41 2.89a2.29 2.29 0 002.26 2.55 3.11 3.11 0 001.21-.22zm-2.07-2.45c0 .68.3.92.63.92.49 0 .94-.36 1.06-1.46.06-.56-.06-1.14-.65-1.14s-1.04.82-1.04 1.68zm6.23-3.92v2.19a1.14 1.14 0 011.1-.63c.44 0 1.12.21 1.12 1.27v2.36h-.35v-2.29c0-.65-.28-1-.85-1s-1 .43-1 1.23v2.06h-.35v-5.19zm6.98 4.48a4.47 4.47 0 00.06.7h-.34a3.54 3.54 0 010-.63 1.08 1.08 0 01-1.13.69 1 1 0 01-1.09-1.07c0-.47.28-1.11 1.58-1.11h.63v-.4c0-.37-.1-.8-.83-.8a.77.77 0 00-.9.73h-.35a1.09 1.09 0 011.27-1c.68 0 1.15.31 1.15 1.07zm-.34-1.1h-.65c-1 0-1.19.41-1.19.79a.71.71 0 00.76.75c.79 0 1.09-.54 1.09-1.47zm2.71-1.75c.64 1.86 1 2.75 1.07 3.19.11-.36.43-1.34 1-3.19h.38l-1.27 3.72c-.36 1-.55 1.33-1.2 1.33h-.27V55h.29c.51 0 .63-.44.85-1.09l-1.29-3.63zm4.68 1.82c0 .9.38 1.49 1.08 1.49a1 1 0 001-.7h.35a1.28 1.28 0 01-1.33 1c-1.1 0-1.42-.95-1.42-1.87s.42-1.83 1.44-1.83 1.36.88 1.36 1.64v.26zm2.09-.31c0-.74-.32-1.27-1-1.27s-1 .78-1.05 1.27zm2.65 1.07a.87.87 0 00.92.74c.6 0 .8-.36.8-.7s-.24-.6-.89-.77c-.81-.21-1-.53-1-1a1 1 0 011.09-.93 1 1 0 011.14 1h-.35a.75.75 0 00-.81-.68c-.5 0-.71.25-.71.6s.13.49.78.67c.87.23 1.15.52 1.15 1.08a1.05 1.05 0 01-1.18 1 1.14 1.14 0 01-1.27-1zm4.31-4.21h.35v2.19a1.16 1.16 0 011.12-.63c.83 0 1.37.65 1.37 1.74s-.44 1.99-1.47 1.99a1 1 0 01-1-.58 4.52 4.52 0 010 .52h-.34v-1zm1.42 1.89c-.8 0-1.09.51-1.09 1.46s.21 1.56 1.07 1.56 1.06-.69 1.06-1.6-.32-1.41-1.04-1.41zm6.25 3.08c0 1.12-.44 1.71-1.42 1.71s-1.27-.51-1.32-1h.35a.88.88 0 001 .7c.88 0 1.08-.6 1.08-1.46v-.34a1 1 0 01-1.11.67c-.82 0-1.35-.72-1.35-1.82s.61-1.85 1.44-1.85a.94.94 0 011 .58v-.5h.35v1zm-1.39-.09c.77 0 1.05-.5 1.05-1.5s-.27-1.49-1-1.49-1.08.62-1.08 1.51.4 1.49 1.04 1.49zm3.7.31V53h.35v.88zm5.16-1.07a1.32 1.32 0 01-1.31 1.17c-.95 0-1.44-.65-1.44-1.86 0-1 .44-1.83 1.46-1.83a1.25 1.25 0 011.29 1.14h-.36a.94.94 0 00-1-.86c-.75 0-1.09.64-1.09 1.52s.38 1.54 1.09 1.54a1 1 0 001-.82zm5-.77c0 1-.43 1.9-1.51 1.9s-1.46-.9-1.46-1.88.52-1.8 1.5-1.8S220 51 220 52.06zm-2.6 0c0 .86.38 1.56 1.12 1.56s1.1-.68 1.1-1.58-.38-1.46-1.12-1.46-1.09.64-1.09 1.5zm4.88-.61v-1.11h.35v.55a1 1 0 011-.63.87.87 0 01.92.65 1.1 1.1 0 011-.65c.5 0 1 .25 1 1.19v2.45h-.35v-2.37c0-.5-.15-.92-.74-.92s-.9.56-.9 1.16v2.13h-.34v-2.4c0-.51-.2-.89-.72-.89s-.94.47-.94 1.23v2.06h-.35zM176 62.87h-2c0 .41-.17 1.44-.23 1.77a1.2 1.2 0 011-.46c.85 0 1.37.58 1.37 1.55s-.43 1.66-1.46 1.66a1.31 1.31 0 01-1.42-1.21h.37a1 1 0 001.06.89c.77 0 1.08-.57 1.08-1.33s-.33-1.22-1-1.22a1 1 0 00-1 .63l-.36-.07c.09-.55.23-1.65.32-2.55h2.32zm3 4.45V63a3.23 3.23 0 01-1 .44v-.34a2.84 2.84 0 001-.59h.27v4.81zm5.54-4.79v.31a13.31 13.31 0 00-1.93 4.49h-.38a13.78 13.78 0 011.91-4.46h-2.44v-.33zm3.27 2.8v.35h-1.66v-.35zm4.8-2.46h-2c0 .41-.17 1.44-.23 1.77a1.2 1.2 0 011-.46c.85 0 1.37.58 1.37 1.55s-.43 1.66-1.46 1.66a1.31 1.31 0 01-1.42-1.21h.37a1 1 0 001.06.89c.77 0 1.08-.57 1.08-1.33s-.33-1.22-1-1.22a1 1 0 00-1 .63l-.36-.07c.09-.55.23-1.65.32-2.55h2.32zM195 66a1.28 1.28 0 01.84-1.24 1.1 1.1 0 01-.65-1.05 1.19 1.19 0 011.31-1.22 1.15 1.15 0 011.24 1.21 1 1 0 01-.65 1.05 1.25 1.25 0 01.82 1.24A1.45 1.45 0 01195 66zm2.52 0a1.08 1.08 0 00-2.15 0 1 1 0 001.08 1.09 1 1 0 001.06-1.09zm-2-2.31a.83.83 0 00.93.9.82.82 0 00.91-.88.87.87 0 00-.92-.92.83.83 0 00-.91.9zm7.39 1.14c0 1.24-.24 2.57-1.43 2.57S200 66 200 64.81s.35-2.34 1.45-2.34 1.46 1.16 1.46 2.36zm-2.51 0c0 1.18.24 2.25 1.09 2.25s1.06-1.06 1.06-2.23c0-1-.23-2-1.06-2s-1.09 1.05-1.09 1.96zm6.31.5v.35h-1.66v-.35zm5.03-.5c0 1.24-.24 2.57-1.43 2.57s-1.45-1.42-1.45-2.58.35-2.34 1.45-2.34 1.43 1.15 1.43 2.35zm-2.51 0c0 1.18.24 2.25 1.09 2.25s1.06-1.06 1.06-2.23c0-1-.23-2-1.06-2s-1.09 1.05-1.09 1.96zm4.66 1.17a1.28 1.28 0 01.84-1.24 1.1 1.1 0 01-.65-1.05 1.19 1.19 0 011.31-1.22 1.15 1.15 0 011.24 1.21 1 1 0 01-.65 1.05 1.25 1.25 0 01.82 1.24 1.45 1.45 0 01-2.89 0zm2.52 0a1.08 1.08 0 00-2.15 0 1 1 0 001.08 1.09 1 1 0 001.08-1.09zm-2-2.31a.83.83 0 00.93.9.82.82 0 00.91-.88.87.87 0 00-.92-.92.83.83 0 00-.89.9zm7.4 1.14c0 1.24-.24 2.57-1.43 2.57s-1.45-1.42-1.45-2.58.35-2.34 1.45-2.34 1.43 1.15 1.43 2.35zm-2.51 0c0 1.18.24 2.25 1.09 2.25s1.06-1.06 1.06-2.23c0-1-.23-2-1.06-2s-1.09 1.05-1.09 1.96zM224 66a1.28 1.28 0 01.84-1.24 1.1 1.1 0 01-.65-1.05 1.19 1.19 0 011.31-1.22 1.15 1.15 0 011.24 1.21 1 1 0 01-.65 1.05 1.25 1.25 0 01.82 1.24A1.45 1.45 0 01224 66zm2.52 0a1.08 1.08 0 00-2.15 0 1 1 0 001.08 1.09 1 1 0 001.04-1.09zm-2-2.31a.83.83 0 00.93.9.82.82 0 00.91-.88.87.87 0 00-.92-.92.83.83 0 00-.93.9zm-47.01 12.6h-2c0 .41-.17 1.44-.23 1.77a1.2 1.2 0 011-.46c.85 0 1.37.58 1.37 1.55s-.43 1.66-1.46 1.66a1.31 1.31 0 01-1.42-1.21h.37a1 1 0 001.06.89c.77 0 1.08-.57 1.08-1.33s-.33-1.22-1-1.22a1 1 0 00-1 .63l-.36-.07c.09-.55.23-1.65.32-2.55h2.32zm3.04 4.46v-4.34a3.23 3.23 0 01-1 .44v-.32a2.85 2.85 0 001-.59h.27v4.81zM186 76v.31a13.31 13.31 0 00-1.93 4.49h-.38a13.78 13.78 0 011.91-4.46h-2.44V76zm3.31 2.76v.35h-1.66v-.35zm4.52-1.9a.79.79 0 00-.83-.63c-1 0-1.19 1.39-1.19 2.11a1.3 1.3 0 011.19-.7 1.34 1.34 0 011.34 1.51c0 .92-.48 1.67-1.41 1.67-1.17 0-1.49-1-1.49-2.29s.33-2.63 1.56-2.63a1.09 1.09 0 011.18 1zm.14 2.29c0-.62-.3-1.17-1-1.17a1.06 1.06 0 00-1.12 1.1c0 .64.26 1.42 1.08 1.42.68-.01 1.07-.5 1.07-1.35zm4.64 1.6v-1.37h-2.18V79l2.08-3h.49v3.1h.58v.32H199v1.37zm0-3.25v-1.21c-.31.51-1.32 2-1.82 2.77h1.8zm3.67 3.25v-4.34a3.23 3.23 0 01-1 .44v-.32a2.85 2.85 0 001-.59h.27v4.81zm4.43-1.99v.35h-1.66v-.35zm4.29 1.99v-1.37h-2.18V79l2.1-3h.47v3.1h.61v.32h-.54v1.37zm0-3.25v-1.21c-.31.51-1.32 2-1.82 2.77H211zm5.25 3.25v-1.37h-2.18V79l2.08-3h.47v3.1h.58v.32h-.54v1.37zm0-3.25v-1.21c-.31.51-1.32 2-1.82 2.77h1.8zm5.84.75c0 1.25-.24 2.57-1.43 2.57s-1.45-1.42-1.45-2.58.35-2.34 1.45-2.34 1.43 1.16 1.43 2.35zm-2.51 0c0 1.18.24 2.25 1.09 2.25s1.06-1.06 1.06-2.23c0-1-.23-2-1.06-2s-1.1 1.05-1.1 1.97zm4.55 2.5a3 3 0 011.29-2c.76-.65 1.07-.87 1.07-1.52a.88.88 0 00-.92-1c-.67 0-.95.41-1 1.05h-.34a1.33 1.33 0 011.39-1.39 1.19 1.19 0 011.28 1.28c0 .75-.4 1.08-1.21 1.78a3.38 3.38 0 00-1.1 1.45H227l-.06.33zm-45.67 9.87v3.73c0 .72-.07 1.32-.81 1.32h-.18v-.33h.19c.43 0 .46-.36.46-.86v-3.86zm-.35-.94V89h.36v.69zm5.61 2.65c0 1-.43 1.9-1.51 1.9s-1.46-.9-1.46-1.88.52-1.8 1.5-1.8 1.47.72 1.47 1.78zm-2.6 0c0 .86.38 1.56 1.12 1.56s1.1-.68 1.1-1.58-.38-1.46-1.12-1.46-1.1.65-1.1 1.51zm7.17 1.14a4.48 4.48 0 00.06.7H188a3.54 3.54 0 010-.63 1.08 1.08 0 01-1.13.69 1 1 0 01-1.09-1.07c0-.47.28-1.11 1.58-1.11h.63v-.4c0-.37-.1-.8-.83-.8a.77.77 0 00-.9.73h-.35a1.09 1.09 0 011.27-1c.68 0 1.15.31 1.15 1.07zm-.34-1.1h-.65c-1 0-1.19.41-1.19.79a.71.71 0 00.76.75c.79 0 1.09-.54 1.09-1.47zm2.88-.63v-1.12h.35v.62a1.09 1.09 0 011.08-.69c.6 0 1.14.3 1.14 1.36v2.27h-.4v-2.24c0-.59-.23-1.05-.82-1.05-.78 0-1.05.62-1.05 1.44v1.85h-.35zm5.11 0v-1.12h.35v.62a1.09 1.09 0 011.08-.69c.6 0 1.14.3 1.14 1.36v2.27h-.36v-2.24c0-.59-.23-1.05-.82-1.05-.78 0-1.05.62-1.05 1.44v1.85h-.35zm5.21.7c0 .9.38 1.49 1.08 1.49a1 1 0 001-.7h.35a1.28 1.28 0 01-1.33 1c-1.1 0-1.42-.95-1.42-1.87s.42-1.83 1.44-1.83 1.36.88 1.36 1.63v.26zm2.09-.31c0-.74-.32-1.27-1-1.27s-1 .78-1.05 1.27zm2.54 2.05v-.88h.35v.88zm2.66-3.64a1.29 1.29 0 011.34-1.22 1.13 1.13 0 011.22 1.19 1.06 1.06 0 01-.65 1 1.2 1.2 0 01.85 1.21 1.37 1.37 0 01-1.49 1.48 1.31 1.31 0 01-1.39-1.2h.35a1.06 1.06 0 001.1.92 1 1 0 001.09-1.14c0-.82-.54-1.06-1.19-1.06h-.29v-.3h.3c.65 0 1-.3 1-.91a.82.82 0 00-.9-.87 1 1 0 00-1 .9zm7.19 3.64V92.8h-2.18v-.36l2.07-3.07h.48v3.1h.58v.32H216v1.37zm0-3.25v-1.21c-.31.51-1.32 2-1.82 2.77h1.8zm5.23 3.25V92.8h-2.18v-.36l2.07-3.07h.47v3.1h.58v.32h-.54v1.37zm0-3.25v-1.21c-.31.51-1.32 2-1.82 2.77h1.8zm3.14-.39a1.29 1.29 0 011.34-1.22 1.13 1.13 0 011.25 1.19 1.06 1.06 0 01-.65 1 1.2 1.2 0 01.85 1.21 1.37 1.37 0 01-1.49 1.48 1.31 1.31 0 01-1.39-1.2h.35a1.06 1.06 0 001.1.92 1 1 0 001.09-1.14c0-.82-.54-1.06-1.19-1.06H225v-.3h.3c.65 0 1-.3 1-.91a.82.82 0 00-.9-.87 1 1 0 00-1 .9z"/><path class="cls-3" d="M244.4 49.8l-4.5 2.68-.25.15h-1.47l-.26-.15-4.5-2.68-.01 5.34h11l-.01-5.34z"/><path class="cls-3" d="M244.41 48.62h-11l5.5 3.27 5.5-3.27zM236 81.32h-.71a6.94 6.94 0 010-5.17h.71l.34-2.46h-1.63a15.5 15.5 0 000 10.1h1.63zm4.68-7.62H237v10.07h7v-6.84zm-3.23 1.23h3.23v.61h-3.23zm0 1.4h3.23v.61h-3.23zm6 6.19h-6v-.61h6zm0-1.4h-6v-.61h6zm0-1.4h-6v-.61h6zm0-1.4h-6v-.61h6zm-2.23-10.86l-.69.51a8.3 8.3 0 01-3.69-5l.69-.51-1.43-2.62-1 .75-.57.42a18.54 18.54 0 007.2 9.76l.57-.42 1-.75zm2.46 25.79a4.83 4.83 0 00-5.54-5.79 2.8 2.8 0 00-3.9 3.78 4.83 4.83 0 005.61 5.76 2.8 2.8 0 003.83-3.71zm-2.24 1.27a2.21 2.21 0 01-1 .74 3.92 3.92 0 01-1.51.27 3.68 3.68 0 01-1.73-.36 2.27 2.27 0 01-.79-.71 1.54 1.54 0 01-.31-.87.61.61 0 01.2-.46.71.71 0 01.5-.19.64.64 0 01.42.15 1.09 1.09 0 01.28.41 2.46 2.46 0 00.28.49 1.07 1.07 0 00.4.31 1.66 1.66 0 00.7.13 1.7 1.7 0 001-.25.71.71 0 00.36-.6.59.59 0 00-.19-.46 1.31 1.31 0 00-.51-.28c-.22-.07-.52-.14-.89-.22a7.08 7.08 0 01-1.26-.38 2.08 2.08 0 01-.83-.61 1.51 1.51 0 01-.31-1 1.57 1.57 0 01.33-1 2 2 0 01.94-.65 4.09 4.09 0 011.42-.22 3.84 3.84 0 011.13.15 2.5 2.5 0 01.8.4 1.73 1.73 0 01.47.53 1.16 1.16 0 01.15.55.69.69 0 01-.69.67.61.61 0 01-.42-.13 1.55 1.55 0 01-.29-.38 1.6 1.6 0 00-.43-.54 1.36 1.36 0 00-.81-.19 1.51 1.51 0 00-.84.21.55.55 0 00-.3.46.43.43 0 00.1.28.87.87 0 00.29.22 2.13 2.13 0 00.39.15l.67.16c.39.08.75.18 1.07.28a3.44 3.44 0 01.77.42 1.65 1.65 0 01.54.57 1.72 1.72 0 01.2.85 1.83 1.83 0 01-.3 1.1z"/></g></g></svg>