<svg xmlns="http://www.w3.org/2000/svg" viewBox="0 0 1240 600"><defs><style>.cls-1{fill:#444445}</style></defs><g id="Header"><g id="mark"><path class="cls-1" d="M361.74 300.2c-1.16.08-2.32.14-3.5.14a49.69 49.69 0 0149.54 49.54v6.18a49.69 49.69 0 01-49.54 49.54h-55.72V195.08h55.72c1.25 0 2.49.06 3.72.15l12.89-22.79A146.63 146.63 0 10449.14 300zm-118.8 105.06h-24.79V194.74h24.79zm42.19 0h-24.79V194.74h24.79z"/><path d="M358.24 300.34h-55.72L362 195.22a49.71 49.71 0 0145.82 49.4v6.18a49.69 49.69 0 01-49.58 49.54z" fill="#1a8383"/></g><path d="M868.12 315.74h9.21v120.71h-9.21zM969.84 394c0 11.75.18 20.63.37 26.6l-55.47-104.86h-10v120.7h9v-75.65c0-14.34-.17-23-.4-28.95l55 103.7.48.91h10V315.74h-9zm108.46 23.37l-1.3 1.13c-7.19 6-13.22 9.3-24.51 9.3-17.79 0-36.79-13.52-36.79-51.48 0-17.43 3.75-30.81 11.14-39.76 6.41-7.77 15.51-11.88 26.32-11.88 10.14 0 15.61 2.81 22.75 8.34l1.37 1.07 5.15-6.86-1.23-1c-6.37-5.42-14.22-10.44-28.38-10.44-13.33 0-24.75 5.28-33 15.26-8.83 10.66-13.49 26.34-13.49 45.33 0 18.64 4.51 34.13 13 44.79 8.18 10.23 19.58 15.63 33 15.63 11.87 0 21.47-3.65 30.23-11.48l1.2-1.07z" fill="#464646"/><path d="M540.67 409.74h11V429a21.74 21.74 0 01-10.93 2.63c-11.54 0-17.89-8.6-17.89-24.22 0-17.42 9.47-23.6 17.58-23.6a17.38 17.38 0 0111.57 3.9l.76.59 3-3.42-.86-.67a21.5 21.5 0 00-14.47-5.06c-10.83 0-22.43 8.85-22.43 28.23 0 18 8.51 28.78 22.76 28.78a30.15 30.15 0 0015.22-4.21l.5-.3v-26.47H540.1zm83.23-14.63c0-10-6.42-15.1-19.09-15.1h-13.14v55.37h4.79v-24.86h10.81l14.31 24.86h5.83l-15.07-25.69c7.66-2.15 11.56-7.05 11.56-14.58zm-27.44-10.62h8.12c10.07 0 14.37 3.18 14.37 10.62S614.51 406 605.37 406h-8.9zm80.98-5.34c-13.7 0-22.21 11-22.21 28.7 0 17.46 8.51 28.31 22.21 28.31 13.91 0 22.21-10.61 22.21-28.39s-8.3-28.62-22.21-28.62zm0 52.45c-10.86 0-17.34-8.88-17.34-23.75 0-15.29 6.32-24.07 17.34-24.07s17.34 8.74 17.34 24-6.16 23.82-17.34 23.82zm87.62-13.82c0 9.17-4.31 13.83-12.81 13.83s-13-4.65-13-13.83V380h-4.79v38c0 11.53 6.47 18.15 17.76 18.15s17.68-6.61 17.68-18.15v-38h-4.87zM820.65 380h-12.44v55.37H813V413.8h7.26c13.41 0 20.49-6 20.49-17.21 0-11-6.75-16.59-20.1-16.59zm-.16 29.24H813v-24.75h7.65c10.62 0 15.15 3.64 15.15 12.18s-4.86 12.58-15.31 12.58zm-267.95-53.7c0-7.18-3.31-12.18-9.06-14 4.16-2.05 6.4-6 6.4-11.53 0-9.18-6.83-14.24-19.24-14.24h-12.36v55.33h15.41c11.98 0 18.85-5.67 18.85-15.56zM545 330.05c0 6-3.95 9.68-10.31 9.68h-11.62v-19.44H531c9.42 0 14 3.2 14 9.76zm-11.25 36.5h-10.7v-22.41h12c10.94 0 12.57 7.14 12.57 11.4.05 9.1-7.51 11.01-13.85 11.01zm65.54-13.35v-37.48h-4.87V353c0 9-4.31 13.61-12.81 13.61s-13-4.58-13-13.61v-37.28h-4.79v37.48c0 11.38 6.47 17.9 17.76 17.9s17.71-6.52 17.71-17.9zm29.59-13.84c-9.49-2.79-12.24-5.12-12.24-10.39s4.35-8.68 11.09-8.68c4.9 0 8.15 1.25 12 4.6l.74.65 3.13-3.31-.81-.7a20.85 20.85 0 00-15.14-5.79c-9.2 0-15.88 5.57-15.88 13.24 0 8.32 5.69 11.67 15.51 14.64 10 3 12.71 5.56 12.71 11.91 0 6.75-5.12 11.11-13 11.11-5.46 0-9.45-1.57-13.78-5.43l-.73-.65-3.25 3.3.83.72c5.23 4.53 10.47 6.55 17 6.55 10.45 0 17.76-6.47 17.76-15.74-.04-7.23-2.64-12.15-15.94-16.03zm28.39-23.62h4.79v55.37h-4.79zm52.37 35.81c0 4.77.07 8.5.15 11.18l-25.87-47h-2.86l-.3-.54v.54h-2v55.37h4.71v-34.64c0-5.81-.06-9.57-.16-12.24l25.88 46.88H712l.18.33v-.33h2.14v-55.36h-4.71zm49.74 15h-23.53v-22.26h19.62v-4.48h-19.62v-19.52h22.52l.71-4.55h-28.03v55.36h28.33v-4.55zm24.35-27.19c-9.49-2.79-12.24-5.12-12.24-10.39s4.35-8.68 11.09-8.68c4.9 0 8.15 1.25 12 4.6l.74.65 3.13-3.31-.81-.7a20.85 20.85 0 00-15.14-5.79c-9.2 0-15.88 5.57-15.88 13.24 0 8.32 5.69 11.67 15.51 14.64 10 3 12.71 5.56 12.71 11.91 0 6.75-5.12 11.11-13 11.11-5.46 0-9.45-1.57-13.78-5.43l-.73-.65-3.25 3.3.83.72c5.23 4.53 10.47 6.55 17 6.55 10.45 0 17.76-6.47 17.76-15.74-.04-7.23-2.67-12.15-15.94-16.03zm57.17 16c0-7.2-2.6-12.12-15.9-16-9.49-2.79-12.24-5.12-12.24-10.39s4.35-8.68 11.09-8.68c4.9 0 8.15 1.25 12 4.6l.74.65 3.13-3.31-.81-.7a20.85 20.85 0 00-15.14-5.79c-9.2 0-15.88 5.57-15.88 13.24 0 8.32 5.69 11.67 15.51 14.64 10 3 12.71 5.56 12.71 11.91 0 6.75-5.12 11.11-13 11.11-5.46 0-9.45-1.57-13.78-5.43l-.73-.65-3.25 3.3.83.72c5.23 4.53 10.47 6.55 17 6.55 10.42-.03 17.72-6.5 17.72-15.77z" fill="#1d8483"/><path class="cls-1" d="M536.3 240.4v69.47h-18V163.25h18v61.8h62.63v-61.8h18.22v146.62h-18.23V240.4zm136.35 31.97l-11.31 37.51h-18.43l46.71-146.62h23l46.5 146.62h-19.23l-11.1-37.51zm28.07-93.77l-23.67 78.64h47.13zm114.16 131.27h-18.44V253.4l-46.29-90.15h20.11l36 73.95 35.82-73.95h19.06l-46.29 89.93zm89.85-131.7v49.44H954v14.92h-49.27V295h60.32v14.92h-78.33V163.25h76.87l-2.09 14.92zm174.73 1.31l-10.34 11.3c-10.55-9-20.67-12.74-32.91-12.74-15.4 0-27 7.19-27 21 0 12.53 6.12 18.49 32.27 26.3 23.83 7 42.61 16 42.61 42.53 0 24.65-19 41.71-50.84 41.71-20.67 0-36.7-6.78-48.73-18.08l10.76-11.51c9.91 9.25 21.73 14.79 37.76 14.79 17.72 0 32.06-8.83 32.06-26.3 0-14.59-7.17-21-32.06-28.35-28.48-8.42-42.61-18.9-42.61-40.47 0-21.16 18.56-36.36 44.93-36.36 19.84-.05 32.28 5.7 44.1 16.18z"/></g></svg>