<svg xmlns="http://www.w3.org/2000/svg" viewBox="0 0 64 64"><path d="M58.1 56.82V3h-5.15V0h-41.9v3H5.9v53.82H0V64h64v-7.18h-5.9zM45 41.53v-8.46h8.46v8.46H45zm8.46 4.15v8.46H45v-8.47h8.46zM45 28.92v-8.45h8.46v8.46H45zM33.5 41.53v-8.46H42v8.46h-8.5zm8.5 4.14v8.46h-8.5v-8.46H42zm-8.5-16.75v-8.45H42v8.46h-8.5zm0-12.6V7.86H42v8.46h-8.5zM22 28.92v-8.45h8.5v8.46H22zm8.46 4.15v8.46H22v-8.46h8.5zM22 16.32V7.86h8.5v8.46H22zm0 29.36h8.5v8.46H22v-8.47zm31.41-29.36H45V7.86h8.46v8.46zM10.59 7.86H19v8.46h-8.41V7.86zm0 12.6H19v8.46h-8.41v-8.45zm0 12.6H19v8.46h-8.41v-8.45zm0 12.6H19v8.46h-8.41v-8.45z" fill="#1c8584"/></svg>