<svg xmlns="http://www.w3.org/2000/svg" viewBox="0 0 1240 600"><defs><style>.cls-1{fill:#444445}.cls-2{fill:#1a8383}.cls-3{fill:none;stroke:#1a8383;stroke-miterlimit:10;stroke-width:.5px}</style></defs><title>Typography</title><g id="Typography"><path class="cls-1" d="M341.6 164.81v27.66h-2.81v-54.84h2.81v24.6h28.55v-24.6H373v54.84h-2.81v-27.66zm55 11.82l-5.31 15.84h-2.81l18.82-54.84h3.46l18.82 54.84h-3l-5.31-15.84zm12.4-36.75l-11.5 34.17h22.9zm42.67 52.59h-2.89v-21.71l-17.37-33.13h3.22l15.68 30.72 15.36-30.72h3.14l-17.13 33zm35.06-52.27v22.2h20.18v2.49h-20.18v25h24.2v2.57h-27v-54.83h26.53l-.4 2.57zm67.7 2.42l-1.77 1.93c-4-3.62-7.64-5.15-13-5.15-7.64 0-12.47 4.18-12.47 10.29 0 6.35 3.54 9.09 13.35 12.06 10.7 3.22 15.6 6.83 15.6 15.92 0 9.33-7.08 15.6-17.21 15.6-7.24 0-12.3-2.65-16.8-6.67l1.85-1.93c3.94 3.62 8.2 6 14.88 6 8.6 0 14.47-5 14.47-12.87 0-7.64-3.7-10.53-13.83-13.67-11.1-3.46-15.2-7.08-15.2-14.47s6-12.95 15.28-12.95c6.81.04 10.83 2.29 14.85 5.91zm80.73 34.89c0 9.65-6.75 15-18.33 15H602v-54.88h11.66c11.82 0 18.74 4.42 18.74 13.59 0 7.24-3.86 11.1-9.89 12.14 6.86.4 12.65 4.59 12.65 14.15zm-30.32-15.2h13c7 0 11.66-4.18 11.66-11 0-7.72-5.55-11.1-15.52-11.1h-9.17zm27.42 15.2c0-8.76-5.87-12.79-14-12.79h-13.42v25.18h12.06c9.57 0 15.36-4.02 15.36-12.39zm21.63 13.19a2.45 2.45 0 0 1-2.57 2.57 2.57 2.57 0 1 1 0-5.15 2.45 2.45 0 0 1 2.57 2.58zm49.45-48.97l-1.69 1.93a18.86 18.86 0 0 0-12.55-4.26c-9.17 0-19.14 7.08-19.14 25.33 0 17.61 7.88 26 19.46 26a23.47 23.47 0 0 0 12.3-3.14V166.1h-11.4l-.32-2.57h14.55v25.57a29.75 29.75 0 0 1-15.12 4.18c-13.19 0-22.35-9.57-22.35-28.55 0-19.14 11.26-28 22-28a21.18 21.18 0 0 1 14.26 5zm20.74 48.97a2.45 2.45 0 0 1-2.57 2.57 2.57 2.57 0 1 1 0-5.15 2.45 2.45 0 0 1 2.57 2.58zm48.4-25.89v27.66h-2.81v-54.84h2.81v24.6H801v-24.6h2.81v54.84H801v-27.66zm57.33-24.61v22.2H850v2.49h-20.19v25H854v2.57h-27v-54.83h26.53l-.4 2.57zm41.57 36.43l-5.31 15.84h-2.81l18.82-54.84h3.46l18.82 54.84h-3l-5.31-15.84zm12.38-36.75l-11.5 34.17h22.92zm70.76 24.61c0 23.08-13 28-23.88 28h-10.78v-54.86h10.45c11.91 0 24.21 4.42 24.21 26.86zm-31.84 25.41h8c10.13 0 20.83-4.58 20.83-25.41 0-21.23-11.1-24.28-21.39-24.28h-7.48zm54.11-49.7v22.2H997v2.49h-20.21v25H1001v2.57h-27v-54.83h26.53l-.4 2.57zm43.9 26.7v25.57h-2.81v-54.84h12.46c12.87 0 18.57 5.15 18.57 14.47 0 8.52-5 12.62-12.46 14.31l15.28 26.05h-3.54l-14.71-25.57zm25.25-14.8c0-7.72-4.26-12-15.84-12h-9.41v24.2h10.21c9.49.03 15.04-3.75 15.04-12.19z"/><path class="cls-2" d="M210.25 156.53h-4.88v-1.36h11.33v1.36h-4.88v14.88h-1.57zm8.32.17v-2.4H220v2.39zm0 2.91H220v11.8h-1.48zm3.43 0h2v-3.52h1.48v3.52H228v1.27h-2.49v7.88c0 1.06.28 1.5 1.29 1.5a6.1 6.1 0 0 0 1-.07v1.17a4.21 4.21 0 0 1-1.41.21c-1.5 0-2.37-.56-2.37-2.44v-8.26h-2zm8 11.8V154.3h1.48v17.1zm5.78-5.66c0 2.7 1.15 4.58 3.36 4.58a3 3 0 0 0 3-2.16h1.46a4.35 4.35 0 0 1-4.53 3.47c-3.66 0-4.79-3-4.79-6.19 0-2.89 1.41-6.08 4.88-6.08s4.65 2.91 4.65 5.51v.87zm6.5-1.2c0-2.25-1-3.92-3.19-3.92-2.56 0-3.14 2.39-3.26 3.92z"/><path class="cls-3" d="M278.96 134.56v60.72m0 29.73v30.01"/><path class="cls-1" d="M341.49 340.64l-3.44-13.86h1.81c1.41 5.73 2.33 9.72 2.63 11.89.32-1.87 2.09-8.52 2.93-11.89h1.65c.78 3.11 2.57 10 2.85 11.81.42-2.51 2.19-8.94 2.87-11.81h1.71l-3.72 13.86H349c-.78-3.21-2.41-9.52-2.77-11.49-.4 2.15-2 8.34-2.83 11.49zm15.12-4.78c0 2 .86 3.58 2.65 3.58a2.34 2.34 0 0 0 2.35-1.67h1.63a3.89 3.89 0 0 1-4.06 3.07c-3.18 0-4.26-2.51-4.26-5.32 0-2.51 1.23-5.26 4.36-5.26s4.12 2.49 4.12 4.84v.76zm5.14-1.21c0-1.75-.74-3.05-2.51-3.05-2 0-2.49 1.83-2.59 3.05zm8.78-8.65h1.67v5.84a3.27 3.27 0 0 1 3.05-1.61c2.47 0 3.92 2 3.92 5s-1.31 5.58-4.22 5.58a2.81 2.81 0 0 1-2.77-1.47 9 9 0 0 1-.06 1.29h-1.62v-2.89zm4.32 5.68c-2 0-2.75 1.31-2.75 3.72s.58 4 2.69 4c1.83 0 2.67-1.69 2.67-4.08.01-2.18-.86-3.62-2.61-3.62zm6.56 2.23v-3.45H383v2.07a3.42 3.42 0 0 1 3.29-2.25V332c-2.29.08-3.25 1.43-3.25 3.64v5h-1.67zm6.65-5.75V326h1.67v2.15zm0 2.29h1.67v10.18h-1.67zm4.61 3.2v-3.19h1.63a12.36 12.36 0 0 1 .06 1.59 3.12 3.12 0 0 1 3-1.79c1.89 0 3.23 1.06 3.23 3.82v6.57h-1.67v-6.31c0-1.49-.5-2.61-2-2.61-1.81 0-2.53 1.35-2.53 3.48v5.44h-1.67zm18.7 6.2c0 3.19-1.29 5-4.38 5s-3.88-1.61-4-3.05h1.65a2.2 2.2 0 0 0 2.45 1.69c2.17 0 2.67-1.43 2.67-3.66V339a2.87 2.87 0 0 1-3 1.67c-2.39 0-3.94-2-3.94-5.16s1.83-5.24 4.18-5.24c1.61 0 2.43.66 2.71 1.45a9.23 9.23 0 0 1 .08-1.24h1.63v3zm-4.22-.64c1.95 0 2.63-1.23 2.63-3.78s-.56-3.74-2.53-3.74c-1.69 0-2.71 1.41-2.71 3.78s1.01 3.74 2.62 3.74zm10.64-8.76h1.63v-3h1.67v3h2v1.37h-2v6.37c0 .86.22 1.23 1.09 1.23a4.43 4.43 0 0 0 .78-.08v1.27a4.44 4.44 0 0 1-1.33.16c-1.49 0-2.21-.56-2.21-2.25v-6.69h-1.63zm15.39 4.93c0 3-1.29 5.44-4.56 5.44s-4.42-2.59-4.42-5.39 1.47-5.18 4.56-5.18c2.88 0 4.42 2.19 4.42 5.13zm-7.25 0c0 2.33 1 4 2.79 4s2.73-1.65 2.73-4c0-2.23-.92-3.76-2.77-3.76s-2.75 1.57-2.75 3.79zm17.45 4.47c0 3.19-1.29 5-4.38 5s-3.88-1.61-4-3.05h1.65a2.2 2.2 0 0 0 2.45 1.69c2.17 0 2.67-1.43 2.67-3.66V339a2.87 2.87 0 0 1-3 1.67c-2.39 0-3.94-2-3.94-5.16s1.83-5.24 4.18-5.24c1.61 0 2.43.66 2.71 1.45a9.23 9.23 0 0 1 .08-1.24h1.63v3zm-4.22-.64c1.95 0 2.63-1.23 2.63-3.78s-.56-3.74-2.53-3.74c-1.69 0-2.71 1.41-2.71 3.78s1 3.74 2.61 3.74zm8.14-3.35c0 2 .86 3.58 2.65 3.58a2.34 2.34 0 0 0 2.35-1.67h1.63a3.89 3.89 0 0 1-4.06 3.07c-3.18 0-4.26-2.51-4.26-5.32 0-2.51 1.23-5.26 4.36-5.26s4.12 2.49 4.12 4.84v.76zm5.14-1.21c0-1.75-.74-3.05-2.51-3.05-2 0-2.49 1.83-2.59 3.05zm2.66-4.2h1.63v-3h1.67v3h2v1.37h-2v6.37c0 .86.22 1.23 1.09 1.23a4.43 4.43 0 0 0 .78-.08v1.27a4.44 4.44 0 0 1-1.33.16c-1.49 0-2.21-.56-2.21-2.25v-6.69h-1.63zm8.68-4.45v5.91a3.16 3.16 0 0 1 3-1.67c1.49 0 3.19.76 3.19 3.66v6.73h-1.65v-6.45c0-1.55-.6-2.47-2.09-2.47-1.65 0-2.49 1.09-2.49 3.11v5.81h-1.67V326zm10.22 9.86c0 2 .86 3.58 2.65 3.58a2.34 2.34 0 0 0 2.35-1.67h1.63a3.89 3.89 0 0 1-4.06 3.07c-3.18 0-4.26-2.51-4.26-5.32 0-2.51 1.23-5.26 4.36-5.26s4.12 2.49 4.12 4.84v.76zm5.14-1.21c0-1.75-.74-3.05-2.51-3.05-2 0-2.49 1.83-2.59 3.05zm3.86-.74v-3.45h1.63v2.07a3.42 3.42 0 0 1 3.29-2.25V332c-2.29.08-3.25 1.43-3.25 3.64v5H483zm18.71 4.46a18.79 18.79 0 0 0 .14 2.27h-1.51a9.28 9.28 0 0 1-.14-1.57 3 3 0 0 1-3.09 1.75 2.92 2.92 0 0 1-3.23-3.09c0-1.53 1-3.23 4.62-3.23h1.57v-1c0-1-.28-2-2-2a1.86 1.86 0 0 0-2.15 1.81h-1.63c.14-1.71 1.12-3.09 3.84-3.09 2.13 0 3.6.86 3.6 3.17zm-1.61-2.67h-1.61c-2.47 0-2.93 1-2.93 1.93a1.72 1.72 0 0 0 1.89 1.83c2 0 2.65-1.37 2.65-3.54zm10.01-5.25c1.37 4.32 2.27 7.17 2.59 8.6.2-1.21 2-6.35 2.69-8.6h1.65l-3.52 10.18h-1.83l-3.39-10.18zm15.56 7.92a18.79 18.79 0 0 0 .14 2.27h-1.51a9.28 9.28 0 0 1-.14-1.57 3 3 0 0 1-3.09 1.75 2.92 2.92 0 0 1-3.23-3.09c0-1.53 1-3.23 4.62-3.23H524v-1c0-1-.28-2-2-2a1.86 1.86 0 0 0-2.15 1.81h-1.63c.14-1.71 1.12-3.09 3.84-3.09 2.13 0 3.6.86 3.6 3.17zm-1.61-2.67h-1.61c-2.47 0-2.93 1-2.93 1.93a1.72 1.72 0 0 0 1.89 1.83c2 0 2.65-1.37 2.65-3.54zm4.55-1.79v-3.45h1.63v2.07a3.42 3.42 0 0 1 3.29-2.25V332c-2.29.08-3.25 1.43-3.25 3.64v5h-1.67zm6.65-5.75V326h1.67v2.15zm0 2.29h1.67v10.18h-1.67zm5.61 5.41c0 2 .86 3.58 2.65 3.58a2.34 2.34 0 0 0 2.35-1.67h1.63a3.89 3.89 0 0 1-4.06 3.07c-3.18 0-4.26-2.51-4.26-5.32 0-2.51 1.23-5.26 4.36-5.26s4.12 2.49 4.12 4.84v.76zm5.14-1.21c0-1.75-.74-3.05-2.51-3.05-2 0-2.49 1.83-2.59 3.05zm2.66-4.2h1.63v-3h1.7v3h2v1.37h-2v6.37c0 .86.22 1.23 1.09 1.23a4.43 4.43 0 0 0 .78-.08v1.27a4.44 4.44 0 0 1-1.33.16c-1.49 0-2.21-.56-2.21-2.25v-6.69h-1.63zm8.33 0c1.59 4.94 2.41 7.41 2.67 8.64.3-1.13 1.21-4.24 2.59-8.64H564l-3.58 10.65c-1 3.09-1.87 3.74-3.68 3.74a4.52 4.52 0 0 1-.88-.08v-1.43a6.23 6.23 0 0 0 .88.06c1.23 0 1.61-1 2.09-2.43l-3.64-10.51zm21.91 4.93c0 3-1.29 5.44-4.56 5.44s-4.42-2.59-4.42-5.39 1.47-5.18 4.56-5.18c2.88 0 4.42 2.19 4.42 5.13zm-7.25 0c0 2.33 1 4 2.79 4s2.73-1.65 2.73-4c0-2.23-.92-3.76-2.77-3.76s-2.75 1.57-2.75 3.79zm9.85 5.26v-8.82h-1.57v-1.37h1.57v-1.27c0-1.81.62-3.34 2.75-3.34a3.52 3.52 0 0 1 1 .12v1.43a3 3 0 0 0-.82-.1c-.9 0-1.25.6-1.25 1.81v1.35h1.91v1.37h-1.91v8.82zm8.34-10.19h1.63v-3h1.67v3h2v1.37h-2v6.37c0 .86.22 1.23 1.09 1.23a4.43 4.43 0 0 0 .78-.08v1.27a4.44 4.44 0 0 1-1.33.16c-1.49 0-2.21-.56-2.21-2.25v-6.69h-1.63zm14.27 7.92a19.13 19.13 0 0 0 .14 2.27h-1.51a9.28 9.28 0 0 1-.14-1.57 3 3 0 0 1-3.09 1.75 2.92 2.92 0 0 1-3.23-3.09c0-1.53 1-3.23 4.62-3.23h1.57v-1c0-1-.28-2-2-2a1.86 1.86 0 0 0-2.15 1.81h-1.63c.14-1.71 1.12-3.09 3.84-3.09 2.13 0 3.6.86 3.6 3.17zm-1.61-2.67h-1.61c-2.47 0-2.93 1-2.93 1.93a1.72 1.72 0 0 0 1.89 1.83c2 0 2.65-1.37 2.65-3.54zm4.55 4.94V326h1.67v14.62zm5.61-4.78c0 2 .86 3.58 2.65 3.58a2.34 2.34 0 0 0 2.35-1.67h1.63a3.89 3.89 0 0 1-4.06 3.07c-3.18 0-4.26-2.51-4.26-5.32 0-2.51 1.23-5.26 4.36-5.26s4.12 2.49 4.12 4.84v.76zm5.14-1.21c0-1.75-.74-3.05-2.51-3.05-2 0-2.49 1.83-2.59 3.05zm3.86-1v-3.19h1.63a12.36 12.36 0 0 1 .06 1.59 3.12 3.12 0 0 1 3-1.79c1.89 0 3.23 1.06 3.23 3.82v6.57h-1.69v-6.31c0-1.49-.5-2.61-2-2.61-1.81 0-2.53 1.35-2.53 3.48v5.44h-1.67zm9.39-3.2h1.63v-3h1.67v3h2v1.37h-2v6.37c0 .86.22 1.23 1.09 1.23a4.43 4.43 0 0 0 .78-.08v1.27a4.44 4.44 0 0 1-1.33.16c-1.49 0-2.21-.56-2.21-2.25v-6.69h-1.63zm7.94 7.24a2.1 2.1 0 0 0 2.29 1.83c1.41 0 1.95-.74 1.95-1.61s-.64-1.41-2.37-1.87c-2.49-.68-3.13-1.59-3.13-3s.92-2.83 3.42-2.83 3.42 1.37 3.56 2.93h-1.65a1.79 1.79 0 0 0-2-1.63c-1.15 0-1.67.54-1.67 1.39s.38 1.18 2.09 1.63c2.59.7 3.42 1.57 3.42 3.19 0 1.89-1.49 3.05-3.68 3.05s-3.7-1-3.88-3.13zm20.22.68a19.13 19.13 0 0 0 .14 2.27h-1.51a9.28 9.28 0 0 1-.14-1.57 3 3 0 0 1-3.09 1.75 2.92 2.92 0 0 1-3.23-3.09c0-1.53 1-3.23 4.62-3.23h1.57v-1c0-1-.28-2-2-2a1.86 1.86 0 0 0-2.15 1.81h-1.63c.14-1.71 1.12-3.09 3.84-3.09 2.13 0 3.6.86 3.6 3.17zm-1.61-2.67H656c-2.47 0-2.93 1-2.93 1.93a1.72 1.72 0 0 0 1.89 1.83c2 0 2.65-1.37 2.65-3.54zm4.55-2.05v-3.19h1.63a12.36 12.36 0 0 1 .06 1.59 3.12 3.12 0 0 1 3-1.79c1.89 0 3.23 1.06 3.23 3.82v6.57h-1.67v-6.31c0-1.49-.5-2.61-2-2.61-1.81 0-2.53 1.35-2.53 3.48v5.44h-1.67zm18.75-7.65v14.65h-1.63c0-.26-.06-.9-.06-1.51-.54 1.19-1.37 1.69-3 1.69-2.63 0-4-2.23-4-5.26s1.53-5.3 4.3-5.3c1.65 0 2.41.66 2.69 1.23V326zm-4.24 13.38c2.19 0 2.65-1.67 2.65-4.06 0-2.81-.82-3.64-2.55-3.64s-2.77 1.37-2.77 3.8 1.06 3.91 2.67 3.91zm13.17-3.52c0 2 .86 3.58 2.65 3.58a2.34 2.34 0 0 0 2.35-1.67h1.63a3.89 3.89 0 0 1-4.06 3.07c-3.18 0-4.26-2.51-4.26-5.32 0-2.51 1.23-5.26 4.36-5.26s4.12 2.49 4.12 4.84v.76zm5.14-1.21c0-1.75-.74-3.05-2.51-3.05-2 0-2.49 1.83-2.59 3.05zm4.38-4.2c1.33 2.23 2 3.27 2.29 3.86.4-.68 1.24-2 2.39-3.86h1.81l-3.26 4.88 3.27 5.3H704c-1.16-2-2-3.36-2.39-4-.3.56-1.18 2.09-2.37 4h-1.83l3.23-5.06-3.13-5.12zm8.08 14.23v-14.23h1.65v1.65a3.27 3.27 0 0 1 3.17-1.85c2.23 0 3.82 1.75 3.82 5.12s-1.83 5.42-4.22 5.42a2.9 2.9 0 0 1-2.77-1.39v5.26zm4.3-13c-2.09 0-2.71 1.43-2.71 3.88 0 2.25.42 3.8 2.61 3.8 1.71 0 2.71-1.41 2.71-3.94s-.98-3.72-2.61-3.72zm7.58 4.18c0 2 .86 3.58 2.65 3.58a2.34 2.34 0 0 0 2.35-1.67H726a3.89 3.89 0 0 1-4.06 3.07c-3.18 0-4.26-2.51-4.26-5.32 0-2.51 1.23-5.26 4.36-5.26s4.12 2.49 4.12 4.84v.76zm5.14-1.21c0-1.75-.74-3.05-2.51-3.05-2 0-2.49 1.83-2.59 3.05zm3.87-.74v-3.45h1.63v2.07a3.42 3.42 0 0 1 3.29-2.25V332c-2.29.08-3.25 1.43-3.25 3.64v5h-1.67zm5.97-3.46h1.63v-3h1.67v3h2v1.37h-2v6.37c0 .86.22 1.23 1.09 1.23a4.43 4.43 0 0 0 .78-.08v1.27a4.44 4.44 0 0 1-1.33.16c-1.49 0-2.21-.56-2.21-2.25v-6.69h-1.63zm7.11-2.29V326h1.67v2.15zm0 2.29h1.67v10.18h-1.67zm5.35 7.24a2.1 2.1 0 0 0 2.29 1.83c1.41 0 1.95-.74 1.95-1.61s-.64-1.41-2.37-1.87c-2.49-.68-3.13-1.59-3.13-3s.92-2.83 3.42-2.83 3.42 1.37 3.56 2.93h-1.65a1.79 1.79 0 0 0-2-1.63c-1.15 0-1.67.54-1.67 1.39s.38 1.18 2.09 1.63c2.59.7 3.42 1.57 3.42 3.19 0 1.89-1.49 3.05-3.68 3.05s-3.7-1-3.88-3.13zm9.19-1.83c0 2 .86 3.58 2.65 3.58a2.34 2.34 0 0 0 2.35-1.67h1.63a3.89 3.89 0 0 1-4.06 3.07c-3.18 0-4.26-2.51-4.26-5.32 0-2.51 1.23-5.26 4.36-5.26s4.12 2.49 4.12 4.84v.76zm5.14-1.21c0-1.75-.74-3.05-2.51-3.05-2 0-2.49 1.83-2.59 3.05zm7.36-4.2h1.63v-3h1.67v3h2v1.37h-2v6.37c0 .86.22 1.23 1.09 1.23a4.43 4.43 0 0 0 .78-.08v1.27a4.44 4.44 0 0 1-1.33.16c-1.49 0-2.21-.56-2.21-2.25v-6.69h-1.63zm15.39 4.93c0 3-1.29 5.44-4.56 5.44s-4.42-2.59-4.42-5.39 1.47-5.18 4.56-5.18c2.88 0 4.42 2.19 4.42 5.13zm-7.25 0c0 2.33 1 4 2.79 4s2.73-1.65 2.73-4c0-2.23-.92-3.76-2.77-3.76s-2.75 1.57-2.75 3.79zm22.15 2a3.91 3.91 0 0 1-4.1 3.45c-2.85 0-4.3-1.91-4.3-5.3 0-3 1.49-5.28 4.4-5.28a3.72 3.72 0 0 1 4 3.56h-1.67a2.29 2.29 0 0 0-2.33-2.19c-1.87 0-2.67 1.63-2.67 3.88 0 2.61.94 4 2.65 4 1.41 0 2-.88 2.37-2.09zm2.07-3.47v-3.45h1.63v2.07a3.42 3.42 0 0 1 3.29-2.25V332c-2.29.08-3.25 1.43-3.25 3.64v5h-1.67zm7.54 1.95c0 2 .86 3.58 2.65 3.58a2.34 2.34 0 0 0 2.35-1.67H815a3.89 3.89 0 0 1-4.06 3.07c-3.18 0-4.26-2.51-4.26-5.32 0-2.51 1.23-5.26 4.36-5.26s4.12 2.49 4.12 4.84v.76zm5.14-1.21c0-1.75-.74-3.05-2.51-3.05-2 0-2.49 1.83-2.59 3.05zm11.02 3.72a19.13 19.13 0 0 0 .14 2.27h-1.51a9.28 9.28 0 0 1-.14-1.57 3 3 0 0 1-3.09 1.75 2.92 2.92 0 0 1-3.23-3.09c0-1.53 1-3.23 4.62-3.23h1.57v-1c0-1-.28-2-2-2a1.86 1.86 0 0 0-2.15 1.81h-1.63c.14-1.71 1.12-3.09 3.84-3.09 2.13 0 3.6.86 3.6 3.17zm-1.61-2.67h-1.61c-2.47 0-2.93 1-2.93 1.93a1.72 1.72 0 0 0 1.89 1.83c2 0 2.65-1.37 2.65-3.54zm3.02-5.25h1.63v-3h1.67v3h2v1.37h-2v6.37c0 .86.22 1.23 1.09 1.23a4.43 4.43 0 0 0 .78-.08v1.27a4.44 4.44 0 0 1-1.33.16c-1.49 0-2.21-.56-2.21-2.25v-6.69h-1.63zm8.08 5.41c0 2 .86 3.58 2.65 3.58a2.34 2.34 0 0 0 2.35-1.67h1.63a3.89 3.89 0 0 1-4.06 3.07c-3.18 0-4.26-2.51-4.26-5.32 0-2.51 1.23-5.26 4.36-5.26s4.12 2.49 4.12 4.84v.76zm5.14-1.21c0-1.75-.74-3.05-2.51-3.05-2 0-2.49 1.83-2.59 3.05zm16 3.72a18.79 18.79 0 0 0 .14 2.27h-1.51a9.28 9.28 0 0 1-.14-1.57 3 3 0 0 1-3.09 1.75 2.92 2.92 0 0 1-3.23-3.09c0-1.53 1-3.23 4.62-3.23h1.57v-1c0-1-.28-2-2-2a1.86 1.86 0 0 0-2.15 1.81h-1.63c.14-1.71 1.12-3.09 3.84-3.09 2.13 0 3.6.86 3.6 3.17zm-1.61-2.67h-1.61c-2.47 0-2.93 1-2.93 1.93a1.72 1.72 0 0 0 1.89 1.83c2 0 2.65-1.37 2.65-3.54zm10.02-5.25c1.37 4.32 2.27 7.17 2.59 8.6.2-1.21 2-6.35 2.69-8.6h1.65L867 340.64h-1.83l-3.39-10.18zm15.55 7.92a18.79 18.79 0 0 0 .14 2.27h-1.51a9.28 9.28 0 0 1-.14-1.57 3 3 0 0 1-3.09 1.75 2.92 2.92 0 0 1-3.23-3.09c0-1.53 1-3.23 4.62-3.23h1.57v-1c0-1-.28-2-2-2a1.86 1.86 0 0 0-2.15 1.81h-1.63c.14-1.71 1.12-3.09 3.84-3.09 2.13 0 3.6.86 3.6 3.17zm-1.61-2.67h-1.61c-2.47 0-2.93 1-2.93 1.93a1.72 1.72 0 0 0 1.89 1.83c2 0 2.65-1.37 2.65-3.54zm4.51-1.79v-3.45h1.63v2.07a3.42 3.42 0 0 1 3.29-2.25V332c-2.29.08-3.25 1.43-3.25 3.64v5H882zm6.7-5.75V326h1.67v2.15zm0 2.29h1.67v10.18h-1.67zm5.6 5.41c0 2 .86 3.58 2.65 3.58a2.34 2.34 0 0 0 2.35-1.67h1.63a3.89 3.89 0 0 1-4.06 3.07c-3.18 0-4.26-2.51-4.26-5.32 0-2.51 1.23-5.26 4.36-5.26s4.12 2.49 4.12 4.84v.76zm5.14-1.21c0-1.75-.74-3.05-2.51-3.05-2 0-2.49 1.83-2.59 3.05zm2.66-4.2h1.63v-3h1.67v3h2v1.37h-2v6.37c0 .86.22 1.23 1.09 1.23a4.43 4.43 0 0 0 .78-.08v1.27a4.44 4.44 0 0 1-1.33.16c-1.49 0-2.21-.56-2.21-2.25v-6.69h-1.63zm8.34 0c1.59 4.94 2.41 7.41 2.67 8.64.3-1.13 1.21-4.24 2.59-8.64h1.73l-3.58 10.65c-1 3.09-1.87 3.74-3.68 3.74a4.52 4.52 0 0 1-.88-.08v-1.43a6.23 6.23 0 0 0 .88.06c1.23 0 1.61-1 2.09-2.43l-3.64-10.51zm21.91 4.93c0 3-1.29 5.44-4.56 5.44s-4.42-2.59-4.42-5.39 1.47-5.18 4.56-5.18c2.87 0 4.42 2.19 4.42 5.13zm-7.25 0c0 2.33 1 4 2.79 4s2.73-1.65 2.73-4c0-2.23-.92-3.76-2.77-3.76s-2.75 1.57-2.75 3.79zm9.85 5.26v-8.82h-1.57v-1.37h1.57v-1.27c0-1.81.62-3.34 2.75-3.34a3.52 3.52 0 0 1 1 .12v1.43a3 3 0 0 0-.82-.1c-.9 0-1.25.6-1.25 1.81v1.35h1.91v1.37h-1.91v8.82zM339 350.13h1.67V356a3.27 3.27 0 0 1 3.05-1.61c2.47 0 3.92 2 3.92 5s-1.31 5.58-4.22 5.58a2.81 2.81 0 0 1-2.77-1.47 9 9 0 0 1-.06 1.29H339v-2.89zm4.32 5.69c-2 0-2.75 1.31-2.75 3.72s.58 4 2.69 4c1.83 0 2.67-1.69 2.67-4.08.07-2.19-.83-3.64-2.57-3.64zm14.31 6.07v2.87h-1.61a10.3 10.3 0 0 1-.08-1.63 3 3 0 0 1-3 1.81c-1.59 0-3.11-.76-3.11-3.52v-6.85h1.65v6.53c0 1.33.42 2.39 2 2.39s2.45-1 2.45-3.23v-5.69h1.69zm3.68-.08a2.1 2.1 0 0 0 2.29 1.83c1.41 0 1.95-.74 1.95-1.61s-.64-1.41-2.37-1.87c-2.49-.68-3.13-1.59-3.13-3s.92-2.83 3.42-2.83 3.42 1.37 3.56 2.93h-1.65a1.79 1.79 0 0 0-2-1.63c-1.15 0-1.67.54-1.67 1.39s.38 1.19 2.09 1.63c2.59.7 3.42 1.57 3.42 3.19 0 1.89-1.49 3.05-3.68 3.05s-3.7-1-3.88-3.13zm8.04-9.53v-2.15H371v2.15zm0 2.29H371v10.19h-1.67zm4.65 3.2v-3.19h1.63a12.38 12.38 0 0 1 .06 1.59 3.12 3.12 0 0 1 3-1.79c1.89 0 3.23 1.06 3.23 3.82v6.57h-1.67v-6.31c0-1.49-.5-2.61-2-2.61-1.81 0-2.53 1.35-2.53 3.48v5.44H374zm11.79 2.23c0 2 .86 3.58 2.65 3.58a2.34 2.34 0 0 0 2.35-1.67h1.63a3.89 3.89 0 0 1-4.06 3.07c-3.18 0-4.26-2.51-4.26-5.32 0-2.51 1.23-5.26 4.36-5.26s4.12 2.49 4.12 4.84v.76zm5.14-1.21c0-1.75-.74-3.05-2.51-3.05-2 0-2.49 1.83-2.59 3.05zm4.67 3.02a2.1 2.1 0 0 0 2.29 1.83c1.41 0 1.95-.74 1.95-1.61s-.64-1.41-2.37-1.87c-2.49-.68-3.13-1.59-3.13-3s.92-2.83 3.42-2.83 3.42 1.37 3.56 2.93h-1.65a1.79 1.79 0 0 0-2-1.63c-1.15 0-1.67.54-1.67 1.39s.38 1.19 2.09 1.63c2.59.7 3.42 1.57 3.42 3.19 0 1.89-1.49 3.05-3.68 3.05s-3.7-1-3.88-3.13zm8.97 0a2.1 2.1 0 0 0 2.29 1.83c1.41 0 1.95-.74 1.95-1.61s-.64-1.41-2.37-1.87c-2.49-.68-3.13-1.59-3.13-3s.92-2.83 3.42-2.83 3.42 1.37 3.56 2.93h-1.65a1.79 1.79 0 0 0-2-1.63c-1.15 0-1.67.54-1.67 1.39s.38 1.19 2.09 1.63c2.59.7 3.42 1.57 3.42 3.19 0 1.89-1.49 3.05-3.68 3.05s-3.7-1-3.88-3.13zm21.32-2.31c0 3-1.29 5.44-4.56 5.44s-4.42-2.59-4.42-5.38 1.47-5.18 4.56-5.18c2.87-.01 4.42 2.18 4.42 5.12zm-7.25 0c0 2.33 1 4 2.79 4s2.73-1.65 2.73-4c0-2.23-.92-3.76-2.77-3.76s-2.75 1.57-2.75 3.8zm9.49 9.3v-14.23h1.65v1.65a3.28 3.28 0 0 1 3.17-1.85c2.23 0 3.82 1.75 3.82 5.12s-1.83 5.42-4.22 5.42a2.9 2.9 0 0 1-2.77-1.39v5.26zm4.3-13c-2.09 0-2.71 1.43-2.71 3.88 0 2.25.42 3.8 2.61 3.8 1.71 0 2.71-1.41 2.71-3.94s-.99-3.72-2.61-3.72zm6.57 13v-14.23h1.65v1.65a3.28 3.28 0 0 1 3.17-1.85c2.23 0 3.82 1.75 3.82 5.12s-1.83 5.42-4.22 5.42a2.9 2.9 0 0 1-2.77-1.39v5.26zm4.3-13c-2.09 0-2.71 1.43-2.71 3.88 0 2.25.42 3.8 2.61 3.8 1.71 0 2.71-1.41 2.71-3.94s-.98-3.72-2.61-3.72zm14.85 3.7c0 3-1.29 5.44-4.56 5.44s-4.42-2.59-4.42-5.38 1.47-5.18 4.56-5.18c2.88-.01 4.42 2.18 4.42 5.12zm-7.25 0c0 2.33 1 4 2.79 4s2.73-1.65 2.73-4c0-2.23-.92-3.76-2.77-3.76s-2.75 1.57-2.75 3.8zm9.49-1.5v-3.46H462v2.07a3.42 3.42 0 0 1 3.29-2.25v1.73c-2.29.08-3.25 1.43-3.25 3.64v5h-1.67zm5.97-3.43H468v-3h1.67v3h2v1.37h-2v6.37c0 .87.22 1.23 1.09 1.23a4.42 4.42 0 0 0 .78-.08v1.27a4.44 4.44 0 0 1-1.33.16c-1.49 0-2.21-.56-2.21-2.25v-6.69h-1.63zm14.64 7.32v2.87h-1.61a10.3 10.3 0 0 1-.08-1.63 3 3 0 0 1-3 1.81c-1.59 0-3.11-.76-3.11-3.52v-6.85h1.65v6.53c0 1.33.42 2.39 2 2.39s2.45-1 2.45-3.23v-5.69h1.7zm2.93-4.12v-3.19h1.63a12.38 12.38 0 0 1 .06 1.59 3.12 3.12 0 0 1 3-1.79c1.89 0 3.23 1.06 3.23 3.82v6.57h-1.67v-6.31c0-1.49-.5-2.61-2-2.61-1.81 0-2.53 1.35-2.53 3.48v5.44h-1.67zm10.83-5.49v-2.15h1.67v2.15zm0 2.29h1.67v10.19h-1.67zm3.3 0h1.63v-3h1.67v3h2v1.37h-2v6.37c0 .87.22 1.23 1.09 1.23a4.42 4.42 0 0 0 .78-.08v1.27a4.44 4.44 0 0 1-1.33.16c-1.49 0-2.21-.56-2.21-2.25v-6.69h-1.63zm7.12-2.29v-2.15h1.67v2.15zm0 2.29h1.67v10.19h-1.67zm5.6 5.43c0 2 .86 3.58 2.65 3.58a2.34 2.34 0 0 0 2.35-1.67h1.63a3.89 3.89 0 0 1-4.06 3.07c-3.18 0-4.26-2.51-4.26-5.32 0-2.51 1.23-5.26 4.36-5.26s4.12 2.49 4.12 4.84v.76zm5.14-1.21c0-1.75-.74-3.05-2.51-3.05-2 0-2.49 1.83-2.59 3.05zm4.67 3.02a2.1 2.1 0 0 0 2.29 1.83c1.41 0 1.95-.74 1.95-1.61s-.64-1.41-2.37-1.87c-2.49-.68-3.13-1.59-3.13-3s.92-2.83 3.42-2.83 3.42 1.37 3.56 2.93h-1.65a1.79 1.79 0 0 0-2-1.63c-1.15 0-1.67.54-1.67 1.39s.38 1.19 2.09 1.63c2.59.7 3.42 1.57 3.42 3.19 0 1.89-1.49 3.05-3.68 3.05s-3.7-1-3.88-3.13zm7.88 2.97V362h1.65v2.77zm11.36-.02l-3.44-13.86h1.81c1.41 5.73 2.33 9.72 2.63 11.89.32-1.87 2.09-8.52 2.93-11.89h1.65c.78 3.11 2.57 10 2.85 11.81.42-2.51 2.19-8.94 2.87-11.81h1.71l-3.72 13.86h-1.82c-.78-3.21-2.41-9.52-2.77-11.49-.4 2.15-2 8.34-2.83 11.49zm15.11-4.76c0 2 .86 3.58 2.65 3.58a2.34 2.34 0 0 0 2.35-1.67h1.63a3.89 3.89 0 0 1-4.06 3.07c-3.18 0-4.26-2.51-4.26-5.32 0-2.51 1.23-5.26 4.36-5.26s4.12 2.49 4.12 4.84v.76zm5.14-1.21c0-1.75-.74-3.05-2.51-3.05-2 0-2.49 1.83-2.59 3.05zm9.82 1.21c0 2 .86 3.58 2.65 3.58a2.34 2.34 0 0 0 2.35-1.67h1.63a3.89 3.89 0 0 1-4.06 3.07c-3.18 0-4.26-2.51-4.26-5.32 0-2.51 1.23-5.26 4.36-5.26s4.12 2.49 4.12 4.84v.76zm5.14-1.21c0-1.75-.74-3.05-2.51-3.05-2 0-2.49 1.83-2.59 3.05zm3.86-1.02v-3.19h1.63a12.38 12.38 0 0 1 .06 1.59 3.12 3.12 0 0 1 3-1.79c1.89 0 3.23 1.06 3.23 3.82v6.57h-1.67v-6.31c0-1.49-.5-2.61-2-2.61-1.81 0-2.53 1.35-2.53 3.48v5.44h-1.72zm12.5-3.2V365c0 2.27-.26 3.94-2.65 3.94a4.73 4.73 0 0 1-.64 0v-1.45h.52c1.06 0 1.11-.86 1.11-2.07v-10.85zm-1.67-2.29v-2.15h1.67v2.15zm12.89 7.22c0 3-1.29 5.44-4.56 5.44s-4.42-2.59-4.42-5.38 1.47-5.18 4.56-5.18c2.87-.01 4.42 2.18 4.42 5.12zm-7.25 0c0 2.33 1 4 2.79 4s2.73-1.65 2.73-4c0-2.23-.92-3.76-2.77-3.76s-2.76 1.57-2.76 3.8zm10.15-4.93c1.59 4.94 2.41 7.41 2.67 8.64.3-1.13 1.21-4.24 2.59-8.64h1.73L609 365.22c-1 3.09-1.87 3.74-3.68 3.74a4.52 4.52 0 0 1-.88-.08v-1.43a6.23 6.23 0 0 0 .88.06c1.23 0 1.61-1 2.09-2.43l-3.64-10.51zm13.63 3.18v-3.18h1.63c0 .28.06 1.08.06 1.45a3.07 3.07 0 0 1 2.85-1.65 2.49 2.49 0 0 1 2.61 1.75 3.21 3.21 0 0 1 3-1.75c1.55 0 3.05.8 3.05 3.48v6.91h-1.65v-6.63c0-1.24-.4-2.31-1.85-2.31s-2.25 1.33-2.25 3v6h-1.65V358c0-1.27-.5-2.21-1.83-2.21s-2.31 1.08-2.31 3.11v5.81h-1.65zm23.09 4.74a18.81 18.81 0 0 0 .14 2.27h-1.51a9.29 9.29 0 0 1-.14-1.57 3 3 0 0 1-3.09 1.75 2.92 2.92 0 0 1-3.23-3.09c0-1.53 1-3.23 4.62-3.23h1.57v-1c0-1-.28-2-2-2a1.86 1.86 0 0 0-2.15 1.81h-1.63c.14-1.71 1.12-3.09 3.84-3.09 2.13 0 3.6.86 3.6 3.18zm-1.61-2.67H639c-2.47 0-2.93 1-2.93 1.93a1.72 1.72 0 0 0 1.89 1.83c2 0 2.65-1.37 2.65-3.54zm4.55-1.82v-3.46h1.63v2.07a3.42 3.42 0 0 1 3.29-2.25v1.73c-2.29.08-3.25 1.43-3.25 3.64v5h-1.67zm8.44 1.34c.92-1 3-3.32 4.2-4.76h1.95c-1.13 1.29-2.37 2.57-3.56 3.88 1.23 1.95 2.69 4.34 4 6.31h-1.95c-.82-1.35-2.23-3.7-3.13-5.18-.28.3-1.18 1.21-1.47 1.49v3.7H652v-14.65h1.67zm8.74.66c0 2 .86 3.58 2.65 3.58a2.34 2.34 0 0 0 2.35-1.67H669a3.89 3.89 0 0 1-4.06 3.07c-3.18 0-4.26-2.51-4.26-5.32 0-2.51 1.23-5.26 4.36-5.26s4.12 2.49 4.12 4.84v.76zm5.14-1.21c0-1.75-.74-3.05-2.51-3.05-2 0-2.49 1.83-2.59 3.05zm2.66-4.22h1.63v-3h1.67v3h2v1.37h-2v6.37c0 .87.22 1.23 1.09 1.23a4.42 4.42 0 0 0 .78-.08v1.27a4.44 4.44 0 0 1-1.33.16c-1.49 0-2.21-.56-2.21-2.25v-6.69h-1.63zm7.12-2.29v-2.15h1.67v2.15zm0 2.29h1.67v10.19h-1.67zm4.6 3.2v-3.19h1.63a12.38 12.38 0 0 1 .06 1.59 3.12 3.12 0 0 1 3-1.79c1.89 0 3.23 1.06 3.23 3.82v6.57h-1.67v-6.31c0-1.49-.5-2.61-2-2.61-1.81 0-2.53 1.35-2.53 3.48v5.44h-1.67zm18.71 6.23c0 3.19-1.29 5-4.38 5s-3.88-1.61-4-3.05h1.65a2.19 2.19 0 0 0 2.45 1.69c2.17 0 2.67-1.43 2.67-3.66v-.82a2.88 2.88 0 0 1-3 1.67c-2.39 0-3.94-2-3.94-5.16s1.83-5.24 4.18-5.24c1.61 0 2.43.66 2.71 1.45a9.24 9.24 0 0 1 .08-1.25h1.63v3zm-4.22-.64c1.95 0 2.63-1.23 2.63-3.78s-.56-3.74-2.53-3.74c-1.69 0-2.71 1.41-2.71 3.78s1 3.71 2.61 3.71zm19.24-.87a19.15 19.15 0 0 0 .14 2.27h-1.51a9.29 9.29 0 0 1-.14-1.57 3 3 0 0 1-3.09 1.75 2.92 2.92 0 0 1-3.23-3.09c0-1.53 1-3.23 4.62-3.23h1.6v-1c0-1-.28-2-2-2a1.86 1.86 0 0 0-2.15 1.81h-1.63c.14-1.71 1.12-3.09 3.84-3.09 2.13 0 3.6.86 3.6 3.18zm-1.61-2.67h-1.61c-2.47 0-2.93 1-2.93 1.93a1.72 1.72 0 0 0 1.89 1.83c2 0 2.65-1.37 2.65-3.54zm4.55-2.05v-3.19h1.63a12.38 12.38 0 0 1 .06 1.59 3.12 3.12 0 0 1 3-1.79c1.89 0 3.23 1.06 3.23 3.82v6.57h-1.67v-6.31c0-1.49-.5-2.61-2-2.61-1.81 0-2.53 1.35-2.53 3.48v5.44h-1.67zm18.74-7.64v14.65h-1.63c0-.26-.06-.9-.06-1.51-.54 1.18-1.37 1.69-3 1.69-2.63 0-4-2.23-4-5.26s1.53-5.31 4.3-5.31c1.65 0 2.41.66 2.69 1.23v-5.47zm-4.24 13.38c2.19 0 2.65-1.67 2.65-4.06 0-2.81-.82-3.64-2.55-3.64s-2.77 1.37-2.77 3.8 1.07 3.9 2.68 3.9zm12.17-5.76v-3.18h1.63c0 .28.06 1.08.06 1.45a3.07 3.07 0 0 1 2.85-1.65 2.49 2.49 0 0 1 2.61 1.75 3.21 3.21 0 0 1 3-1.75c1.55 0 3.05.8 3.05 3.48v6.91h-1.65v-6.63c0-1.24-.4-2.31-1.85-2.31s-2.25 1.33-2.25 3v6H751V358c0-1.27-.5-2.21-1.83-2.21s-2.31 1.08-2.31 3.11v5.81h-1.65zm23.09 4.74a18.81 18.81 0 0 0 .14 2.27h-1.51a9.29 9.29 0 0 1-.14-1.57 3 3 0 0 1-3.09 1.75 2.92 2.92 0 0 1-3.23-3.09c0-1.53 1-3.23 4.62-3.23h1.57v-1c0-1-.28-2-2-2a1.86 1.86 0 0 0-2.15 1.81h-1.63c.14-1.71 1.12-3.09 3.84-3.09 2.13 0 3.6.86 3.6 3.18zm-1.61-2.67h-1.6c-2.47 0-2.93 1-2.93 1.93a1.72 1.72 0 0 0 1.89 1.83c2 0 2.65-1.37 2.65-3.54zm4.55-2.05v-3.19h1.63a12.38 12.38 0 0 1 .06 1.59 3.12 3.12 0 0 1 3-1.79c1.89 0 3.23 1.06 3.23 3.82v6.57h-1.67v-6.31c0-1.49-.5-2.61-2-2.61-1.81 0-2.53 1.35-2.53 3.48v5.44h-1.67zm17.81 4.72a18.81 18.81 0 0 0 .14 2.27h-1.51a9.29 9.29 0 0 1-.14-1.57 3 3 0 0 1-3.09 1.75 2.92 2.92 0 0 1-3.23-3.09c0-1.53 1-3.23 4.62-3.23h1.57v-1c0-1-.28-2-2-2a1.86 1.86 0 0 0-2.15 1.81h-1.63c.14-1.71 1.12-3.09 3.84-3.09 2.13 0 3.6.86 3.6 3.18zm-1.61-2.67h-1.61c-2.47 0-2.93 1-2.93 1.93a1.72 1.72 0 0 0 1.89 1.83c2 0 2.65-1.37 2.65-3.54zm12.42 4.18c0 3.19-1.29 5-4.38 5s-3.88-1.61-4-3.05h1.65a2.19 2.19 0 0 0 2.45 1.69c2.17 0 2.67-1.43 2.67-3.66v-.82a2.88 2.88 0 0 1-3 1.67c-2.39 0-3.94-2-3.94-5.16s1.83-5.24 4.18-5.24c1.61 0 2.43.66 2.71 1.45a9.24 9.24 0 0 1 .08-1.25h1.63v3zm-4.22-.64c1.95 0 2.63-1.23 2.63-3.78s-.56-3.74-2.53-3.74c-1.69 0-2.71 1.41-2.71 3.78s.96 3.71 2.61 3.71zm7.14-11.08v-2.15h1.67v2.15zm0 2.29h1.67v10.19h-1.67zm4.6 3.2v-3.19H809a12.38 12.38 0 0 1 .06 1.59 3.12 3.12 0 0 1 3-1.79c1.89 0 3.23 1.06 3.23 3.82v6.57h-1.67v-6.31c0-1.49-.5-2.61-2-2.61-1.81 0-2.53 1.35-2.53 3.48v5.44h-1.67zM826.1 364c0 3.19-1.29 5-4.38 5s-3.88-1.61-4-3.05h1.65a2.19 2.19 0 0 0 2.45 1.69c2.17 0 2.67-1.43 2.67-3.66v-.82a2.88 2.88 0 0 1-3 1.67c-2.39 0-3.94-2-3.94-5.16s1.83-5.24 4.18-5.24c1.61 0 2.43.66 2.71 1.45a9.24 9.24 0 0 1 .08-1.25h1.63v3zm-4.22-.64c1.95 0 2.63-1.23 2.63-3.78s-.56-3.74-2.53-3.74c-1.69 0-2.71 1.41-2.71 3.78s1.01 3.71 2.61 3.71zM835 360c0 2 .86 3.58 2.65 3.58a2.34 2.34 0 0 0 2.35-1.67h1.63a3.89 3.89 0 0 1-4.06 3.07c-3.18 0-4.26-2.51-4.26-5.32 0-2.51 1.23-5.26 4.36-5.26s4.12 2.49 4.12 4.84v.76zm5.14-1.21c0-1.75-.74-3.05-2.51-3.05-2 0-2.49 1.83-2.59 3.05zm4.46-4.22c1.37 4.32 2.27 7.17 2.59 8.6.2-1.21 2-6.35 2.69-8.6h1.65L848 364.76h-1.83l-3.39-10.19zm9.63 5.43c0 2 .86 3.58 2.65 3.58a2.34 2.34 0 0 0 2.35-1.67h1.63a3.89 3.89 0 0 1-4.06 3.09c-3.18 0-4.26-2.51-4.26-5.32 0-2.51 1.23-5.26 4.36-5.26s4.12 2.49 4.12 4.84v.74zm5.14-1.21c0-1.75-.74-3.05-2.51-3.05-2 0-2.49 1.83-2.59 3.05zm3.86-.79v-3.46h1.63v2.07a3.42 3.42 0 0 1 3.29-2.25v1.73c-2.29.08-3.25 1.43-3.25 3.64v5h-1.67zm7.94-3.43c1.59 4.94 2.41 7.41 2.67 8.64.3-1.13 1.21-4.24 2.59-8.64h1.73l-3.58 10.65c-1 3.09-1.87 3.74-3.68 3.74a4.52 4.52 0 0 1-.88-.08v-1.43a6.23 6.23 0 0 0 .88.06c1.23 0 1.61-1 2.09-2.43l-3.64-10.51zm7.96 0h1.63v-3h1.67v3h2v1.37h-2v6.37c0 .87.22 1.23 1.09 1.23a4.42 4.42 0 0 0 .78-.08v1.27a4.44 4.44 0 0 1-1.33.16c-1.49 0-2.21-.56-2.21-2.25v-6.69h-1.63zm8.68-4.44V356a3.16 3.16 0 0 1 3-1.67c1.49 0 3.19.76 3.19 3.66v6.73h-1.65v-6.45c0-1.55-.6-2.47-2.09-2.47-1.65 0-2.49 1.08-2.49 3.11v5.81h-1.67v-14.59zm9.19 2.15v-2.15h1.67v2.15zm0 2.29h1.67v10.19H897zm4.58 3.2v-3.19h1.63a12.38 12.38 0 0 1 .06 1.59 3.12 3.12 0 0 1 3-1.79c1.89 0 3.23 1.06 3.23 3.82v6.57h-1.67v-6.31c0-1.49-.5-2.61-2-2.61-1.81 0-2.53 1.35-2.53 3.48v5.44h-1.67zm18.71 6.23c0 3.19-1.29 5-4.38 5s-3.88-1.61-4-3.05h1.65a2.19 2.19 0 0 0 2.45 1.69c2.17 0 2.67-1.43 2.67-3.66v-.82a2.88 2.88 0 0 1-3 1.67c-2.39 0-3.94-2-3.94-5.16s1.83-5.24 4.18-5.24c1.61 0 2.43.66 2.71 1.45a9.24 9.24 0 0 1 .08-1.25h1.63v3zm-4.22-.64c1.95 0 2.63-1.23 2.63-3.78s-.56-3.74-2.53-3.74c-1.69 0-2.71 1.41-2.71 3.78s1.01 3.71 2.62 3.71zm-576.83 25.52v-8.82h-1.57v-1.36h1.57v-1.27c0-1.81.62-3.33 2.75-3.33a3.52 3.52 0 0 1 1 .12v1.43a3 3 0 0 0-.82-.1c-.9 0-1.25.6-1.25 1.81v1.35h1.91v1.37h-1.91v8.82zm5.04-6.73v-3.46h1.63v2.07a3.42 3.42 0 0 1 3.29-2.25v1.73c-2.29.08-3.25 1.43-3.25 3.64v5h-1.67zm14.81 1.47c0 3-1.29 5.44-4.56 5.44s-4.42-2.59-4.42-5.38 1.47-5.18 4.56-5.18c2.88-.01 4.42 2.18 4.42 5.12zm-7.25 0c0 2.33 1 4 2.79 4s2.73-1.65 2.73-4c0-2.23-.92-3.76-2.77-3.76s-2.75 1.57-2.75 3.8zm9.49-1.75v-3.18h1.63c0 .28.06 1.08.06 1.45a3.07 3.07 0 0 1 2.85-1.65 2.49 2.49 0 0 1 2.61 1.75 3.21 3.21 0 0 1 3-1.75c1.55 0 3.05.8 3.05 3.48v6.91h-1.65v-6.63c0-1.24-.4-2.31-1.85-2.31s-2.25 1.33-2.25 3v6h-1.65v-6.71c0-1.27-.5-2.21-1.83-2.21s-2.3.98-2.3 3.05v5.81h-1.65zm21.07 0v-3.18h1.6c0 .28.06 1.08.06 1.45a3.07 3.07 0 0 1 2.85-1.65 2.49 2.49 0 0 1 2.61 1.75 3.21 3.21 0 0 1 3-1.75c1.55 0 3.05.8 3.05 3.48v6.91h-1.65v-6.63c0-1.24-.4-2.31-1.85-2.31s-2.25 1.33-2.25 3v6h-1.65v-6.71c0-1.27-.5-2.21-1.83-2.21s-2.34.98-2.34 3.05v5.81h-1.6zm17.12 2.23c0 2 .86 3.58 2.65 3.58a2.34 2.34 0 0 0 2.35-1.67h1.63a3.89 3.89 0 0 1-4.06 3.07c-3.18 0-4.26-2.51-4.26-5.32 0-2.51 1.23-5.26 4.36-5.26s4.12 2.49 4.12 4.84v.76zm5.14-1.21c0-1.75-.74-3.05-2.51-3.05-2 0-2.49 1.83-2.59 3.05zm3.87-1.02v-3.18h1.63c0 .28.06 1.08.06 1.45a3.07 3.07 0 0 1 2.85-1.65 2.49 2.49 0 0 1 2.61 1.75 3.21 3.21 0 0 1 3-1.75c1.55 0 3.05.8 3.05 3.48v6.91h-1.65v-6.63c0-1.24-.4-2.31-1.85-2.31s-2.25 1.33-2.25 3v6h-1.65v-6.71c0-1.27-.5-2.21-1.83-2.21s-2.31 1.08-2.31 3.11v5.81h-1.65zm16.1-7.61h1.67v5.85a3.27 3.27 0 0 1 3.05-1.61c2.47 0 3.92 2 3.92 5s-1.31 5.58-4.22 5.58a2.81 2.81 0 0 1-2.77-1.47 9 9 0 0 1-.06 1.29h-1.63v-2.89zm4.32 5.69c-2 0-2.75 1.31-2.75 3.72s.58 4 2.69 4c1.83 0 2.67-1.69 2.67-4.08 0-2.2-.87-3.65-2.61-3.65zm7.56 4.15c0 2 .86 3.58 2.65 3.58a2.34 2.34 0 0 0 2.35-1.67h1.63a3.89 3.89 0 0 1-4.06 3.07c-3.18 0-4.26-2.51-4.26-5.32 0-2.51 1.23-5.26 4.36-5.26s4.12 2.49 4.12 4.84v.76zm5.14-1.21c0-1.75-.74-3.05-2.51-3.05-2 0-2.49 1.83-2.59 3.05zm3.86-.74v-3.46h1.63v2.07a3.42 3.42 0 0 1 3.29-2.25v1.73c-2.29.08-3.25 1.43-3.25 3.64v5h-1.67zm7.49 3.78a2.1 2.1 0 0 0 2.29 1.83c1.41 0 1.95-.74 1.95-1.61s-.64-1.41-2.37-1.87c-2.49-.68-3.13-1.59-3.13-3s.92-2.83 3.42-2.83 3.42 1.37 3.56 2.93h-1.65a1.79 1.79 0 0 0-2-1.63c-1.15 0-1.67.54-1.67 1.39s.38 1.19 2.09 1.63c2.59.7 3.42 1.57 3.42 3.19 0 1.89-1.49 3.05-3.68 3.05s-3.7-1-3.88-3.13zm9.66-11.67v5.91a3.16 3.16 0 0 1 3-1.67c1.49 0 3.19.76 3.19 3.66v6.73h-1.65v-6.45c0-1.55-.6-2.47-2.09-2.47-1.65 0-2.49 1.08-2.49 3.11v5.81H461v-14.63zm9.16 2.15v-2.15h1.67v2.15zm0 2.29h1.67v10.19h-1.67zm4.61 14.22v-14.23H478v1.65a3.28 3.28 0 0 1 3.17-1.85c2.23 0 3.82 1.75 3.82 5.12s-1.83 5.42-4.22 5.42a2.9 2.9 0 0 1-2.77-1.39v5.26zm4.3-13c-2.09 0-2.71 1.43-2.71 3.88 0 2.25.42 3.8 2.61 3.8 1.71 0 2.71-1.41 2.71-3.94s-.99-3.72-2.61-3.72zm12.27 6.01a2.1 2.1 0 0 0 2.29 1.83c1.41 0 1.95-.74 1.95-1.61s-.64-1.41-2.37-1.87c-2.49-.68-3.13-1.59-3.13-3s.92-2.83 3.42-2.83 3.42 1.37 3.56 2.93H497a1.79 1.79 0 0 0-2-1.63c-1.15 0-1.67.54-1.67 1.39s.38 1.19 2.09 1.63c2.59.7 3.42 1.57 3.42 3.19 0 1.89-1.49 3.05-3.68 3.05s-3.7-1-3.88-3.13zm9.18-1.83c0 2 .86 3.58 2.65 3.58a2.34 2.34 0 0 0 2.35-1.67h1.63a3.89 3.89 0 0 1-4.06 3.07c-3.18 0-4.26-2.51-4.26-5.32 0-2.51 1.23-5.26 4.36-5.26s4.15 2.5 4.15 4.84v.76zm5.14-1.21c0-1.75-.74-3.05-2.51-3.05-2 0-2.49 1.83-2.59 3.05zm3.86-.74v-3.46h1.63v2.07a3.42 3.42 0 0 1 3.29-2.25v1.73c-2.29.08-3.25 1.43-3.25 3.64v5h-1.67zm7.82-3.45c1.37 4.32 2.27 7.17 2.59 8.6.2-1.21 2-6.35 2.69-8.6H526l-3.52 10.19h-1.83l-3.39-10.19zm8.64-2.29v-2.15h1.67v2.15zm0 2.29h1.67v10.19h-1.67zm12.36 6.93a3.92 3.92 0 0 1-4.1 3.46c-2.85 0-4.3-1.91-4.3-5.31 0-3 1.49-5.28 4.4-5.28a3.72 3.72 0 0 1 4 3.56h-1.67a2.29 2.29 0 0 0-2.33-2.19c-1.87 0-2.67 1.63-2.67 3.88 0 2.61.94 4 2.65 4 1.41 0 2-.88 2.37-2.09zm3.18-1.53c0 2 .86 3.58 2.65 3.58a2.34 2.34 0 0 0 2.35-1.67h1.63a3.89 3.89 0 0 1-4.06 3.07c-3.18 0-4.26-2.51-4.26-5.32 0-2.51 1.23-5.26 4.36-5.26s4.15 2.5 4.15 4.84v.76zm5.14-1.21c0-1.75-.74-3.05-2.51-3.05-2 0-2.49 1.83-2.59 3.05zm4.68 3.04a2.1 2.1 0 0 0 2.29 1.83c1.41 0 1.95-.74 1.95-1.61s-.64-1.41-2.37-1.87c-2.49-.68-3.13-1.59-3.13-3s.92-2.83 3.42-2.83 3.42 1.37 3.56 2.93H557a1.79 1.79 0 0 0-2-1.63c-1.15 0-1.67.54-1.67 1.39s.38 1.19 2.09 1.63c2.59.7 3.42 1.57 3.42 3.19 0 1.89-1.49 3.05-3.68 3.05s-3.7-1-3.88-3.13zm11.59-7.23h1.63v-3h1.67v3h2v1.37h-2v6.37c0 .87.22 1.23 1.09 1.23a4.42 4.42 0 0 0 .78-.08v1.27a4.44 4.44 0 0 1-1.33.16c-1.49 0-2.21-.56-2.21-2.25v-6.69h-1.63zm15.41 4.92c0 3-1.29 5.44-4.56 5.44s-4.42-2.59-4.42-5.38 1.47-5.18 4.56-5.18c2.85-.01 4.42 2.18 4.42 5.12zm-7.25 0c0 2.33 1 4 2.79 4s2.73-1.65 2.73-4c0-2.23-.92-3.76-2.77-3.76s-2.77 1.57-2.77 3.8zm14.41 9.3v-14.23h1.65v1.65a3.28 3.28 0 0 1 3.17-1.85c2.23 0 3.82 1.75 3.82 5.12S594 389 591.58 389a2.9 2.9 0 0 1-2.77-1.39v5.26zm4.3-13c-2.09 0-2.71 1.43-2.71 3.88 0 2.25.42 3.8 2.61 3.8 1.71 0 2.71-1.41 2.71-3.94s-.98-3.72-2.61-3.72zm8.25-5.66v5.91a3.16 3.16 0 0 1 3-1.67c1.49 0 3.19.76 3.19 3.66v6.73h-1.65v-6.45c0-1.55-.6-2.47-2.09-2.47-1.65 0-2.49 1.08-2.49 3.11v5.81H598v-14.63zm9.48 4.44c1.59 4.94 2.41 7.41 2.67 8.64.3-1.13 1.21-4.24 2.59-8.64h1.73l-3.58 10.65c-1 3.09-1.87 3.74-3.68 3.74a4.52 4.52 0 0 1-.88-.08v-1.43a6.23 6.23 0 0 0 .88.06c1.23 0 1.61-1 2.09-2.43l-3.61-10.51zm9.51 7.23a2.1 2.1 0 0 0 2.29 1.83c1.41 0 1.95-.74 1.95-1.61s-.64-1.41-2.37-1.87c-2.49-.68-3.13-1.59-3.13-3s.92-2.83 3.42-2.83 3.42 1.37 3.56 2.93h-1.65a1.79 1.79 0 0 0-2-1.63c-1.15 0-1.67.54-1.67 1.39s.38 1.19 2.09 1.63c2.59.7 3.42 1.57 3.42 3.19 0 1.89-1.49 3.05-3.68 3.05s-3.7-1-3.88-3.13zm8.04-9.52v-2.15h1.67v2.15zm0 2.29h1.67v10.19h-1.67zm12.32 6.93a3.92 3.92 0 0 1-4.1 3.46c-2.85 0-4.3-1.91-4.3-5.31 0-3 1.49-5.28 4.4-5.28a3.72 3.72 0 0 1 4 3.56h-1.67a2.29 2.29 0 0 0-2.33-2.19c-1.87 0-2.67 1.63-2.67 3.88 0 2.61.94 4 2.65 4 1.41 0 2-.88 2.37-2.09zm9.35.98a19.15 19.15 0 0 0 .14 2.27H647a9.29 9.29 0 0 1-.14-1.57 3 3 0 0 1-3.09 1.75 2.92 2.92 0 0 1-3.23-3.09c0-1.53 1-3.23 4.62-3.23h1.57v-1c0-1-.28-2-2-2a1.86 1.86 0 0 0-2.15 1.81H641c.14-1.71 1.12-3.09 3.84-3.09 2.13 0 3.6.86 3.6 3.18zm-1.61-2.67h-1.61c-2.47 0-2.93 1-2.93 1.93a1.72 1.72 0 0 0 1.89 1.83c2 0 2.65-1.37 2.65-3.54zm4.55 4.94v-14.62H653v14.63zm9.54 4.04v-14.23h1.65v1.65a3.28 3.28 0 0 1 3.17-1.85c2.23 0 3.82 1.75 3.82 5.12s-1.83 5.39-4.22 5.39a2.9 2.9 0 0 1-2.77-1.39v5.26zm4.3-13c-2.09 0-2.71 1.43-2.71 3.88 0 2.25.42 3.8 2.61 3.8 1.71 0 2.71-1.41 2.71-3.94s-.98-3.72-2.61-3.72zm6.58 2.23v-3.46h1.63v2.07a3.42 3.42 0 0 1 3.29-2.25v1.73c-2.29.08-3.25 1.43-3.25 3.64v5h-1.67zm14.81 1.47c0 3-1.29 5.44-4.56 5.44s-4.42-2.59-4.42-5.38 1.47-5.18 4.56-5.18c2.84-.01 4.42 2.18 4.42 5.12zm-7.25 0c0 2.33 1 4 2.79 4s2.73-1.65 2.73-4c0-2.23-.92-3.76-2.77-3.76s-2.75 1.57-2.75 3.8zm17.4-9.36v14.65h-1.63c0-.26-.06-.9-.06-1.51-.54 1.18-1.37 1.69-3 1.69-2.63 0-4-2.23-4-5.26s1.53-5.31 4.3-5.31c1.65 0 2.41.66 2.69 1.23v-5.47zm-4.24 13.38c2.19 0 2.65-1.67 2.65-4.06 0-2.81-.82-3.64-2.55-3.64s-2.77 1.37-2.77 3.8 1.06 3.9 2.67 3.9zm14.83-1.64v2.87h-1.61a10.3 10.3 0 0 1-.08-1.63 3 3 0 0 1-3 1.81c-1.59 0-3.11-.76-3.11-3.52v-6.83h1.65v6.53c0 1.33.42 2.39 2 2.39s2.45-1 2.45-3.23v-5.69h1.69zm10.68-.37a3.92 3.92 0 0 1-4.1 3.46c-2.85 0-4.3-1.91-4.3-5.31 0-3 1.49-5.28 4.4-5.28a3.72 3.72 0 0 1 4 3.56h-1.67a2.29 2.29 0 0 0-2.33-2.19c-1.87 0-2.67 1.63-2.67 3.88 0 2.61.94 4 2.65 4 1.41 0 2-.88 2.37-2.09zm1-6.93h1.63v-3h1.67v3h2v1.37h-2v6.37c0 .87.22 1.23 1.09 1.23a4.42 4.42 0 0 0 .78-.08v1.27a4.44 4.44 0 0 1-1.33.16c-1.49 0-2.21-.56-2.21-2.25v-6.69H719zm8 7.23a2.1 2.1 0 0 0 2.29 1.83c1.41 0 1.95-.74 1.95-1.61s-.64-1.41-2.37-1.87c-2.49-.68-3.13-1.59-3.13-3s.92-2.83 3.42-2.83 3.42 1.37 3.56 2.93h-1.65a1.79 1.79 0 0 0-2-1.63c-1.15 0-1.67.54-1.67 1.39s.38 1.19 2.09 1.63c2.59.7 3.42 1.57 3.42 3.19 0 1.89-1.49 3.05-3.68 3.05s-3.7-1-3.88-3.13zm6.92 5.32a13.66 13.66 0 0 0 1.27-5.16h1.63a11 11 0 0 1-1.51 5.16zm17.71-5.25v2.87h-1.61a10.3 10.3 0 0 1-.08-1.63 3 3 0 0 1-3 1.81c-1.59 0-3.11-.76-3.11-3.52v-6.83h1.65v6.53c0 1.33.42 2.39 2 2.39s2.45-1 2.45-3.23v-5.69h1.69zm1.69-7.3h1.63v-3h1.67v3h2v1.37h-2v6.37c0 .87.22 1.23 1.09 1.23a4.42 4.42 0 0 0 .78-.08v1.27a4.44 4.44 0 0 1-1.33.16c-1.49 0-2.21-.56-2.21-2.25v-6.69h-1.63zm7.12-2.29v-2.15h1.67v2.15zm0 2.29h1.67v10.19h-1.67zm4.56 10.18v-14.62h1.67v14.63zm4.64-12.47v-2.15h1.67v2.15zm0 2.29h1.67v10.19h-1.67zm3.68 8.84c1.71-2.21 3.72-5 5.5-7.43h-5.18v-1.41h7.09v1.39c-1.77 2.39-3.66 5-5.47 7.41H781l-.26 1.39h-7.37zm9.37-11.13v-2.15h1.67v2.15zm0 2.29h1.67v10.19h-1.67zm4.6 3.19v-3.19h1.63a12.38 12.38 0 0 1 .06 1.59 3.12 3.12 0 0 1 3-1.79c1.89 0 3.23 1.06 3.23 3.82v6.57h-1.67v-6.31c0-1.49-.5-2.61-2-2.61-1.81 0-2.53 1.35-2.53 3.48v5.44h-1.67zM806 388.1c0 3.19-1.29 5-4.38 5s-3.88-1.61-4-3.05h1.65a2.19 2.19 0 0 0 2.45 1.69c2.17 0 2.67-1.43 2.67-3.66v-.82a2.88 2.88 0 0 1-3 1.67c-2.39 0-3.94-2-3.94-5.16s1.83-5.24 4.18-5.24c1.61 0 2.43.66 2.71 1.45a9.24 9.24 0 0 1 .08-1.25H806v3zm-4.22-.64c1.95 0 2.63-1.23 2.63-3.78s-.56-3.74-2.53-3.74c-1.69 0-2.71 1.41-2.71 3.78s1 3.74 2.61 3.74zm10.64-8.76H814v-3h1.67v3h2v1.37h-2v6.37c0 .87.22 1.23 1.09 1.23a4.42 4.42 0 0 0 .78-.08v1.27a4.44 4.44 0 0 1-1.33.16c-1.49 0-2.21-.56-2.21-2.25v-6.69h-1.63zm8.68-4.44v5.91a3.16 3.16 0 0 1 3-1.67c1.49 0 3.19.76 3.19 3.66v6.73h-1.65v-6.45c0-1.55-.6-2.47-2.09-2.47-1.65 0-2.49 1.08-2.49 3.11v5.81h-1.67v-14.63zm10.17 9.84c0 2 .86 3.58 2.65 3.58a2.34 2.34 0 0 0 2.35-1.67h1.63a3.89 3.89 0 0 1-4.06 3.07c-3.18 0-4.26-2.51-4.26-5.32 0-2.51 1.23-5.26 4.36-5.26s4.12 2.49 4.12 4.84v.76zm5.14-1.21c0-1.75-.74-3.05-2.51-3.05-2 0-2.49 1.83-2.59 3.05zm8.81 10.03v-14.23h1.65v1.65a3.28 3.28 0 0 1 3.17-1.85c2.23 0 3.82 1.75 3.82 5.12S852 389 849.64 389a2.9 2.9 0 0 1-2.77-1.39v5.26zm4.3-13c-2.09 0-2.71 1.43-2.71 3.88 0 2.25.42 3.8 2.61 3.8 1.71 0 2.71-1.41 2.71-3.94s-.98-3.72-2.61-3.72zm14.85 3.7c0 3-1.29 5.44-4.56 5.44s-4.42-2.59-4.42-5.38 1.47-5.18 4.56-5.18c2.88-.01 4.42 2.18 4.42 5.12zm-7.25 0c0 2.33 1 4 2.79 4s2.73-1.65 2.73-4c0-2.23-.92-3.76-2.77-3.76s-2.75 1.57-2.75 3.8zm10.13-4.92c1.17 4.48 1.87 7.13 2.11 8.48.24-1.23.8-3.19 2.25-8.48h1.63c1.37 5 2 7.27 2.13 8.4.22-1.13.8-3.21 2.23-8.4h1.69l-3.09 10.19h-1.75c-.9-3.36-1.81-6.55-2.11-8.1-.26 1.51-1.19 4.64-2.19 8.1h-1.81l-2.91-10.19zm14.75 5.4c0 2 .86 3.58 2.65 3.58A2.34 2.34 0 0 0 887 386h1.63a3.89 3.89 0 0 1-4.06 3.07c-3.18 0-4.26-2.51-4.26-5.32 0-2.51 1.23-5.26 4.36-5.26s4.12 2.49 4.12 4.84v.76zm5.14-1.21c0-1.75-.74-3.05-2.51-3.05-2 0-2.49 1.83-2.59 3.05zm3.86-.74v-3.46h1.63v2.07a3.42 3.42 0 0 1 3.29-2.25v1.73c-2.29.08-3.25 1.43-3.25 3.64v5H891zm19.89 1.47c0 3-1.29 5.44-4.56 5.44s-4.42-2.59-4.42-5.38 1.47-5.18 4.56-5.18c2.87-.01 4.42 2.18 4.42 5.12zm-7.25 0c0 2.33 1 4 2.79 4s2.73-1.65 2.73-4c0-2.23-.92-3.76-2.77-3.76s-2.76 1.57-2.76 3.8zm9.84 5.26v-8.82h-1.57v-1.36h1.57v-1.27c0-1.81.62-3.33 2.75-3.33a3.52 3.52 0 0 1 1 .12v1.43a3 3 0 0 0-.82-.1c-.9 0-1.25.6-1.25 1.81v1.35H917v1.37h-1.91v8.82zm-575.87 13.94h1.63v-3h1.67v3h2v1.37h-2v6.37c0 .86.22 1.23 1.09 1.23a4.43 4.43 0 0 0 .78-.08V413a4.44 4.44 0 0 1-1.33.16c-1.49 0-2.21-.56-2.21-2.25v-6.69h-1.63zm8.68-4.44v5.91a3.16 3.16 0 0 1 3-1.67c1.49 0 3.19.76 3.19 3.66V413h-1.65v-6.45c0-1.55-.6-2.47-2.09-2.47-1.65 0-2.49 1.09-2.49 3.11V413h-1.67v-14.62zm10.17 9.84c0 2 .86 3.58 2.65 3.58a2.34 2.34 0 0 0 2.35-1.67h1.63a3.89 3.89 0 0 1-4.09 3.07c-3.18 0-4.26-2.51-4.26-5.32 0-2.51 1.23-5.26 4.36-5.26s4.12 2.49 4.12 4.84v.76zm5.14-1.21c0-1.75-.74-3.05-2.51-3.05-2 0-2.49 1.83-2.59 3.05zm8.82-6.48v-2.15h1.67v2.15zm0 2.29h1.67V413h-1.67zM375 406v-3.19h1.63a12.36 12.36 0 0 1 .06 1.59 3.12 3.12 0 0 1 3-1.79c1.89 0 3.23 1.06 3.23 3.82V413h-1.67v-6.31c0-1.49-.5-2.61-2-2.61-1.81 0-2.53 1.35-2.53 3.48V413H375zm9.4-3.18h1.6v-3h1.67v3h2v1.37h-2v6.37c0 .86.22 1.23 1.09 1.23a4.43 4.43 0 0 0 .78-.08V413a4.44 4.44 0 0 1-1.33.16c-1.49 0-2.21-.56-2.21-2.25v-6.69h-1.6zm8.13 5.4c0 2 .86 3.58 2.65 3.58a2.34 2.34 0 0 0 2.35-1.67h1.63a3.89 3.89 0 0 1-4.06 3.07c-3.18 0-4.26-2.51-4.26-5.32 0-2.51 1.23-5.26 4.36-5.26s4.12 2.49 4.12 4.84v.76zm5.14-1.21c0-1.75-.74-3.05-2.51-3.05-2 0-2.49 1.83-2.59 3.05zm3.86-.74v-3.45h1.63v2.07a3.42 3.42 0 0 1 3.29-2.25v1.73c-2.29.08-3.25 1.43-3.25 3.64v5h-1.67zm6.55-.27v-3.19h1.63a12.36 12.36 0 0 1 .06 1.59 3.12 3.12 0 0 1 3-1.79c1.89 0 3.23 1.06 3.23 3.82V413h-1.67v-6.31c0-1.49-.5-2.61-2-2.61-1.81 0-2.53 1.35-2.53 3.48V413h-1.67zm11.84 2.22c0 2 .86 3.58 2.65 3.58a2.34 2.34 0 0 0 2.35-1.67h1.63a3.89 3.89 0 0 1-4.06 3.07c-3.18 0-4.26-2.51-4.26-5.32 0-2.51 1.23-5.26 4.36-5.26s4.12 2.49 4.12 4.84v.76zm5.14-1.21c0-1.75-.74-3.05-2.51-3.05-2 0-2.49 1.83-2.59 3.05zm2.66-4.19h1.63v-3H431v3h2v1.37h-2v6.37c0 .86.22 1.23 1.09 1.23a4.43 4.43 0 0 0 .78-.08V413a4.44 4.44 0 0 1-1.33.16c-1.49 0-2.21-.56-2.21-2.25v-6.69h-1.63zm10.61 0H440v-3h1.67v3h2v1.37h-2v6.37c0 .86.22 1.23 1.09 1.23a4.43 4.43 0 0 0 .78-.08V413a4.44 4.44 0 0 1-1.33.16c-1.49 0-2.21-.56-2.21-2.25v-6.69h-1.63zm15.4 4.92c0 3-1.29 5.44-4.56 5.44s-4.42-2.59-4.42-5.39 1.47-5.18 4.56-5.18c2.87.01 4.42 2.2 4.42 5.13zm-7.25 0c0 2.33 1 4 2.79 4s2.73-1.65 2.73-4c0-2.23-.92-3.76-2.77-3.76s-2.76 1.57-2.76 3.8zm22.14 2.01a3.91 3.91 0 0 1-4.1 3.45c-2.85 0-4.3-1.91-4.3-5.3 0-3 1.49-5.28 4.4-5.28a3.72 3.72 0 0 1 4 3.56h-1.67a2.29 2.29 0 0 0-2.35-2.18c-1.87 0-2.67 1.63-2.67 3.88 0 2.61.94 4 2.65 4 1.41 0 2-.88 2.37-2.09zm9.38.98a18.79 18.79 0 0 0 .14 2.27h-1.54a9.28 9.28 0 0 1-.14-1.57 3 3 0 0 1-3.09 1.75 2.92 2.92 0 0 1-3.23-3.09c0-1.53 1-3.23 4.62-3.23h1.57v-1c0-1-.28-2-2-2a1.86 1.86 0 0 0-2.15 1.81h-1.63c.14-1.71 1.12-3.09 3.84-3.09 2.13 0 3.6.86 3.6 3.17zm-1.61-2.67h-1.61c-2.47 0-2.93 1-2.93 1.93a1.72 1.72 0 0 0 1.89 1.83c2 0 2.65-1.37 2.65-3.54zm4.52 8.94v-14.19h1.65v1.65a3.27 3.27 0 0 1 3.17-1.85c2.23 0 3.82 1.75 3.82 5.12s-1.83 5.42-4.22 5.42a2.9 2.9 0 0 1-2.77-1.39V417zm4.3-13c-2.09 0-2.71 1.43-2.71 3.88 0 2.25.42 3.8 2.61 3.8 1.71 0 2.71-1.41 2.71-3.94s-.99-3.68-2.61-3.68zm6.57-3.47v-2.15h1.67v2.15zm0 2.29h1.67V413h-1.67zm3.3 0h1.63v-3h1.67v3h2v1.37h-2v6.37c0 .86.22 1.23 1.09 1.23a4.43 4.43 0 0 0 .78-.08V413a4.44 4.44 0 0 1-1.33.16c-1.49 0-2.21-.56-2.21-2.25v-6.69h-1.63zm14.27 7.91a18.79 18.79 0 0 0 .14 2.27H508a9.28 9.28 0 0 1-.14-1.57 3 3 0 0 1-3.09 1.75 2.92 2.92 0 0 1-3.23-3.09c0-1.53 1-3.23 4.62-3.23h1.57v-1c0-1-.28-2-2-2a1.86 1.86 0 0 0-2.15 1.81h-1.63c.14-1.71 1.12-3.09 3.84-3.09 2.13 0 3.6.86 3.6 3.17zm-1.61-2.67h-1.61c-2.47 0-2.93 1-2.93 1.93a1.72 1.72 0 0 0 1.89 1.83c2 0 2.65-1.37 2.65-3.54zm4.55 4.94v-14.62H514V413zm4.6-12.47v-2.15h1.67v2.15zm0 2.29h1.67V413h-1.67zm3.68 8.84c1.71-2.21 3.72-5 5.5-7.43h-5.18v-1.41H528v1.39c-1.77 2.39-3.66 5-5.47 7.41h5.69l-.26 1.39h-7.37zm10.37-3.44c0 2 .86 3.58 2.65 3.58a2.34 2.34 0 0 0 2.35-1.67h1.63a3.89 3.89 0 0 1-4.06 3.07c-3.18 0-4.26-2.51-4.26-5.32 0-2.51 1.23-5.26 4.36-5.26s4.12 2.49 4.12 4.84v.76zm5.14-1.21c0-1.75-.74-3.05-2.51-3.05-2 0-2.49 1.83-2.59 3.05zm17.09.73c0 3-1.29 5.44-4.56 5.44s-4.42-2.59-4.42-5.39 1.47-5.18 4.56-5.18c2.87.01 4.42 2.2 4.42 5.13zm-7.25 0c0 2.33 1 4 2.79 4s2.73-1.65 2.73-4c0-2.23-.92-3.76-2.77-3.76s-2.76 1.57-2.76 3.8zm9.48-1.74v-3.19h1.6a12.36 12.36 0 0 1 .06 1.59 3.12 3.12 0 0 1 3-1.79c1.89 0 3.23 1.06 3.23 3.82V413h-1.67v-6.31c0-1.49-.5-2.61-2-2.61-1.81 0-2.53 1.35-2.53 3.48V413h-1.69zm16.79 2.22c0 2 .86 3.58 2.65 3.58a2.34 2.34 0 0 0 2.35-1.67h1.63a3.89 3.89 0 0 1-4.06 3.07c-3.18 0-4.26-2.51-4.26-5.32 0-2.51 1.23-5.26 4.36-5.26s4.12 2.49 4.12 4.84v.76zm5.14-1.21c0-1.75-.74-3.05-2.51-3.05-2 0-2.49 1.83-2.59 3.05zm3.86-1.01v-3.17h1.63c0 .28.06 1.08.06 1.45a3.07 3.07 0 0 1 2.85-1.65 2.49 2.49 0 0 1 2.61 1.75 3.21 3.21 0 0 1 3-1.75c1.55 0 3.05.8 3.05 3.48V413h-1.65v-6.63c0-1.24-.4-2.31-1.85-2.31s-2.25 1.33-2.25 3v6H587v-6.71c0-1.26-.5-2.21-1.83-2.21s-2.31 1.09-2.31 3.11V413h-1.65zm17.13 2.22c0 2 .86 3.58 2.65 3.58a2.34 2.34 0 0 0 2.35-1.67h1.63a3.89 3.89 0 0 1-4.06 3.07c-3.18 0-4.26-2.51-4.26-5.32 0-2.51 1.23-5.26 4.36-5.26s4.12 2.49 4.12 4.84v.76zm5.14-1.21c0-1.75-.74-3.05-2.51-3.05-2 0-2.49 1.83-2.59 3.05zm3.86-.74v-3.45h1.63v2.07a3.42 3.42 0 0 1 3.29-2.25v1.73c-2.29.08-3.25 1.43-3.25 3.64v5h-1.67zm14.39 5.95c0 3.19-1.29 5-4.38 5s-3.88-1.61-4-3.05H615a2.2 2.2 0 0 0 2.45 1.69c2.17 0 2.67-1.43 2.67-3.66v-.82a2.87 2.87 0 0 1-3 1.67c-2.39 0-3.94-2-3.94-5.16s1.83-5.24 4.18-5.24c1.61 0 2.43.66 2.71 1.45a9.23 9.23 0 0 1 .08-1.24h1.63v3zm-4.22-.64c1.95 0 2.63-1.23 2.63-3.78s-.56-3.74-2.53-3.74c-1.69 0-2.71 1.41-2.71 3.78s1 3.74 2.61 3.74zm7.14-11.05v-2.15h1.67v2.15zm0 2.29h1.67V413h-1.67zm4.6 3.18v-3.19h1.63a12.36 12.36 0 0 1 .06 1.59 3.12 3.12 0 0 1 3-1.79c1.89 0 3.23 1.06 3.23 3.82V413h-1.67v-6.31c0-1.49-.5-2.61-2-2.61-1.81 0-2.53 1.35-2.53 3.48V413h-1.67zm18.71 6.22c0 3.19-1.29 5-4.38 5s-3.88-1.61-4-3.05h1.65a2.2 2.2 0 0 0 2.45 1.69c2.17 0 2.67-1.43 2.67-3.66v-.82a2.87 2.87 0 0 1-3 1.67c-2.39 0-3.94-2-3.94-5.16s1.83-5.24 4.18-5.24c1.61 0 2.43.66 2.71 1.45a9.23 9.23 0 0 1 .08-1.24H648v3zm-4.22-.64c1.95 0 2.63-1.23 2.63-3.78s-.56-3.74-2.53-3.74c-1.69 0-2.71 1.41-2.71 3.78s1 3.74 2.61 3.74zm20.36-3.84c0 3-1.29 5.44-4.56 5.44s-4.42-2.59-4.42-5.39 1.47-5.18 4.56-5.18c2.88.01 4.42 2.2 4.42 5.13zm-7.25 0c0 2.33 1 4 2.79 4s2.73-1.65 2.73-4c0-2.23-.92-3.76-2.77-3.76s-2.75 1.57-2.75 3.8zm9.49 9.26v-14.19h1.65v1.65a3.27 3.27 0 0 1 3.17-1.85c2.23 0 3.82 1.75 3.82 5.12s-1.83 5.42-4.22 5.42a2.9 2.9 0 0 1-2.77-1.39V417zm4.3-13c-2.09 0-2.71 1.43-2.71 3.88 0 2.25.42 3.8 2.61 3.8 1.71 0 2.71-1.41 2.71-3.94s-.98-3.68-2.61-3.68zm6.57 13v-14.19h1.65v1.65a3.27 3.27 0 0 1 3.17-1.85c2.23 0 3.82 1.75 3.82 5.12s-1.83 5.42-4.22 5.42a2.9 2.9 0 0 1-2.77-1.39V417zm4.3-13c-2.09 0-2.71 1.43-2.71 3.88 0 2.25.42 3.8 2.61 3.8 1.71 0 2.71-1.41 2.71-3.94s-.98-3.68-2.61-3.68zm14.86 3.74c0 3-1.29 5.44-4.56 5.44s-4.42-2.59-4.42-5.39 1.47-5.18 4.56-5.18c2.87.01 4.42 2.2 4.42 5.13zm-7.25 0c0 2.33 1 4 2.79 4s2.73-1.65 2.73-4c0-2.23-.92-3.76-2.77-3.76s-2.76 1.57-2.76 3.8zm9.48-1.47v-3.45h1.63v2.07a3.42 3.42 0 0 1 3.29-2.25v1.73c-2.29.08-3.25 1.43-3.25 3.64v5h-1.67zm5.97-3.45h1.63v-3h1.67v3h2v1.37h-2v6.37c0 .86.22 1.23 1.09 1.23a4.43 4.43 0 0 0 .78-.08V413a4.44 4.44 0 0 1-1.33.16c-1.49 0-2.21-.56-2.21-2.25v-6.69h-1.63zm14.63 7.31V413h-1.61a10.28 10.28 0 0 1-.08-1.63 3 3 0 0 1-3 1.81c-1.59 0-3.11-.76-3.11-3.52v-6.85h1.65v6.53c0 1.33.42 2.39 2 2.39s2.45-1 2.45-3.24v-5.68h1.69zm2.94-4.13v-3.19h1.63a12.36 12.36 0 0 1 .06 1.59 3.12 3.12 0 0 1 3-1.79c1.89 0 3.23 1.06 3.23 3.82V413h-1.67v-6.31c0-1.49-.5-2.61-2-2.61-1.81 0-2.53 1.35-2.53 3.48V413h-1.67zm10.88-5.47v-2.15h1.67v2.15zm0 2.29h1.67V413H733zm3.25 0h1.63v-3h1.67v3h2v1.37h-2v6.37c0 .86.22 1.23 1.09 1.23a4.43 4.43 0 0 0 .78-.08V413a4.44 4.44 0 0 1-1.33.16c-1.49 0-2.21-.56-2.21-2.25v-6.69h-1.63zm7.12-2.29v-2.15H745v2.15zm0 2.29H745V413h-1.67zm5.63 5.4c0 2 .86 3.58 2.65 3.58a2.34 2.34 0 0 0 2.35-1.67h1.63a3.89 3.89 0 0 1-4.06 3.07c-3.18 0-4.26-2.51-4.26-5.32 0-2.51 1.23-5.26 4.36-5.26s4.12 2.49 4.12 4.84v.76zm5.14-1.21c0-1.75-.74-3.05-2.51-3.05-2 0-2.49 1.83-2.59 3.05zm4.64 2.99a2.1 2.1 0 0 0 2.29 1.83c1.41 0 1.95-.74 1.95-1.61s-.64-1.41-2.37-1.87c-2.49-.68-3.13-1.59-3.13-3s.92-2.83 3.42-2.83 3.42 1.37 3.56 2.93h-1.65a1.79 1.79 0 0 0-2-1.63c-1.15 0-1.67.54-1.67 1.39s.38 1.18 2.09 1.63c2.59.7 3.42 1.57 3.42 3.19 0 1.89-1.49 3.05-3.68 3.05s-3.7-1-3.88-3.13zm7.88 3v-2.77h1.65V413zm10.86-13.86V413h-1.73v-13.86zm2.89 6.86v-3.19H782a12.36 12.36 0 0 1 .06 1.59 3.12 3.12 0 0 1 3-1.79c1.89 0 3.23 1.06 3.23 3.82V413h-1.67v-6.31c0-1.49-.5-2.61-2-2.61-1.81 0-2.53 1.35-2.53 3.48V413h-1.67zm22.93 4.73a18.79 18.79 0 0 0 .14 2.27H802a9.28 9.28 0 0 1-.14-1.57 3 3 0 0 1-3.09 1.75 2.92 2.92 0 0 1-3.23-3.09c0-1.53 1-3.23 4.62-3.23h1.57v-1c0-1-.28-2-2-2a1.86 1.86 0 0 0-2.15 1.81h-1.63c.14-1.71 1.12-3.09 3.84-3.09 2.13 0 3.6.86 3.6 3.17zm-1.61-2.67h-1.61c-2.47 0-2.93 1-2.93 1.93a1.72 1.72 0 0 0 1.89 1.83c2 0 2.65-1.37 2.65-3.54zm12.47-9.68v14.65h-1.63c0-.26-.06-.9-.06-1.51-.54 1.19-1.37 1.69-3 1.69-2.63 0-4-2.23-4-5.26s1.53-5.3 4.3-5.3c1.65 0 2.41.66 2.69 1.23v-5.46zm-4.2 13.38c2.19 0 2.65-1.67 2.65-4.06 0-2.81-.82-3.64-2.55-3.64s-2.77 1.37-2.77 3.8 1.02 3.9 2.67 3.9zm15.09-13.38v14.65h-1.63c0-.26-.06-.9-.06-1.51-.54 1.19-1.37 1.69-3 1.69-2.63 0-4-2.23-4-5.26s1.53-5.3 4.3-5.3c1.65 0 2.41.66 2.69 1.23v-5.46zm-4.24 13.38c2.19 0 2.65-1.67 2.65-4.06 0-2.81-.82-3.64-2.55-3.64s-2.77 1.37-2.77 3.8 1.07 3.9 2.67 3.9zm7.22-11.23v-2.15h1.67v2.15zm0 2.29h1.67V413h-1.67zm3.3 0H833v-3h1.67v3h2v1.37h-2v6.37c0 .86.22 1.23 1.09 1.23a4.43 4.43 0 0 0 .78-.08V413a4.44 4.44 0 0 1-1.33.16c-1.49 0-2.21-.56-2.21-2.25v-6.69h-1.63zm7.12-2.29v-2.15h1.67v2.15zm0 2.29h1.67V413h-1.67zm12.87 4.92c0 3-1.29 5.44-4.56 5.44s-4.42-2.59-4.42-5.39 1.47-5.18 4.56-5.18c2.88.01 4.42 2.2 4.42 5.13zm-7.25 0c0 2.33 1 4 2.79 4s2.73-1.65 2.73-4c0-2.23-.92-3.76-2.77-3.76s-2.75 1.57-2.75 3.8zm9.49-1.74v-3.19h1.63a12.36 12.36 0 0 1 .06 1.59 3.12 3.12 0 0 1 3-1.79c1.89 0 3.23 1.06 3.23 3.82V413h-1.67v-6.31c0-1.49-.5-2.61-2-2.61-1.81 0-2.53 1.35-2.53 3.48V413h-1.72zm9.31 9.37a13.64 13.64 0 0 0 1.27-5.16h1.63a11 11 0 0 1-1.51 5.16zm10.69-12.55c1.17 4.48 1.87 7.13 2.11 8.48.24-1.23.8-3.19 2.25-8.48h1.63c1.37 5 2 7.27 2.13 8.4.22-1.13.8-3.21 2.23-8.4h1.69L882.6 413h-1.75c-.9-3.36-1.81-6.55-2.11-8.1-.26 1.51-1.18 4.64-2.19 8.1h-1.81l-2.91-10.18zm14.76 5.4c0 2 .86 3.58 2.65 3.58a2.34 2.34 0 0 0 2.35-1.67H895a3.89 3.89 0 0 1-4.06 3.07c-3.18 0-4.26-2.51-4.26-5.32 0-2.51 1.23-5.26 4.36-5.26s4.12 2.49 4.12 4.84v.76zm5.14-1.22c0-1.75-.74-3.05-2.51-3.05-2 0-2.49 1.83-2.59 3.05zm-554.26 30.12v-8.82h-1.57v-1.37h1.57v-1.27c0-1.81.62-3.33 2.75-3.33a3.52 3.52 0 0 1 1 .12v1.43a3 3 0 0 0-.82-.1c-.9 0-1.25.6-1.25 1.81v1.35h1.91v1.37h-1.91v8.82zm13.24-5.26c0 3-1.29 5.44-4.56 5.44s-4.42-2.59-4.42-5.38 1.47-5.18 4.56-5.18c2.87 0 4.42 2.19 4.42 5.12zm-7.25 0c0 2.33 1 4 2.79 4s2.73-1.65 2.73-4c0-2.23-.92-3.76-2.77-3.76s-2.75 1.57-2.75 3.8zm17.2 2.01a3.92 3.92 0 0 1-4.1 3.46c-2.85 0-4.3-1.91-4.3-5.31 0-3 1.49-5.28 4.4-5.28a3.72 3.72 0 0 1 4 3.56h-1.67a2.29 2.29 0 0 0-2.33-2.19c-1.87 0-2.67 1.63-2.67 3.88 0 2.61.94 4 2.65 4 1.41 0 2-.88 2.37-2.09zm9.79.38v2.87h-1.61a10.3 10.3 0 0 1-.08-1.63 3 3 0 0 1-3 1.81c-1.59 0-3.11-.76-3.11-3.52v-6.85h1.65v6.53c0 1.33.42 2.39 2 2.39s2.45-1 2.45-3.23v-5.69h1.69zm3.68-.08a2.1 2.1 0 0 0 2.29 1.83c1.41 0 1.95-.74 1.95-1.61s-.64-1.41-2.37-1.87c-2.49-.68-3.13-1.59-3.13-3s.92-2.83 3.42-2.83 3.42 1.37 3.56 2.93H380a1.79 1.79 0 0 0-2-1.63c-1.15 0-1.67.54-1.67 1.39s.38 1.19 2.09 1.63c2.59.7 3.42 1.57 3.42 3.19 0 1.89-1.49 3.05-3.68 3.05s-3.7-1-3.88-3.13zm21.33-2.31c0 3-1.29 5.44-4.56 5.44s-4.42-2.59-4.42-5.38 1.47-5.18 4.56-5.18c2.87 0 4.42 2.19 4.42 5.12zm-7.25 0c0 2.33 1 4 2.79 4s2.73-1.65 2.73-4c0-2.23-.92-3.76-2.77-3.76s-2.73 1.57-2.73 3.8zm9.48-1.73v-3.19h1.63a12.38 12.38 0 0 1 .06 1.59 3.12 3.12 0 0 1 3-1.79c1.89 0 3.23 1.06 3.23 3.82v6.57h-1.67v-6.31c0-1.49-.5-2.61-2-2.61-1.81 0-2.53 1.35-2.53 3.48v5.44h-1.67zm24.06 1.73c0 3-1.29 5.44-4.56 5.44s-4.42-2.59-4.42-5.38 1.47-5.18 4.56-5.18c2.9 0 4.42 2.19 4.42 5.12zm-7.25 0c0 2.33 1 4 2.79 4s2.73-1.65 2.73-4c0-2.23-.92-3.76-2.77-3.76s-2.75 1.57-2.75 3.8zm9.49 9.3v-14.23h1.65v1.65a3.28 3.28 0 0 1 3.17-1.85c2.23 0 3.82 1.75 3.82 5.12s-1.83 5.42-4.22 5.42a2.9 2.9 0 0 1-2.77-1.39v5.26zm4.3-13c-2.09 0-2.71 1.43-2.71 3.88 0 2.25.42 3.8 2.61 3.8 1.71 0 2.71-1.41 2.71-3.94s-.99-3.72-2.61-3.72zm7.58 4.18c0 2 .86 3.58 2.65 3.58a2.34 2.34 0 0 0 2.35-1.67h1.63a3.89 3.89 0 0 1-4.06 3.07c-3.18 0-4.26-2.51-4.26-5.32 0-2.51 1.23-5.26 4.36-5.26s4.12 2.49 4.12 4.84v.76zm5.14-1.21c0-1.75-.74-3.05-2.51-3.05-2 0-2.49 1.83-2.59 3.05zm3.86-.74v-3.46h1.63V429a3.42 3.42 0 0 1 3.29-2.25v1.73c-2.29.08-3.25 1.43-3.25 3.64v5h-1.67zm13.54 4.46a19.15 19.15 0 0 0 .14 2.27h-1.51a9.29 9.29 0 0 1-.14-1.57 3 3 0 0 1-3.09 1.75 2.92 2.92 0 0 1-3.23-3.09c0-1.53 1-3.23 4.62-3.23h1.57v-1c0-1-.28-2-2-2a1.86 1.86 0 0 0-2.15 1.81h-1.63c.14-1.71 1.12-3.09 3.84-3.09 2.13 0 3.6.86 3.6 3.18zm-1.61-2.67H457c-2.47 0-2.93 1-2.93 1.93a1.72 1.72 0 0 0 1.89 1.83c2 0 2.65-1.37 2.65-3.54zm3.03-5.24h1.63v-3h1.67v3h2v1.37h-2v6.37c0 .87.22 1.23 1.09 1.23a4.42 4.42 0 0 0 .78-.08v1.27a4.44 4.44 0 0 1-1.33.16c-1.49 0-2.21-.56-2.21-2.25v-6.71h-1.63zm7.11-2.29v-2.15h1.67v2.15zm0 2.29h1.67v10.19h-1.67zm4.61 3.19v-3.19h1.63a12.38 12.38 0 0 1 .06 1.59 3.12 3.12 0 0 1 3-1.79c1.89 0 3.23 1.06 3.23 3.82v6.57h-1.67v-6.31c0-1.49-.5-2.61-2-2.61-1.81 0-2.53 1.35-2.53 3.48v5.44h-1.67zm18.68 6.21c0 3.19-1.29 5-4.38 5s-3.88-1.61-4-3.05h1.65a2.19 2.19 0 0 0 2.45 1.69c2.17 0 2.67-1.43 2.67-3.66v-.82a2.88 2.88 0 0 1-3 1.67c-2.39 0-3.94-2-3.94-5.16s1.83-5.24 4.18-5.24c1.61 0 2.43.66 2.71 1.45a9.24 9.24 0 0 1 .08-1.25h1.63v3zm-4.22-.64c1.95 0 2.63-1.23 2.63-3.78s-.56-3.74-2.53-3.74c-1.69 0-2.71 1.41-2.71 3.78s1.03 3.74 2.64 3.74zm20.39-3.84c0 3-1.29 5.44-4.56 5.44s-4.42-2.59-4.42-5.38 1.47-5.18 4.56-5.18c2.87 0 4.42 2.19 4.42 5.12zm-7.25 0c0 2.33 1 4 2.79 4s2.73-1.65 2.73-4c0-2.23-.92-3.76-2.77-3.76s-2.76 1.57-2.76 3.8zm17.2 2.39v2.87h-1.61a10.3 10.3 0 0 1-.08-1.63 3 3 0 0 1-3 1.81c-1.59 0-3.11-.76-3.11-3.52v-6.85H512v6.53c0 1.33.42 2.39 2 2.39s2.45-1 2.45-3.23v-5.69h1.69zm2.94-3.86v-3.46h1.63V429a3.42 3.42 0 0 1 3.29-2.25v1.73c-2.29.08-3.25 1.43-3.25 3.64v5h-1.67zm11.57-7.89h1.67v5.85a3.27 3.27 0 0 1 3.05-1.61c2.47 0 3.92 2 3.92 5s-1.31 5.58-4.22 5.58a2.81 2.81 0 0 1-2.77-1.47 9 9 0 0 1-.06 1.29h-1.62v-2.89zm4.32 5.69c-2 0-2.75 1.31-2.75 3.72s.58 4 2.69 4c1.83 0 2.67-1.69 2.67-4.08.01-2.2-.86-3.65-2.56-3.65zm14.27 6.06v2.87h-1.61a10.3 10.3 0 0 1-.08-1.63 3 3 0 0 1-3 1.81c-1.59 0-3.11-.76-3.11-3.52v-6.85h1.65v6.53c0 1.33.42 2.39 2 2.39s2.45-1 2.45-3.23v-5.69h1.69zm3.69-.08a2.1 2.1 0 0 0 2.29 1.83c1.41 0 1.95-.74 1.95-1.61s-.64-1.41-2.37-1.87c-2.49-.68-3.13-1.59-3.13-3s.92-2.83 3.42-2.83 3.42 1.37 3.56 2.93H559a1.79 1.79 0 0 0-2-1.63c-1.15 0-1.67.54-1.67 1.39s.38 1.19 2.09 1.63c2.59.7 3.42 1.57 3.42 3.19 0 1.89-1.49 3.05-3.68 3.05s-3.7-1-3.88-3.13zm8.04-9.52v-2.15h1.67v2.15zm0 2.29h1.67v10.19h-1.67zm4.6 3.19v-3.19h1.63a12.38 12.38 0 0 1 .06 1.59 3.12 3.12 0 0 1 3-1.79c1.89 0 3.23 1.06 3.23 3.82v6.57h-1.67v-6.31c0-1.49-.5-2.61-2-2.61-1.81 0-2.53 1.35-2.53 3.48v5.44h-1.67zm11.84 2.21c0 2 .86 3.58 2.65 3.58a2.34 2.34 0 0 0 2.35-1.67H586a3.89 3.89 0 0 1-4.06 3.07c-3.18 0-4.26-2.51-4.26-5.32 0-2.51 1.23-5.26 4.36-5.26s4.12 2.49 4.12 4.84v.76zm5.14-1.21c0-1.75-.74-3.05-2.51-3.05-2 0-2.49 1.83-2.59 3.05zm4.67 3.04a2.1 2.1 0 0 0 2.29 1.83c1.41 0 1.95-.74 1.95-1.61s-.64-1.41-2.37-1.87c-2.49-.68-3.13-1.59-3.13-3s.92-2.83 3.42-2.83 3.42 1.37 3.56 2.93h-1.65a1.79 1.79 0 0 0-2-1.63c-1.15 0-1.67.54-1.67 1.39s.38 1.19 2.09 1.63c2.59.7 3.42 1.57 3.42 3.19 0 1.89-1.49 3.05-3.68 3.05s-3.7-1-3.88-3.13zm8.96 0a2.1 2.1 0 0 0 2.29 1.83c1.41 0 1.95-.74 1.95-1.61s-.64-1.41-2.37-1.87c-2.49-.68-3.13-1.59-3.13-3s.92-2.83 3.42-2.83 3.42 1.37 3.56 2.93h-1.65a1.79 1.79 0 0 0-2-1.63c-1.15 0-1.67.54-1.67 1.39s.38 1.19 2.09 1.63c2.59.7 3.42 1.57 3.42 3.19 0 1.89-1.49 3.05-3.68 3.05s-3.7-1-3.88-3.13zm13.05-9.52v-2.15h1.67v2.15zm0 2.29h1.67v10.19h-1.67zm4.6 3.19v-3.19h1.63a12.38 12.38 0 0 1 .06 1.59 3.12 3.12 0 0 1 3-1.79c1.89 0 3.23 1.06 3.23 3.82v6.57H622v-6.31c0-1.49-.5-2.61-2-2.61-1.81 0-2.53 1.35-2.53 3.48v5.44h-1.67zm22.94 4.72a19.15 19.15 0 0 0 .14 2.27h-1.51a9.29 9.29 0 0 1-.14-1.57 3 3 0 0 1-3.09 1.75 2.92 2.92 0 0 1-3.23-3.09c0-1.53 1-3.23 4.62-3.23h1.57v-1c0-1-.28-2-2-2a1.86 1.86 0 0 0-2.15 1.81h-1.63c.14-1.71 1.12-3.09 3.84-3.09 2.13 0 3.6.86 3.6 3.18zm-1.61-2.67h-1.61c-2.47 0-2.93 1-2.93 1.93a1.72 1.72 0 0 0 1.89 1.83c2 0 2.65-1.37 2.65-3.54zm10.19-5.24c1.17 4.48 1.87 7.13 2.11 8.48.24-1.23.8-3.19 2.25-8.48h1.63c1.37 5 2 7.27 2.13 8.4.22-1.13.8-3.21 2.23-8.4h1.69l-3.09 10.19h-1.75c-.9-3.36-1.81-6.55-2.11-8.1-.26 1.51-1.18 4.64-2.19 8.1h-1.81l-2.91-10.19zm20.74 7.91a18.81 18.81 0 0 0 .14 2.27h-1.51a9.29 9.29 0 0 1-.14-1.57 3 3 0 0 1-3.09 1.75 2.92 2.92 0 0 1-3.23-3.09c0-1.53 1-3.23 4.62-3.23h1.57v-1c0-1-.28-2-2-2a1.86 1.86 0 0 0-2.15 1.81h-1.63c.14-1.71 1.12-3.09 3.84-3.09 2.13 0 3.6.86 3.6 3.18zm-1.61-2.67h-1.61c-2.47 0-2.93 1-2.93 1.93a1.72 1.72 0 0 0 1.89 1.83c2 0 2.65-1.37 2.65-3.54zm4.83-5.24c1.59 4.94 2.41 7.41 2.67 8.64.3-1.13 1.21-4.24 2.59-8.64h1.73l-3.58 10.65c-1 3.09-1.87 3.74-3.68 3.74a4.52 4.52 0 0 1-.88-.08v-1.43a6.23 6.23 0 0 0 .88.06c1.23 0 1.61-1 2.09-2.43l-3.64-10.51zm12.19 0h1.63v-3h1.67v3h2v1.37h-2v6.37c0 .87.22 1.23 1.09 1.23a4.42 4.42 0 0 0 .78-.08v1.27a4.44 4.44 0 0 1-1.33.16c-1.49 0-2.21-.56-2.21-2.25v-6.71h-1.63zm8.68-4.44v5.91a3.16 3.16 0 0 1 3-1.67c1.49 0 3.19.76 3.19 3.66v6.73h-1.65v-6.45c0-1.55-.6-2.47-2.09-2.47-1.65 0-2.49 1.08-2.49 3.11v5.81h-1.67V422.5zm16.14 12.35a18.81 18.81 0 0 0 .14 2.27h-1.51a9.29 9.29 0 0 1-.14-1.57 3 3 0 0 1-3.09 1.75 2.92 2.92 0 0 1-3.23-3.09c0-1.53 1-3.23 4.62-3.23h1.57v-1c0-1-.28-2-2-2a1.86 1.86 0 0 0-2.15 1.81h-1.63c.14-1.71 1.12-3.09 3.84-3.09 2.13 0 3.6.86 3.6 3.18zm-1.61-2.67h-1.61c-2.47 0-2.93 1-2.93 1.93a1.72 1.72 0 0 0 1.89 1.83c2 0 2.65-1.37 2.65-3.54zm3.02-5.24h1.63v-3H713v3h2v1.37h-2v6.37c0 .87.22 1.23 1.09 1.23a4.42 4.42 0 0 0 .78-.08v1.27a4.44 4.44 0 0 1-1.33.16c-1.49 0-2.21-.56-2.21-2.25v-6.71h-1.63zm13.73-4.44v5.91a3.16 3.16 0 0 1 3-1.67c1.49 0 3.19.76 3.19 3.66v6.73H728v-6.45c0-1.55-.6-2.47-2.09-2.47-1.65 0-2.49 1.08-2.49 3.11v5.81h-1.67V422.5zm16.14 12.35a19.15 19.15 0 0 0 .14 2.27h-1.51a9.29 9.29 0 0 1-.14-1.57 3 3 0 0 1-3.07 1.75 2.92 2.92 0 0 1-3.23-3.09c0-1.53 1-3.23 4.62-3.23h1.57v-1c0-1-.28-2-2-2a1.86 1.86 0 0 0-2.15 1.81h-1.63c.14-1.71 1.12-3.09 3.84-3.09 2.13 0 3.6.86 3.6 3.18zm-1.58-2.67h-1.61c-2.47 0-2.93 1-2.93 1.93a1.72 1.72 0 0 0 1.89 1.83c2 0 2.65-1.37 2.65-3.54zm5.08 1.99a2.1 2.1 0 0 0 2.29 1.83c1.41 0 1.95-.74 1.95-1.61s-.64-1.41-2.37-1.87c-2.49-.68-3.13-1.59-3.13-3s.92-2.83 3.42-2.83 3.42 1.37 3.56 2.93h-1.65a1.79 1.79 0 0 0-2-1.63c-1.15 0-1.67.54-1.67 1.39s.38 1.19 2.09 1.63c2.59.7 3.42 1.57 3.42 3.19 0 1.89-1.49 3.05-3.68 3.05s-3.7-1-3.88-3.13zm20.2.68a19.15 19.15 0 0 0 .14 2.27h-1.51a9.29 9.29 0 0 1-.14-1.57 3 3 0 0 1-3.09 1.75 2.92 2.92 0 0 1-3.23-3.09c0-1.53 1-3.23 4.62-3.23h1.57v-1c0-1-.28-2-2-2a1.86 1.86 0 0 0-2.15 1.81h-1.63c.14-1.71 1.12-3.09 3.84-3.09 2.13 0 3.6.86 3.6 3.18zm-1.61-2.67h-1.61c-2.47 0-2.93 1-2.93 1.93a1.72 1.72 0 0 0 1.89 1.83c2 0 2.65-1.37 2.65-3.54zm9.49 8.98v-14.23h1.65v1.65a3.28 3.28 0 0 1 3.17-1.85c2.23 0 3.82 1.75 3.82 5.12s-1.83 5.42-4.22 5.42a2.9 2.9 0 0 1-2.77-1.39v5.26zm4.3-13c-2.09 0-2.71 1.43-2.71 3.88 0 2.25.42 3.8 2.61 3.8 1.71 0 2.71-1.41 2.71-3.94s-.98-3.72-2.61-3.72zm14.85 3.7c0 3-1.29 5.44-4.56 5.44s-4.42-2.59-4.42-5.38 1.47-5.18 4.56-5.18c2.87 0 4.42 2.19 4.42 5.12zm-7.25 0c0 2.33 1 4 2.79 4s2.73-1.65 2.73-4c0-2.23-.92-3.76-2.77-3.76s-2.75 1.57-2.75 3.8zm10.29 2.31a2.1 2.1 0 0 0 2.29 1.83c1.41 0 1.95-.74 1.95-1.61s-.64-1.41-2.37-1.87c-2.49-.68-3.13-1.59-3.13-3s.92-2.83 3.42-2.83 3.42 1.37 3.56 2.93h-1.65a1.79 1.79 0 0 0-2-1.63c-1.15 0-1.67.54-1.67 1.39s.38 1.19 2.09 1.63c2.59.7 3.42 1.57 3.42 3.19 0 1.89-1.49 3.05-3.68 3.05s-3.7-1-3.88-3.13zm8.04-9.52v-2.15h1.67v2.15zm0 2.29h1.67v10.19h-1.67zm3.3 0h1.63v-3H808v3h2v1.37h-2v6.37c0 .87.22 1.23 1.09 1.23a4.42 4.42 0 0 0 .78-.08v1.27a4.44 4.44 0 0 1-1.33.16c-1.49 0-2.21-.56-2.21-2.25v-6.71h-1.63zm7.12-2.29v-2.15h1.67v2.15zm0 2.29h1.67v10.19h-1.67zm5.12 0c1.37 4.32 2.27 7.17 2.59 8.6.2-1.21 2-6.35 2.69-8.6h1.65l-3.52 10.19h-1.83l-3.39-10.19zm9.63 5.4c0 2 .86 3.58 2.65 3.58a2.34 2.34 0 0 0 2.35-1.67h1.63a3.89 3.89 0 0 1-4.06 3.07c-3.18 0-4.26-2.51-4.26-5.32 0-2.51 1.23-5.26 4.36-5.26s4.12 2.49 4.12 4.84v.76zm5.14-1.21c0-1.75-.74-3.05-2.51-3.05-2 0-2.49 1.83-2.59 3.05zm8.81-6.48v-2.15h1.67v2.15zm0 2.29h1.67v10.19h-1.67zm4.6 3.17v-3.18h1.63c0 .28.06 1.08.06 1.45a3.07 3.07 0 0 1 2.85-1.65 2.49 2.49 0 0 1 2.61 1.75 3.21 3.21 0 0 1 3-1.75c1.55 0 3.05.8 3.05 3.48v6.91h-1.65v-6.63c0-1.24-.4-2.31-1.85-2.31s-2.25 1.33-2.25 3v6h-1.66v-6.71c0-1.27-.5-2.21-1.83-2.21s-2.31 1.08-2.31 3.11v5.81h-1.65zm16.12 11.05v-14.23h1.65v1.65a3.28 3.28 0 0 1 3.17-1.85c2.23 0 3.82 1.75 3.82 5.12s-1.83 5.42-4.22 5.42a2.9 2.9 0 0 1-2.77-1.39v5.26zm4.3-13c-2.09 0-2.71 1.43-2.71 3.88 0 2.25.42 3.8 2.61 3.8 1.71 0 2.71-1.41 2.71-3.94s-.98-3.72-2.61-3.72zm13.73 6.69a18.81 18.81 0 0 0 .14 2.27h-1.51a9.29 9.29 0 0 1-.14-1.57 3 3 0 0 1-3.09 1.75 2.92 2.92 0 0 1-3.23-3.09c0-1.53 1-3.23 4.62-3.23h1.57v-1c0-1-.28-2-2-2a1.86 1.86 0 0 0-2.15 1.81h-1.63c.14-1.71 1.12-3.09 3.84-3.09 2.13 0 3.6.86 3.6 3.18zm-1.61-2.67H876c-2.47 0-2.93 1-2.93 1.93a1.72 1.72 0 0 0 1.89 1.83c2 0 2.65-1.37 2.65-3.54zm12.26 1.69a3.92 3.92 0 0 1-4.1 3.46c-2.85 0-4.3-1.91-4.3-5.31 0-3 1.49-5.28 4.4-5.28a3.72 3.72 0 0 1 4 3.56h-1.67a2.29 2.29 0 0 0-2.33-2.19c-1.87 0-2.67 1.63-2.67 3.88 0 2.61.94 4 2.65 4 1.41 0 2-.88 2.37-2.09zm1.09-6.93h1.63v-3h1.67v3h2v1.37h-2v6.37c0 .87.22 1.23 1.09 1.23a4.42 4.42 0 0 0 .78-.08v1.27a4.44 4.44 0 0 1-1.33.16c-1.49 0-2.21-.56-2.21-2.25v-6.71H891zm20.32 4.92c0 3-1.29 5.44-4.56 5.44s-4.42-2.59-4.42-5.38 1.47-5.18 4.56-5.18c2.87 0 4.42 2.19 4.42 5.12zm-7.25 0c0 2.33 1 4 2.79 4s2.73-1.65 2.73-4c0-2.23-.92-3.76-2.77-3.76s-2.75 1.57-2.75 3.8zm9.49-1.73v-3.19h1.63a12.38 12.38 0 0 1 .06 1.59 3.12 3.12 0 0 1 3-1.79c1.89 0 3.23 1.06 3.23 3.82v6.57h-1.67v-6.31c0-1.49-.5-2.61-2-2.61-1.81 0-2.53 1.35-2.53 3.48v5.44h-1.67zm-574.5 35.15v-14.23h1.65v1.65a3.27 3.27 0 0 1 3.17-1.85c2.23 0 3.82 1.75 3.82 5.12s-1.83 5.42-4.22 5.42a2.9 2.9 0 0 1-2.77-1.39v5.26zm4.3-13c-2.09 0-2.71 1.43-2.71 3.88 0 2.25.42 3.8 2.61 3.8C345 460 346 458.57 346 456s-1-3.7-2.64-3.7zm7.58 4.18c0 2 .86 3.58 2.65 3.58a2.34 2.34 0 0 0 2.35-1.67h1.63a3.89 3.89 0 0 1-4.06 3.07c-3.18 0-4.26-2.51-4.26-5.32 0-2.51 1.23-5.26 4.36-5.26s4.12 2.49 4.12 4.84v.76zm5.14-1.21c0-1.75-.74-3.05-2.51-3.05-2 0-2.49 1.83-2.59 3.05zm12.24.75c0 3-1.29 5.44-4.56 5.44s-4.42-2.59-4.42-5.39 1.47-5.18 4.56-5.18c2.87-.01 4.42 2.13 4.42 5.13zm-7.25 0c0 2.33 1 4 2.79 4s2.73-1.65 2.73-4c0-2.23-.92-3.76-2.77-3.76s-2.75 1.55-2.75 3.76zm9.49 9.28v-14.23h1.65v1.65a3.27 3.27 0 0 1 3.17-1.85c2.23 0 3.82 1.75 3.82 5.12s-1.83 5.42-4.22 5.42a2.9 2.9 0 0 1-2.78-1.39v5.26zm4.3-13c-2.09 0-2.71 1.43-2.71 3.88 0 2.25.42 3.8 2.61 3.8 1.71 0 2.71-1.41 2.71-3.94s-.99-3.72-2.62-3.72zm6.57 8.96v-14.62h1.67v14.62zm5.57-4.78c0 2 .86 3.58 2.65 3.58a2.34 2.34 0 0 0 2.35-1.67h1.63a3.89 3.89 0 0 1-4.06 3.07c-3.18 0-4.26-2.51-4.26-5.32 0-2.51 1.23-5.26 4.36-5.26s4.12 2.49 4.12 4.84v.76zm5.14-1.21c0-1.75-.74-3.05-2.51-3.05-2 0-2.49 1.83-2.59 3.05zm2.86-3.65a17.22 17.22 0 0 0 .76-5.06h1.51a14.37 14.37 0 0 1-.94 5.06zm4.24 6.69a2.1 2.1 0 0 0 2.29 1.83c1.41 0 1.95-.74 1.95-1.61s-.64-1.41-2.37-1.87c-2.49-.68-3.13-1.59-3.13-3s.92-2.83 3.42-2.83 3.42 1.37 3.56 2.93h-1.66a1.79 1.79 0 0 0-2-1.63c-1.15 0-1.67.54-1.67 1.39s.38 1.18 2.09 1.63c2.59.7 3.42 1.57 3.42 3.19 0 1.89-1.49 3.05-3.68 3.05s-3.7-1-3.88-3.13zm13.05 2.95v-14.62H414v14.62zm4.6-12.47v-2.15h1.67v2.15zm0 2.29h1.67v10.18h-1.67zm5.11 0c1.37 4.32 2.27 7.17 2.59 8.6.2-1.21 2-6.35 2.69-8.6H429l-3.52 10.18h-1.83l-3.39-10.18zm9.64 5.4c0 2 .86 3.58 2.65 3.58a2.34 2.34 0 0 0 2.35-1.67h1.63a3.89 3.89 0 0 1-4.06 3.07c-3.18 0-4.26-2.51-4.26-5.32 0-2.51 1.23-5.26 4.36-5.26s4.12 2.49 4.12 4.84v.76zm5.14-1.21c0-1.75-.74-3.05-2.51-3.05-2 0-2.49 1.83-2.59 3.05zm4.67 3.04a2.1 2.1 0 0 0 2.29 1.83c1.41 0 1.95-.74 1.95-1.61s-.64-1.41-2.37-1.87c-2.49-.68-3.13-1.59-3.13-3s.92-2.83 3.42-2.83 3.42 1.37 3.56 2.93h-1.65a1.79 1.79 0 0 0-2-1.63c-1.15 0-1.67.54-1.67 1.39s.38 1.18 2.09 1.63c2.59.7 3.42 1.57 3.42 3.19 0 1.89-1.49 3.05-3.68 3.05s-3.7-1-3.88-3.13zm6.92 5.33a13.64 13.64 0 0 0 1.27-5.16h1.63a11 11 0 0 1-1.51 5.16zm10.69-12.56c1.17 4.48 1.87 7.13 2.11 8.48.24-1.23.8-3.19 2.25-8.48h1.63c1.37 5 2 7.27 2.13 8.4.22-1.13.8-3.21 2.23-8.4h1.69l-3.09 10.18h-1.75c-.9-3.36-1.81-6.55-2.11-8.1-.26 1.51-1.19 4.64-2.19 8.1h-1.81l-2.91-10.18zm15.62-4.44v5.91a3.16 3.16 0 0 1 3-1.67c1.49 0 3.19.76 3.19 3.66v6.73h-1.65v-6.45c0-1.55-.6-2.47-2.09-2.47-1.65 0-2.49 1.09-2.49 3.11v5.81H473v-14.63zm10.17 9.84c0 2 .86 3.58 2.65 3.58a2.34 2.34 0 0 0 2.35-1.67h1.63a3.89 3.89 0 0 1-4.06 3.07c-3.18 0-4.26-2.51-4.26-5.32 0-2.51 1.23-5.26 4.36-5.26s4.12 2.49 4.12 4.84v.76zm5.14-1.21c0-1.75-.74-3.05-2.51-3.05-2 0-2.49 1.83-2.59 3.05zm2.66-4.19h1.63v-3h1.67v3h2v1.37h-2v6.37c0 .86.22 1.23 1.09 1.23a4.43 4.43 0 0 0 .78-.08v1.27a4.44 4.44 0 0 1-1.33.16c-1.49 0-2.21-.56-2.21-2.25v-6.69h-1.63zm8.68-4.44v5.91a3.16 3.16 0 0 1 3-1.67c1.49 0 3.19.76 3.19 3.66v6.73h-1.65v-6.45c0-1.55-.6-2.47-2.09-2.47-1.65 0-2.49 1.09-2.49 3.11v5.81h-1.67v-14.63zm10.17 9.84c0 2 .86 3.58 2.65 3.58a2.34 2.34 0 0 0 2.35-1.67h1.63a3.89 3.89 0 0 1-4.06 3.07c-3.18 0-4.26-2.51-4.26-5.32 0-2.51 1.23-5.26 4.36-5.26s4.12 2.49 4.12 4.84v.76zm5.14-1.21c0-1.75-.74-3.05-2.51-3.05-2 0-2.49 1.83-2.59 3.05zm3.87-.74v-3.45h1.63v2.07a3.42 3.42 0 0 1 3.29-2.25v1.73c-2.29.08-3.25 1.43-3.25 3.64v5h-1.67zm11.57-7.89h1.67v5.84a3.27 3.27 0 0 1 3.05-1.61c2.47 0 3.92 2 3.92 5s-1.31 5.58-4.22 5.58a2.81 2.81 0 0 1-2.77-1.47 9 9 0 0 1-.06 1.29H532v-2.89zm4.32 5.68c-2 0-2.75 1.31-2.75 3.72s.58 4 2.69 4c1.83 0 2.67-1.69 2.67-4.08-.01-2.19-.86-3.64-2.61-3.64zm6.6-3.53v-2.15h1.67v2.15zm0 2.29h1.67v10.18H543zm12.44 9.4c0 3.19-1.29 5-4.38 5s-3.88-1.61-4-3.05h1.65a2.2 2.2 0 0 0 2.45 1.69c2.17 0 2.67-1.43 2.67-3.66v-.82a2.87 2.87 0 0 1-3 1.67c-2.39 0-3.94-2-3.94-5.16s1.83-5.24 4.18-5.24c1.61 0 2.43.66 2.71 1.45a9.23 9.23 0 0 1 .08-1.24h1.63v3zm-4.22-.64c1.95 0 2.63-1.23 2.63-3.78s-.56-3.74-2.53-3.74c-1.69 0-2.71 1.41-2.71 3.78s1 3.74 2.61 3.74zm20.36-3.82c0 3-1.29 5.44-4.56 5.44s-4.42-2.59-4.42-5.39 1.47-5.18 4.56-5.18c2.84-.01 4.42 2.13 4.42 5.13zm-7.25 0c0 2.33 1 4 2.79 4s2.73-1.65 2.73-4c0-2.23-.92-3.76-2.77-3.76s-2.75 1.55-2.75 3.76zm9.49-1.49v-3.45h1.63v2.07a3.42 3.42 0 0 1 3.29-2.25v1.73c-2.29.08-3.25 1.43-3.25 3.64v5h-1.67zm12.34 3.78a2.1 2.1 0 0 0 2.29 1.83c1.41 0 1.95-.74 1.95-1.61s-.64-1.41-2.37-1.87c-2.49-.68-3.13-1.59-3.13-3s.92-2.83 3.42-2.83 3.42 1.37 3.56 2.93h-1.65a1.79 1.79 0 0 0-2-1.63c-1.15 0-1.67.54-1.67 1.39s.38 1.18 2.09 1.63c2.59.7 3.42 1.57 3.42 3.19 0 1.89-1.49 3.05-3.68 3.05s-3.7-1-3.88-3.13zm8.04-4.06v-3.17h1.63c0 .28.06 1.08.06 1.45a3.07 3.07 0 0 1 2.85-1.65 2.49 2.49 0 0 1 2.61 1.75 3.21 3.21 0 0 1 3-1.75c1.55 0 3.05.8 3.05 3.48v6.91h-1.65v-6.63c0-1.24-.4-2.31-1.85-2.31s-2.25 1.33-2.25 3v6H600v-6.71c0-1.26-.5-2.21-1.83-2.21s-2.31 1.09-2.31 3.11v5.81h-1.66zm23.09 4.77a18.79 18.79 0 0 0 .14 2.27h-1.51a9.28 9.28 0 0 1-.14-1.57 3 3 0 0 1-3.09 1.75 2.92 2.92 0 0 1-3.23-3.09c0-1.53 1-3.23 4.62-3.23h1.57v-1c0-1-.28-2-2-2a1.86 1.86 0 0 0-2.15 1.81h-1.63c.14-1.71 1.12-3.09 3.84-3.09 2.13 0 3.6.86 3.6 3.17zm-1.61-2.67h-1.61c-2.47 0-2.93 1-2.93 1.93a1.72 1.72 0 0 0 1.89 1.83c2 0 2.65-1.37 2.65-3.54zm4.55 4.91v-14.62h1.67v14.62zm4.6 0v-14.62h1.67v14.62zm3.5 2.38a13.64 13.64 0 0 0 1.27-5.16h1.63a11 11 0 0 1-1.51 5.16zm17.91-17v14.65h-1.63c0-.26-.06-.9-.06-1.51-.54 1.19-1.37 1.69-3 1.69-2.63 0-4-2.23-4-5.26s1.53-5.3 4.3-5.3c1.65 0 2.41.66 2.69 1.23v-5.46zM642 460c2.19 0 2.65-1.67 2.65-4.06 0-2.81-.82-3.64-2.55-3.64s-2.77 1.37-2.77 3.8 1.06 3.9 2.67 3.9zm7.22-11.23v-2.15h1.67v2.15zm0 2.29h1.67v10.18h-1.67zm4.6 3.45v-3.45h1.63v2.07a3.42 3.42 0 0 1 3.29-2.25v1.73c-2.29.08-3.25 1.43-3.25 3.64v5h-1.67zm7.54 1.95c0 2 .86 3.58 2.65 3.58a2.34 2.34 0 0 0 2.35-1.67H668a3.89 3.89 0 0 1-4.06 3.07c-3.18 0-4.26-2.51-4.26-5.32 0-2.51 1.23-5.26 4.36-5.26s4.12 2.49 4.12 4.84v.76zm5.14-1.21c0-1.75-.74-3.05-2.51-3.05-2 0-2.49 1.83-2.59 3.05zm11.68 2.75a3.91 3.91 0 0 1-4.1 3.45c-2.85 0-4.3-1.91-4.3-5.3 0-3 1.49-5.28 4.4-5.28a3.72 3.72 0 0 1 4 3.56h-1.67a2.29 2.29 0 0 0-2.33-2.19c-1.87 0-2.67 1.63-2.67 3.88 0 2.61.94 4 2.65 4 1.41 0 2-.88 2.37-2.09zm1.07-6.94h1.63v-3h1.67v3h2v1.37h-2v6.37c0 .86.22 1.23 1.09 1.23a4.43 4.43 0 0 0 .78-.08v1.27a4.44 4.44 0 0 1-1.33.16c-1.49 0-2.21-.56-2.21-2.25v-6.69h-1.63zm7.01 10.18v-14.62h1.67v14.62zm5.25-10.18c1.59 4.94 2.41 7.41 2.67 8.64.3-1.13 1.21-4.24 2.59-8.64h1.73l-3.58 10.65c-1 3.09-1.87 3.74-3.68 3.74a4.52 4.52 0 0 1-.88-.08v-1.43a6.23 6.23 0 0 0 .88.06c1.23 0 1.61-1 2.09-2.43l-3.64-10.51zm21.9 4.94c0 3-1.29 5.44-4.56 5.44s-4.42-2.59-4.42-5.39 1.47-5.18 4.56-5.18c2.88-.01 4.42 2.13 4.42 5.13zm-7.25 0c0 2.33 1 4 2.79 4s2.73-1.65 2.73-4c0-2.23-.92-3.76-2.77-3.76s-2.75 1.55-2.75 3.76zm9.49-1.49v-3.45h1.63v2.07a3.42 3.42 0 0 1 3.29-2.25v1.73c-2.29.08-3.25 1.43-3.25 3.64v5h-1.67zm11.6-5.74v-2.15h1.67v2.15zm0 2.29h1.67v10.18h-1.67zm4.6 3.19v-3.19h1.63a12.36 12.36 0 0 1 .06 1.59 3.12 3.12 0 0 1 3-1.79c1.89 0 3.23 1.06 3.23 3.82v6.57h-1.67v-6.31c0-1.49-.5-2.61-2-2.61-1.81 0-2.53 1.35-2.53 3.48v5.44h-1.67zm18.75-7.63v14.65H749c0-.26-.06-.9-.06-1.51-.54 1.19-1.37 1.69-3 1.69-2.63 0-4-2.23-4-5.26s1.53-5.3 4.3-5.3c1.65 0 2.41.66 2.69 1.23v-5.46zM746.36 460c2.19 0 2.65-1.67 2.65-4.06 0-2.81-.82-3.64-2.55-3.64s-2.77 1.37-2.77 3.8 1.07 3.9 2.67 3.9zm7.22-11.23v-2.15h1.67v2.15zm0 2.29h1.67v10.18h-1.67zm4.6 3.45v-3.45h1.63v2.07a3.42 3.42 0 0 1 3.29-2.25v1.73c-2.29.08-3.25 1.43-3.25 3.64v5h-1.67zm7.54 1.95c0 2 .86 3.58 2.65 3.58a2.34 2.34 0 0 0 2.35-1.67h1.63a3.89 3.89 0 0 1-4.06 3.07c-3.18 0-4.26-2.51-4.26-5.32 0-2.51 1.23-5.26 4.36-5.26s4.12 2.49 4.12 4.84v.76zm5.14-1.21c0-1.75-.74-3.05-2.51-3.05-2 0-2.49 1.83-2.59 3.05zm11.68 2.75a3.91 3.91 0 0 1-4.1 3.45c-2.85 0-4.3-1.91-4.3-5.3 0-3 1.49-5.28 4.4-5.28a3.72 3.72 0 0 1 4 3.56h-1.67a2.29 2.29 0 0 0-2.33-2.19c-1.87 0-2.67 1.63-2.67 3.88 0 2.61.94 4 2.65 4 1.41 0 2-.88 2.37-2.09zm1.07-6.94h1.63v-3h1.67v3h2v1.37h-2v6.37c0 .86.22 1.23 1.09 1.23a4.43 4.43 0 0 0 .78-.08v1.27a4.44 4.44 0 0 1-1.33.16c-1.49 0-2.21-.56-2.21-2.25v-6.69h-1.63zm7.01 10.18v-14.62h1.67v14.62zm5.25-10.18c1.59 4.94 2.41 7.41 2.67 8.64.3-1.13 1.21-4.24 2.59-8.64h1.73l-3.58 10.65c-1 3.09-1.87 3.74-3.68 3.74a4.52 4.52 0 0 1-.88-.08v-1.43a6.23 6.23 0 0 0 .88.06c1.23 0 1.61-1 2.09-2.43l-3.64-10.51zm7.13 10.21v-2.77h1.65v2.77z"/><path class="cls-2" d="M198.14 383.54h5.44c2.7 0 4.6 1.34 4.6 4a3.35 3.35 0 0 1-2.44 3.43 4 4 0 0 1 3 4.08c0 3.1-2.23 4.76-5.35 4.76h-5.21zm5 6.81c2.53 0 3.47-1.08 3.47-2.77s-1-2.77-3.31-2.77h-3.66v5.54zm-3.5 8.16h3.54c2.25 0 3.92-1.08 3.92-3.45 0-2.09-1.36-3.4-4.11-3.4h-3.36zm21.19-4.83c0 3.4-1.43 6.29-5.12 6.29-3.5 0-5-3-5-6.24s1.71-6 5.12-6c3.17.01 5 2.45 5 5.95zm-8.54 0c0 2.79 1.22 5 3.54 5s3.43-2.09 3.43-5c0-2.65-1.15-4.65-3.5-4.65s-3.48 1.97-3.48 4.7zm20.07-11.01v17.1H231c0-.31-.07-1.08-.07-1.88-.63 1.5-1.62 2.09-3.59 2.09-3.07 0-4.58-2.63-4.58-6.1s1.71-6.15 4.93-6.15c1.95 0 2.91.82 3.24 1.55v-6.62zm-4.74 16c2.74 0 3.31-2.13 3.31-5.07 0-3.57-1.1-4.51-3.17-4.51s-3.5 1.76-3.5 4.74 1.44 4.82 3.36 4.82zm8.56-10.67c2 6 3 8.89 3.38 10.35.35-1.24 1.41-4.67 3.26-10.35h1.55l-4.15 12.34c-1.2 3.52-2 4.39-4.11 4.39a6.52 6.52 0 0 1-1-.09v-1.34a6.43 6.43 0 0 0 1 .07c1.6 0 2-1.31 2.68-3.26L234.58 388z"/><path class="cls-3" d="M278.96 322.93v140.43"/><path class="cls-2" d="M357.56 250.22l-1.72 2.2c-2.32-2.08-4.13-2.74-7.87-2.74-5.1 0-8.63-3.68-8.63-10.62s3.56-10.8 8.69-10.8 8.69 3.77 8.69 10.77c0 5.22-1.9 7.84-4.86 9.29a9.3 9.3 0 0 1 5.7 1.9zm-9.56-2.65c3.62 0 5.91-2.47 5.91-8.54s-2.26-8.6-5.91-8.6-5.91 2.53-5.91 8.63 2.44 8.51 5.91 8.51zm19.38 2.14c-4.16 0-6.27-2.41-6.27-5.79v-11.56h2.53v11.37c0 2.56 1.18 3.92 3.74 3.92s3.77-1.36 3.77-3.92v-11.37h2.53v11.55c.01 3.38-2.16 5.8-6.3 5.8zm13.27-4.56l-1.33 4.22h-2.59l5.79-17h3.14l5.76 17h-2.68l-1.33-4.22zm3.35-10.73l-2.74 8.75h5.49zm20.65 12.78l-.3 2.17h-9.59v-17h2.53v14.83zm3.71 2.18v-17h2.53v17zm13.72-14.9v14.9h-2.53v-14.9h-5.1v-2.11h12.85l-.24 2.11zm14.05 14.9h-2.56v-6.51l-5.77-10.47h2.77l4.37 8.35 4.28-8.35h2.68l-5.79 10.43zm30.72 0l-.63-7.57c-.24-2.77-.36-5-.39-7.24l-3.92 12.88h-2.41l-4-12.88c0 2.35-.12 4.86-.33 7.33l-.57 7.48h-2.41l1.51-17h3.3l3.77 12.52 3.68-12.52h3.38l1.48 17zm9.02-4.23l-1.33 4.22h-2.59l5.79-17h3.14l5.76 17H484l-1.33-4.22zm3.38-10.74l-2.74 8.75H482zm13.26 7.82v7.15H490v-17h4.8c4.52 0 6.82 1.63 6.82 4.86 0 2.38-1.33 3.74-3.83 4.49l4.86 7.63h-3l-4.25-7.15zm6.42-5c0-2.05-1.27-3-4.19-3h-2.23v6H495c2.52.1 3.93-.75 3.93-2.98zm7.6 12.15v-17h2.53v17zm12.79 0h-3.08l-7.09-9.11 6.85-7.87h2.84l-6.84 7.72zm5.68-15.03v5.34h6v2h-6v5.76h7.42v2h-10v-17h9.8l-.3 2zm16.72.13v14.9h-2.53v-14.9h-5.1v-2.11h12.85l-.24 2.11zm8.62 14.9v-17h2.53v17zm17.94 0l-7.21-14.48c.12 1.63.33 3.53.33 6.7v7.78h-2.32v-17h3.29l7.33 14.54a45.67 45.67 0 0 1-.36-5.64v-8.9h2.32v17zM589.72 234l-1.45 1.51a5.92 5.92 0 0 0-3.92-1.36c-2.62 0-5.19 1.87-5.19 6.72s1.81 6.82 4.92 6.82a7.31 7.31 0 0 0 3.38-.72v-5.07h-3.14l-.27-2h5.88v8.23a11.09 11.09 0 0 1-5.94 1.57c-4.61 0-7.48-3-7.48-8.87 0-5.7 3.68-8.75 7.75-8.75a8.13 8.13 0 0 1 5.46 1.92zm24.69-1.18c0 2.56-1.93 4.13-4.34 5.55l5.52 5.19a24.13 24.13 0 0 0 1.84-5.25l2.38.66a24.91 24.91 0 0 1-2.65 6.06l3.47 3.23-1.84 1.48-3-2.92a8.36 8.36 0 0 1-6.67 2.92c-3.89 0-6.67-2.2-6.67-5.61 0-2.65 1.66-4.37 4.25-6-1.84-1.75-3-3.11-3-5.19 0-2.62 1.93-4.68 5.34-4.68 3.17 0 5.37 1.93 5.37 4.56zM605 244c0 2.29 1.81 3.68 4.34 3.68a6.34 6.34 0 0 0 4.92-2.32l-6.15-5.88C606 240.84 605 242.2 605 244zm1.18-11.13c0 1.54.84 2.56 2.44 4.07 2.05-1.21 3.29-2.38 3.29-4a2.87 2.87 0 0 0-5.73-.06zm41.31 16.51l-.63-7.57c-.24-2.77-.36-5-.39-7.24l-3.92 12.88h-2.41l-4-12.88c0 2.35-.12 4.86-.33 7.33l-.57 7.48h-2.41l1.51-17h3.35l3.77 12.52 3.68-12.52h3.38l1.48 17zm9.01-4.23l-1.33 4.22h-2.59l5.79-17h3.14l5.76 17h-2.68l-1.33-4.22zm3.38-10.74l-2.74 8.75h5.49zm19.93 14.97l-7.21-14.48c.12 1.63.33 3.53.33 6.7v7.78h-2.32v-17h3.29l7.33 14.54a45.67 45.67 0 0 1-.36-5.64v-8.9h2.32v17zm10.64-4.23l-1.33 4.22h-2.59l5.79-17h3.14l5.76 17h-2.68l-1.33-4.22zm3.38-10.74l-2.74 8.75h5.49zm21.68-.41l-1.45 1.51a5.92 5.92 0 0 0-3.92-1.36c-2.62 0-5.19 1.87-5.19 6.72s1.81 6.82 4.92 6.82a7.31 7.31 0 0 0 3.38-.72v-5.07h-3.14l-.27-2h5.88v8.23a11.09 11.09 0 0 1-5.94 1.57c-4.61 0-7.48-3-7.48-8.87 0-5.7 3.68-8.75 7.75-8.75a8.13 8.13 0 0 1 5.46 1.92zm7.75.35v5.34h6.06v2h-6.06v5.76h7.42v2h-10v-17h9.8l-.3 2zm25.63 15.03l-.63-7.57c-.24-2.77-.36-5-.39-7.24l-3.92 12.88h-2.41l-4-12.88c0 2.35-.12 4.86-.33 7.33l-.57 7.48h-2.41l1.51-17H739l3.77 12.52 3.68-12.52h3.38l1.48 17zm10.49-15.03v5.34h6.06v2h-6.06v5.76h7.42v2h-10v-17h9.8l-.3 2zm21.29 15.03l-7.21-14.48c.12 1.63.33 3.53.33 6.7v7.78h-2.32v-17h3.29l7.33 14.54a45.67 45.67 0 0 1-.36-5.64v-8.9H784v17zm14.56-14.9v14.9h-2.53v-14.9h-5.1v-2.11h12.85l-.24 2.11zm26.53-.37l-1.39 1.51a6 6 0 0 0-4.1-1.51c-1.84 0-3.26.78-3.26 2.35 0 1.42.78 2 4 3 3 .87 5.31 2 5.31 5.22 0 3-2.41 5.07-6.39 5.07a8.82 8.82 0 0 1-6.21-2.26l1.42-1.57a6.75 6.75 0 0 0 4.74 1.78c2.14 0 3.8-1 3.8-2.9 0-1.66-.85-2.38-3.89-3.26-3.62-1-5.31-2.35-5.31-4.92s2.41-4.49 5.76-4.49a7.7 7.7 0 0 1 5.52 1.98zm7.45.24v5.34h6.06v2h-6.06v5.76h7.42v2h-10v-17h9.8l-.3 2zm14.62 7.88v7.15h-2.53v-17h4.8c4.52 0 6.82 1.63 6.82 4.86 0 2.38-1.33 3.74-3.83 4.49l4.86 7.63h-3l-4.25-7.15zm6.42-5c0-2.05-1.27-3-4.19-3h-2.23v6h2.47c2.54.1 3.96-.75 3.96-2.98zm10.47 12.15l-5.73-17h2.72l4.52 14.57 4.43-14.57h2.56l-5.67 17zm11.85 0v-17h2.53v17zm19.84-15.57l-1.33 1.57a5.41 5.41 0 0 0-3.47-1.27c-2.74 0-5 1.81-5 6.72s2.17 6.79 5 6.79a6.26 6.26 0 0 0 3.8-1.45l1.27 1.57a7.16 7.16 0 0 1-5.16 2c-4.37 0-7.54-3.11-7.54-8.87s3.38-8.75 7.51-8.75a7.23 7.23 0 0 1 4.92 1.69zm6.51.54v5.34H905v2h-6.06v5.76h7.42v2h-10v-17h9.8l-.3 2zm21.92-.24l-1.39 1.51a6 6 0 0 0-4.1-1.51c-1.84 0-3.26.78-3.26 2.35 0 1.42.78 2 4 3 3 .87 5.31 2 5.31 5.22 0 3-2.41 5.07-6.39 5.07a8.82 8.82 0 0 1-6.21-2.26l1.42-1.57a6.75 6.75 0 0 0 4.74 1.78c2.14 0 3.8-1 3.8-2.9 0-1.66-.85-2.38-3.89-3.26-3.62-1-5.31-2.35-5.31-4.92s2.41-4.49 5.76-4.49a7.7 7.7 0 0 1 5.52 1.98zm-732.57-3.84h5.19c3.8 0 7.11 2.46 7.11 7.7s-2.72 8.54-7.44 8.54h-4.86zm1.55 14.92H193c4 0 5.91-2.67 5.91-7.16 0-4.29-2.51-6.45-5.89-6.45h-3.24zm14.49-4.34c0 2.7 1.15 4.58 3.36 4.58a3 3 0 0 0 3-2.16h1.46a4.35 4.35 0 0 1-4.53 3.47c-3.66 0-4.79-3-4.79-6.19 0-2.89 1.41-6.08 4.88-6.08s4.65 2.91 4.65 5.51v.87zm6.5-1.2c0-2.25-1-3.92-3.19-3.92-2.56 0-3.14 2.39-3.26 3.92zm4.66 3.53a2.7 2.7 0 0 0 2.89 2.32c1.83 0 2.51-1 2.51-2.13s-.8-1.85-2.86-2.39c-2.79-.75-3.54-1.78-3.54-3.33s1.1-3.17 3.75-3.17 3.75 1.57 3.92 3.31h-1.45a2.31 2.31 0 0 0-2.53-2.09c-1.53 0-2.18.75-2.18 1.85s.42 1.5 2.53 2.07c2.93.8 3.87 1.76 3.87 3.64 0 2.09-1.62 3.47-4.06 3.47-2.28 0-4.11-1.1-4.34-3.54zm18.28-.31c-.54 2.3-2 3.87-4.6 3.87-3.21 0-4.86-2.18-4.86-6.17 0-3.28 1.57-6.1 5-6.1a4.22 4.22 0 0 1 4.48 4h-1.57a2.91 2.91 0 0 0-3-2.72c-2.35 0-3.38 2-3.38 4.81 0 3.12 1.17 4.88 3.36 4.88 1.76 0 2.56-1.06 3-2.58zm2.5-4.15v-4h1.48v2.51a4.11 4.11 0 0 1 3.92-2.75v1.6c-2.74.14-3.89 2-3.89 4.46v6h-1.48zm5.91 7.81v-3.05h1.48v3.05z"/></g></svg>