<svg xmlns="http://www.w3.org/2000/svg" viewBox="0 0 3044.1 1000"><style>.st0{display:none}.st1,.st4{display:inline}.st1{stroke:#231f20;stroke-width:10;stroke-miterlimit:10;fill:none}.st4{fill:#fff}.st5,.st6{fill:none;stroke-miterlimit:10}.st5{display:inline;stroke:#231f20}.st6{stroke:#ff00e1}.st6,.st9{display:inline}.st10{fill:none;stroke:#231f20;stroke-linecap:round;stroke-miterlimit:10;stroke-width:10}.st19{fill:#a43a33}.st20{fill:#d16661}.st21{fill:#7b2c26}.st31{fill:#112156}</style><g id="Layer_1" class="st0"><path class="st1" d="M240 520v-80m0 0c0-44.2 35.8-80 80-80m80 80c0-44.2-35.8-80-80-80m160 0c-44.2 0-80 35.8-80 80v60m80-140c44.2 0 80 35.8 80 80v120"/><path fill="none" stroke="#231f20" stroke-width="10" stroke-linecap="square" stroke-miterlimit="10" d="M240 520h280"/><path class="st1" d="M560 560c0-22.1-17.9-40-40-40m40 40c0 22.1-17.9 40-40 40h-40m-180-80v120m180-120v120"/><path d="M340 650l50-130 50 130m-80-50h60" stroke="#231f20" stroke-width="10" stroke-linejoin="bevel" stroke-miterlimit="10" fill="none"/><path class="st4" d="M240 640h320v100H240z"/></g><g id="Layer_2" class="st0"><path class="st1" d="M400 556.5l100 14.9V750l-100-52.1zm247.1 116.9L500 750V571.4l147.1-21.9z"/></g><g id="Layer_3" class="st0"><circle class="st5" cx="500" cy="500" r="227.5"/><path class="st6" d="M-153.3 229.4l1306.6 541.2M0 500.2l1000-.4"/></g><g id="Layer_4" class="st0"><path d="M500 737.5c-63.4 0-123.1-24.7-167.9-69.6-44.9-44.9-69.6-104.5-69.6-167.9 0-31.7 6.2-62.5 18-90.9 11.8-28.4 29.2-54.6 51.6-77 22.4-22.4 48.6-39.8 77-51.6 28.4-11.8 59.2-18 90.9-18 31.7 0 62.5 6.2 90.9 18 28.4 11.8 54.6 29.2 77 51.6 22.4 22.4 39.8 48.6 51.6 77 11.8 28.4 18 59.2 18 90.9 0 63.4-24.7 123.1-69.6 167.9-44.8 44.9-104.5 69.6-167.9 69.6zm0-455c-29 0-57.2 5.7-83.3 16.4-26.1 10.8-50 26.7-70.5 47.3-20.5 20.5-36.5 44.5-47.3 70.5-10.8 26.1-16.4 54.2-16.4 83.3 0 58.1 22.6 112.7 63.7 153.8 41.1 41.1 95.7 63.7 153.8 63.7 58.1 0 112.7-22.6 153.8-63.7 41.1-41.1 63.7-95.7 63.7-153.8 0-29-5.7-57.2-16.4-83.3-10.8-26.1-26.7-50-47.3-70.5-20.5-20.5-44.5-36.5-70.5-47.3-26.1-10.7-54.2-16.4-83.3-16.4z" fill="#231f20"/><circle class="st5" cx="500" cy="500" r="227.5"/><path class="st5" d="M295 500c0 113.2 91.8 205 205 205 27.8 0 54.3-5.5 78.5-15.6C652.8 658.6 705 585.4 705 500c0-113.2-91.8-205-205-205s-205 91.8-205 205z"/></g><g id="Layer_5" class="st0"><path class="st6" d="M0 1000L1000 0M0 0l1000 1000m-770.6 153.3L770.6-153.3m-923.9 923.9l1306.6-541.2M229.4-153.3l541.2 1306.6M500 0v1000"/><circle class="st5" cx="587.1" cy="482.7" r="227.5"/><circle class="st5" cx="660.9" cy="433.4" r="227.5"/><circle class="st5" cx="710.2" cy="359.6" r="227.5"/><circle class="st5" cx="727.5" cy="272.5" r="227.5"/><circle class="st5" cx="710.2" cy="185.4" r="227.5"/><circle class="st5" cx="660.9" cy="111.6" r="227.5"/><circle class="st5" cx="587.1" cy="62.3" r="227.5"/><circle class="st5" cx="500" cy="45" r="227.5"/><circle class="st5" cx="412.9" cy="62.3" r="227.5"/><circle class="st5" cx="339.1" cy="111.6" r="227.5"/><circle class="st5" cx="289.8" cy="185.4" r="227.5"/><circle class="st5" cx="272.5" cy="272.5" r="227.5"/><circle class="st5" cx="289.8" cy="359.6" r="227.5"/><circle class="st5" cx="339.1" cy="433.4" r="227.5"/><circle class="st5" cx="412.9" cy="482.7" r="227.5"/></g><g id="Layer_7" class="st0"><circle cx="365" cy="595" r="225" fill="#310ec4" stroke="#231f20" stroke-width=".25" stroke-linecap="round" stroke-miterlimit="10"/><g class="st9"><path class="st10" d="M262.2 677.8V544M289 677.8V490.4m26.8 187.4V463.7M342.5 651V490.4m13.4 187.4l40.2-66.9M141.8 356.6h133.8m-133.8 26.8h187.4m-187.4 26.7h214.1m-187.3 26.8h160.6m-187.4 13.4l66.9 40.1"/></g><g class="st9"><path class="st10" d="M760 920V800m0 0c0-44.2 35.8-80 80-80m80 80c0-44.2-35.8-80-80-80m140 20c-33.2 0-60 26.8-60 60v20m60-80c33.2 0 60 26.8 60 60v120m10-160h120m-60 160V760m120 0c-33.2 0-60 26.8-60 60v100m60-160c33.2 0 60 26.8 60 60v100m-120-70h120m30 70V760h40m60 60c0-33.2-26.8-60-60-60m60 60c0 33.2-26.8 60-60 60"/></g><circle cx="268.9" cy="517.2" r="225" fill="none" stroke="#231f20" stroke-width="10" stroke-linecap="round" stroke-miterlimit="10"/><g class="st9"><circle cx="983.1" cy="347.4" r="205.4" opacity=".63" fill="#008191"/><circle cx="950.9" cy="367.1" r="205.4" opacity=".7" fill="#5a5190"/></g><g class="st9"><circle cx="976.8" cy="373.3" r="205.4" opacity=".63" fill="#b3bb6b"/><circle cx="957.2" cy="341.2" r="205.4" opacity=".7" fill="#e3334f"/></g><path d="M972.7 525.3V391.5m26.7 133.8V337.9m26.8 187.4V311.2m26.8 187.3V337.9m13.3 187.4l40.2-66.9M852.2 204.1H986m-133.8 26.8h187.4m-187.4 26.7h214.1M879 284.4h160.6m-187.4 13.4l66.9 40.1" stroke="#fff" fill="none" stroke-linecap="round" stroke-miterlimit="10" stroke-width="10"/></g><g id="Layer_8" class="st0"><path d="M368.2 339.4h133.9m-133.9 26.8h187.4m-187.4 26.7h214.2M395 419.7h160.6m-187.4 13.4l66.9 40.1" stroke="#000" stroke-width="15" fill="none" stroke-linecap="round" stroke-miterlimit="10"/><path d="M654.6 641.3V430.5m0 0c0-77.7 62.9-140.6 140.6-140.6m140.5 140.6c0-77.7-62.9-140.6-140.6-140.6m246.1 35.2c-58.3 0-105.4 47.1-105.4 105.4v35.1m105.4-140.5c58.3 0 105.4 47.1 105.4 105.4v210.8m35-281.1h269.9m-134.9 281.1V360.2m272.9-6.3c-58.3 0-105.4 47.1-105.4 105.4V635m105.4-281.1c58.3 0 105.4 47.1 105.4 105.4V635M1484 512h210.9m60.2 123V353.9h70.2m105.5 105.4c0-58.3-47.1-105.4-105.4-105.4m105.4 105.4c0 58.3-47.1 105.4-105.4 105.4" stroke-width="15" stroke="#231f20" fill="none" stroke-linecap="round" stroke-miterlimit="10"/><g class="st9"><path class="st19" d="M200.1 433.2c10.9-85.1 57.1-157 127.6-201 48-41.2 111.8-67.1 186-70.7 18.3-.9 36.6-.4 54.8 1.4-39.3-10.7-80-15.6-120.8-13.6-57.9 2.8-109.5 19.2-152.1 45.8-66 56.5-102.3 141.8-95.5 238.1z"/><path class="st20" d="M918.2 566.8c6.8 96.3-29.5 181.6-95.4 238.1C923.3 742.2 974.6 622.6 944.1 489c-16.6-72.7-54.9-139-106.8-192.7 35.5 46 61.7 98.8 74.6 155.5 9.1 40 10.9 78.7 6.3 115z"/><path class="st19" d="M200.1 433.2c-6.8-96.3 29.5-181.6 95.4-238.1C194.9 257.8 143.7 377.4 174.1 511c16.6 72.7 54.9 139 106.8 192.7-35.5-46-61.7-98.8-74.6-155.5-9.1-40-10.9-78.7-6.2-115z"/><path class="st21" d="M670.6 850.7c-40.8 2-81.5-2.9-120.8-13.6-101-9.9-197.7-59.8-268.9-133.4C364.7 812 500.3 882.3 636.8 875.6c74.2-3.6 138-29.5 186-70.7-42.7 26.6-94.2 43-152.2 45.8z"/><path class="st20" d="M918.2 566.8c-10.9 85.1-57.1 157-127.6 201-48 41.2-111.8 67.1-186 70.7-18.3.9-36.6.4-54.8-1.4 39.3 10.7 80 15.6 120.8 13.6 57.9-2.8 109.5-19.2 152.1-45.8 65.9-56.5 102.2-141.8 95.5-238.1z"/><path class="st21" d="M549.8 837.1c-92.1-25.1-176.3-82.3-235-158.3-51.9-53.7-90.3-120-106.8-192.7-4.1-17.9-6.7-35.6-7.9-52.9-4.6 36.3-2.9 75 6.2 115 12.9 56.7 39.1 109.5 74.6 155.5 71.2 73.6 167.9 123.5 268.9 133.4z"/><path class="st20" d="M790.6 767.8c-42.7 26.6-94.2 43-152.1 45.8-120.1 5.9-239.6-47.9-323.6-134.8 58.7 75.9 142.9 133.1 235 158.3 18.2 1.8 36.5 2.3 54.8 1.4 74.1-3.7 137.9-29.5 185.9-70.7z"/><path class="st21" d="M568.4 162.9c101 9.9 197.7 59.8 268.9 133.4C753.6 188 617.9 117.7 481.5 124.4c-74.2 3.6-138 29.5-186 70.7 42.7-26.6 94.2-43 152.1-45.8 40.8-2 81.5 2.9 120.8 13.6z"/><path class="st21" d="M568.4 162.9c92.1 25.1 176.3 82.3 235 158.3 51.9 53.7 90.3 120 106.8 192.7 4.1 17.9 6.7 35.6 7.9 52.9 4.6-36.3 2.9-75-6.2-115-12.9-56.7-39.1-109.5-74.6-155.5-71.2-73.6-167.9-123.5-268.9-133.4z"/><path class="st19" d="M803.4 321.2c-58.7-75.9-142.9-133.1-235-158.3-18.2-1.8-36.5-2.3-54.8-1.4-74.2 3.6-138 29.5-186 70.7 42.7-26.6 94.2-43 152.1-45.8 120.2-5.8 239.7 47.9 323.7 134.8z"/><path class="st21" d="M790.6 767.8c70.5-44 116.7-115.9 127.6-201-1.2-17.3-3.8-35-7.9-52.9-16.6-72.7-54.9-139-106.8-192.7 35.5 46 61.7 98.8 74.6 155.5 26.8 117.6-9.8 224.4-87.5 291.1zm-463-535.6c-70.5 44-116.7 115.9-127.6 201 1.2 17.3 3.8 35 7.9 52.9 16.6 72.7 54.9 139 106.8 192.7-35.5-46-61.7-98.8-74.6-155.5-26.7-117.6 9.8-224.4 87.5-291.1z"/><path d="M540.4 772.5c-6.3 0-11.3-5.1-11.3-11.3V543.6c0-6.3 5.1-11.3 11.3-11.3 6.3 0 11.3 5.1 11.3 11.3v217.6c0 6.3-5.1 11.3-11.3 11.3z" fill="#782b25"/><path d="M580.9 757.4c-6.3 0-11.3-5.1-11.3-11.3V462.6c0-6.3 5.1-11.3 11.3-11.3 6.3 0 11.3 5.1 11.3 11.3v283.5c0 6.2-5.1 11.3-11.3 11.3z" fill="#b44038"/><path d="M621.4 752.9c-6.3 0-11.3-5.1-11.3-11.3V422.1c0-6.3 5.1-11.3 11.3-11.3 6.3 0 11.3 5.1 11.3 11.3v319.5c0 6.2-5.1 11.3-11.3 11.3z" fill="#f1554b"/><path d="M661.9 716.9c-6.3 0-11.3-5.1-11.3-11.3v-243c0-6.3 5.1-11.3 11.3-11.3 6.3 0 11.3 5.1 11.3 11.3v243c0 6.2-5.1 11.3-11.3 11.3z" fill="#f3776f"/><path d="M682.1 757.4c-2 0-4-.5-5.8-1.6-5.4-3.2-7.1-10.2-3.9-15.6L733.1 639c3.2-5.4 10.2-7.1 15.6-3.9 5.4 3.2 7.1 10.2 3.9 15.6L691.9 752c-2.2 3.5-5.9 5.4-9.8 5.4z" fill="#f69993"/><path class="st21" d="M560.6 271.4H343c-6.3 0-11.3-5.1-11.3-11.3 0-6.3 5.1-11.3 11.3-11.3h217.6c6.3 0 11.3 5.1 11.3 11.3.1 6.2-5 11.3-11.3 11.3z"/><path d="M641.6 311.9H358.1c-6.3 0-11.3-5.1-11.3-11.3s5.1-11.3 11.3-11.3h283.5c6.3 0 11.3 5.1 11.3 11.3s-5 11.3-11.3 11.3z" fill="#a03a3a"/><path d="M682.1 352.4H362.7c-6.3 0-11.3-5.1-11.3-11.3s5.1-11.3 11.3-11.3h319.5c6.3 0 11.3 5.1 11.3 11.3s-5.1 11.3-11.4 11.3z" fill="#b74646"/><path d="M641.6 392.9h-243c-6.3 0-11.3-5.1-11.3-11.3s5.1-11.3 11.3-11.3h243c6.3 0 11.3 5.1 11.3 11.3s-5 11.3-11.3 11.3z" fill="#d15454"/><path d="M459.4 473.9c-2 0-4-.5-5.8-1.6l-101.2-60.7c-5.4-3.2-7.1-10.2-3.9-15.6 3.2-5.4 10.2-7.1 15.6-3.9l101.2 60.7c5.4 3.2 7.1 10.2 3.9 15.6-2.2 3.6-6 5.5-9.8 5.5z" fill="#ea6868"/><path class="st31" d="M2134.7 251.4h-408.4c-10.4 0-18.9 8.5-18.9 18.9 0 10.4 8.5 18.9 18.9 18.9h185.3v406.4c0 10.4 8.5 18.9 18.9 18.9 10.4 0 18.9-8.5 18.9-18.9V289.3h185.3c10.4 0 18.9-8.5 18.9-18.9 0-10.5-8.5-19-18.9-19z"/><path d="M2343.4 279.7c-77.5 0-140.6 63.1-140.6 140.6v60.8H2484v-60.8c0-77.6-63.1-140.6-140.6-140.6z" fill="none"/><path class="st31" d="M2343.4 241.8c-98.4 0-178.4 80-178.4 178.4V686c0 10.4 8.5 18.9 18.9 18.9s18.9-8.5 18.9-18.9V518.9H2484v167.2c0 10.4 8.5 18.9 18.9 18.9s18.9-8.5 18.9-18.9V420.2c0-98.3-80-178.4-178.4-178.4zm-140.6 239.3v-60.8c0-77.5 63.1-140.6 140.6-140.6S2484 342.8 2484 420.3v60.8h-281.2zm497.5-239.3H2575V686c0 10.4 8.5 18.9 18.9 18.9 10.4 0 18.9-8.5 18.9-18.9V279.7h87.4c77.5 0 140.6 63.1 140.6 140.6s-63.1 140.6-140.6 140.6c-10.4 0-18.9 8.5-18.9 18.9s8.5 18.9 18.9 18.9c98.4 0 178.4-80 178.4-178.4s-79.9-178.5-178.3-178.5zm-1186.5-43.5c-67.8 0-126.9 38-157.1 93.9-28.4-61.1-90.3-103.5-161.9-103.5-98.4 0-178.4 80-178.4 178.4v319c0 10.4 8.5 18.9 18.9 18.9 10.4 0 18.9-8.5 18.9-18.9v-319c0-77.5 63.1-140.6 140.6-140.6s140.6 63.1 140.6 140.6c0 .8.1 1.6.2 2.3-.1 2.4-.2 4.8-.2 7.3v53.2c0 10.4 8.5 18.9 18.9 18.9 10.4 0 18.9-8.5 18.9-18.9v-53.2c0-77.5 63.1-140.6 140.6-140.6s140.6 63.1 140.6 140.6v319c0 10.4 8.5 18.9 18.9 18.9 10.4 0 18.9-8.5 18.9-18.9v-319c0-98.4-80.1-178.4-178.4-178.4z"/><path class="st21" d="M1017 829.8v-76.2h11.9l23.8 60 23.8-60h11.9v76.2h-9.5v-57.1l-22.9 57.1h-6.6l-22.8-57.1v57.1h-9.6zm84.4-67.6v-8.5h8.5v8.5h-8.5zm0 67.6v-57.1h8.5v57.1h-8.5zm18.4-28.5c0-8.9 2.3-16.1 6.8-21.4 4.5-5.3 10.5-8 18-8 6.6 0 12.1 1.9 16.4 5.8 4.3 3.8 6.7 8.8 7.3 15.2h-8.5c-.3-4-1.9-7.2-4.6-9.6-2.8-2.4-6.3-3.6-10.5-3.6-4.9 0-8.9 2-11.8 6-3 3.9-4.5 9.2-4.5 15.7 0 6.6 1.5 11.9 4.5 15.9 2.9 4 6.8 6 11.8 6 4.2 0 7.6-1.3 10.4-3.9 2.8-2.6 4.3-6.1 4.8-10.4h8.5c-.6 6.6-3 11.9-7.4 15.8-4.3 4.1-9.7 6.1-16.3 6.1-7.5 0-13.5-2.7-18-8-4.7-5.6-6.9-12.7-6.9-21.6zm57.3 28.5v-76.2h8.5v26.6c2-2.3 4.3-4.1 6.9-5.4 2.7-1.4 5.5-2.1 8.4-2.1 5.3 0 9.7 1.9 13.4 5.6 3.8 3.7 5.6 8.1 5.6 13.4v38.1h-8.5v-38.2c0-2.9-1.2-5.4-3.5-7.5-2.3-1.9-4.9-2.9-8-2.9-3.8 0-8.2 3.1-13.3 9.3l-1 1.1v38.2h-8.5zm54.9-67.6v-8.5h8.5v8.5h-8.5zm0 67.6v-57.1h8.5v57.1h-8.5zm18.2-28.5c0-7.7 2.2-14.3 6.5-19.8 4.5-5.8 10.2-8.8 17.2-8.8 3.3 0 6.2.6 8.8 1.8 2.9 1.3 5.1 3.2 6.5 5.7v-5.8h8.5v55.4c0 5.7-2.5 10.3-7.4 13.9-4.6 3.4-10.1 5.1-16.5 5.1-5.8 0-10.9-1.4-15.1-4.1-4.7-3.1-7.2-7.1-7.6-12.1h8.6c.5 2.8 2.2 5.1 5.1 6.6 2.5 1.3 5.5 2 9 2 4.1 0 7.6-1 10.5-3 3.2-2.1 4.8-4.9 4.8-8.4l-.1-7.6c-1.4 2.5-3.6 4.4-6.5 5.8-2.6 1.3-5.5 1.9-8.7 1.9-6.9 0-12.6-2.9-17.1-8.8-4.4-5.6-6.5-12.1-6.5-19.8zm8.5-.1c0 5.6 1.3 10.4 3.9 14.4 2.8 4.4 6.6 6.5 11.3 6.5 4.7 0 8.5-2.2 11.4-6.5 2.6-4 3.9-8.8 3.9-14.4s-1.3-10.4-3.9-14.3c-2.9-4.4-6.7-6.5-11.4-6.5s-8.4 2.2-11.3 6.5c-2.6 3.9-3.9 8.7-3.9 14.3zm48.2 13.3c0-4.8 2.2-8.8 6.6-12 4-2.8 8.9-4.5 14.8-5 4.1-.3 7.2-1 9.3-1.9 2.9-1.2 4.4-3.1 4.4-5.8 0-2.9-1.1-5.4-3.4-7.4s-4.9-3-8-3c-3.3 0-6.1 1-8.5 2.9-2.5 2-3.8 4.5-3.8 7.5v1.9h-8.6V788c0-4.8 2.2-8.8 6.5-11.9 4-2.8 8.8-4.3 14.4-4.3 5.3 0 9.9 1.5 13.9 4.4 4.1 3.1 6.1 7 6.1 11.8v28.6c0 1.6.6 2.9 1.8 4 1.1 1.1 2.4 1.6 4 1.6v7.6h-3.4c-2.2 0-4.3-.6-6.1-1.8-1.8-1.3-3.1-2.9-3.8-4.9-1.8 2.6-4.2 4.5-7.4 5.8-2.9 1.2-6.1 1.8-9.6 1.8-5.8 0-10.4-1.5-13.8-4.4-3.7-2.9-5.4-6.8-5.4-11.8zm8.5 0c0 2.4 1.1 4.4 3.3 6 2 1.4 4.4 2.1 7.3 2.1 4.3 0 8.1-1.3 11.1-3.9 3.3-2.6 4.9-5.9 4.9-9.9l-.1-7.6c-2.3 1.9-6.6 3.1-12.7 3.6l-2.4.1c-3.1.2-5.7 1.2-7.9 2.9-2.3 1.9-3.5 4.1-3.5 6.7zm48.9 15.3v-55.2h8.5v5.8c1.5-2.6 3.7-4.5 6.6-5.9 2.7-1.2 5.8-1.8 9.1-1.8 5.9 0 10.9 2.2 15.1 6.5 4.2 4.3 6.2 9.4 6.2 15.4v35.2h-8.5v-35.2c0-3.8-1.4-7.1-4.1-9.8-2.8-2.7-6.1-4-10-4-3.9 0-7.3 1.3-10.1 4s-4.3 5.9-4.3 9.8v35.2h-8.5zm84.3-67.6v-8.5h57.1v8.5h-23.9v67.6h-9.5v-67.6h-23.7zm60.4 52.3c0-4.8 2.2-8.8 6.6-12 4-2.8 8.9-4.5 14.8-5 4.1-.3 7.2-1 9.3-1.9 2.9-1.2 4.4-3.1 4.4-5.8 0-2.9-1.1-5.4-3.4-7.4s-4.9-3-8-3c-3.3 0-6.1 1-8.5 2.9-2.5 2-3.8 4.5-3.8 7.5v1.9h-8.6V788c0-4.8 2.2-8.8 6.5-11.9 4-2.8 8.8-4.3 14.4-4.3 5.3 0 9.9 1.5 13.9 4.4 4.1 3.1 6.1 7 6.1 11.8v28.6c0 1.6.6 2.9 1.8 4 1.1 1.1 2.4 1.6 4 1.6v7.6h-3.4c-2.2 0-4.3-.6-6.1-1.8-1.8-1.3-3.1-2.9-3.8-4.9-1.8 2.6-4.2 4.5-7.4 5.8-2.9 1.2-6.1 1.8-9.6 1.8-5.8 0-10.4-1.5-13.8-4.4-3.6-2.9-5.4-6.8-5.4-11.8zm8.6 0c0 2.4 1.1 4.4 3.3 6 2 1.4 4.4 2.1 7.3 2.1 4.3 0 8.1-1.3 11.1-3.9 3.3-2.6 4.9-5.9 4.9-9.9l-.1-7.6c-2.3 1.9-6.6 3.1-12.7 3.6l-2.4.1c-3.1.2-5.7 1.2-7.9 2.9-2.4 1.9-3.5 4.1-3.5 6.7zm43.5 15.3l19-28.6-19-27.6h9.5l14.2 19.9 14.4-19.9h9.5l-19 27.6 19 28.6h-9.5l-14.4-20.9-14.2 20.9h-9.5zm83.1-19c0-3.9 1.5-7.9 4.4-11.9 3-4 7.1-7.5 12.2-10.4-2.9-3.8-5.1-7.3-6.6-10.6-1.6-3.3-2.4-6.3-2.4-8.9 0-4.3 1.7-7.8 5.1-10.8 3.5-3 7.7-4.5 12.5-4.5 4.6 0 8.5 1.7 11.8 5 3.3 3.3 4.9 7.4 4.9 12.1 0 3.6-1.1 7.1-3.4 10.5-2.3 3.4-5.5 6.3-9.4 8.5L1685 805c.7-2.5 1-5.7 1-9.5h8.5c0 8-1.1 13.9-3.3 17.7l12.8 16.7h-11.4l-7.1-8.5c-2.1 2.9-4.8 5.2-8.3 6.9-3.4 1.7-7.2 2.5-11.3 2.5-6 0-11.1-2-15.4-5.9-4.2-3.9-6.3-8.6-6.3-14.1zm9.5-.9c0 3.4 1.3 6.3 3.9 8.6 2.6 2.4 5.7 3.6 9.4 3.6 2.5 0 5-.7 7.4-2.1 2.5-1.4 4.6-3.4 6.4-6l-15.2-19c-3.7 2.1-6.6 4.5-8.8 7.1-2.1 2.7-3.1 5.3-3.1 7.8zm7.5-39.9c0 1.6.6 3.5 1.8 5.8 1.1 2.3 2.7 4.8 4.9 7.5 2.7-1.5 4.8-3.4 6.4-5.6 1.5-2.3 2.3-4.5 2.3-6.8 0-2.5-.7-4.6-2-6.4-1.3-1.8-2.9-2.6-4.8-2.6-2.3 0-4.3.8-6 2.4-1.7 1.5-2.6 3.4-2.6 5.7zm76.7 59.8l24.8-76.2h12.3l24.8 76.2h-9.5l-7.6-22.8H1755l-7.6 22.8h-9.5zm19.9-31.3h22l-11-32.9-11 32.9zm46.2 2.8c0-8.9 2.3-16.1 6.8-21.4 4.5-5.3 10.5-8 18-8 6.6 0 12.1 1.9 16.4 5.8 4.3 3.8 6.7 8.8 7.3 15.2h-8.5c-.3-4-1.9-7.2-4.6-9.6-2.8-2.4-6.3-3.6-10.5-3.6-4.9 0-8.9 2-11.8 6-3 3.9-4.5 9.2-4.5 15.7 0 6.6 1.5 11.9 4.5 15.9 2.9 4 6.8 6 11.8 6 4.2 0 7.6-1.3 10.4-3.9 2.8-2.6 4.3-6.1 4.8-10.4h8.5c-.6 6.6-3 11.9-7.4 15.8-4.3 4.1-9.7 6.1-16.3 6.1-7.5 0-13.5-2.7-18-8-4.6-5.6-6.9-12.7-6.9-21.6zm54.2 0c0-8.9 2.3-16.1 6.8-21.4 4.5-5.3 10.5-8 18-8 6.6 0 12.1 1.9 16.4 5.8 4.3 3.8 6.7 8.8 7.3 15.2h-8.5c-.3-4-1.9-7.2-4.6-9.6-2.8-2.4-6.3-3.6-10.5-3.6-4.9 0-8.9 2-11.8 6-3 3.9-4.5 9.2-4.5 15.7 0 6.6 1.5 11.9 4.5 15.9 2.9 4 6.8 6 11.8 6 4.2 0 7.6-1.3 10.4-3.9 2.8-2.6 4.3-6.1 4.8-10.4h8.5c-.6 6.6-3 11.9-7.4 15.8-4.3 4.1-9.7 6.1-16.3 6.1-7.5 0-13.5-2.7-18-8-4.6-5.6-6.9-12.7-6.9-21.6zm54.3 0c0-8.9 2.3-16.1 7-21.4 4.7-5.3 10.9-8 18.6-8 7.7 0 14 2.7 18.7 8 4.7 5.3 7 12.5 7 21.4 0 8.9-2.3 16.1-7 21.4-4.7 5.3-11 8-18.7 8-7.7 0-14-2.7-18.6-8-4.7-5.4-7-12.5-7-21.4zm8.5-.1c0 6.6 1.5 11.9 4.6 15.9 3.2 4 7.3 6 12.5 6s9.4-2 12.5-6c3.1-4 4.6-9.3 4.6-15.9s-1.5-11.8-4.6-15.7c-3.2-4-7.3-6-12.5-6s-9.4 2-12.5 6c-3.1 3.9-4.6 9.1-4.6 15.7zm51.6 6.8v-34.3h8.5v33.2c0 4.3 1.2 8 3.6 11.1 2.6 3.3 5.8 5 9.8 5 4.3 0 7.8-1.6 10.8-4.7 2.9-3.2 4.4-7 4.4-11.4v-33.2h8.5v56.1h-8.5v-7.6c-1.6 2.8-4 5-7.3 6.5-2.9 1.3-6.2 2-9.8 2-5.8 0-10.6-2.3-14.4-6.9-3.7-4.4-5.6-9.7-5.6-15.8zm58.6 21.8v-55.2h8.5v5.8c1.5-2.6 3.7-4.5 6.6-5.9 2.7-1.2 5.8-1.8 9.1-1.8 5.9 0 10.9 2.2 15.1 6.5 4.2 4.3 6.2 9.4 6.2 15.4v35.2h-8.5v-35.2c0-3.8-1.4-7.1-4.1-9.8-2.8-2.7-6.1-4-10-4-3.9 0-7.3 1.3-10.1 4s-4.3 5.9-4.3 9.8v35.2h-8.5zm59.5-56.1v-16.3h8.5v16.3h8.6v7.6h-8.6v36.2c0 1 .4 1.9 1.1 2.6.8.8 1.6 1.1 2.6 1.1h4.9v8.5h-7.6c-2.6 0-4.8-.9-6.8-2.8-1.8-1.9-2.8-4.2-2.8-6.8v-39h-7.6v-7.6h7.7zm25.5-11.5v-8.5h8.5v8.5h-8.5zm0 67.6v-57.1h8.5v57.1h-8.5zm21.5 0v-55.2h8.5v5.8c1.5-2.6 3.7-4.5 6.6-5.9 2.7-1.2 5.8-1.8 9.1-1.8 5.9 0 10.9 2.2 15.1 6.5 4.2 4.3 6.2 9.4 6.2 15.4v35.2h-8.5v-35.2c0-3.8-1.4-7.1-4.1-9.8-2.8-2.7-6.1-4-10-4-3.9 0-7.3 1.3-10.1 4s-4.3 5.9-4.3 9.8v35.2h-8.5zm54.1-28.5c0-7.7 2.2-14.3 6.5-19.8 4.5-5.8 10.2-8.8 17.2-8.8 3.3 0 6.2.6 8.8 1.8 2.9 1.3 5.1 3.2 6.5 5.7v-5.8h8.5v55.4c0 5.7-2.5 10.3-7.4 13.9-4.6 3.4-10.1 5.1-16.5 5.1-5.8 0-10.9-1.4-15.1-4.1-4.7-3.1-7.2-7.1-7.6-12.1h8.6c.5 2.8 2.2 5.1 5.1 6.6 2.5 1.3 5.5 2 9 2 4.1 0 7.6-1 10.5-3 3.2-2.1 4.8-4.9 4.8-8.4l-.1-7.6c-1.4 2.5-3.6 4.4-6.5 5.8-2.6 1.3-5.5 1.9-8.7 1.9-6.9 0-12.6-2.9-17.1-8.8-4.4-5.6-6.5-12.1-6.5-19.8zm8.5-.1c0 5.6 1.3 10.4 3.9 14.4 2.8 4.4 6.6 6.5 11.3 6.5 4.7 0 8.5-2.2 11.4-6.5 2.6-4 3.9-8.8 3.9-14.4s-1.3-10.4-3.9-14.3c-2.9-4.4-6.7-6.5-11.4-6.5s-8.4 2.2-11.3 6.5c-2.6 3.9-3.9 8.7-3.9 14.3zm84.5 28.6v-76.2h31.3c7.3 0 13.1 2 17.4 6.1 4.3 4 6.5 9.4 6.5 16.2 0 6.8-2.2 12.3-6.5 16.4-4.3 4.1-10.1 6.1-17.4 6.1h-21.8v31.3h-9.5zm9.5-39.8h21.8c4.3 0 7.8-1.3 10.5-3.8 2.6-2.6 3.9-6 3.9-10.2 0-4.1-1.3-7.5-3.9-10-2.7-2.5-6.2-3.8-10.5-3.8h-21.8V790zm54.3 39.8v-56.1h8.5v9.9c1.3-3.4 3.5-6.1 6.8-8 3.1-1.9 6.6-2.9 10.4-2.9h3.8v8.5h-3.8c-4.8 0-8.9 1.9-12.3 5.8-3.3 3.7-4.9 8.1-4.9 13.3v29.5h-8.5zm33.7-28.5c0-8.9 2.3-16.1 7-21.4 4.7-5.3 10.9-8 18.6-8s14 2.7 18.7 8c4.7 5.3 7 12.5 7 21.4 0 8.9-2.3 16.1-7 21.4-4.7 5.3-11 8-18.7 8s-14-2.7-18.6-8c-4.7-5.4-7-12.5-7-21.4zm8.5-.1c0 6.6 1.5 11.9 4.6 15.9 3.2 4 7.3 6 12.5 6s9.4-2 12.5-6c3.1-4 4.6-9.3 4.6-15.9s-1.5-11.8-4.6-15.7c-3.2-4-7.3-6-12.5-6s-9.4 2-12.5 6c-3.1 3.9-4.6 9.1-4.6 15.7zm47.3-19v-8.5h7.6V769c0-4.2 1.5-7.8 4.4-10.8 3-3 6.6-4.5 10.8-4.5h4.8v8.6h-3.8c-2.1 0-3.8.6-5.3 1.9-1.6 1.3-2.4 2.8-2.4 4.8v4.8h11.4v8.5h-11.4v47.6h-8.5v-47.6h-7.6zm32.1 19.1c0-8.9 2.2-16.1 6.5-21.4 4.3-5.3 10.1-8 17.3-8 7.2 0 12.9 2.7 17.3 8 4.3 5.3 6.5 12.5 6.5 21.4v2.9h-39.1c0 5.7 1.4 10.3 4.1 13.7 2.8 3.5 6.6 5.2 11.1 5.2 4 0 7.3-1 9.9-3.1 2.6-2.1 4-4.8 4.4-8.2h8.5c-.5 5.8-2.8 10.4-7 13.8-4.1 3.4-9.4 5.1-15.8 5.1-7.2 0-12.9-2.7-17.3-8-4.2-5.4-6.4-12.5-6.4-21.4zm8.5-4.8h30.4c-.4-5.2-2-9.3-4.8-12.4-2.8-3.1-6.2-4.6-10.4-4.6s-7.6 1.5-10.4 4.6c-2.7 3.1-4.4 7.2-4.8 12.4zm44.5 12.4h8.5c0 4 1.2 7.2 3.6 9.6 2.4 2.4 5.6 3.6 9.6 3.6 4.1 0 7.3-.8 9.8-2.2 2.4-1.5 3.6-3.5 3.6-5.9 0-3.3-1.7-6-5.1-7.9-2.8-1.6-6.5-2.6-11-3-4.8-.4-8.8-2.2-12-5.2-3.4-3.2-5.1-7-5.1-11.4 0-4.7 1.8-8.5 5.3-11.4 3.4-2.8 8-4.2 13.8-4.2 6.3 0 11.4 1.8 15.2 5.3 3.8 3.4 5.8 8 5.8 13.8h-8.5c0-3.4-1.1-6.2-3.4-8.3-2.3-2.1-5.3-3.1-9-3.1-3.2 0-5.7.7-7.6 2.1-1.9 1.5-2.9 3.5-2.9 5.9 0 2.9 1.5 5.1 4.6 6.6 2.3 1.3 5.6 2 9.7 2.4 5.2.4 9.6 2.2 13.2 5.3 3.8 3.3 5.7 7.2 5.7 11.9 0 5.2-1.9 9.3-5.7 12.4-3.8 3.1-8.9 4.6-15.2 4.6-6.9 0-12.4-1.9-16.5-5.6-4.3-4-6.4-9-6.4-15.3zm49.1 0h8.5c0 4 1.2 7.2 3.6 9.6 2.4 2.4 5.6 3.6 9.6 3.6 4.1 0 7.3-.8 9.8-2.2 2.4-1.5 3.6-3.5 3.6-5.9 0-3.3-1.7-6-5.1-7.9-2.8-1.6-6.5-2.6-11-3-4.8-.4-8.8-2.2-12-5.2-3.4-3.2-5.1-7-5.1-11.4 0-4.7 1.8-8.5 5.3-11.4 3.4-2.8 8-4.2 13.8-4.2 6.3 0 11.4 1.8 15.2 5.3 3.8 3.4 5.8 8 5.8 13.8h-8.5c0-3.4-1.1-6.2-3.4-8.3-2.3-2.1-5.3-3.1-9-3.1-3.2 0-5.7.7-7.6 2.1-1.9 1.5-2.9 3.5-2.9 5.9 0 2.9 1.5 5.1 4.6 6.6 2.3 1.3 5.6 2 9.7 2.4 5.2.4 9.6 2.2 13.2 5.3 3.8 3.3 5.7 7.2 5.7 11.9 0 5.2-1.9 9.3-5.7 12.4-3.8 3.1-8.9 4.6-15.2 4.6-6.9 0-12.4-1.9-16.5-5.6-4.3-4-6.4-9-6.4-15.3zm53.1-46.7v-8.5h8.5v8.5h-8.5zm0 67.6v-57.1h8.5v57.1h-8.5zm18.4-28.5c0-8.9 2.3-16.1 7-21.4 4.7-5.3 10.9-8 18.6-8s14 2.7 18.7 8c4.7 5.3 7 12.5 7 21.4 0 8.9-2.3 16.1-7 21.4-4.7 5.3-11 8-18.7 8s-14-2.7-18.6-8c-4.7-5.4-7-12.5-7-21.4zm8.5-.1c0 6.6 1.5 11.9 4.6 15.9 3.2 4 7.3 6 12.5 6s9.4-2 12.5-6c3.1-4 4.6-9.3 4.6-15.9s-1.5-11.8-4.6-15.7c-3.2-4-7.3-6-12.5-6s-9.4 2-12.5 6c-3.1 3.9-4.6 9.1-4.6 15.7zm52.7 28.6v-55.2h8.5v5.8c1.5-2.6 3.7-4.5 6.6-5.9 2.7-1.2 5.8-1.8 9.1-1.8 5.9 0 10.9 2.2 15.1 6.5 4.2 4.3 6.2 9.4 6.2 15.4v35.2h-8.5v-35.2c0-3.8-1.4-7.1-4.1-9.8-2.8-2.7-6.1-4-10-4-3.9 0-7.3 1.3-10.1 4s-4.3 5.9-4.3 9.8v35.2h-8.5zm53.8-15.3c0-4.8 2.2-8.8 6.6-12 4-2.8 8.9-4.5 14.8-5 4.1-.3 7.2-1 9.3-1.9 2.9-1.2 4.4-3.1 4.4-5.8 0-2.9-1.1-5.4-3.4-7.4s-4.9-3-8-3c-3.3 0-6.1 1-8.5 2.9-2.5 2-3.8 4.5-3.8 7.5v1.9h-8.6V788c0-4.8 2.2-8.8 6.5-11.9 4-2.8 8.8-4.3 14.4-4.3 5.3 0 9.9 1.5 13.9 4.4 4.1 3.1 6.1 7 6.1 11.8v28.6c0 1.6.6 2.9 1.8 4 1.1 1.1 2.4 1.6 4 1.6v7.6h-3.4c-2.2 0-4.3-.6-6.1-1.8-1.8-1.3-3.1-2.9-3.8-4.9-1.8 2.6-4.2 4.5-7.4 5.8-2.9 1.2-6.1 1.8-9.6 1.8-5.8 0-10.4-1.5-13.8-4.4-3.7-2.9-5.4-6.8-5.4-11.8zm8.5 0c0 2.4 1.1 4.4 3.3 6 2 1.4 4.4 2.1 7.3 2.1 4.3 0 8.1-1.3 11.1-3.9 3.3-2.6 4.9-5.9 4.9-9.9l-.1-7.6c-2.3 1.9-6.6 3.1-12.7 3.6l-2.4.1c-3.1.2-5.7 1.2-7.9 2.9-2.4 1.9-3.5 4.1-3.5 6.7zm48.9 15.3v-76.2h8.5v76.2h-8.5zm17.6-20.9h8.5c0 4 1.2 7.2 3.6 9.6 2.4 2.4 5.6 3.6 9.6 3.6 4.1 0 7.3-.8 9.8-2.2 2.4-1.5 3.6-3.5 3.6-5.9 0-3.3-1.7-6-5.1-7.9-2.8-1.6-6.5-2.6-11-3-4.8-.4-8.8-2.2-12-5.2-3.4-3.2-5.1-7-5.1-11.4 0-4.7 1.8-8.5 5.3-11.4 3.4-2.8 8-4.2 13.8-4.2 6.3 0 11.4 1.8 15.2 5.3 3.8 3.4 5.8 8 5.8 13.8h-8.5c0-3.4-1.1-6.2-3.4-8.3-2.3-2.1-5.3-3.1-9-3.1-3.2 0-5.7.7-7.6 2.1-1.9 1.5-2.9 3.5-2.9 5.9 0 2.9 1.5 5.1 4.6 6.6 2.3 1.3 5.6 2 9.7 2.4 5.2.4 9.6 2.2 13.2 5.3 3.8 3.3 5.7 7.2 5.7 11.9 0 5.2-1.9 9.3-5.7 12.4-3.8 3.1-8.9 4.6-15.2 4.6-6.9 0-12.4-1.9-16.5-5.6-4.3-4-6.4-9-6.4-15.3z"/></g></g><g id="Black_v1"><path d="M944.1 489c-16.6-72.7-54.9-139-106.8-192.7 35.5 46 61.7 98.8 74.6 155.5 9.1 40 10.9 78.6 6.2 115-10.9 85.1-57.1 157-127.6 201-42.7 26.6-94.2 43-152.1 45.8-120.1 5.9-239.6-47.9-323.6-134.8 58.7 75.9 142.9 133.1 235 158.3 39.3 10.7 80 15.6 120.8 13.6 57.9-2.8 109.5-19.2 152.1-45.8C923.3 742.2 974.6 622.6 944.1 489z"/><path d="M568.4 162.9c-39.3-10.7-80-15.6-120.8-13.6-57.9 2.8-109.5 19.2-152.1 45.8C194.9 257.8 143.7 377.4 174.1 511c16.6 72.7 54.9 139 106.8 192.7-35.5-46-61.7-98.8-74.6-155.5-9.1-40-10.9-78.6-6.2-115 10.9-85.1 57.1-157 127.6-201 42.7-26.6 94.2-43 152.1-45.8 120.1-5.9 239.6 47.9 323.6 134.8-58.7-75.9-142.9-133.1-235-158.3z"/><path d="M499.4 132c61.8 0 125.5 16.1 184.1 46.4 57.3 29.7 108.3 72.2 147.5 122.8 17.6 22.8 32.7 47.1 44.9 72.3 12.5 25.9 22 52.8 28.2 80.1 8.7 38.1 10.7 75.9 6.1 112.2-5.2 41-18.8 78.9-40.3 112.6-2.5 4-5.1 7.8-7.8 11.6 7.6-14.7 14-30.2 19-46.3 8.1-25.8 12.6-53.1 13.5-81 .9-28.7-2-58.2-8.8-87.8-6.5-28.4-16.4-56.5-29.4-83.5-12.7-26.2-28.4-51.5-46.7-75.1-29.8-38.6-65.8-72.2-106.8-99.9-41.3-27.9-85.9-48.5-132.4-61.2-34.9-9.5-70.3-14.4-105.1-14.4-6.1 0-12.2.1-18.2.4-16.3.8-32.2 2.6-47.8 5.5 25.9-8.2 53.5-13 82.4-14.4 5.8-.2 11.7-.3 17.6-.3m0-8c-6 0-11.9.1-17.9.4-74.2 3.6-138 29.5-186 70.7 42.7-26.6 94.2-43 152.1-45.8 6-.3 11.9-.4 17.8-.4 34.8 0 69.4 4.9 103 14.1 92.1 25.1 176.3 82.3 235 158.3 35.5 46 61.7 98.8 74.6 155.5 26.8 117.6-9.8 224.4-87.5 291.1 70.5-44 116.7-115.9 127.6-201 4.6-36.3 2.9-75-6.2-115-12.9-56.7-39.1-109.5-74.6-155.5C757.2 192.7 629.7 124 499.4 124z"/><path d="M256.1 310c-7.6 14.7-14 30.2-19 46.3-8.1 25.8-12.6 53.1-13.5 81-.9 28.7 2 58.2 8.8 87.8 6.5 28.4 16.4 56.5 29.4 83.5 12.7 26.2 28.4 51.5 46.7 75.1 29.8 38.6 65.8 72.2 106.8 99.9 41.3 27.9 85.9 48.5 132.4 61.2 34.9 9.5 70.3 14.4 105.1 14.4 6.1 0 12.2-.1 18.2-.4 16.3-.8 32.2-2.6 47.8-5.5-25.9 8.2-53.5 13-82.4 14.4-5.8.3-11.7.4-17.5.4-61.8 0-125.5-16.1-184.1-46.4-57.3-29.7-108.3-72.2-147.5-122.8-17.6-22.8-32.7-47.1-44.9-72.3-12.5-25.9-22-52.8-28.2-80.1-8.7-38.1-10.7-75.9-6.1-112.2 5.2-41 18.8-78.9 40.3-112.6 2.4-4.1 5-7.9 7.7-11.7m71.5-77.8c-70.5 44-116.7 115.9-127.6 201-4.6 36.3-2.9 75 6.2 115 12.9 56.7 39.1 109.5 74.6 155.5C361 807.3 488.5 876 618.9 876c6 0 11.9-.1 17.9-.4 74.2-3.6 138-29.5 186-70.7-42.7 26.6-94.2 43-152.1 45.8-6 .3-11.9.4-17.8.4-34.8 0-69.4-4.9-103-14.1-92.1-25.1-176.3-82.3-235-158.3-35.5-46-61.7-98.8-74.6-155.5-26.9-117.5 9.6-224.3 87.3-291z"/><path d="M540.4 772.5c-6.3 0-11.3-5.1-11.3-11.3V543.6c0-6.3 5.1-11.3 11.3-11.3 6.3 0 11.3 5.1 11.3 11.3v217.6c0 6.3-5.1 11.3-11.3 11.3zm40.5-15.1c-6.3 0-11.3-5.1-11.3-11.3V462.6c0-6.3 5.1-11.3 11.3-11.3 6.3 0 11.3 5.1 11.3 11.3v283.5c0 6.2-5.1 11.3-11.3 11.3zm40.5-4.5c-6.3 0-11.3-5.1-11.3-11.3V422.1c0-6.3 5.1-11.3 11.3-11.3 6.3 0 11.3 5.1 11.3 11.3v319.5c0 6.2-5.1 11.3-11.3 11.3zm40.5-36c-6.3 0-11.3-5.1-11.3-11.3v-243c0-6.3 5.1-11.3 11.3-11.3 6.3 0 11.3 5.1 11.3 11.3v243c0 6.2-5.1 11.3-11.3 11.3zm20.2 40.5c-2 0-4-.5-5.8-1.6-5.4-3.2-7.1-10.2-3.9-15.6L733.1 639c3.2-5.4 10.2-7.1 15.6-3.9 5.4 3.2 7.1 10.2 3.9 15.6L691.9 752c-2.2 3.5-5.9 5.4-9.8 5.4zm-121.5-486H343c-6.3 0-11.3-5.1-11.3-11.3 0-6.3 5.1-11.3 11.3-11.3h217.6c6.3 0 11.3 5.1 11.3 11.3.1 6.2-5 11.3-11.3 11.3zm81 40.5H358.1c-6.3 0-11.3-5.1-11.3-11.3s5.1-11.3 11.3-11.3h283.5c6.3 0 11.3 5.1 11.3 11.3s-5 11.3-11.3 11.3zm40.5 40.5H362.7c-6.3 0-11.3-5.1-11.3-11.3s5.1-11.3 11.3-11.3h319.5c6.3 0 11.3 5.1 11.3 11.3s-5.1 11.3-11.4 11.3zm-40.5 40.5h-243c-6.3 0-11.3-5.1-11.3-11.3s5.1-11.3 11.3-11.3h243c6.3 0 11.3 5.1 11.3 11.3s-5 11.3-11.3 11.3zm-182.2 81c-2 0-4-.5-5.8-1.6l-101.2-60.7c-5.4-3.2-7.1-10.2-3.9-15.6 3.2-5.4 10.2-7.1 15.6-3.9l101.2 60.7c5.4 3.2 7.1 10.2 3.9 15.6-2.2 3.6-6 5.5-9.8 5.5zm1675.3-222.5h-408.4c-10.4 0-18.9 8.5-18.9 18.9 0 10.4 8.5 18.9 18.9 18.9h185.3v406.4c0 10.4 8.5 18.9 18.9 18.9 10.4 0 18.9-8.5 18.9-18.9V289.3h185.3c10.4 0 18.9-8.5 18.9-18.9 0-10.5-8.5-19-18.9-19zm208.7-9.6c-98.4 0-178.4 80-178.4 178.4V686c0 10.4 8.5 18.9 18.9 18.9s18.9-8.5 18.9-18.9V518.9H2484v167.2c0 10.4 8.5 18.9 18.9 18.9s18.9-8.5 18.9-18.9V420.2c0-98.3-80-178.4-178.4-178.4zm-140.6 239.3v-60.8c0-77.5 63.1-140.6 140.6-140.6S2484 342.8 2484 420.3v60.8h-281.2zm497.5-239.3H2575V686c0 10.4 8.5 18.9 18.9 18.9 10.4 0 18.9-8.5 18.9-18.9V279.7h87.4c77.5 0 140.6 63.1 140.6 140.6s-63.1 140.6-140.6 140.6c-10.4 0-18.9 8.5-18.9 18.9s8.5 18.9 18.9 18.9c98.4 0 178.4-80 178.4-178.4s-79.9-178.5-178.3-178.5zm-1186.5-43.5c-67.8 0-126.9 38-157.1 93.9-28.4-61.1-90.3-103.5-161.9-103.5-98.4 0-178.4 80-178.4 178.4v319c0 10.4 8.5 18.9 18.9 18.9 10.4 0 18.9-8.5 18.9-18.9v-319c0-77.5 63.1-140.6 140.6-140.6s140.6 63.1 140.6 140.6c0 .8.1 1.6.2 2.3-.1 2.4-.2 4.8-.2 7.3v53.2c0 10.4 8.5 18.9 18.9 18.9 10.4 0 18.9-8.5 18.9-18.9v-53.2c0-77.5 63.1-140.6 140.6-140.6s140.6 63.1 140.6 140.6v319c0 10.4 8.5 18.9 18.9 18.9 10.4 0 18.9-8.5 18.9-18.9v-319c0-98.4-80.1-178.4-178.4-178.4zM1017 829.8v-76.2h11.9l23.8 60 23.8-60h11.9v76.2h-9.5v-57.1l-22.9 57.1h-6.6l-22.8-57.1v57.1h-9.6zm84.4-67.6v-8.5h8.5v8.5h-8.5zm0 67.6v-57.1h8.5v57.1h-8.5zm18.4-28.5c0-8.9 2.3-16.1 6.8-21.4 4.5-5.3 10.5-8 18-8 6.6 0 12.1 1.9 16.4 5.8 4.3 3.8 6.7 8.8 7.3 15.2h-8.5c-.3-4-1.9-7.2-4.6-9.6-2.8-2.4-6.3-3.6-10.5-3.6-4.9 0-8.9 2-11.8 6-3 3.9-4.5 9.2-4.5 15.7 0 6.6 1.5 11.9 4.5 15.9 2.9 4 6.8 6 11.8 6 4.2 0 7.6-1.3 10.4-3.9 2.8-2.6 4.3-6.1 4.8-10.4h8.5c-.6 6.6-3 11.9-7.4 15.8-4.3 4.1-9.7 6.1-16.3 6.1-7.5 0-13.5-2.7-18-8-4.7-5.6-6.9-12.7-6.9-21.6zm57.3 28.5v-76.2h8.5v26.6c2-2.3 4.3-4.1 6.9-5.4 2.7-1.4 5.5-2.1 8.4-2.1 5.3 0 9.7 1.9 13.4 5.6 3.8 3.7 5.6 8.1 5.6 13.4v38.1h-8.5v-38.2c0-2.9-1.2-5.4-3.5-7.5-2.3-1.9-4.9-2.9-8-2.9-3.8 0-8.2 3.1-13.3 9.3l-1 1.1v38.2h-8.5zm54.9-67.6v-8.5h8.5v8.5h-8.5zm0 67.6v-57.1h8.5v57.1h-8.5zm18.2-28.5c0-7.7 2.2-14.3 6.5-19.8 4.5-5.8 10.2-8.8 17.2-8.8 3.3 0 6.2.6 8.8 1.8 2.9 1.3 5.1 3.2 6.5 5.7v-5.8h8.5v55.4c0 5.7-2.5 10.3-7.4 13.9-4.6 3.4-10.1 5.1-16.5 5.1-5.8 0-10.9-1.4-15.1-4.1-4.7-3.1-7.2-7.1-7.6-12.1h8.6c.5 2.8 2.2 5.1 5.1 6.6 2.5 1.3 5.5 2 9 2 4.1 0 7.6-1 10.5-3 3.2-2.1 4.8-4.9 4.8-8.4l-.1-7.6c-1.4 2.5-3.6 4.4-6.5 5.8-2.6 1.3-5.5 1.9-8.7 1.9-6.9 0-12.6-2.9-17.1-8.8-4.4-5.6-6.5-12.1-6.5-19.8zm8.5-.1c0 5.6 1.3 10.4 3.9 14.4 2.8 4.4 6.6 6.5 11.3 6.5 4.7 0 8.5-2.2 11.4-6.5 2.6-4 3.9-8.8 3.9-14.4s-1.3-10.4-3.9-14.3c-2.9-4.4-6.7-6.5-11.4-6.5s-8.4 2.2-11.3 6.5c-2.6 3.9-3.9 8.7-3.9 14.3zm48.2 13.3c0-4.8 2.2-8.8 6.6-12 4-2.8 8.9-4.5 14.8-5 4.1-.3 7.2-1 9.3-1.9 2.9-1.2 4.4-3.1 4.4-5.8 0-2.9-1.1-5.4-3.4-7.4s-4.9-3-8-3c-3.3 0-6.1 1-8.5 2.9-2.5 2-3.8 4.5-3.8 7.5v1.9h-8.6V788c0-4.8 2.2-8.8 6.5-11.9 4-2.8 8.8-4.3 14.4-4.3 5.3 0 9.9 1.5 13.9 4.4 4.1 3.1 6.1 7 6.1 11.8v28.6c0 1.6.6 2.9 1.8 4 1.1 1.1 2.4 1.6 4 1.6v7.6h-3.4c-2.2 0-4.3-.6-6.1-1.8-1.8-1.3-3.1-2.9-3.8-4.9-1.8 2.6-4.2 4.5-7.4 5.8-2.9 1.2-6.1 1.8-9.6 1.8-5.8 0-10.4-1.5-13.8-4.4-3.7-2.9-5.4-6.8-5.4-11.8zm8.5 0c0 2.4 1.1 4.4 3.3 6 2 1.4 4.4 2.1 7.3 2.1 4.3 0 8.1-1.3 11.1-3.9 3.3-2.6 4.9-5.9 4.9-9.9l-.1-7.6c-2.3 1.9-6.6 3.1-12.7 3.6l-2.4.1c-3.1.2-5.7 1.2-7.9 2.9-2.3 1.9-3.5 4.1-3.5 6.7zm48.9 15.3v-55.2h8.5v5.8c1.5-2.6 3.7-4.5 6.6-5.9 2.7-1.2 5.8-1.8 9.1-1.8 5.9 0 10.9 2.2 15.1 6.5 4.2 4.3 6.2 9.4 6.2 15.4v35.2h-8.5v-35.2c0-3.8-1.4-7.1-4.1-9.8-2.8-2.7-6.1-4-10-4-3.9 0-7.3 1.3-10.1 4s-4.3 5.9-4.3 9.8v35.2h-8.5zm84.3-67.6v-8.5h57.1v8.5h-23.9v67.6h-9.5v-67.6h-23.7zm60.4 52.3c0-4.8 2.2-8.8 6.6-12 4-2.8 8.9-4.5 14.8-5 4.1-.3 7.2-1 9.3-1.9 2.9-1.2 4.4-3.1 4.4-5.8 0-2.9-1.1-5.4-3.4-7.4s-4.9-3-8-3c-3.3 0-6.1 1-8.5 2.9-2.5 2-3.8 4.5-3.8 7.5v1.9h-8.6V788c0-4.8 2.2-8.8 6.5-11.9 4-2.8 8.8-4.3 14.4-4.3 5.3 0 9.9 1.5 13.9 4.4 4.1 3.1 6.1 7 6.1 11.8v28.6c0 1.6.6 2.9 1.8 4 1.1 1.1 2.4 1.6 4 1.6v7.6h-3.4c-2.2 0-4.3-.6-6.1-1.8-1.8-1.3-3.1-2.9-3.8-4.9-1.8 2.6-4.2 4.5-7.4 5.8-2.9 1.2-6.1 1.8-9.6 1.8-5.8 0-10.4-1.5-13.8-4.4-3.6-2.9-5.4-6.8-5.4-11.8zm8.6 0c0 2.4 1.1 4.4 3.3 6 2 1.4 4.4 2.1 7.3 2.1 4.3 0 8.1-1.3 11.1-3.9 3.3-2.6 4.9-5.9 4.9-9.9l-.1-7.6c-2.3 1.9-6.6 3.1-12.7 3.6l-2.4.1c-3.1.2-5.7 1.2-7.9 2.9-2.4 1.9-3.5 4.1-3.5 6.7zm43.5 15.3l19-28.6-19-27.6h9.5l14.2 19.9 14.4-19.9h9.5l-19 27.6 19 28.6h-9.5l-14.4-20.9-14.2 20.9h-9.5zm83.1-19c0-3.9 1.5-7.9 4.4-11.9 3-4 7.1-7.5 12.2-10.4-2.9-3.8-5.1-7.3-6.6-10.6-1.6-3.3-2.4-6.3-2.4-8.9 0-4.3 1.7-7.8 5.1-10.8 3.5-3 7.7-4.5 12.5-4.5 4.6 0 8.5 1.7 11.8 5 3.3 3.3 4.9 7.4 4.9 12.1 0 3.6-1.1 7.1-3.4 10.5-2.3 3.4-5.5 6.3-9.4 8.5L1685 805c.7-2.5 1-5.7 1-9.5h8.5c0 8-1.1 13.9-3.3 17.7l12.8 16.7h-11.4l-7.1-8.5c-2.1 2.9-4.8 5.2-8.3 6.9-3.4 1.7-7.2 2.5-11.3 2.5-6 0-11.1-2-15.4-5.9-4.2-3.9-6.3-8.6-6.3-14.1zm9.5-.9c0 3.4 1.3 6.3 3.9 8.6 2.6 2.4 5.7 3.6 9.4 3.6 2.5 0 5-.7 7.4-2.1 2.5-1.4 4.6-3.4 6.4-6l-15.2-19c-3.7 2.1-6.6 4.5-8.8 7.1-2.1 2.7-3.1 5.3-3.1 7.8zm7.5-39.9c0 1.6.6 3.5 1.8 5.8 1.1 2.3 2.7 4.8 4.9 7.5 2.7-1.5 4.8-3.4 6.4-5.6 1.5-2.3 2.3-4.5 2.3-6.8 0-2.5-.7-4.6-2-6.4-1.3-1.8-2.9-2.6-4.8-2.6-2.3 0-4.3.8-6 2.4-1.7 1.5-2.6 3.4-2.6 5.7zm76.7 59.8l24.8-76.2h12.3l24.8 76.2h-9.5l-7.6-22.8H1755l-7.6 22.8h-9.5zm19.9-31.3h22l-11-32.9-11 32.9zm46.2 2.8c0-8.9 2.3-16.1 6.8-21.4 4.5-5.3 10.5-8 18-8 6.6 0 12.1 1.9 16.4 5.8 4.3 3.8 6.7 8.8 7.3 15.2h-8.5c-.3-4-1.9-7.2-4.6-9.6-2.8-2.4-6.3-3.6-10.5-3.6-4.9 0-8.9 2-11.8 6-3 3.9-4.5 9.2-4.5 15.7 0 6.6 1.5 11.9 4.5 15.9 2.9 4 6.8 6 11.8 6 4.2 0 7.6-1.3 10.4-3.9 2.8-2.6 4.3-6.1 4.8-10.4h8.5c-.6 6.6-3 11.9-7.4 15.8-4.3 4.1-9.7 6.1-16.3 6.1-7.5 0-13.5-2.7-18-8-4.6-5.6-6.9-12.7-6.9-21.6zm54.2 0c0-8.9 2.3-16.1 6.8-21.4 4.5-5.3 10.5-8 18-8 6.6 0 12.1 1.9 16.4 5.8 4.3 3.8 6.7 8.8 7.3 15.2h-8.5c-.3-4-1.9-7.2-4.6-9.6-2.8-2.4-6.3-3.6-10.5-3.6-4.9 0-8.9 2-11.8 6-3 3.9-4.5 9.2-4.5 15.7 0 6.6 1.5 11.9 4.5 15.9 2.9 4 6.8 6 11.8 6 4.2 0 7.6-1.3 10.4-3.9 2.8-2.6 4.3-6.1 4.8-10.4h8.5c-.6 6.6-3 11.9-7.4 15.8-4.3 4.1-9.7 6.1-16.3 6.1-7.5 0-13.5-2.7-18-8-4.6-5.6-6.9-12.7-6.9-21.6zm54.3 0c0-8.9 2.3-16.1 7-21.4 4.7-5.3 10.9-8 18.6-8 7.7 0 14 2.7 18.7 8 4.7 5.3 7 12.5 7 21.4 0 8.9-2.3 16.1-7 21.4-4.7 5.3-11 8-18.7 8-7.7 0-14-2.7-18.6-8-4.7-5.4-7-12.5-7-21.4zm8.5-.1c0 6.6 1.5 11.9 4.6 15.9 3.2 4 7.3 6 12.5 6s9.4-2 12.5-6c3.1-4 4.6-9.3 4.6-15.9s-1.5-11.8-4.6-15.7c-3.2-4-7.3-6-12.5-6s-9.4 2-12.5 6c-3.1 3.9-4.6 9.1-4.6 15.7zm51.6 6.8v-34.3h8.5v33.2c0 4.3 1.2 8 3.6 11.1 2.6 3.3 5.8 5 9.8 5 4.3 0 7.8-1.6 10.8-4.7 2.9-3.2 4.4-7 4.4-11.4v-33.2h8.5v56.1h-8.5v-7.6c-1.6 2.8-4 5-7.3 6.5-2.9 1.3-6.2 2-9.8 2-5.8 0-10.6-2.3-14.4-6.9-3.7-4.4-5.6-9.7-5.6-15.8zm58.6 21.8v-55.2h8.5v5.8c1.5-2.6 3.7-4.5 6.6-5.9 2.7-1.2 5.8-1.8 9.1-1.8 5.9 0 10.9 2.2 15.1 6.5 4.2 4.3 6.2 9.4 6.2 15.4v35.2h-8.5v-35.2c0-3.8-1.4-7.1-4.1-9.8-2.8-2.7-6.1-4-10-4-3.9 0-7.3 1.3-10.1 4s-4.3 5.9-4.3 9.8v35.2h-8.5zm59.5-56.1v-16.3h8.5v16.3h8.6v7.6h-8.6v36.2c0 1 .4 1.9 1.1 2.6.8.8 1.6 1.1 2.6 1.1h4.9v8.5h-7.6c-2.6 0-4.8-.9-6.8-2.8-1.8-1.9-2.8-4.2-2.8-6.8v-39h-7.6v-7.6h7.7zm25.5-11.5v-8.5h8.5v8.5h-8.5zm0 67.6v-57.1h8.5v57.1h-8.5zm21.5 0v-55.2h8.5v5.8c1.5-2.6 3.7-4.5 6.6-5.9 2.7-1.2 5.8-1.8 9.1-1.8 5.9 0 10.9 2.2 15.1 6.5 4.2 4.3 6.2 9.4 6.2 15.4v35.2h-8.5v-35.2c0-3.8-1.4-7.1-4.1-9.8-2.8-2.7-6.1-4-10-4-3.9 0-7.3 1.3-10.1 4s-4.3 5.9-4.3 9.8v35.2h-8.5zm54.1-28.5c0-7.7 2.2-14.3 6.5-19.8 4.5-5.8 10.2-8.8 17.2-8.8 3.3 0 6.2.6 8.8 1.8 2.9 1.3 5.1 3.2 6.5 5.7v-5.8h8.5v55.4c0 5.7-2.5 10.3-7.4 13.9-4.6 3.4-10.1 5.1-16.5 5.1-5.8 0-10.9-1.4-15.1-4.1-4.7-3.1-7.2-7.1-7.6-12.1h8.6c.5 2.8 2.2 5.1 5.1 6.6 2.5 1.3 5.5 2 9 2 4.1 0 7.6-1 10.5-3 3.2-2.1 4.8-4.9 4.8-8.4l-.1-7.6c-1.4 2.5-3.6 4.4-6.5 5.8-2.6 1.3-5.5 1.9-8.7 1.9-6.9 0-12.6-2.9-17.1-8.8-4.4-5.6-6.5-12.1-6.5-19.8zm8.5-.1c0 5.6 1.3 10.4 3.9 14.4 2.8 4.4 6.6 6.5 11.3 6.5 4.7 0 8.5-2.2 11.4-6.5 2.6-4 3.9-8.8 3.9-14.4s-1.3-10.4-3.9-14.3c-2.9-4.4-6.7-6.5-11.4-6.5s-8.4 2.2-11.3 6.5c-2.6 3.9-3.9 8.7-3.9 14.3zm84.5 28.6v-76.2h31.3c7.3 0 13.1 2 17.4 6.1 4.3 4 6.5 9.4 6.5 16.2 0 6.8-2.2 12.3-6.5 16.4-4.3 4.1-10.1 6.1-17.4 6.1h-21.8v31.3h-9.5zm9.5-39.8h21.8c4.3 0 7.8-1.3 10.5-3.8 2.6-2.6 3.9-6 3.9-10.2 0-4.1-1.3-7.5-3.9-10-2.7-2.5-6.2-3.8-10.5-3.8h-21.8V790zm54.3 39.8v-56.1h8.5v9.9c1.3-3.4 3.5-6.1 6.8-8 3.1-1.9 6.6-2.9 10.4-2.9h3.8v8.5h-3.8c-4.8 0-8.9 1.9-12.3 5.8-3.3 3.7-4.9 8.1-4.9 13.3v29.5h-8.5zm33.7-28.5c0-8.9 2.3-16.1 7-21.4 4.7-5.3 10.9-8 18.6-8s14 2.7 18.7 8c4.7 5.3 7 12.5 7 21.4 0 8.9-2.3 16.1-7 21.4-4.7 5.3-11 8-18.7 8s-14-2.7-18.6-8c-4.7-5.4-7-12.5-7-21.4zm8.5-.1c0 6.6 1.5 11.9 4.6 15.9 3.2 4 7.3 6 12.5 6s9.4-2 12.5-6c3.1-4 4.6-9.3 4.6-15.9s-1.5-11.8-4.6-15.7c-3.2-4-7.3-6-12.5-6s-9.4 2-12.5 6c-3.1 3.9-4.6 9.1-4.6 15.7zm47.3-19v-8.5h7.6V769c0-4.2 1.5-7.8 4.4-10.8 3-3 6.6-4.5 10.8-4.5h4.8v8.6h-3.8c-2.1 0-3.8.6-5.3 1.9-1.6 1.3-2.4 2.8-2.4 4.8v4.8h11.4v8.5h-11.4v47.6h-8.5v-47.6h-7.6zm32.1 19.1c0-8.9 2.2-16.1 6.5-21.4 4.3-5.3 10.1-8 17.3-8 7.2 0 12.9 2.7 17.3 8 4.3 5.3 6.5 12.5 6.5 21.4v2.9h-39.1c0 5.7 1.4 10.3 4.1 13.7 2.8 3.5 6.6 5.2 11.1 5.2 4 0 7.3-1 9.9-3.1 2.6-2.1 4-4.8 4.4-8.2h8.5c-.5 5.8-2.8 10.4-7 13.8-4.1 3.4-9.4 5.1-15.8 5.1-7.2 0-12.9-2.7-17.3-8-4.2-5.4-6.4-12.5-6.4-21.4zm8.5-4.8h30.4c-.4-5.2-2-9.3-4.8-12.4-2.8-3.1-6.2-4.6-10.4-4.6s-7.6 1.5-10.4 4.6c-2.7 3.1-4.4 7.2-4.8 12.4zm44.5 12.4h8.5c0 4 1.2 7.2 3.6 9.6 2.4 2.4 5.6 3.6 9.6 3.6 4.1 0 7.3-.8 9.8-2.2 2.4-1.5 3.6-3.5 3.6-5.9 0-3.3-1.7-6-5.1-7.9-2.8-1.6-6.5-2.6-11-3-4.8-.4-8.8-2.2-12-5.2-3.4-3.2-5.1-7-5.1-11.4 0-4.7 1.8-8.5 5.3-11.4 3.4-2.8 8-4.2 13.8-4.2 6.3 0 11.4 1.8 15.2 5.3 3.8 3.4 5.8 8 5.8 13.8h-8.5c0-3.4-1.1-6.2-3.4-8.3-2.3-2.1-5.3-3.1-9-3.1-3.2 0-5.7.7-7.6 2.1-1.9 1.5-2.9 3.5-2.9 5.9 0 2.9 1.5 5.1 4.6 6.6 2.3 1.3 5.6 2 9.7 2.4 5.2.4 9.6 2.2 13.2 5.3 3.8 3.3 5.7 7.2 5.7 11.9 0 5.2-1.9 9.3-5.7 12.4-3.8 3.1-8.9 4.6-15.2 4.6-6.9 0-12.4-1.9-16.5-5.6-4.3-4-6.4-9-6.4-15.3zm49.1 0h8.5c0 4 1.2 7.2 3.6 9.6 2.4 2.4 5.6 3.6 9.6 3.6 4.1 0 7.3-.8 9.8-2.2 2.4-1.5 3.6-3.5 3.6-5.9 0-3.3-1.7-6-5.1-7.9-2.8-1.6-6.5-2.6-11-3-4.8-.4-8.8-2.2-12-5.2-3.4-3.2-5.1-7-5.1-11.4 0-4.7 1.8-8.5 5.3-11.4 3.4-2.8 8-4.2 13.8-4.2 6.3 0 11.4 1.8 15.2 5.3 3.8 3.4 5.8 8 5.8 13.8h-8.5c0-3.4-1.1-6.2-3.4-8.3-2.3-2.1-5.3-3.1-9-3.1-3.2 0-5.7.7-7.6 2.1-1.9 1.5-2.9 3.5-2.9 5.9 0 2.9 1.5 5.1 4.6 6.6 2.3 1.3 5.6 2 9.7 2.4 5.2.4 9.6 2.2 13.2 5.3 3.8 3.3 5.7 7.2 5.7 11.9 0 5.2-1.9 9.3-5.7 12.4-3.8 3.1-8.9 4.6-15.2 4.6-6.9 0-12.4-1.9-16.5-5.6-4.3-4-6.4-9-6.4-15.3zm53.1-46.7v-8.5h8.5v8.5h-8.5zm0 67.6v-57.1h8.5v57.1h-8.5zm18.4-28.5c0-8.9 2.3-16.1 7-21.4 4.7-5.3 10.9-8 18.6-8s14 2.7 18.7 8c4.7 5.3 7 12.5 7 21.4 0 8.9-2.3 16.1-7 21.4-4.7 5.3-11 8-18.7 8s-14-2.7-18.6-8c-4.7-5.4-7-12.5-7-21.4zm8.5-.1c0 6.6 1.5 11.9 4.6 15.9 3.2 4 7.3 6 12.5 6s9.4-2 12.5-6c3.1-4 4.6-9.3 4.6-15.9s-1.5-11.8-4.6-15.7c-3.2-4-7.3-6-12.5-6s-9.4 2-12.5 6c-3.1 3.9-4.6 9.1-4.6 15.7zm52.7 28.6v-55.2h8.5v5.8c1.5-2.6 3.7-4.5 6.6-5.9 2.7-1.2 5.8-1.8 9.1-1.8 5.9 0 10.9 2.2 15.1 6.5 4.2 4.3 6.2 9.4 6.2 15.4v35.2h-8.5v-35.2c0-3.8-1.4-7.1-4.1-9.8-2.8-2.7-6.1-4-10-4-3.9 0-7.3 1.3-10.1 4s-4.3 5.9-4.3 9.8v35.2h-8.5zm53.8-15.3c0-4.8 2.2-8.8 6.6-12 4-2.8 8.9-4.5 14.8-5 4.1-.3 7.2-1 9.3-1.9 2.9-1.2 4.4-3.1 4.4-5.8 0-2.9-1.1-5.4-3.4-7.4s-4.9-3-8-3c-3.3 0-6.1 1-8.5 2.9-2.5 2-3.8 4.5-3.8 7.5v1.9h-8.6V788c0-4.8 2.2-8.8 6.5-11.9 4-2.8 8.8-4.3 14.4-4.3 5.3 0 9.9 1.5 13.9 4.4 4.1 3.1 6.1 7 6.1 11.8v28.6c0 1.6.6 2.9 1.8 4 1.1 1.1 2.4 1.6 4 1.6v7.6h-3.4c-2.2 0-4.3-.6-6.1-1.8-1.8-1.3-3.1-2.9-3.8-4.9-1.8 2.6-4.2 4.5-7.4 5.8-2.9 1.2-6.1 1.8-9.6 1.8-5.8 0-10.4-1.5-13.8-4.4-3.7-2.9-5.4-6.8-5.4-11.8zm8.5 0c0 2.4 1.1 4.4 3.3 6 2 1.4 4.4 2.1 7.3 2.1 4.3 0 8.1-1.3 11.1-3.9 3.3-2.6 4.9-5.9 4.9-9.9l-.1-7.6c-2.3 1.9-6.6 3.1-12.7 3.6l-2.4.1c-3.1.2-5.7 1.2-7.9 2.9-2.4 1.9-3.5 4.1-3.5 6.7zm48.9 15.3v-76.2h8.5v76.2h-8.5zm17.6-20.9h8.5c0 4 1.2 7.2 3.6 9.6 2.4 2.4 5.6 3.6 9.6 3.6 4.1 0 7.3-.8 9.8-2.2 2.4-1.5 3.6-3.5 3.6-5.9 0-3.3-1.7-6-5.1-7.9-2.8-1.6-6.5-2.6-11-3-4.8-.4-8.8-2.2-12-5.2-3.4-3.2-5.1-7-5.1-11.4 0-4.7 1.8-8.5 5.3-11.4 3.4-2.8 8-4.2 13.8-4.2 6.3 0 11.4 1.8 15.2 5.3 3.8 3.4 5.8 8 5.8 13.8h-8.5c0-3.4-1.1-6.2-3.4-8.3-2.3-2.1-5.3-3.1-9-3.1-3.2 0-5.7.7-7.6 2.1-1.9 1.5-2.9 3.5-2.9 5.9 0 2.9 1.5 5.1 4.6 6.6 2.3 1.3 5.6 2 9.7 2.4 5.2.4 9.6 2.2 13.2 5.3 3.8 3.3 5.7 7.2 5.7 11.9 0 5.2-1.9 9.3-5.7 12.4-3.8 3.1-8.9 4.6-15.2 4.6-6.9 0-12.4-1.9-16.5-5.6-4.3-4-6.4-9-6.4-15.3z"/></g><g id="Black_v2" class="st0"><path d="M909.5 413.6c11.8 24.9 20.8 50.8 26.8 77.2 14.3 63 10.5 125.1-11.2 179.8-21 53.1-57.9 97.2-106.6 127.5-21 13.1-44 23.5-68.4 31-25.2 7.7-52.1 12.3-79.8 13.6-5.8.3-11.6.4-17.5.4-33.4 0-67.3-4.6-100.9-13.8-42.5-11.6-83.3-30-121.3-54.8 6.9 3.6 13.9 6.9 21 10.1 26.8 12.1 54.6 21.4 82.6 27.6 28.7 6.4 57.8 9.7 86.4 9.7 6.1 0 12.2-.1 18.3-.4 29.1-1.4 57.3-6.2 83.7-14.3 25.8-7.9 50.1-18.9 72.2-32.7 36.2-22.6 66-52 88.6-87.6 22.7-35.7 37.1-75.8 42.6-119.2 4.9-38.2 2.7-77.8-6.4-117.7-2.6-12.2-6.1-24.4-10.1-36.4m-72.2-117.3c35.5 46 61.7 98.8 74.6 155.5 9.1 40 10.9 78.6 6.2 115-10.9 85.1-57.1 157-127.6 201-42.7 26.6-94.2 43-152.1 45.8-6 .3-11.9.4-17.9.4-114 0-225.9-52.7-305.8-135.2 58.7 75.9 142.9 133.1 235 158.3 33.6 9.2 68.2 14.1 103 14.1 5.9 0 11.9-.1 17.8-.4C728.4 848 780 831.6 822.6 805c100.7-62.8 152-182.4 121.5-316-16.5-72.7-54.9-139-106.8-192.7z"/><path d="M465.4 156.8c33.4 0 67.3 4.6 100.9 13.8 42.5 11.6 83.3 30 121.3 54.8-6.9-3.6-13.9-6.9-21-10.1-26.8-12.1-54.6-21.4-82.6-27.6-28.7-6.4-57.8-9.7-86.4-9.7-6.1 0-12.2.1-18.3.4-29.1 1.4-57.3 6.2-83.7 14.3-25.8 7.9-50.1 18.9-72.2 32.7-36.2 22.6-66 52-88.6 87.6-22.7 35.7-37.1 75.8-42.6 119.2-4.9 38.2-2.7 77.8 6.4 117.7 2.8 12.2 6.2 24.4 10.2 36.5-11.8-24.9-20.8-50.8-26.8-77.2-14.3-63-10.5-125.1 11.2-179.8 21-53.1 57.9-97.2 106.6-127.5 21-13.1 44-23.5 68.4-31 25.2-7.7 52.1-12.3 79.8-13.6 5.7-.3 11.6-.5 17.4-.5m0-8c-5.9 0-11.9.1-17.8.4-57.9 2.8-109.5 19.2-152.1 45.8-100.6 62.8-151.8 182.4-121.4 316 16.6 72.7 54.9 139 106.8 192.7-35.5-46-61.7-98.8-74.6-155.5-9.1-40-10.9-78.6-6.2-115 10.9-85.1 57.1-157 127.6-201 42.7-26.6 94.2-43 152.1-45.8 6-.3 11.9-.4 17.9-.4 114 0 225.9 52.7 305.8 135.2-58.7-75.9-142.9-133.1-235-158.3-33.6-9.1-68.3-14.1-103.1-14.1z"/><path d="M499.4 132c61.8 0 125.5 16.1 184.1 46.4 57.3 29.7 108.3 72.2 147.5 122.8 17.6 22.8 32.7 47.1 44.9 72.3 12.5 25.9 22 52.8 28.2 80.1 8.7 38.1 10.7 75.9 6.1 112.2-5.2 41-18.8 78.9-40.3 112.6-2.5 4-5.1 7.8-7.8 11.6 7.6-14.7 14-30.2 19-46.3 8.1-25.8 12.6-53.1 13.5-81 .9-28.7-2-58.2-8.8-87.8-6.5-28.4-16.4-56.5-29.4-83.5-12.7-26.2-28.4-51.5-46.7-75.1-29.8-38.6-65.8-72.2-106.8-99.9-41.3-27.9-85.9-48.5-132.4-61.2-34.9-9.5-70.3-14.4-105.1-14.4-6.1 0-12.2.1-18.2.4-16.3.8-32.2 2.6-47.8 5.5 25.9-8.2 53.5-13 82.4-14.4 5.8-.2 11.7-.3 17.6-.3m0-8c-6 0-11.9.1-17.9.4-74.2 3.6-138 29.5-186 70.7 42.7-26.6 94.2-43 152.1-45.8 6-.3 11.9-.4 17.8-.4 34.8 0 69.4 4.9 103 14.1 92.1 25.1 176.3 82.3 235 158.3 35.5 46 61.7 98.8 74.6 155.5 26.8 117.6-9.8 224.4-87.5 291.1 70.5-44 116.7-115.9 127.6-201 4.6-36.3 2.9-75-6.2-115-12.9-56.7-39.1-109.5-74.6-155.5C757.2 192.7 629.7 124 499.4 124z"/><path d="M256.1 310c-7.6 14.7-14 30.2-19 46.3-8.1 25.8-12.6 53.1-13.5 81-.9 28.7 2 58.2 8.8 87.8 6.5 28.4 16.4 56.5 29.4 83.5 12.7 26.2 28.4 51.5 46.7 75.1 29.8 38.6 65.8 72.2 106.8 99.9 41.3 27.9 85.9 48.5 132.4 61.2 34.9 9.5 70.3 14.4 105.1 14.4 6.1 0 12.2-.1 18.2-.4 16.3-.8 32.2-2.6 47.8-5.5-25.9 8.2-53.5 13-82.4 14.4-5.8.3-11.7.4-17.5.4-61.8 0-125.5-16.1-184.1-46.4-57.3-29.7-108.3-72.2-147.5-122.8-17.6-22.8-32.7-47.1-44.9-72.3-12.5-25.9-22-52.8-28.2-80.1-8.7-38.1-10.7-75.9-6.1-112.2 5.2-41 18.8-78.9 40.3-112.6 2.4-4.1 5-7.9 7.7-11.7m71.5-77.8c-70.5 44-116.7 115.9-127.6 201-4.6 36.3-2.9 75 6.2 115 12.9 56.7 39.1 109.5 74.6 155.5C361 807.3 488.5 876 618.9 876c6 0 11.9-.1 17.9-.4 74.2-3.6 138-29.5 186-70.7-42.7 26.6-94.2 43-152.1 45.8-6 .3-11.9.4-17.8.4-34.8 0-69.4-4.9-103-14.1-92.1-25.1-176.3-82.3-235-158.3-35.5-46-61.7-98.8-74.6-155.5-26.9-117.5 9.6-224.3 87.3-291z"/><path class="st9" d="M540.4 772.5c-6.3 0-11.3-5.1-11.3-11.3V543.6c0-6.3 5.1-11.3 11.3-11.3 6.3 0 11.3 5.1 11.3 11.3v217.6c0 6.3-5.1 11.3-11.3 11.3zm40.5-15.1c-6.3 0-11.3-5.1-11.3-11.3V462.6c0-6.3 5.1-11.3 11.3-11.3 6.3 0 11.3 5.1 11.3 11.3v283.5c0 6.2-5.1 11.3-11.3 11.3zm40.5-4.5c-6.3 0-11.3-5.1-11.3-11.3V422.1c0-6.3 5.1-11.3 11.3-11.3 6.3 0 11.3 5.1 11.3 11.3v319.5c0 6.2-5.1 11.3-11.3 11.3zm40.5-36c-6.3 0-11.3-5.1-11.3-11.3v-243c0-6.3 5.1-11.3 11.3-11.3 6.3 0 11.3 5.1 11.3 11.3v243c0 6.2-5.1 11.3-11.3 11.3zm20.2 40.5c-2 0-4-.5-5.8-1.6-5.4-3.2-7.1-10.2-3.9-15.6L733.1 639c3.2-5.4 10.2-7.1 15.6-3.9 5.4 3.2 7.1 10.2 3.9 15.6L691.9 752c-2.2 3.5-5.9 5.4-9.8 5.4zm-121.5-486H343c-6.3 0-11.3-5.1-11.3-11.3 0-6.3 5.1-11.3 11.3-11.3h217.6c6.3 0 11.3 5.1 11.3 11.3.1 6.2-5 11.3-11.3 11.3zm81 40.5H358.1c-6.3 0-11.3-5.1-11.3-11.3s5.1-11.3 11.3-11.3h283.5c6.3 0 11.3 5.1 11.3 11.3s-5 11.3-11.3 11.3zm40.5 40.5H362.7c-6.3 0-11.3-5.1-11.3-11.3s5.1-11.3 11.3-11.3h319.5c6.3 0 11.3 5.1 11.3 11.3s-5.1 11.3-11.4 11.3zm-40.5 40.5h-243c-6.3 0-11.3-5.1-11.3-11.3s5.1-11.3 11.3-11.3h243c6.3 0 11.3 5.1 11.3 11.3s-5 11.3-11.3 11.3zm-182.2 81c-2 0-4-.5-5.8-1.6l-101.2-60.7c-5.4-3.2-7.1-10.2-3.9-15.6 3.2-5.4 10.2-7.1 15.6-3.9l101.2 60.7c5.4 3.2 7.1 10.2 3.9 15.6-2.2 3.6-6 5.5-9.8 5.5zm1675.3-222.5h-408.4c-10.4 0-18.9 8.5-18.9 18.9 0 10.4 8.5 18.9 18.9 18.9h185.3v406.4c0 10.4 8.5 18.9 18.9 18.9 10.4 0 18.9-8.5 18.9-18.9V289.3h185.3c10.4 0 18.9-8.5 18.9-18.9 0-10.5-8.5-19-18.9-19zm208.7-9.6c-98.4 0-178.4 80-178.4 178.4V686c0 10.4 8.5 18.9 18.9 18.9s18.9-8.5 18.9-18.9V518.9H2484v167.2c0 10.4 8.5 18.9 18.9 18.9s18.9-8.5 18.9-18.9V420.2c0-98.3-80-178.4-178.4-178.4zm-140.6 239.3v-60.8c0-77.5 63.1-140.6 140.6-140.6S2484 342.8 2484 420.3v60.8h-281.2zm497.5-239.3H2575V686c0 10.4 8.5 18.9 18.9 18.9 10.4 0 18.9-8.5 18.9-18.9V279.7h87.4c77.5 0 140.6 63.1 140.6 140.6s-63.1 140.6-140.6 140.6c-10.4 0-18.9 8.5-18.9 18.9s8.5 18.9 18.9 18.9c98.4 0 178.4-80 178.4-178.4s-79.9-178.5-178.3-178.5zm-1186.5-43.5c-67.8 0-126.9 38-157.1 93.9-28.4-61.1-90.3-103.5-161.9-103.5-98.4 0-178.4 80-178.4 178.4v319c0 10.4 8.5 18.9 18.9 18.9 10.4 0 18.9-8.5 18.9-18.9v-319c0-77.5 63.1-140.6 140.6-140.6s140.6 63.1 140.6 140.6c0 .8.1 1.6.2 2.3-.1 2.4-.2 4.8-.2 7.3v53.2c0 10.4 8.5 18.9 18.9 18.9 10.4 0 18.9-8.5 18.9-18.9v-53.2c0-77.5 63.1-140.6 140.6-140.6s140.6 63.1 140.6 140.6v319c0 10.4 8.5 18.9 18.9 18.9 10.4 0 18.9-8.5 18.9-18.9v-319c0-98.4-80.1-178.4-178.4-178.4z"/><path d="M1017 829.8v-76.2h11.9l23.8 60 23.8-60h11.9v76.2h-9.5v-57.1l-22.9 57.1h-6.6l-22.8-57.1v57.1h-9.6zm84.4-67.6v-8.5h8.5v8.5h-8.5zm0 67.6v-57.1h8.5v57.1h-8.5zm18.4-28.5c0-8.9 2.3-16.1 6.8-21.4 4.5-5.3 10.5-8 18-8 6.6 0 12.1 1.9 16.4 5.8 4.3 3.8 6.7 8.8 7.3 15.2h-8.5c-.3-4-1.9-7.2-4.6-9.6-2.8-2.4-6.3-3.6-10.5-3.6-4.9 0-8.9 2-11.8 6-3 3.9-4.5 9.2-4.5 15.7 0 6.6 1.5 11.9 4.5 15.9 2.9 4 6.8 6 11.8 6 4.2 0 7.6-1.3 10.4-3.9 2.8-2.6 4.3-6.1 4.8-10.4h8.5c-.6 6.6-3 11.9-7.4 15.8-4.3 4.1-9.7 6.1-16.3 6.1-7.5 0-13.5-2.7-18-8-4.7-5.6-6.9-12.7-6.9-21.6zm57.3 28.5v-76.2h8.5v26.6c2-2.3 4.3-4.1 6.9-5.4 2.7-1.4 5.5-2.1 8.4-2.1 5.3 0 9.7 1.9 13.4 5.6 3.8 3.7 5.6 8.1 5.6 13.4v38.1h-8.5v-38.2c0-2.9-1.2-5.4-3.5-7.5-2.3-1.9-4.9-2.9-8-2.9-3.8 0-8.2 3.1-13.3 9.3l-1 1.1v38.2h-8.5zm54.9-67.6v-8.5h8.5v8.5h-8.5zm0 67.6v-57.1h8.5v57.1h-8.5zm18.2-28.5c0-7.7 2.2-14.3 6.5-19.8 4.5-5.8 10.2-8.8 17.2-8.8 3.3 0 6.2.6 8.8 1.8 2.9 1.3 5.1 3.2 6.5 5.7v-5.8h8.5v55.4c0 5.7-2.5 10.3-7.4 13.9-4.6 3.4-10.1 5.1-16.5 5.1-5.8 0-10.9-1.4-15.1-4.1-4.7-3.1-7.2-7.1-7.6-12.1h8.6c.5 2.8 2.2 5.1 5.1 6.6 2.5 1.3 5.5 2 9 2 4.1 0 7.6-1 10.5-3 3.2-2.1 4.8-4.9 4.8-8.4l-.1-7.6c-1.4 2.5-3.6 4.4-6.5 5.8-2.6 1.3-5.5 1.9-8.7 1.9-6.9 0-12.6-2.9-17.1-8.8-4.4-5.6-6.5-12.1-6.5-19.8zm8.5-.1c0 5.6 1.3 10.4 3.9 14.4 2.8 4.4 6.6 6.5 11.3 6.5 4.7 0 8.5-2.2 11.4-6.5 2.6-4 3.9-8.8 3.9-14.4s-1.3-10.4-3.9-14.3c-2.9-4.4-6.7-6.5-11.4-6.5s-8.4 2.2-11.3 6.5c-2.6 3.9-3.9 8.7-3.9 14.3zm48.2 13.3c0-4.8 2.2-8.8 6.6-12 4-2.8 8.9-4.5 14.8-5 4.1-.3 7.2-1 9.3-1.9 2.9-1.2 4.4-3.1 4.4-5.8 0-2.9-1.1-5.4-3.4-7.4s-4.9-3-8-3c-3.3 0-6.1 1-8.5 2.9-2.5 2-3.8 4.5-3.8 7.5v1.9h-8.6V788c0-4.8 2.2-8.8 6.5-11.9 4-2.8 8.8-4.3 14.4-4.3 5.3 0 9.9 1.5 13.9 4.4 4.1 3.1 6.1 7 6.1 11.8v28.6c0 1.6.6 2.9 1.8 4 1.1 1.1 2.4 1.6 4 1.6v7.6h-3.4c-2.2 0-4.3-.6-6.1-1.8-1.8-1.3-3.1-2.9-3.8-4.9-1.8 2.6-4.2 4.5-7.4 5.8-2.9 1.2-6.1 1.8-9.6 1.8-5.8 0-10.4-1.5-13.8-4.4-3.7-2.9-5.4-6.8-5.4-11.8zm8.5 0c0 2.4 1.1 4.4 3.3 6 2 1.4 4.4 2.1 7.3 2.1 4.3 0 8.1-1.3 11.1-3.9 3.3-2.6 4.9-5.9 4.9-9.9l-.1-7.6c-2.3 1.9-6.6 3.1-12.7 3.6l-2.4.1c-3.1.2-5.7 1.2-7.9 2.9-2.3 1.9-3.5 4.1-3.5 6.7zm48.9 15.3v-55.2h8.5v5.8c1.5-2.6 3.7-4.5 6.6-5.9 2.7-1.2 5.8-1.8 9.1-1.8 5.9 0 10.9 2.2 15.1 6.5 4.2 4.3 6.2 9.4 6.2 15.4v35.2h-8.5v-35.2c0-3.8-1.4-7.1-4.1-9.8-2.8-2.7-6.1-4-10-4-3.9 0-7.3 1.3-10.1 4s-4.3 5.9-4.3 9.8v35.2h-8.5zm84.3-67.6v-8.5h57.1v8.5h-23.9v67.6h-9.5v-67.6h-23.7zm60.4 52.3c0-4.8 2.2-8.8 6.6-12 4-2.8 8.9-4.5 14.8-5 4.1-.3 7.2-1 9.3-1.9 2.9-1.2 4.4-3.1 4.4-5.8 0-2.9-1.1-5.4-3.4-7.4s-4.9-3-8-3c-3.3 0-6.1 1-8.5 2.9-2.5 2-3.8 4.5-3.8 7.5v1.9h-8.6V788c0-4.8 2.2-8.8 6.5-11.9 4-2.8 8.8-4.3 14.4-4.3 5.3 0 9.9 1.5 13.9 4.4 4.1 3.1 6.1 7 6.1 11.8v28.6c0 1.6.6 2.9 1.8 4 1.1 1.1 2.4 1.6 4 1.6v7.6h-3.4c-2.2 0-4.3-.6-6.1-1.8-1.8-1.3-3.1-2.9-3.8-4.9-1.8 2.6-4.2 4.5-7.4 5.8-2.9 1.2-6.1 1.8-9.6 1.8-5.8 0-10.4-1.5-13.8-4.4-3.6-2.9-5.4-6.8-5.4-11.8zm8.6 0c0 2.4 1.1 4.4 3.3 6 2 1.4 4.4 2.1 7.3 2.1 4.3 0 8.1-1.3 11.1-3.9 3.3-2.6 4.9-5.9 4.9-9.9l-.1-7.6c-2.3 1.9-6.6 3.1-12.7 3.6l-2.4.1c-3.1.2-5.7 1.2-7.9 2.9-2.4 1.9-3.5 4.1-3.5 6.7zm43.5 15.3l19-28.6-19-27.6h9.5l14.2 19.9 14.4-19.9h9.5l-19 27.6 19 28.6h-9.5l-14.4-20.9-14.2 20.9h-9.5zm83.1-19c0-3.9 1.5-7.9 4.4-11.9 3-4 7.1-7.5 12.2-10.4-2.9-3.8-5.1-7.3-6.6-10.6-1.6-3.3-2.4-6.3-2.4-8.9 0-4.3 1.7-7.8 5.1-10.8 3.5-3 7.7-4.5 12.5-4.5 4.6 0 8.5 1.7 11.8 5 3.3 3.3 4.9 7.4 4.9 12.1 0 3.6-1.1 7.1-3.4 10.5-2.3 3.4-5.5 6.3-9.4 8.5L1685 805c.7-2.5 1-5.7 1-9.5h8.5c0 8-1.1 13.9-3.3 17.7l12.8 16.7h-11.4l-7.1-8.5c-2.1 2.9-4.8 5.2-8.3 6.9-3.4 1.7-7.2 2.5-11.3 2.5-6 0-11.1-2-15.4-5.9-4.2-3.9-6.3-8.6-6.3-14.1zm9.5-.9c0 3.4 1.3 6.3 3.9 8.6 2.6 2.4 5.7 3.6 9.4 3.6 2.5 0 5-.7 7.4-2.1 2.5-1.4 4.6-3.4 6.4-6l-15.2-19c-3.7 2.1-6.6 4.5-8.8 7.1-2.1 2.7-3.1 5.3-3.1 7.8zm7.5-39.9c0 1.6.6 3.5 1.8 5.8 1.1 2.3 2.7 4.8 4.9 7.5 2.7-1.5 4.8-3.4 6.4-5.6 1.5-2.3 2.3-4.5 2.3-6.8 0-2.5-.7-4.6-2-6.4-1.3-1.8-2.9-2.6-4.8-2.6-2.3 0-4.3.8-6 2.4-1.7 1.5-2.6 3.4-2.6 5.7zm76.7 59.8l24.8-76.2h12.3l24.8 76.2h-9.5l-7.6-22.8H1755l-7.6 22.8h-9.5zm19.9-31.3h22l-11-32.9-11 32.9zm46.2 2.8c0-8.9 2.3-16.1 6.8-21.4 4.5-5.3 10.5-8 18-8 6.6 0 12.1 1.9 16.4 5.8 4.3 3.8 6.7 8.8 7.3 15.2h-8.5c-.3-4-1.9-7.2-4.6-9.6-2.8-2.4-6.3-3.6-10.5-3.6-4.9 0-8.9 2-11.8 6-3 3.9-4.5 9.2-4.5 15.7 0 6.6 1.5 11.9 4.5 15.9 2.9 4 6.8 6 11.8 6 4.2 0 7.6-1.3 10.4-3.9 2.8-2.6 4.3-6.1 4.8-10.4h8.5c-.6 6.6-3 11.9-7.4 15.8-4.3 4.1-9.7 6.1-16.3 6.1-7.5 0-13.5-2.7-18-8-4.6-5.6-6.9-12.7-6.9-21.6zm54.2 0c0-8.9 2.3-16.1 6.8-21.4 4.5-5.3 10.5-8 18-8 6.6 0 12.1 1.9 16.4 5.8 4.3 3.8 6.7 8.8 7.3 15.2h-8.5c-.3-4-1.9-7.2-4.6-9.6-2.8-2.4-6.3-3.6-10.5-3.6-4.9 0-8.9 2-11.8 6-3 3.9-4.5 9.2-4.5 15.7 0 6.6 1.5 11.9 4.5 15.9 2.9 4 6.8 6 11.8 6 4.2 0 7.6-1.3 10.4-3.9 2.8-2.6 4.3-6.1 4.8-10.4h8.5c-.6 6.6-3 11.9-7.4 15.8-4.3 4.1-9.7 6.1-16.3 6.1-7.5 0-13.5-2.7-18-8-4.6-5.6-6.9-12.7-6.9-21.6zm54.3 0c0-8.9 2.3-16.1 7-21.4 4.7-5.3 10.9-8 18.6-8 7.7 0 14 2.7 18.7 8 4.7 5.3 7 12.5 7 21.4 0 8.9-2.3 16.1-7 21.4-4.7 5.3-11 8-18.7 8-7.7 0-14-2.7-18.6-8-4.7-5.4-7-12.5-7-21.4zm8.5-.1c0 6.6 1.5 11.9 4.6 15.9 3.2 4 7.3 6 12.5 6s9.4-2 12.5-6c3.1-4 4.6-9.3 4.6-15.9s-1.5-11.8-4.6-15.7c-3.2-4-7.3-6-12.5-6s-9.4 2-12.5 6c-3.1 3.9-4.6 9.1-4.6 15.7zm51.6 6.8v-34.3h8.5v33.2c0 4.3 1.2 8 3.6 11.1 2.6 3.3 5.8 5 9.8 5 4.3 0 7.8-1.6 10.8-4.7 2.9-3.2 4.4-7 4.4-11.4v-33.2h8.5v56.1h-8.5v-7.6c-1.6 2.8-4 5-7.3 6.5-2.9 1.3-6.2 2-9.8 2-5.8 0-10.6-2.3-14.4-6.9-3.7-4.4-5.6-9.7-5.6-15.8zm58.6 21.8v-55.2h8.5v5.8c1.5-2.6 3.7-4.5 6.6-5.9 2.7-1.2 5.8-1.8 9.1-1.8 5.9 0 10.9 2.2 15.1 6.5 4.2 4.3 6.2 9.4 6.2 15.4v35.2h-8.5v-35.2c0-3.8-1.4-7.1-4.1-9.8-2.8-2.7-6.1-4-10-4-3.9 0-7.3 1.3-10.1 4s-4.3 5.9-4.3 9.8v35.2h-8.5zm59.5-56.1v-16.3h8.5v16.3h8.6v7.6h-8.6v36.2c0 1 .4 1.9 1.1 2.6.8.8 1.6 1.1 2.6 1.1h4.9v8.5h-7.6c-2.6 0-4.8-.9-6.8-2.8-1.8-1.9-2.8-4.2-2.8-6.8v-39h-7.6v-7.6h7.7zm25.5-11.5v-8.5h8.5v8.5h-8.5zm0 67.6v-57.1h8.5v57.1h-8.5zm21.5 0v-55.2h8.5v5.8c1.5-2.6 3.7-4.5 6.6-5.9 2.7-1.2 5.8-1.8 9.1-1.8 5.9 0 10.9 2.2 15.1 6.5 4.2 4.3 6.2 9.4 6.2 15.4v35.2h-8.5v-35.2c0-3.8-1.4-7.1-4.1-9.8-2.8-2.7-6.1-4-10-4-3.9 0-7.3 1.3-10.1 4s-4.3 5.9-4.3 9.8v35.2h-8.5zm54.1-28.5c0-7.7 2.2-14.3 6.5-19.8 4.5-5.8 10.2-8.8 17.2-8.8 3.3 0 6.2.6 8.8 1.8 2.9 1.3 5.1 3.2 6.5 5.7v-5.8h8.5v55.4c0 5.7-2.5 10.3-7.4 13.9-4.6 3.4-10.1 5.1-16.5 5.1-5.8 0-10.9-1.4-15.1-4.1-4.7-3.1-7.2-7.1-7.6-12.1h8.6c.5 2.8 2.2 5.1 5.1 6.6 2.5 1.3 5.5 2 9 2 4.1 0 7.6-1 10.5-3 3.2-2.1 4.8-4.9 4.8-8.4l-.1-7.6c-1.4 2.5-3.6 4.4-6.5 5.8-2.6 1.3-5.5 1.9-8.7 1.9-6.9 0-12.6-2.9-17.1-8.8-4.4-5.6-6.5-12.1-6.5-19.8zm8.5-.1c0 5.6 1.3 10.4 3.9 14.4 2.8 4.4 6.6 6.5 11.3 6.5 4.7 0 8.5-2.2 11.4-6.5 2.6-4 3.9-8.8 3.9-14.4s-1.3-10.4-3.9-14.3c-2.9-4.4-6.7-6.5-11.4-6.5s-8.4 2.2-11.3 6.5c-2.6 3.9-3.9 8.7-3.9 14.3zm84.5 28.6v-76.2h31.3c7.3 0 13.1 2 17.4 6.1 4.3 4 6.5 9.4 6.5 16.2 0 6.8-2.2 12.3-6.5 16.4-4.3 4.1-10.1 6.1-17.4 6.1h-21.8v31.3h-9.5zm9.5-39.8h21.8c4.3 0 7.8-1.3 10.5-3.8 2.6-2.6 3.9-6 3.9-10.2 0-4.1-1.3-7.5-3.9-10-2.7-2.5-6.2-3.8-10.5-3.8h-21.8V790zm54.3 39.8v-56.1h8.5v9.9c1.3-3.4 3.5-6.1 6.8-8 3.1-1.9 6.6-2.9 10.4-2.9h3.8v8.5h-3.8c-4.8 0-8.9 1.9-12.3 5.8-3.3 3.7-4.9 8.1-4.9 13.3v29.5h-8.5zm33.7-28.5c0-8.9 2.3-16.1 7-21.4 4.7-5.3 10.9-8 18.6-8s14 2.7 18.7 8c4.7 5.3 7 12.5 7 21.4 0 8.9-2.3 16.1-7 21.4-4.7 5.3-11 8-18.7 8s-14-2.7-18.6-8c-4.7-5.4-7-12.5-7-21.4zm8.5-.1c0 6.6 1.5 11.9 4.6 15.9 3.2 4 7.3 6 12.5 6s9.4-2 12.5-6c3.1-4 4.6-9.3 4.6-15.9s-1.5-11.8-4.6-15.7c-3.2-4-7.3-6-12.5-6s-9.4 2-12.5 6c-3.1 3.9-4.6 9.1-4.6 15.7zm47.3-19v-8.5h7.6V769c0-4.2 1.5-7.8 4.4-10.8 3-3 6.6-4.5 10.8-4.5h4.8v8.6h-3.8c-2.1 0-3.8.6-5.3 1.9-1.6 1.3-2.4 2.8-2.4 4.8v4.8h11.4v8.5h-11.4v47.6h-8.5v-47.6h-7.6zm32.1 19.1c0-8.9 2.2-16.1 6.5-21.4 4.3-5.3 10.1-8 17.3-8 7.2 0 12.9 2.7 17.3 8 4.3 5.3 6.5 12.5 6.5 21.4v2.9h-39.1c0 5.7 1.4 10.3 4.1 13.7 2.8 3.5 6.6 5.2 11.1 5.2 4 0 7.3-1 9.9-3.1 2.6-2.1 4-4.8 4.4-8.2h8.5c-.5 5.8-2.8 10.4-7 13.8-4.1 3.4-9.4 5.1-15.8 5.1-7.2 0-12.9-2.7-17.3-8-4.2-5.4-6.4-12.5-6.4-21.4zm8.5-4.8h30.4c-.4-5.2-2-9.3-4.8-12.4-2.8-3.1-6.2-4.6-10.4-4.6s-7.6 1.5-10.4 4.6c-2.7 3.1-4.4 7.2-4.8 12.4zm44.5 12.4h8.5c0 4 1.2 7.2 3.6 9.6 2.4 2.4 5.6 3.6 9.6 3.6 4.1 0 7.3-.8 9.8-2.2 2.4-1.5 3.6-3.5 3.6-5.9 0-3.3-1.7-6-5.1-7.9-2.8-1.6-6.5-2.6-11-3-4.8-.4-8.8-2.2-12-5.2-3.4-3.2-5.1-7-5.1-11.4 0-4.7 1.8-8.5 5.3-11.4 3.4-2.8 8-4.2 13.8-4.2 6.3 0 11.4 1.8 15.2 5.3 3.8 3.4 5.8 8 5.8 13.8h-8.5c0-3.4-1.1-6.2-3.4-8.3-2.3-2.1-5.3-3.1-9-3.1-3.2 0-5.7.7-7.6 2.1-1.9 1.5-2.9 3.5-2.9 5.9 0 2.9 1.5 5.1 4.6 6.6 2.3 1.3 5.6 2 9.7 2.4 5.2.4 9.6 2.2 13.2 5.3 3.8 3.3 5.7 7.2 5.7 11.9 0 5.2-1.9 9.3-5.7 12.4-3.8 3.1-8.9 4.6-15.2 4.6-6.9 0-12.4-1.9-16.5-5.6-4.3-4-6.4-9-6.4-15.3zm49.1 0h8.5c0 4 1.2 7.2 3.6 9.6 2.4 2.4 5.6 3.6 9.6 3.6 4.1 0 7.3-.8 9.8-2.2 2.4-1.5 3.6-3.5 3.6-5.9 0-3.3-1.7-6-5.1-7.9-2.8-1.6-6.5-2.6-11-3-4.8-.4-8.8-2.2-12-5.2-3.4-3.2-5.1-7-5.1-11.4 0-4.7 1.8-8.5 5.3-11.4 3.4-2.8 8-4.2 13.8-4.2 6.3 0 11.4 1.8 15.2 5.3 3.8 3.4 5.8 8 5.8 13.8h-8.5c0-3.4-1.1-6.2-3.4-8.3-2.3-2.1-5.3-3.1-9-3.1-3.2 0-5.7.7-7.6 2.1-1.9 1.5-2.9 3.5-2.9 5.9 0 2.9 1.5 5.1 4.6 6.6 2.3 1.3 5.6 2 9.7 2.4 5.2.4 9.6 2.2 13.2 5.3 3.8 3.3 5.7 7.2 5.7 11.9 0 5.2-1.9 9.3-5.7 12.4-3.8 3.1-8.9 4.6-15.2 4.6-6.9 0-12.4-1.9-16.5-5.6-4.3-4-6.4-9-6.4-15.3zm53.1-46.7v-8.5h8.5v8.5h-8.5zm0 67.6v-57.1h8.5v57.1h-8.5zm18.4-28.5c0-8.9 2.3-16.1 7-21.4 4.7-5.3 10.9-8 18.6-8s14 2.7 18.7 8c4.7 5.3 7 12.5 7 21.4 0 8.9-2.3 16.1-7 21.4-4.7 5.3-11 8-18.7 8s-14-2.7-18.6-8c-4.7-5.4-7-12.5-7-21.4zm8.5-.1c0 6.6 1.5 11.9 4.6 15.9 3.2 4 7.3 6 12.5 6s9.4-2 12.5-6c3.1-4 4.6-9.3 4.6-15.9s-1.5-11.8-4.6-15.7c-3.2-4-7.3-6-12.5-6s-9.4 2-12.5 6c-3.1 3.9-4.6 9.1-4.6 15.7zm52.7 28.6v-55.2h8.5v5.8c1.5-2.6 3.7-4.5 6.6-5.9 2.7-1.2 5.8-1.8 9.1-1.8 5.9 0 10.9 2.2 15.1 6.5 4.2 4.3 6.2 9.4 6.2 15.4v35.2h-8.5v-35.2c0-3.8-1.4-7.1-4.1-9.8-2.8-2.7-6.1-4-10-4-3.9 0-7.3 1.3-10.1 4s-4.3 5.9-4.3 9.8v35.2h-8.5zm53.8-15.3c0-4.8 2.2-8.8 6.6-12 4-2.8 8.9-4.5 14.8-5 4.1-.3 7.2-1 9.3-1.9 2.9-1.2 4.4-3.1 4.4-5.8 0-2.9-1.1-5.4-3.4-7.4s-4.9-3-8-3c-3.3 0-6.1 1-8.5 2.9-2.5 2-3.8 4.5-3.8 7.5v1.9h-8.6V788c0-4.8 2.2-8.8 6.5-11.9 4-2.8 8.8-4.3 14.4-4.3 5.3 0 9.9 1.5 13.9 4.4 4.1 3.1 6.1 7 6.1 11.8v28.6c0 1.6.6 2.9 1.8 4 1.1 1.1 2.4 1.6 4 1.6v7.6h-3.4c-2.2 0-4.3-.6-6.1-1.8-1.8-1.3-3.1-2.9-3.8-4.9-1.8 2.6-4.2 4.5-7.4 5.8-2.9 1.2-6.1 1.8-9.6 1.8-5.8 0-10.4-1.5-13.8-4.4-3.7-2.9-5.4-6.8-5.4-11.8zm8.5 0c0 2.4 1.1 4.4 3.3 6 2 1.4 4.4 2.1 7.3 2.1 4.3 0 8.1-1.3 11.1-3.9 3.3-2.6 4.9-5.9 4.9-9.9l-.1-7.6c-2.3 1.9-6.6 3.1-12.7 3.6l-2.4.1c-3.1.2-5.7 1.2-7.9 2.9-2.4 1.9-3.5 4.1-3.5 6.7zm48.9 15.3v-76.2h8.5v76.2h-8.5zm17.6-20.9h8.5c0 4 1.2 7.2 3.6 9.6 2.4 2.4 5.6 3.6 9.6 3.6 4.1 0 7.3-.8 9.8-2.2 2.4-1.5 3.6-3.5 3.6-5.9 0-3.3-1.7-6-5.1-7.9-2.8-1.6-6.5-2.6-11-3-4.8-.4-8.8-2.2-12-5.2-3.4-3.2-5.1-7-5.1-11.4 0-4.7 1.8-8.5 5.3-11.4 3.4-2.8 8-4.2 13.8-4.2 6.3 0 11.4 1.8 15.2 5.3 3.8 3.4 5.8 8 5.8 13.8h-8.5c0-3.4-1.1-6.2-3.4-8.3-2.3-2.1-5.3-3.1-9-3.1-3.2 0-5.7.7-7.6 2.1-1.9 1.5-2.9 3.5-2.9 5.9 0 2.9 1.5 5.1 4.6 6.6 2.3 1.3 5.6 2 9.7 2.4 5.2.4 9.6 2.2 13.2 5.3 3.8 3.3 5.7 7.2 5.7 11.9 0 5.2-1.9 9.3-5.7 12.4-3.8 3.1-8.9 4.6-15.2 4.6-6.9 0-12.4-1.9-16.5-5.6-4.3-4-6.4-9-6.4-15.3z"/></g><g id="Layer_9" class="st0"><path fill="#893533" d="M37.8 166.9h2943.3v732H37.8z"/><text transform="translate(296.05 816.893)" class="st4" font-size="896.528" font-family="Times-Roman">MTAP</text><path class="st4" d="M0 130.8v798.1h3020.1V130.8H0zm2744 573c0 54.5-44.6 99-99 99H298.8c-54.5 0-99-44.6-99-99V334.9c0-54.5 44.6-99 99-99H2645c54.5 0 99 44.6 99 99v368.9z"/></g></svg>