<svg id="Layer_8" data-name="Layer 8" xmlns="http://www.w3.org/2000/svg" viewBox="0 0 3044.07 1000"><defs><style>.cls-3{fill:#7b2c26}.cls-13{fill:#112156}</style></defs><path d="M944.13 489c-16.56-72.69-54.93-139-106.84-192.66 35.54 46 61.73 98.8 74.65 155.51 9.1 40 10.87 78.65 6.22 115-10.88 85.09-57.12 157-127.58 201-42.66 26.62-94.2 43-152.13 45.82-120.15 5.86-239.64-47.92-323.64-134.77 58.68 75.92 142.88 133.12 235 158.26a387.25 387.25 0 00120.84 13.65c57.93-2.82 109.46-19.19 152.13-45.81 100.5-62.81 151.78-182.43 121.35-316z" fill="#d16661"/><path d="M568.42 162.93a387.25 387.25 0 00-120.84-13.65c-57.92 2.82-109.46 19.19-152.13 45.81C194.94 257.81 143.66 377.43 174.1 511c16.55 72.72 54.9 139 106.83 192.69-35.54-46-61.73-98.8-74.65-155.51-9.1-40-10.87-78.65-6.22-115 10.89-85.09 57.13-157 127.58-201 42.67-26.62 94.2-43 152.13-45.82 120.15-5.86 239.65 47.92 323.65 134.77-58.69-75.86-142.89-133.06-235-158.2z" fill="#a43a33"/><path class="cls-3" d="M911.94 451.82c-12.94-56.71-39.11-109.53-74.65-155.51C753.57 188 617.93 117.74 481.46 124.4c-74.25 3.62-138 29.5-186 70.69 42.67-26.62 94.21-43 152.13-45.81a387.25 387.25 0 01120.84 13.65c92.11 25.14 176.31 82.34 235 158.26 35.54 46 61.73 98.8 74.64 155.51 26.8 117.63-9.76 224.4-87.48 291.06 70.46-44 116.7-115.89 127.58-201 4.64-36.29 2.83-74.98-6.23-114.94z"/><path class="cls-3" d="M670.64 850.72a387.25 387.25 0 01-120.84-13.65c-92.11-25.14-176.31-82.34-235-158.26-35.54-46-61.73-98.8-74.65-155.51-26.79-117.63 9.76-224.4 87.48-291.06-70.45 44-116.69 115.89-127.58 201-4.65 36.31-2.88 75 6.22 115 12.92 56.71 39.11 109.53 74.65 155.51C364.65 812 500.3 882.26 636.76 875.6c74.25-3.62 138-29.5 186-70.69-42.66 26.62-94.19 42.99-152.12 45.81z"/><path d="M540.37 772.55A11.35 11.35 0 01529 761.2V543.57a11.35 11.35 0 1122.69 0V761.2a11.35 11.35 0 01-11.32 11.35z" fill="#782b25"/><path d="M580.87 757.42a11.35 11.35 0 01-11.35-11.35v-283.5a11.35 11.35 0 1122.69 0v283.5a11.35 11.35 0 01-11.34 11.35z" fill="#b44038"/><path d="M621.37 752.88A11.35 11.35 0 01610 741.53V422.07a11.35 11.35 0 1122.69 0v319.46a11.35 11.35 0 01-11.32 11.35z" fill="#f1554b"/><path d="M661.87 716.91a11.35 11.35 0 01-11.35-11.34v-243a11.35 11.35 0 1122.69 0v243a11.34 11.34 0 01-11.34 11.34z" fill="#f3776f"/><path d="M682.1 757.42a11.36 11.36 0 01-9.72-17.19L733.13 639a11.35 11.35 0 0119.47 11.68l-60.75 101.23a11.36 11.36 0 01-9.75 5.51z" fill="#f69993"/><path class="cls-3" d="M560.62 271.41H343a11.35 11.35 0 010-22.69h217.62a11.35 11.35 0 010 22.69z"/><path d="M641.62 311.91H358.11a11.35 11.35 0 010-22.69h283.51a11.35 11.35 0 010 22.69z" fill="#a03a3a"/><path d="M682.12 352.41H362.65a11.35 11.35 0 010-22.69h319.47a11.35 11.35 0 010 22.69z" fill="#b74646"/><path d="M641.62 392.91h-243a11.35 11.35 0 010-22.69h243a11.35 11.35 0 010 22.69z" fill="#d15454"/><path d="M459.35 473.92a11.33 11.33 0 01-5.82-1.62l-101.25-60.75A11.35 11.35 0 11364 392.09l101.2 60.75a11.35 11.35 0 01-5.85 21.08z" fill="#ea6868"/><path class="cls-13" d="M2134.7 251.44h-408.41a18.91 18.91 0 100 37.82h185.29v406.43a18.92 18.92 0 0037.83 0V289.26h185.29a18.91 18.91 0 100-37.82z"/><path d="M2343.38 279.66c-77.52 0-140.59 63.07-140.59 140.59v60.84H2484v-60.84c0-77.52-63.1-140.59-140.62-140.59z" fill="none"/><path class="cls-13" d="M2343.38 241.83c-98.38 0-178.41 80-178.41 178.42v265.83a18.91 18.91 0 1037.82 0V518.91H2484v167.17a18.92 18.92 0 1037.83 0V420.25c-.03-98.38-80.07-178.42-178.45-178.42zm-140.59 239.26v-60.84c0-77.52 63.07-140.59 140.59-140.59S2484 342.73 2484 420.25v60.84zm497.5-239.26H2575v444.25a18.92 18.92 0 1037.83 0V279.66h87.42c77.52 0 140.58 63.07 140.58 140.59s-63.06 140.59-140.58 140.59a18.91 18.91 0 100 37.82c98.37 0 178.41-80 178.41-178.41s-80-178.42-178.37-178.42zm-1186.54-43.56a178.55 178.55 0 00-157.09 93.91c-28.37-61.06-90.27-103.51-161.91-103.51-98.38 0-178.41 80-178.41 178.41v319a18.91 18.91 0 1037.82 0v-319c0-77.52 63.07-140.59 140.59-140.59s140.59 63.07 140.59 140.59a17.91 17.91 0 00.16 2.34c-.1 2.41-.16 4.83-.16 7.26v53.17a18.92 18.92 0 0037.83 0v-53.17c0-77.52 63.06-140.59 140.58-140.59s140.59 63.07 140.59 140.59v319a18.92 18.92 0 0037.83 0v-319c0-98.38-80.04-178.41-178.42-178.41z"/><path class="cls-3" d="M1017 829.82v-76.15h11.9l23.8 60 23.79-60h11.9v76.15h-9.52v-57.11l-22.92 57.11h-6.64l-22.79-57.11v57.11zm84.37-67.63v-8.52h8.52v8.52zm0 67.63v-57.11h8.52v57.11zm18.41-28.55q0-13.41 6.76-21.42t18-8q9.89 0 16.41 5.77t7.26 15.15h-8.52a13.81 13.81 0 00-4.63-9.64 15.36 15.36 0 00-10.52-3.63 13.86 13.86 0 00-11.78 6q-4.5 5.87-4.5 15.74t4.5 15.86a13.88 13.88 0 0011.78 6 14.56 14.56 0 0010.39-3.88 15.76 15.76 0 004.76-10.4h8.52q-.88 9.9-7.39 15.81-6.39 6.12-16.28 6.11-11.28 0-18-8t-6.76-21.47zm57.36 28.55v-76.15h8.52v26.57a22.81 22.81 0 016.89-5.43 17.81 17.81 0 018.39-2.1 19.26 19.26 0 0119 19v38.07h-8.52v-38.13a9.75 9.75 0 00-3.51-7.53 11.9 11.9 0 00-8-2.89q-5.64 0-13.28 9.29l-1 1.13v38.17zm54.86-67.63v-8.52h8.52v8.52zm0 67.63v-57.11h8.52v57.11zm18.16-28.55a31 31 0 016.51-19.79q6.76-8.78 17.16-8.77a20.19 20.19 0 018.77 1.85 13.75 13.75 0 016.51 5.67v-5.76h8.52v55.35q0 8.52-7.36 13.91a29.35 29.35 0 01-31.59 1q-7-4.63-7.64-12.15h8.64a9.24 9.24 0 005.14 6.64 19 19 0 009 2 18.17 18.17 0 0010.52-3 9.61 9.61 0 004.76-8.4l-.1-7.64a13.77 13.77 0 01-6.49 5.77 19.85 19.85 0 01-8.75 1.87q-10.37 0-17.11-8.76a31.07 31.07 0 01-6.49-19.79zm8.52-.06a26.08 26.08 0 003.88 14.44q4.26 6.54 11.27 6.53t11.4-6.53a26.08 26.08 0 003.88-14.44 25.49 25.49 0 00-3.88-14.33q-4.38-6.52-11.4-6.53t-11.27 6.53a25.49 25.49 0 00-3.88 14.33zm48.22 13.33q0-7.26 6.63-12a29.42 29.42 0 0114.78-5 30 30 0 009.27-1.88c2.92-1.17 4.39-3.09 4.39-5.76a9.5 9.5 0 00-3.39-7.39 11.66 11.66 0 00-8-3 13.3 13.3 0 00-8.52 2.88 9.25 9.25 0 00-3.76 7.51v1.88h-8.64V788q0-7.26 6.51-11.9a24.21 24.21 0 0114.36-4.26 22.51 22.51 0 0113.85 4.39 14.19 14.19 0 016.11 11.77v28.56a5.26 5.26 0 001.76 4 5.45 5.45 0 004 1.62v7.64h-3.39a11 11 0 01-6.08-1.75 10 10 0 01-3.82-4.88 15.57 15.57 0 01-7.39 5.76 25.75 25.75 0 01-9.64 1.75q-8.64 0-13.77-4.38a14.53 14.53 0 01-5.26-11.78zm8.51 0a7.19 7.19 0 003.26 6 12.21 12.21 0 007.26 2.13 16.78 16.78 0 0011.15-3.89 12.08 12.08 0 004.89-9.89l-.1-7.64q-3.49 2.88-12.73 3.63l-2.37.13a14.45 14.45 0 00-7.86 2.88 8 8 0 00-3.5 6.65zm48.85 15.28v-55.23h8.52v5.76a14.31 14.31 0 016.63-5.89 23.15 23.15 0 019.11-1.75 20.2 20.2 0 0115.12 6.51 21.26 21.26 0 016.24 15.41v35.19h-8.52v-35.19a13.07 13.07 0 00-4.13-9.77 13.87 13.87 0 00-10-4 14.28 14.28 0 00-10.14 4 12.91 12.91 0 00-4.26 9.77v35.19zm84.29-67.63v-8.52h57.11v8.52h-23.92v67.63h-9.52v-67.63zm60.5 52.35q0-7.26 6.63-12a29.42 29.42 0 0114.78-5 30.1 30.1 0 009.27-1.88c2.92-1.17 4.39-3.09 4.39-5.76a9.5 9.5 0 00-3.39-7.39 11.66 11.66 0 00-8-3 13.3 13.3 0 00-8.52 2.88 9.25 9.25 0 00-3.76 7.51v1.88h-8.64V788q0-7.26 6.51-11.9a24.2 24.2 0 0114.35-4.26 22.52 22.52 0 0113.86 4.39 14.19 14.19 0 016.11 11.77v28.56a5.26 5.26 0 001.76 4 5.44 5.44 0 004 1.62v7.64h-3.4a11 11 0 01-6.08-1.75 10.08 10.08 0 01-3.83-4.88 15.49 15.49 0 01-7.38 5.76 25.75 25.75 0 01-9.64 1.75q-8.64 0-13.77-4.38a14.53 14.53 0 01-5.25-11.78zm8.51 0a7.19 7.19 0 003.26 6 12.21 12.21 0 007.26 2.13 16.78 16.78 0 0011.15-3.89 12.08 12.08 0 004.89-9.89l-.1-7.64q-3.49 2.88-12.73 3.63l-2.37.13a14.45 14.45 0 00-7.86 2.88 8 8 0 00-3.5 6.65zm43.59 15.28l19-28.55-19-27.56h9.52l14.15 19.92 14.4-19.92h9.52l-19 27.56 19 28.55h-9.52l-14.4-20.91-14.15 20.91zm83.04-19.03q0-5.89 4.38-11.9a39.46 39.46 0 0112.15-10.4 53 53 0 01-6.64-10.64 21.15 21.15 0 01-2.38-8.9 13.64 13.64 0 015.14-10.77 18.63 18.63 0 0112.52-4.51 15.87 15.87 0 0111.77 5 16.75 16.75 0 014.89 12.15 18.94 18.94 0 01-3.38 10.52 28 28 0 01-9.4 8.52L1685 805a38.18 38.18 0 001-9.52h8.52q0 12-3.26 17.66l12.77 16.65h-11.39l-7.14-8.51a21.65 21.65 0 01-8.27 6.89 25.34 25.34 0 01-11.27 2.5 21.92 21.92 0 01-15.41-5.89 18.18 18.18 0 01-6.36-13.99zm9.52-.88a11.17 11.17 0 003.88 8.64 13.2 13.2 0 009.39 3.63 14.43 14.43 0 007.39-2.12 19.06 19.06 0 006.39-6l-15.16-19a30.46 30.46 0 00-8.76 7.13q-3.13 3.97-3.13 7.72zm7.51-39.95a13.08 13.08 0 001.75 5.76 42.16 42.16 0 004.89 7.51 19.16 19.16 0 006.39-5.63 12.16 12.16 0 002.25-6.77 10.3 10.3 0 00-2-6.39 5.89 5.89 0 00-4.76-2.63 8.43 8.43 0 00-6 2.39 7.63 7.63 0 00-2.52 5.8zm76.65 59.86l24.8-76.15h12.27l24.8 76.15h-9.52l-7.64-22.82H1755l-7.64 22.79zm19.92-31.31h22l-11-32.94zm46.21 2.76q0-13.41 6.76-21.42t18-8q9.89 0 16.41 5.77t7.26 15.15H1844a13.77 13.77 0 00-4.63-9.64 15.36 15.36 0 00-10.52-3.63 13.83 13.83 0 00-11.77 6q-4.52 5.87-4.51 15.74t4.51 15.86a13.85 13.85 0 0011.77 6 14.56 14.56 0 0010.39-3.88 15.71 15.71 0 004.76-10.4h8.52q-.87 9.9-7.39 15.81-6.39 6.12-16.28 6.11-11.28 0-18-8t-6.85-21.47zm54.23 0q0-13.41 6.77-21.42t18-8q9.9 0 16.41 5.77t7.26 15.15h-8.51a13.82 13.82 0 00-4.64-9.64 15.34 15.34 0 00-10.52-3.63 13.83 13.83 0 00-11.77 6q-4.52 5.87-4.51 15.74t4.51 15.86a13.85 13.85 0 0011.77 6 14.59 14.59 0 0010.4-3.88 15.8 15.8 0 004.76-10.4h8.51q-.87 9.9-7.39 15.81-6.37 6.12-16.28 6.11-11.27 0-18-8t-6.77-21.47zm54.24 0q0-13.41 7-21.42t18.62-8q11.63 0 18.74 8t7 21.42q0 13.4-7 21.42t-18.74 8q-11.62 0-18.62-8t-7-21.42zm8.51-.06q0 9.85 4.64 15.86a16.09 16.09 0 0025.05 0q4.63-6 4.63-15.86t-4.63-15.74a16.09 16.09 0 00-25.05 0q-4.62 5.87-4.62 15.74zm51.6 6.79v-34.29h8.52V807a17.43 17.43 0 003.63 11.11 11.88 11.88 0 009.77 5 14.1 14.1 0 0010.78-4.75 16.16 16.16 0 004.38-11.36v-33.29h8.52v56.11h-8.52v-7.64a15.48 15.48 0 01-7.27 6.52 23.31 23.31 0 01-9.77 2 18 18 0 01-14.4-6.89 23.56 23.56 0 01-5.64-15.81zm58.62 21.82v-55.23h8.52v5.76a14.33 14.33 0 016.62-5.89 23.24 23.24 0 019.12-1.75 20.2 20.2 0 0115.12 6.51 21.26 21.26 0 016.24 15.41v35.19h-8.52v-35.19a13.07 13.07 0 00-4.13-9.77 13.87 13.87 0 00-10-4 14.28 14.28 0 00-10.14 4 12.91 12.91 0 00-4.26 9.77v35.19zm59.49-56.11v-16.28h8.52v16.28h8.64v7.64h-8.64v36.2a3.86 3.86 0 003.76 3.76h4.88v8.51h-7.64a9.41 9.41 0 01-9.52-9.51v-39h-7.64v-7.64zm25.55-11.52v-8.52h8.52v8.52zm0 67.63v-57.11h8.52v57.11zm21.42 0v-55.23h8.52v5.76a14.33 14.33 0 016.62-5.89 23.24 23.24 0 019.12-1.75 20.2 20.2 0 0115.12 6.51 21.26 21.26 0 016.24 15.41v35.19h-8.52v-35.19a13.07 13.07 0 00-4.13-9.77 13.89 13.89 0 00-10-4 14.31 14.31 0 00-10.15 4 12.93 12.93 0 00-4.25 9.77v35.19zm54.11-28.55a31 31 0 016.51-19.79q6.76-8.78 17.16-8.77a20.14 20.14 0 018.76 1.85 13.72 13.72 0 016.52 5.67v-5.76h8.52v55.35q0 8.52-7.37 13.91a26.76 26.76 0 01-16.48 5.13 27.1 27.1 0 01-15.11-4.13q-7-4.63-7.64-12.15h8.64a9.29 9.29 0 005.14 6.64 19 19 0 009 2 18.19 18.19 0 0010.52-3 9.63 9.63 0 004.76-8.4l-.1-7.64a13.85 13.85 0 01-6.5 5.77 19.82 19.82 0 01-8.75 1.87q-10.36 0-17.11-8.76a31.06 31.06 0 01-6.47-19.79zm8.51-.06a26.08 26.08 0 003.89 14.44q4.24 6.54 11.27 6.53t11.4-6.53a26.16 26.16 0 003.88-14.44 25.57 25.57 0 00-3.88-14.33q-4.4-6.52-11.4-6.53t-11.27 6.53a25.5 25.5 0 00-3.89 14.33zm84.54 28.61v-76.15h31.32q10.89 0 17.41 6.14t6.51 16.16q0 10.28-6.51 16.41t-17.41 6.13h-21.8v31.31zm9.52-39.82h21.8a14.73 14.73 0 0010.52-3.79 14 14 0 003.88-10.24 13.37 13.37 0 00-3.88-10 14.68 14.68 0 00-10.52-3.79h-21.8zm54.23 39.82v-56.11h8.52v9.9a15.16 15.16 0 016.76-8 19.31 19.31 0 0110.4-2.88h3.75v8.52h-3.76A15.63 15.63 0 002362 787a19.41 19.41 0 00-4.88 13.31v29.5zm33.7-28.55q0-13.41 7-21.42t18.62-8q11.61 0 18.74 8t7 21.42q0 13.4-7 21.42t-18.74 8q-11.62 0-18.62-8t-7-21.42zm8.51-.06q0 9.85 4.64 15.86a16.09 16.09 0 0025 0q4.62-6 4.63-15.86t-4.63-15.74a16.09 16.09 0 00-25 0q-4.63 5.87-4.64 15.74zm47.35-18.98v-8.52h7.64V769a14.93 14.93 0 014.38-10.77 14.72 14.72 0 0110.77-4.51h4.76v8.65h-3.76a7.63 7.63 0 00-5.26 1.88 5.79 5.79 0 00-2.38 4.75v4.76h11.4v8.52h-11.4v47.59h-8.51v-47.64zm32.06 19.04q0-13.41 6.51-21.42a22.64 22.64 0 0134.57 0q6.51 8 6.51 21.42v2.88h-39.07q0 8.58 4.13 13.69a13.69 13.69 0 0011.15 5.22 15.33 15.33 0 009.89-3.1 11.49 11.49 0 004.39-8.17h8.51a19.22 19.22 0 01-7 13.78q-6.14 5.13-15.78 5.13a21.17 21.17 0 01-17.29-8q-6.52-8.03-6.52-21.43zm8.52-4.76h30.43q-.63-7.77-4.76-12.4a14 14 0 00-20.79 0q-4.26 4.64-4.88 12.4zm44.46 12.4h8.52a12.84 12.84 0 003.63 9.55 13.1 13.1 0 009.64 3.6q6.14 0 9.77-2.25c2.42-1.5 3.63-3.45 3.63-5.87q0-5-5.13-7.87a28 28 0 00-11-3 19.47 19.47 0 01-12-5.25 15 15 0 01-5.13-11.37 13.85 13.85 0 015.26-11.37q5.13-4.25 13.78-4.25 9.51 0 15.15 5.26t5.76 13.78h-8.51a10.74 10.74 0 00-3.39-8.27 12.76 12.76 0 00-9-3.13 12.54 12.54 0 00-7.64 2.13 7.12 7.12 0 00-2.88 5.89c0 2.92 1.53 5.13 4.61 6.64a25.27 25.27 0 009.73 2.38 22.82 22.82 0 0113.23 5.26 15.78 15.78 0 01.06 24.3q-5.72 4.63-15.24 4.63-10.39 0-16.53-5.64t-6.32-15.15zm49.1 0h8.51a12.84 12.84 0 003.63 9.55 13.12 13.12 0 009.65 3.6q6.14 0 9.77-2.25c2.42-1.5 3.63-3.45 3.63-5.87q0-5-5.13-7.87a28.05 28.05 0 00-11-3 19.44 19.44 0 01-12-5.25 15 15 0 01-5.13-11.37 13.85 13.85 0 015.26-11.37q5.13-4.25 13.77-4.25 9.53 0 15.16 5.26t5.76 13.78h-8.52a10.73 10.73 0 00-3.38-8.27 12.77 12.77 0 00-9-3.13 12.56 12.56 0 00-7.64 2.13 7.14 7.14 0 00-2.88 5.89q0 4.38 4.62 6.64a25.27 25.27 0 009.73 2.38 22.82 22.82 0 0113.23 5.26 15.78 15.78 0 01.06 24.3q-5.72 4.63-15.24 4.63-10.39 0-16.53-5.64t-6.33-15.15zm53.1-46.72v-8.52h8.52v8.52zm0 67.63v-57.11h8.52v57.11zm18.41-28.55q0-13.41 7-21.42t18.62-8q11.61 0 18.74 8t7 21.42q0 13.4-7 21.42t-18.74 8q-11.62 0-18.62-8t-7-21.42zm8.52-.06q0 9.85 4.63 15.86a16.09 16.09 0 0025.05 0q4.64-6 4.64-15.86t-4.62-15.74a16.09 16.09 0 00-25.05 0q-4.65 5.87-4.65 15.74zm52.7 28.61v-55.23h8.52v5.76a14.33 14.33 0 016.62-5.89 23.24 23.24 0 019.12-1.75 20.16 20.16 0 0115.11 6.51 21.23 21.23 0 016.25 15.41v35.19h-8.52v-35.19a13.11 13.11 0 00-4.13-9.77 13.89 13.89 0 00-10-4 14.31 14.31 0 00-10.15 4 12.9 12.9 0 00-4.25 9.77v35.19zm53.76-15.28q0-7.26 6.64-12a29.39 29.39 0 0114.78-5 30.1 30.1 0 009.27-1.88q4.38-1.75 4.38-5.76a9.52 9.52 0 00-3.38-7.39 11.7 11.7 0 00-8-3 13.32 13.32 0 00-8.52 2.88 9.24 9.24 0 00-3.75 7.51v1.88h-8.64V788q0-7.26 6.51-11.9a24.16 24.16 0 0114.35-4.26 22.51 22.51 0 0113.85 4.39 14.18 14.18 0 016.12 11.77v28.56a5.25 5.25 0 001.75 4 5.45 5.45 0 004 1.62v7.64h-3.38a11 11 0 01-6.09-1.75 10.06 10.06 0 01-3.82-4.88 15.57 15.57 0 01-7.39 5.76 25.68 25.68 0 01-9.64 1.75q-8.64 0-13.77-4.38a14.53 14.53 0 01-5.27-11.78zm8.52 0a7.18 7.18 0 003.25 6 12.27 12.27 0 007.27 2.13 16.75 16.75 0 0011.14-3.89 12.08 12.08 0 004.89-9.89l-.1-7.64q-3.49 2.88-12.73 3.63l-2.37.13a14.45 14.45 0 00-7.86 2.88 8 8 0 00-3.49 6.65zm48.97 15.28v-76.15h8.52v76.15zm17.53-20.91h8.52a12.84 12.84 0 003.63 9.55 13.11 13.11 0 009.65 3.6q6.14 0 9.77-2.25c2.42-1.5 3.63-3.45 3.63-5.87q0-5-5.14-7.87a28 28 0 00-11-3 19.42 19.42 0 01-12-5.25 14.94 14.94 0 01-5.14-11.37 13.85 13.85 0 015.26-11.37q5.13-4.25 13.78-4.25 9.51 0 15.15 5.26t5.76 13.78h-8.51a10.76 10.76 0 00-3.38-8.27 12.79 12.79 0 00-9-3.13 12.54 12.54 0 00-7.64 2.13 7.14 7.14 0 00-2.88 5.89q0 4.38 4.61 6.64a25.33 25.33 0 009.74 2.38 22.79 22.79 0 0113.22 5.26 15.05 15.05 0 015.74 11.9 15.21 15.21 0 01-5.67 12.4q-5.73 4.63-15.24 4.63-10.39 0-16.54-5.64t-6.32-15.15z"/></svg>